<?xml version="1.0" encoding="UTF-8"?>
<svg version="1.1" xmlns="http://www.w3.org/2000/svg" width="839" height="839">
<path d="M0 0 C0.33 0.33 0.66 0.66 1 1 C2.77156084 1.29561459 4.54416001 1.58599597 6.32080078 1.84936523 C13.35717422 2.91072193 19.96416342 4.4106477 26.625 6.9375 C27.26252197 7.17815186 27.90004395 7.41880371 28.55688477 7.66674805 C31.72712926 8.92242659 34.70796417 10.35337821 37.6484375 12.06640625 C40.77147249 13.99111647 40.77147249 13.99111647 43.4375 14.91015625 C47.31147048 16.55777479 50.57371833 19.01318447 54 21.4375 C55.39486921 22.41673936 56.79068074 23.39463802 58.1875 24.37109375 C58.84411621 24.8302417 59.50073242 25.28938965 60.17724609 25.76245117 C61.7001968 26.79645025 63.27118525 27.75922845 64.8515625 28.703125 C67.68558195 30.41384219 69.68884676 32.6338193 72 35 C73.15907006 35.98814729 74.32617085 36.96693131 75.5 37.9375 C78.77318775 40.70058057 81.30882312 43.67143912 84 47 C84.886875 47.86625 85.77375 48.7325 86.6875 49.625 C88.7395395 51.73250003 89.90351048 53.30861664 91 56 C91.66 56 92.32 56 93 56 C94.35759933 57.67789874 95.63711805 59.41943088 96.875 61.1875 C99.77921207 65.3161339 99.77921207 65.3161339 102.88671875 69.29052734 C110.84862027 79.49861226 115.06375215 90.86295772 118.875 103.0625 C119.58219472 105.27187886 120.29376615 107.47981246 121.00588989 109.68760681 C121.44167969 111.04423176 121.87379726 112.40204421 122.30148315 113.76124573 C123.39956741 117.23837972 124.59572991 120.63448347 126 124 C126.54527344 123.73445313 127.09054687 123.46890625 127.65234375 123.1953125 C144.40045156 115.35089961 159.63488256 118.43833661 176.75390625 124.28125 C193.39939881 130.37534737 207.75707599 140.22341007 220 153 C220.886875 153.86625 221.77375 154.7325 222.6875 155.625 C229 162.10810811 229 162.10810811 229 165 C229.66 165 230.32 165 231 165 C231.51046875 165.94746094 231.51046875 165.94746094 232.03125 166.9140625 C234.87498821 172.16287717 237.79020265 177.3517981 240.8125 182.5 C253.498574 204.43958971 266.19864961 230.17900256 266.1328125 255.93359375 C266.13376923 256.77036148 266.13472595 257.60712921 266.13571167 258.46925354 C266.13638879 260.22991003 266.13456735 261.99056908 266.13037109 263.7512207 C266.12502299 266.42600188 266.13032858 269.10061465 266.13671875 271.77539062 C266.13605775 273.49479203 266.13477615 275.21419334 266.1328125 276.93359375 C266.13483673 277.72342148 266.13686096 278.51324921 266.13894653 279.32701111 C266.11825201 284.30087124 265.70529315 289.07520477 265 294 C265.55042969 293.855625 266.10085938 293.71125 266.66796875 293.5625 C285.09478143 289.44860694 302.54551223 291.05426766 318.671875 300.8671875 C327.35376474 306.43093374 327.35376474 306.43093374 331 310 C331 310.66 331 311.32 331 312 C331.99 312.33 332.98 312.66 334 313 C341.56185592 321.54740587 348 334.41161721 348 346 C348.57105469 345.97679687 349.14210938 345.95359375 349.73046875 345.9296875 C359.98782331 345.7013839 370.92048553 345.91907721 379 353 C380.42041821 355.84083641 380.31452272 357.85477278 380 361 C373.97417145 369.53659045 361.11060115 371.12613607 351.61914062 372.79443359 C336.67351609 375.21158479 321.91230321 375.3001527 306.80987549 375.11178589 C299.72769762 375.0240186 292.64514186 374.99846503 285.5625 374.9765625 C284.87365345 374.97409201 284.1848069 374.97162151 283.47508621 374.96907616 C264.87614382 374.91150372 246.49645288 376.07576806 228 378 C227.67 379.65 227.34 381.3 227 383 C226.34 383 225.68 383 225 383 C224.76410156 383.57878906 224.52820313 384.15757812 224.28515625 384.75390625 C219.14955693 393.72949776 206.8324213 399.2746315 197.375 402.25 C175.82446862 407.91997938 147.55726406 405.14060112 128 394 C124.55729715 391.800633 121.25899926 389.46183397 118 387 C116.453125 385.8553125 116.453125 385.8553125 114.875 384.6875 C114.25625 384.130625 113.6375 383.57375 113 383 C113 382.34 113 381.68 113 381 C111.68 381 110.36 381 109 381 C108.01 381 107.02 381 106 381 C106 381.66 106 382.32 106 383 C88.16035635 387.20935412 88.16035635 387.20935412 80 385 C80.01160156 386.07894531 80.02320313 387.15789062 80.03515625 388.26953125 C80.43990309 441.82297482 80.43990309 441.82297482 63 463 C62.34 463 61.68 463 61 463 C60.814375 463.598125 60.62875 464.19625 60.4375 464.8125 C58.30879654 468.05183135 55.65871676 469.1619699 52 470 C42.78039231 470.57519834 31.45996079 467.05577121 24.125 461.5 C7.97578595 445.5143223 7.40274757 422.5022783 5.875 401.3125 C5.74327393 399.49588867 5.74327393 399.49588867 5.60888672 397.64257812 C4.18288593 376.4513422 4.18288593 376.4513422 6 371 C4.99839844 371.01160156 3.99679687 371.02320313 2.96484375 371.03515625 C1.62239772 371.04454398 0.27994964 371.05364312 -1.0625 371.0625 C-3.02896484 371.07990234 -3.02896484 371.07990234 -5.03515625 371.09765625 C-8.77889668 371.00544589 -12.30300361 370.56144612 -16 370 C-15.97101624 370.54534393 -15.94203247 371.09068787 -15.91217041 371.65255737 C-15.20828062 385.17895534 -14.78729622 398.68150993 -14.75976562 412.2265625 C-14.74988502 415.15912476 -14.71860274 418.09103274 -14.6875 421.0234375 C-14.61014011 434.69001609 -15.45838368 446.19573098 -23 458 C-23.66 458 -24.32 458 -25 458 C-25.66 459.32 -26.32 460.64 -27 462 C-27.66 462 -28.32 462 -29 462 C-29 462.66 -29 463.32 -29 464 C-30.39077301 464.82113177 -31.78788893 465.63152495 -33.1875 466.4375 C-33.96480469 466.88996094 -34.74210937 467.34242188 -35.54296875 467.80859375 C-42.78905749 471.32219799 -52.76184024 471.11672424 -60.546875 469.45703125 C-67.75295704 466.48242762 -70.61985665 459.23103328 -73.51171875 452.4609375 C-75.52796914 446.91641115 -76.48645149 441.17128124 -77.5 435.375 C-77.71430664 434.15804443 -77.92861328 432.94108887 -78.14941406 431.68725586 C-81.6614388 410.94485636 -83.26358791 390.00787573 -84 369 C-85.15000488 369.03029297 -86.30000977 369.06058594 -87.48486328 369.09179688 C-91.7675577 369.20440247 -96.05027848 369.31597688 -100.33300781 369.42724609 C-102.18360106 369.47546897 -104.03418713 369.52396831 -105.88476562 369.57275391 C-108.55076265 369.64298716 -111.21678426 369.71221323 -113.8828125 369.78125 C-115.11597702 369.81406067 -115.11597702 369.81406067 -116.37405396 369.84753418 C-120.58415521 369.95554819 -124.78803518 370.023696 -129 370 C-129.66 371.65 -130.32 373.3 -131 375 C-131.66 375 -132.32 375 -133 375 C-133 375.66 -133 376.32 -133 377 C-143.87179488 386.52202351 -158.16506717 392.73138846 -172.6875 391.8125 C-185.27090489 390.17736829 -194.26841191 383.04570041 -202.0625 373.1875 C-208 364.99085366 -208 364.99085366 -208 362 C-208.58769165 362.00444122 -209.1753833 362.00888245 -209.78088379 362.01345825 C-247.40613959 362.28409479 -284.77626473 362.01362581 -322.21777344 358.03588867 C-331.35541342 357.08167221 -340.44891082 356.57075807 -349.63647461 356.46655273 C-358.70855253 356.27205545 -368.99336184 355.2690973 -376 349 C-378.29030839 345.41516947 -378.28595423 342.16510447 -377.59375 337.98828125 C-376.14186315 333.12637069 -372.84125463 330.24392424 -368.5625 327.875 C-362.05521522 324.90807705 -354.18208067 322 -347 322 C-346.773125 320.7625 -346.54625 319.525 -346.3125 318.25 C-341.40222933 296.64480905 -324.87381646 278.99958499 -306.93359375 266.796875 C-293.61555491 258.63935454 -280.93375522 252.79570455 -265 254 C-264.34 254.33 -263.68 254.66 -263 255 C-262.97421875 253.97003906 -262.9484375 252.94007813 -262.921875 251.87890625 C-262.00218851 225.93698032 -252.84900242 203.64766949 -237.8203125 182.58203125 C-236.02073525 180.16634926 -236.02073525 180.16634926 -235 178 C-234.34 178 -233.68 178 -233 178 C-233 177.34 -233 176.68 -233 176 C-232.34 176 -231.68 176 -231 176 C-231 175.34 -231 174.68 -231 174 C-230.34 174 -229.68 174 -229 174 C-228.773125 173.443125 -228.54625 172.88625 -228.3125 172.3125 C-226.62449964 169.33840412 -224.53323483 167.27991135 -222 165 C-221.34 165 -220.68 165 -220 165 C-220 164.34 -220 163.68 -220 163 C-217.70405154 161.18644497 -215.41534624 159.51716883 -213 157.875 C-211.92480103 157.14011353 -211.92480103 157.14011353 -210.82788086 156.39038086 C-203.55231731 151.52757102 -195.93174952 147.66483476 -188 144 C-187.14792969 143.60296875 -186.29585937 143.2059375 -185.41796875 142.796875 C-183.29119673 141.83120554 -181.15173097 140.90859311 -179 140 C-178.02289063 139.57847656 -177.04578125 139.15695312 -176.0390625 138.72265625 C-167.47805469 135.07630107 -160.35628659 132.61811075 -151 133 C-151.33773437 132.16597656 -151.67546875 131.33195313 -152.0234375 130.47265625 C-152.46945312 129.34730469 -152.91546875 128.22195313 -153.375 127.0625 C-154.03628906 125.40927734 -154.03628906 125.40927734 -154.7109375 123.72265625 C-157.34569794 116.11378747 -158.39000877 108.9799471 -158.375 100.9375 C-158.37338867 100.02572998 -158.37177734 99.11395996 -158.37011719 98.17456055 C-158.09483151 82.74371876 -153.29226372 66.47818271 -144 54 C-143.34 54 -142.68 54 -142 54 C-141.79375 53.34 -141.5875 52.68 -141.375 52 C-139.50875748 47.92819814 -137.02438473 44.31203002 -134 41 C-133.34 41 -132.68 41 -132 41 C-132 40.34 -132 39.68 -132 39 C-130.28667246 37.41466298 -128.50310953 35.90458785 -126.6875 34.4375 C-125.70136719 33.63183594 -124.71523438 32.82617188 -123.69921875 31.99609375 C-121 30 -121 30 -118 29 C-118 28.34 -118 27.68 -118 27 C-116.54462432 26.16151196 -115.08559627 25.32936066 -113.625 24.5 C-112.81289063 24.0359375 -112.00078125 23.571875 -111.1640625 23.09375 C-109 22 -109 22 -107 22 C-107 21.34 -107 20.68 -107 20 C-92.49678733 12.95677316 -77.72835218 6.75907239 -62 3 C-61.24605957 2.81663086 -60.49211914 2.63326172 -59.71533203 2.44433594 C-40.47906999 -2.06613058 -19.58526404 -2.96373114 0 0 Z " fill="#8B809B" transform="translate(424,159)"/>
<path d="M0 0 C3.48035272 1.08010946 5.05206029 2.74030089 7.15234375 5.66796875 C12.6072084 22.21372056 14.72426342 46.54056892 8.5546875 63.1171875 C6.27861716 67.25722631 3.38650671 70.49963576 -0.84765625 72.66796875 C-3.84261767 73.10636834 -5.21466731 73.12393536 -7.69140625 71.33984375 C-14.55565244 63.37472789 -18.60106235 54.22218785 -18.84765625 43.66796875 C-18.89792969 42.59289062 -18.94820313 41.5178125 -19 40.41015625 C-19.19171347 33.18639261 -18.71153009 26.29720219 -17.59765625 19.16796875 C-17.4884082 18.42683838 -17.37916016 17.68570801 -17.26660156 16.92211914 C-16.18660715 10.65120667 -13.89464525 6.00738475 -9.66015625 1.16796875 C-6.1192332 -0.72052354 -3.90247904 -0.65582426 0 0 Z " fill="#FCFCFC" transform="translate(365.84765625,367.33203125)"/>
<path d="M0 0 C4.78366227 1.14807894 8.25558654 3.76254932 11.125 7.75 C14.03508427 15.30666044 13.42192334 23.73790347 13.375 31.6875 C13.38273437 32.99396484 13.39046875 34.30042969 13.3984375 35.64648438 C13.37660069 46.49391866 12.93557775 56.83228217 6.125 65.75 C1.90710613 68.77588038 -1.7387027 69.59048501 -6.875 68.75 C-13.17734132 63.32705514 -15.48225654 54.73579359 -16.875 46.75 C-17.13901039 42.87760491 -17.15187741 39.005487 -17.1875 35.125 C-17.21650391 34.09503906 -17.24550781 33.06507813 -17.27539062 32.00390625 C-17.35984655 21.67429745 -14.71008539 11.98293212 -7.5 4.28125 C-5.1384272 2.0672755 -3.13260774 0.81720202 0 0 Z " fill="#FCFCFD" transform="translate(466.875,372.25)"/>
<path d="M0 0 C4.71538336 0.11300483 8.03993036 0.30548153 11.9375 3.125 C15.26180821 7.75888417 16.34318537 12.33744138 16 18 C14.99438103 16.01534229 14.01397706 14.03125003 13.10546875 12 C11.07575343 7.57781172 9.27921228 4.60927578 5 2 C2.31492671 1.21053391 2.31492671 1.21053391 0 1 C0 0.67 0 0.34 0 0 Z " fill="#C3BDCC" transform="translate(359,367)"/>
<path d="M0 0 C2.97 0.33 5.94 0.66 9 1 C9.66 2.65 10.32 4.3 11 6 C10.113125 5.360625 9.22625 4.72125 8.3125 4.0625 C5.30788572 2.19170243 3.4489629 1.40576034 0 1 C0 0.67 0 0.34 0 0 Z " fill="#CDC8D4" transform="translate(359,367)"/>
</svg>
