<?xml version="1.0" encoding="UTF-8"?>
<svg version="1.1" xmlns="http://www.w3.org/2000/svg" width="839" height="839">
<path d="M0 0 C1.05525879 0.08910645 2.11051758 0.17821289 3.19775391 0.27001953 C28.71040738 2.52517909 54.48409509 7.29567845 77.91967773 18.04589844 C79.7898314 18.90361004 81.68287166 19.7109949 83.578125 20.51171875 C87.36853331 22.16028675 91.05924108 23.95408058 94.75 25.8125 C95.79607422 26.33807495 95.79607422 26.33807495 96.86328125 26.87426758 C110.76108474 33.89195449 123.42512612 41.86308425 136 51 C136.79921875 51.55429688 137.5984375 52.10859375 138.421875 52.6796875 C138.94265625 53.11539063 139.4634375 53.55109375 140 54 C140 54.66 140 55.32 140 56 C141.32 56.66 142.64 57.32 144 58 C144 58.66 144 59.32 144 60 C144.721875 60.226875 145.44375 60.45375 146.1875 60.6875 C149.56582327 62.26405086 151.43796738 64.30986575 154 67 C154.804375 67.61875 155.60875 68.2375 156.4375 68.875 C159.16628071 71.13789132 161.28123572 73.57498286 163.54296875 76.2890625 C165.08854912 78.15013236 165.08854912 78.15013236 167.3125 80.3125 C175.05273391 88.05273391 181.59825504 96.31230482 187.80615234 105.29125977 C189.05449896 107.07800373 190.33506421 108.83894164 191.6171875 110.6015625 C193.59537819 113.36573074 195.29504252 116.17249239 196.875 119.1875 C198.9097191 123.01877769 201.04945442 126.73718529 203.3125 130.4375 C206.4996482 135.86062076 209.16193978 141.45623037 211.75 147.1875 C212.12680908 148.01886475 212.50361816 148.85022949 212.8918457 149.70678711 C215.26459677 155.05197225 217.23027333 160.42966445 219 166 C219.56023339 167.68651862 220.12147105 169.3727039 220.68359375 171.05859375 C234.99662332 214.6431404 238.02902733 262.22833102 227 307 C226.76095947 308.01102783 226.52191895 309.02205566 226.27563477 310.0637207 C224.56132315 317.18510934 222.4555675 324.12028832 220.125 331.0625 C219.79886719 332.06087891 219.47273438 333.05925781 219.13671875 334.08789062 C216.84736231 340.95150595 214.08711656 347.46106279 211 354 C210.3570607 355.42083003 209.71624885 356.84262575 209.078125 358.265625 C202.22600566 373.30067779 193.75136011 386.69681999 184 400 C183.55849609 400.64710938 183.11699219 401.29421875 182.66210938 401.9609375 C181.4878089 403.67338739 180.248524 405.34088757 179 407 C178.34 407 177.68 407 177 407 C176.70802734 408.01320313 176.70802734 408.01320313 176.41015625 409.046875 C174.44980261 413.15221393 171.57641645 415.99735171 168.4375 419.25 C167.80416748 419.91531738 167.17083496 420.58063477 166.51831055 421.26611328 C164.68629183 423.18470428 162.8441189 425.09304911 161 427 C159.74316406 428.31871094 159.74316406 428.31871094 158.4609375 429.6640625 C145.13421231 443.37847424 145.13421231 443.37847424 137 447 C137 447.66 137 448.32 137 449 C134.96633799 450.54236738 132.93877684 451.97124441 130.8125 453.375 C129.65113083 454.15183557 128.49095784 454.93046264 127.33203125 455.7109375 C126.75662598 456.09733398 126.1812207 456.48373047 125.58837891 456.88183594 C123.84468039 458.07214122 123.84468039 458.07214122 121.76171875 459.9140625 C117.47829682 463.14934865 112.73506908 465.49167188 108 468 C106.23391161 468.96399529 104.46827747 469.9288233 102.703125 470.89453125 C57.71133052 495.14740732 4.1532284 507.11926375 -47 500 C-47.66 499.67 -48.32 499.34 -49 499 C-50.65414366 498.82271223 -52.31287585 498.68714006 -53.97265625 498.57421875 C-59.59798229 498.10094071 -64.94851547 497.10491321 -70.4375 495.8125 C-71.38197998 495.59255371 -72.32645996 495.37260742 -73.29956055 495.14599609 C-93.53030303 490.33003654 -112.57438068 483.69015731 -131 474 C-132.19253024 473.38767387 -133.38524808 472.77571299 -134.578125 472.1640625 C-146.18626371 466.15611722 -157.25519755 459.53182993 -167.3515625 451.1796875 C-169.4095103 449.48597825 -171.48274272 447.83137549 -173.5859375 446.1953125 C-174.21242188 445.70788574 -174.83890625 445.22045898 -175.484375 444.71826172 C-176.71493903 443.76260417 -177.94665197 442.8084236 -179.1796875 441.85595703 C-182.31693034 439.40944237 -185.36237833 436.98843835 -188 434 C-188 433.34 -188 432.68 -188 432 C-188.86625 431.62875 -188.86625 431.62875 -189.75 431.25 C-192.32939979 429.81700012 -194.06121592 428.21575324 -196 426 C-196 425.34 -196 424.68 -196 424 C-196.61875 423.7525 -197.2375 423.505 -197.875 423.25 C-200.38710296 421.77229238 -200.76107344 420.56044823 -202 418 C-202.99 417.67 -203.98 417.34 -205 417 C-206.2890625 415.5390625 -206.2890625 415.5390625 -207.625 413.625 C-210.90169558 409.05248274 -214.49538875 404.79435155 -218.14453125 400.515625 C-219.85104792 398.20194766 -220.60061131 396.80226817 -221 394 C-221.66 394 -222.32 394 -223 394 C-224.42578125 391.83984375 -224.42578125 391.83984375 -226 389 C-226.50917969 388.13503906 -227.01835937 387.27007813 -227.54296875 386.37890625 C-228.71219926 384.37649486 -229.87856666 382.37241047 -231.04296875 380.3671875 C-232.35029434 378.11785684 -233.66544559 375.87305678 -234.98828125 373.6328125 C-241.51744507 362.45082709 -247.22576865 351.1524372 -251.10546875 338.75390625 C-251.95331876 336.143713 -252.93530668 333.6531328 -254 331.125 C-267.44238793 297.7020977 -269.95424348 257.58859375 -265.26464844 222.07714844 C-265.02458645 220.1929719 -264.82629358 218.3035905 -264.6328125 216.4140625 C-263.7308253 208.22254611 -262.02874233 200.32437719 -260.125 192.3125 C-259.75810059 190.76260376 -259.75810059 190.76260376 -259.38378906 189.18139648 C-257.00730659 179.47227582 -254.0539374 170.01839143 -250 160.875 C-248.31706786 157.04674596 -246.69632804 153.2353237 -245.25 149.3125 C-240.38595896 136.94629396 -233.45306973 124.43482843 -226 113.4375 C-224.34611334 110.99369733 -222.71290423 108.55021663 -221.125 106.0625 C-218.52542218 102.31604962 -215.68277745 98.80469457 -212.8046875 95.26953125 C-210.89405672 92.93175446 -210.89405672 92.93175446 -209 90 C-208.34 90 -207.68 90 -207 90 C-206.731875 89.4225 -206.46375 88.845 -206.1875 88.25 C-204.97070811 85.94449957 -203.69666121 83.97943808 -202 82 C-201.34 82 -200.68 82 -200 82 C-199.61328125 81.12601563 -199.61328125 81.12601563 -199.21875 80.234375 C-197.90165983 77.8197097 -196.44911616 76.18259823 -194.5 74.25 C-193.8915625 73.63640625 -193.283125 73.0228125 -192.65625 72.390625 C-191 71 -191 71 -189 71 C-188.61328125 70.11054688 -188.61328125 70.11054688 -188.21875 69.203125 C-186.04953712 65.28185557 -182.42127599 62.81650499 -179 60 C-178.25492187 59.37996094 -177.50984375 58.75992188 -176.7421875 58.12109375 C-138.75948851 27.0956218 -93.22333548 6.24199297 -44.18261719 1.23095703 C-41.80845529 0.9797314 -39.44018436 0.69114042 -37.0703125 0.40234375 C-24.55853436 -1.04923408 -12.54012835 -1.08137264 0 0 Z " fill="#B7ABC8" transform="translate(436,169)"/>
<path d="M0 0 C4.91635844 3.80088216 4.91635844 3.80088216 7.0390625 5.84375 C7.0390625 6.50375 7.0390625 7.16375 7.0390625 7.84375 C8.0290625 8.17375 9.0190625 8.50375 10.0390625 8.84375 C11.76513503 10.80971736 13.350222 12.75551838 14.9140625 14.84375 C15.36023926 15.43607422 15.80641602 16.02839844 16.26611328 16.63867188 C22.71141399 25.32038588 29.0390625 35.66877937 29.0390625 46.84375 C30.0084375 46.34875 30.9778125 45.85375 31.9765625 45.34375 C41.63969159 41.30456204 50.49880992 45.20827044 59.67578125 48.90625 C73.19679732 55.01936245 81.57161565 66.37803508 88.1640625 79.21875 C88.81362915 80.47220215 88.81362915 80.47220215 89.47631836 81.75097656 C95.69096923 93.87102122 98.21794942 103.47795368 98.1640625 117.15625 C98.16792969 118.15720703 98.17179687 119.15816406 98.17578125 120.18945312 C98.17384766 121.6212793 98.17384766 121.6212793 98.171875 123.08203125 C98.17074707 123.94868408 98.16961914 124.81533691 98.16845703 125.70825195 C98.0390625 127.84375 98.0390625 127.84375 97.0390625 129.84375 C97.8228125 129.67875 98.6065625 129.51375 99.4140625 129.34375 C109.8894779 127.89886512 118.1086452 128.97404058 126.89453125 135.140625 C132.34753721 139.4712454 135.84008661 144.24682234 138.0390625 150.84375 C138.2265625 153.78125 138.2265625 153.78125 138.0390625 155.84375 C138.60753906 155.80894531 139.17601562 155.77414062 139.76171875 155.73828125 C145.37626476 155.54144408 149.03561255 156.28879683 154.0390625 158.84375 C153.8515625 160.65625 153.8515625 160.65625 153.0390625 162.84375 C140.75315173 171.31390929 123.72521656 169.35974995 109.5390625 169.46875 C106.11129691 169.50535908 102.68364175 169.5459947 99.25598145 169.59140015 C97.1358494 169.61843065 95.01563652 169.63986556 92.89538574 169.65493774 C91.93668579 169.66519989 90.97798584 169.67546204 89.99023438 169.68603516 C89.15230347 169.69253082 88.31437256 169.69902649 87.4510498 169.70571899 C84.85711815 169.85416214 82.54127024 170.13196935 80.0390625 170.84375 C78.88864475 172.28998946 77.74167845 173.73944292 76.62890625 175.21484375 C72.39896628 179.54871345 65.06814822 182.67236752 59.0703125 183.01171875 C47.03194282 183.07830265 35.07029035 182.75137663 25.9765625 173.96875 C25.0071875 173.2675 24.0378125 172.56625 23.0390625 171.84375 C19.61902509 172.47474646 19.61902509 172.47474646 16.0390625 173.84375 C13.03024005 174.0312006 10.04995385 173.96664352 7.0390625 173.84375 C7.06226563 174.94332031 7.08546875 176.04289063 7.109375 177.17578125 C7.31445205 190.78179545 7.06076656 202.65176193 -2.2109375 213.46875 C-6.31234346 215.51945298 -9.59621046 214.9079414 -13.9609375 213.84375 C-19.18085298 211.97245955 -21.31448846 209.68036375 -23.9609375 204.84375 C-29.5715008 192.79142883 -28.08332096 178.84359345 -27.9609375 165.84375 C-31.9209375 165.84375 -35.8809375 165.84375 -39.9609375 165.84375 C-39.93737183 167.47787842 -39.93737183 167.47787842 -39.91333008 169.14501953 C-39.85884772 173.20402575 -39.82452111 177.2629999 -39.79614258 181.32226562 C-39.78109755 183.07590173 -39.76065646 184.82950047 -39.73461914 186.58300781 C-39.69804629 189.11012009 -39.6811683 191.63673296 -39.66796875 194.1640625 C-39.65248489 194.94242462 -39.63700104 195.72078674 -39.62104797 196.5227356 C-39.61935753 202.04568829 -40.60439964 206.2601499 -44.4609375 210.48828125 C-49.25186407 214.21871626 -52.77526459 215.29389407 -58.7421875 215.16796875 C-60.9609375 214.84375 -60.9609375 214.84375 -63.8359375 213.03125 C-68.80825746 205.57277006 -69.40726301 196.54439776 -70.6484375 187.84375 C-70.78008301 186.93052979 -70.91172852 186.01730957 -71.04736328 185.07641602 C-71.16708496 184.17463623 -71.28680664 183.27285645 -71.41015625 182.34375 C-71.51674561 181.5496875 -71.62333496 180.755625 -71.7331543 179.9375 C-72.07815863 175.25165343 -71.9609375 170.5422802 -71.9609375 165.84375 C-79.5509375 165.84375 -87.1409375 165.84375 -94.9609375 165.84375 C-95.6209375 167.16375 -96.2809375 168.48375 -96.9609375 169.84375 C-102.52126502 174.37717019 -108.62017635 177.11524308 -115.8359375 176.90625 C-123.05732919 176.00357604 -126.84640775 171.22259597 -131.4609375 166.03125 C-132.9609375 163.84375 -132.9609375 163.84375 -132.9609375 161.84375 C-134.06937012 161.86731567 -134.06937012 161.86731567 -135.20019531 161.89135742 C-153.07875251 162.21323664 -170.80665075 161.67377447 -188.6484375 160.46875 C-189.62276733 160.40553558 -190.59709717 160.34232117 -191.60095215 160.27719116 C-194.39234449 160.09343539 -197.18250565 159.89696897 -199.97265625 159.6953125 C-200.80784286 159.63999863 -201.64302948 159.58468475 -202.50352478 159.5276947 C-207.73000632 159.12548599 -212.09596276 158.70872474 -215.9609375 154.84375 C-215.81870387 151.50125962 -215.634087 149.54183096 -213.2734375 147.09375 C-209.09585853 144.8355992 -205.72426802 143.84375 -200.9609375 143.84375 C-200.81398438 143.2146875 -200.66703125 142.585625 -200.515625 141.9375 C-198.80466332 135.40831289 -196.40630812 130.89242091 -191.9609375 125.84375 C-191.48140625 125.25980469 -191.001875 124.67585937 -190.5078125 124.07421875 C-184.72231468 117.60205831 -176.09194843 111.56713843 -167.38671875 110.33984375 C-164.52959348 110.34322496 -161.7917167 110.47046044 -158.9609375 110.84375 C-159.01894531 110.13992188 -159.07695312 109.43609375 -159.13671875 108.7109375 C-159.86198069 92.83806198 -152.39358188 79.66401422 -141.9609375 68.15625 C-133.59620997 60.19673419 -118.91392107 51.13094473 -107.16015625 50.75390625 C-106.07154297 50.79837891 -106.07154297 50.79837891 -104.9609375 50.84375 C-105.44691406 49.85890625 -105.93289063 48.8740625 -106.43359375 47.859375 C-108.19698181 43.72367408 -108.46275978 40.05072682 -108.3984375 35.59375 C-108.39013916 34.84867187 -108.38184082 34.10359375 -108.37329102 33.3359375 C-108.04395577 22.4971747 -104.10517447 14.8581184 -96.9609375 6.84375 C-96.21070313 5.93689453 -96.21070313 5.93689453 -95.4453125 5.01171875 C-71.56284566 -21.7052833 -26.85383126 -19.55582435 0 0 Z " fill="#8C819C" transform="translate(459.9609375,304.15625)"/>
<path d="M0 0 C1.05525879 0.08910645 2.11051758 0.17821289 3.19775391 0.27001953 C28.71040738 2.52517909 54.48409509 7.29567845 77.91967773 18.04589844 C79.7898314 18.90361004 81.68287166 19.7109949 83.578125 20.51171875 C87.36853331 22.16028675 91.05924108 23.95408058 94.75 25.8125 C95.79607422 26.33807495 95.79607422 26.33807495 96.86328125 26.87426758 C110.76108474 33.89195449 123.42512612 41.86308425 136 51 C136.79921875 51.55429688 137.5984375 52.10859375 138.421875 52.6796875 C138.94265625 53.11539063 139.4634375 53.55109375 140 54 C140 54.66 140 55.32 140 56 C141.32 56.66 142.64 57.32 144 58 C144 58.66 144 59.32 144 60 C144.721875 60.226875 145.44375 60.45375 146.1875 60.6875 C149.56582327 62.26405086 151.43796738 64.30986575 154 67 C154.804375 67.61875 155.60875 68.2375 156.4375 68.875 C159.16628071 71.13789132 161.28123572 73.57498286 163.54296875 76.2890625 C165.08854912 78.15013236 165.08854912 78.15013236 167.3125 80.3125 C175.05273391 88.05273391 181.59825504 96.31230482 187.80615234 105.29125977 C189.05449896 107.07800373 190.33506421 108.83894164 191.6171875 110.6015625 C193.59537819 113.36573074 195.29504252 116.17249239 196.875 119.1875 C198.9097191 123.01877769 201.04945442 126.73718529 203.3125 130.4375 C206.4996482 135.86062076 209.16193978 141.45623037 211.75 147.1875 C212.12680908 148.01886475 212.50361816 148.85022949 212.8918457 149.70678711 C215.26459677 155.05197225 217.23027333 160.42966445 219 166 C219.56023339 167.68651862 220.12147105 169.3727039 220.68359375 171.05859375 C234.99662332 214.6431404 238.02902733 262.22833102 227 307 C226.76095947 308.01102783 226.52191895 309.02205566 226.27563477 310.0637207 C224.56132315 317.18510934 222.4555675 324.12028832 220.125 331.0625 C219.79886719 332.06087891 219.47273438 333.05925781 219.13671875 334.08789062 C216.84736231 340.95150595 214.08711656 347.46106279 211 354 C210.3570607 355.42083003 209.71624885 356.84262575 209.078125 358.265625 C202.22600566 373.30067779 193.75136011 386.69681999 184 400 C183.55849609 400.64710938 183.11699219 401.29421875 182.66210938 401.9609375 C181.4878089 403.67338739 180.248524 405.34088757 179 407 C178.34 407 177.68 407 177 407 C176.70802734 408.01320313 176.70802734 408.01320313 176.41015625 409.046875 C174.44980261 413.15221393 171.57641645 415.99735171 168.4375 419.25 C167.80416748 419.91531738 167.17083496 420.58063477 166.51831055 421.26611328 C164.68629183 423.18470428 162.8441189 425.09304911 161 427 C159.74316406 428.31871094 159.74316406 428.31871094 158.4609375 429.6640625 C145.13421231 443.37847424 145.13421231 443.37847424 137 447 C137 447.66 137 448.32 137 449 C134.96633799 450.54236738 132.93877684 451.97124441 130.8125 453.375 C129.65113083 454.15183557 128.49095784 454.93046264 127.33203125 455.7109375 C126.75662598 456.09733398 126.1812207 456.48373047 125.58837891 456.88183594 C123.84468039 458.07214122 123.84468039 458.07214122 121.76171875 459.9140625 C117.47829682 463.14934865 112.73506908 465.49167188 108 468 C106.23391161 468.96399529 104.46827747 469.9288233 102.703125 470.89453125 C57.71133052 495.14740732 4.1532284 507.11926375 -47 500 C-47.66 499.67 -48.32 499.34 -49 499 C-50.65414366 498.82271223 -52.31287585 498.68714006 -53.97265625 498.57421875 C-59.59798229 498.10094071 -64.94851547 497.10491321 -70.4375 495.8125 C-71.38197998 495.59255371 -72.32645996 495.37260742 -73.29956055 495.14599609 C-93.53030303 490.33003654 -112.57438068 483.69015731 -131 474 C-132.19253024 473.38767387 -133.38524808 472.77571299 -134.578125 472.1640625 C-146.18626371 466.15611722 -157.25519755 459.53182993 -167.3515625 451.1796875 C-169.4095103 449.48597825 -171.48274272 447.83137549 -173.5859375 446.1953125 C-174.21242188 445.70788574 -174.83890625 445.22045898 -175.484375 444.71826172 C-176.71493903 443.76260417 -177.94665197 442.8084236 -179.1796875 441.85595703 C-182.31693034 439.40944237 -185.36237833 436.98843835 -188 434 C-188 433.34 -188 432.68 -188 432 C-188.86625 431.62875 -188.86625 431.62875 -189.75 431.25 C-192.32939979 429.81700012 -194.06121592 428.21575324 -196 426 C-196 425.34 -196 424.68 -196 424 C-196.61875 423.7525 -197.2375 423.505 -197.875 423.25 C-200.38710296 421.77229238 -200.76107344 420.56044823 -202 418 C-202.99 417.67 -203.98 417.34 -205 417 C-206.2890625 415.5390625 -206.2890625 415.5390625 -207.625 413.625 C-210.90169558 409.05248274 -214.49538875 404.79435155 -218.14453125 400.515625 C-219.85104792 398.20194766 -220.60061131 396.80226817 -221 394 C-221.66 394 -222.32 394 -223 394 C-224.42578125 391.83984375 -224.42578125 391.83984375 -226 389 C-226.50917969 388.13503906 -227.01835937 387.27007813 -227.54296875 386.37890625 C-228.71219926 384.37649486 -229.87856666 382.37241047 -231.04296875 380.3671875 C-232.35029434 378.11785684 -233.66544559 375.87305678 -234.98828125 373.6328125 C-241.51744507 362.45082709 -247.22576865 351.1524372 -251.10546875 338.75390625 C-251.95331876 336.143713 -252.93530668 333.6531328 -254 331.125 C-267.44238793 297.7020977 -269.95424348 257.58859375 -265.26464844 222.07714844 C-265.02458645 220.1929719 -264.82629358 218.3035905 -264.6328125 216.4140625 C-263.7308253 208.22254611 -262.02874233 200.32437719 -260.125 192.3125 C-259.75810059 190.76260376 -259.75810059 190.76260376 -259.38378906 189.18139648 C-257.00730659 179.47227582 -254.0539374 170.01839143 -250 160.875 C-248.31706786 157.04674596 -246.69632804 153.2353237 -245.25 149.3125 C-240.38595896 136.94629396 -233.45306973 124.43482843 -226 113.4375 C-224.34611334 110.99369733 -222.71290423 108.55021663 -221.125 106.0625 C-218.52542218 102.31604962 -215.68277745 98.80469457 -212.8046875 95.26953125 C-210.89405672 92.93175446 -210.89405672 92.93175446 -209 90 C-208.34 90 -207.68 90 -207 90 C-206.731875 89.4225 -206.46375 88.845 -206.1875 88.25 C-204.97070811 85.94449957 -203.69666121 83.97943808 -202 82 C-201.34 82 -200.68 82 -200 82 C-199.61328125 81.12601563 -199.61328125 81.12601563 -199.21875 80.234375 C-197.90165983 77.8197097 -196.44911616 76.18259823 -194.5 74.25 C-193.8915625 73.63640625 -193.283125 73.0228125 -192.65625 72.390625 C-191 71 -191 71 -189 71 C-188.61328125 70.11054688 -188.61328125 70.11054688 -188.21875 69.203125 C-186.04953712 65.28185557 -182.42127599 62.81650499 -179 60 C-178.25492187 59.37996094 -177.50984375 58.75992188 -176.7421875 58.12109375 C-138.75948851 27.0956218 -93.22333548 6.24199297 -44.18261719 1.23095703 C-41.80845529 0.9797314 -39.44018436 0.69114042 -37.0703125 0.40234375 C-24.55853436 -1.04923408 -12.54012835 -1.08137264 0 0 Z M-57.65290833 11.50392151 C-61.45711082 12.3079732 -65.28925082 12.93039546 -69.125 13.5625 C-77.66117135 15.03092875 -85.88756644 17.02920118 -93.953125 20.20703125 C-95.36886366 20.75549489 -96.7973218 21.27181425 -98.234375 21.76171875 C-116.14387618 27.90768111 -132.93136087 36.53546113 -148.73828125 46.8828125 C-151.42227961 48.62500066 -154.12972823 50.29519583 -156.875 51.9375 C-158.421875 52.9584375 -158.421875 52.9584375 -160 54 C-160 54.66 -160 55.32 -160 56 C-160.53625 56.23976562 -161.0725 56.47953125 -161.625 56.7265625 C-172.02109551 62.30078477 -180.61697409 71.32943612 -188.875 79.5625 C-189.77347656 80.45565918 -190.67195313 81.34881836 -191.59765625 82.26904297 C-196.05402743 86.02893782 -196.05402743 86.02893782 -198 91 C-198.66 91 -199.32 91 -200 91 C-201.34331654 92.99330842 -202.67594012 94.99384866 -204 97 C-204.99 97.66 -205.98 98.32 -207 99 C-207 99.99 -207 100.98 -207 102 C-207.66 102 -208.32 102 -209 102 C-210.35074255 103.71516175 -210.35074255 103.71516175 -211.6875 105.9375 C-214.37973826 110.13792088 -217.31725724 114.00747502 -220.484375 117.859375 C-222.11273835 120.15922839 -222.97802062 122.38323827 -224 125 C-224.88188945 126.33611565 -225.80051194 127.64854443 -226.75 128.9375 C-231.5722069 135.98716365 -235.64586723 144.52472196 -237 153 C-237.66 153 -238.32 153 -239 153 C-239.24234375 153.67804688 -239.4846875 154.35609375 -239.734375 155.0546875 C-241.39514969 159.66653105 -243.08546167 164.23715965 -245 168.75 C-248.32276524 176.97779965 -251.38363394 186.06680961 -251 195 C-251.66 195 -252.32 195 -253 195 C-253.13277344 195.85464844 -253.26554688 196.70929688 -253.40234375 197.58984375 C-253.57894531 198.69457031 -253.75554687 199.79929687 -253.9375 200.9375 C-254.11152344 202.03964844 -254.28554687 203.14179688 -254.46484375 204.27734375 C-255 207 -255 207 -256 208 C-257.81702025 218.90212148 -258.66660684 229.96098196 -259 241 C-259.03399902 242.10827148 -259.06799805 243.21654297 -259.10302734 244.35839844 C-260.46872713 284.27544014 -260.46872713 284.27544014 -248 321 C-247.67493454 322.48918875 -247.41025638 323.99211065 -247.1875 325.5 C-246.26433846 330.56631055 -244.40253995 334.75336111 -242.17578125 339.37109375 C-240.61249579 342.86641307 -239.77653507 346.25851284 -239 350 C-238.34 350 -237.68 350 -237 350 C-236.896875 350.9075 -236.79375 351.815 -236.6875 352.75 C-235.96499076 356.1654982 -235.10805916 357.32438645 -233 360 C-232.30520005 361.6542856 -231.61179458 363.3091905 -230.9296875 364.96875 C-228.99957267 369.18580761 -226.43761728 373.06273004 -224 377 C-223.33097656 378.09570312 -222.66195312 379.19140625 -221.97265625 380.3203125 C-219.99505974 383.55538004 -218.01400114 386.78738279 -216 390 C-214.95199219 391.67835938 -214.95199219 391.67835938 -213.8828125 393.390625 C-213.26148438 394.25171875 -212.64015625 395.1128125 -212 396 C-211.34 396 -210.68 396 -210 396 C-209.62294922 397.0828125 -209.62294922 397.0828125 -209.23828125 398.1875 C-206.269225 404.93109779 -200.51428202 411.13445704 -195 416 C-194.34 416 -193.68 416 -193 416 C-192.77828125 416.54785156 -192.5565625 417.09570312 -192.328125 417.66015625 C-190.58951031 420.72318624 -188.25234051 423.00264395 -185.75 425.4375 C-185.25636963 425.92323486 -184.76273926 426.40896973 -184.25415039 426.90942383 C-178.88309812 432.97301675 -178.88309812 432.97301675 -172 436 C-171.7525 436.639375 -171.505 437.27875 -171.25 437.9375 C-170.20311706 440.19895007 -170.20311706 440.19895007 -167.9375 440.5625 C-167.298125 440.706875 -166.65875 440.85125 -166 441 C-165.505 442.485 -165.505 442.485 -165 444 C-164.01 444 -163.02 444 -162 444 C-161.505 445.485 -161.505 445.485 -161 447 C-159.08377852 448.57381284 -159.08377852 448.57381284 -156.75 450 C-155.93402344 450.52335937 -155.11804688 451.04671875 -154.27734375 451.5859375 C-151.86634361 453.08299076 -149.43932419 454.54959102 -147 456 C-146.113125 456.61875 -145.22625 457.2375 -144.3125 457.875 C-140.95134272 460.0312141 -137.55429373 461.76754612 -133.96875 463.51171875 C-131.75215128 464.62293469 -129.57808449 465.76401141 -127.40625 466.95703125 C-120.87345091 470.542155 -114.5426202 473.77316055 -107.44921875 476.14453125 C-105.17503541 476.93886323 -103.09846749 477.88000527 -100.9375 478.9375 C-94.28223099 481.99892375 -87.04949024 483.56810274 -79.99169922 485.4387207 C-78.36784512 485.89633784 -76.76995525 486.44527279 -75.18359375 487.01953125 C-70.29395211 488.52542088 -65.29440403 489.24758706 -60.25 490.0625 C-59.21617187 490.23587891 -58.18234375 490.40925781 -57.1171875 490.58789062 C-44.35607919 492.68527681 -31.91317067 493.27465164 -19 493.3125 C-18.11482697 493.31545074 -17.22965393 493.31840149 -16.31765747 493.32144165 C-1.17965243 493.33288796 13.13686851 492.00669651 28 489 C29.47196084 488.73183153 30.94456647 488.46716343 32.41796875 488.20703125 C43.2113345 486.21559476 54.03150383 483.67909004 64 479 C67.83459761 477.2957344 71.62964411 475.7700469 75.625 474.5 C79.10321783 473.37177136 81.8723646 471.90709475 85 470 C86.55580544 469.37879711 88.11932608 468.77678275 89.6875 468.1875 C94.29002366 466.39838843 98.34264999 464.13365856 102.52734375 461.52734375 C106.27451702 459.21273909 110.13497832 457.10989106 114 455 C114 454.34 114 453.68 114 453 C114.825 452.814375 115.65 452.62875 116.5 452.4375 C120.48244527 450.80185284 122.87825354 448.68378039 125.97265625 445.75390625 C128.18250304 443.84211202 130.48805562 442.48728518 133 441 C138.33839944 437.01288292 143.40688622 432.83485662 148 428 C149.33059268 426.66393163 150.66418605 425.3308481 152 424 C152.68835938 423.31035156 153.37671875 422.62070312 154.0859375 421.91015625 C155.58946483 420.40969734 157.1050201 418.9212899 158.625 417.4375 C160.9965643 415.00352612 163.20071622 412.4869086 165.390625 409.890625 C167.10442511 407.87732584 168.86382401 405.90941499 170.625 403.9375 C173.39277679 400.787333 175.70728837 397.51549117 178 394 C178.845625 392.989375 179.69125 391.97875 180.5625 390.9375 C182.70994825 388.34954955 184.3121498 385.89098445 186 383 C186.9375 381.4375 187.875 379.875 188.8125 378.3125 C189.3384375 377.42949219 189.864375 376.54648437 190.40625 375.63671875 C191.38295592 374.02084499 192.37875113 372.41609201 193.40625 370.83203125 C198.51498277 362.81415899 202.19375857 354.10616504 205.95996094 345.40234375 C206.59247364 343.9413285 207.22984982 342.48238949 207.87597656 341.02734375 C212.98599175 329.5028981 216.1127763 317.4412154 219.33911133 305.28393555 C220 303 220 303 221 301 C224.62109911 282.54140593 225.39619029 263.88337121 225.375 245.125 C225.37731125 243.65938126 225.37731125 243.65938126 225.37966919 242.16415405 C225.37916476 239.34091887 225.36153444 236.51842265 225.3359375 233.6953125 C225.33354568 232.86406357 225.33115387 232.03281464 225.32868958 231.17637634 C225.24749268 226.03149309 224.59089343 221.24552615 223.47718811 216.22125244 C222.79500668 213.04578111 222.43620257 209.84951935 222.0625 206.625 C221.1882337 199.89987464 219.83954445 193.52130348 218 187 C217.82065918 186.34741211 217.64131836 185.69482422 217.45654297 185.02246094 C214.88973964 175.71003853 211.89920848 166.85291989 208 158 C207.20742845 156.02119553 206.41577547 154.04202291 205.625 152.0625 C203.34830218 146.59842523 200.66614313 141.4401171 197.796875 136.265625 C196.64453733 134.17137655 195.52645516 132.05769359 194.453125 129.921875 C189.72839005 120.61274377 183.74651892 112.40224929 177.51074219 104.05566406 C176.03818835 102.05196282 174.63250531 100.01165701 173.2265625 97.9609375 C172.49179687 96.98382813 171.75703125 96.00671875 171 95 C170.34 95 169.68 95 169 95 C168.73155273 94.41154297 168.46310547 93.82308594 168.18652344 93.21679688 C166.17257035 89.45410263 163.16372619 86.58754402 160.25 83.5 C159.58258789 82.79093506 158.91517578 82.08187012 158.22753906 81.35131836 C152.37787635 75.22930572 146.17866452 69.67736851 139.62255859 64.32861328 C138.04320077 63.03537445 136.48259298 61.72258855 134.92578125 60.40234375 C130.11292049 56.36426821 125.5013242 53.00072229 120 50 C118.46829138 48.9315635 116.94714887 47.84790751 115.43359375 46.75390625 C110.33863572 43.16542467 105.09770999 40.03640997 99.625 37.0625 C98.68108398 36.54816406 97.73716797 36.03382813 96.76464844 35.50390625 C88.20090195 30.93505184 79.40242623 27.25359551 70.3125 23.87719727 C67.840264 22.93940758 65.39873667 21.93861074 62.953125 20.93359375 C58.52978842 19.15930443 54.11334481 17.7480523 49.5 16.5625 C48.71318848 16.35786133 47.92637695 16.15322266 47.11572266 15.94238281 C29.8874997 11.59979985 12.26505199 7.92057978 -5.546875 7.76171875 C-6.43876526 7.753647 -7.33065552 7.74557526 -8.24957275 7.73725891 C-10.13202019 7.72350816 -12.01449162 7.71274628 -13.89697266 7.70483398 C-15.77758362 7.69340806 -17.65816463 7.67310867 -19.53857422 7.64331055 C-32.68270187 7.43594241 -44.81745604 8.66757199 -57.65290833 11.50392151 Z " fill="#6E647D" transform="translate(436,169)"/>
<path d="M0 0 C0.40039292 4.97943197 -0.42664076 7.3001404 -3.4375 11.25 C-4.39462891 12.52617187 -4.39462891 12.52617187 -5.37109375 13.828125 C-5.90863281 14.54484375 -6.44617188 15.2615625 -7 16 C-7.33 16.66 -7.66 17.32 -8 18 C-8.66 18 -9.32 18 -10 18 C-10 18.99 -10 19.98 -10 21 C-10.66 21 -11.32 21 -12 21 C-12.495 22.485 -12.495 22.485 -13 24 C-13.66 24 -14.32 24 -15 24 C-15.3403125 25.2684375 -15.3403125 25.2684375 -15.6875 26.5625 C-17.19238618 30.50386856 -19.12703255 33.88761859 -22 37 C-22.66 37 -23.32 37 -24 37 C-24.10054688 37.56589844 -24.20109375 38.13179688 -24.3046875 38.71484375 C-25.14071654 41.46246729 -26.42515126 43.24902873 -28.125 45.5625 C-30.79310223 49.28351034 -33.38500268 53.03196694 -35.875 56.875 C-36.44992187 57.75929688 -37.02484375 58.64359375 -37.6171875 59.5546875 C-38.88165823 61.79072896 -39.44619713 63.52652153 -40 66 C-37.54006484 64.16878276 -35.08170157 62.33554847 -32.625 60.5 C-31.89780762 59.95698242 -31.17061523 59.41396484 -30.42138672 58.85449219 C-25.451024 55.12809744 -20.59176787 51.30703355 -15.8203125 47.328125 C-14 46 -14 46 -12 46 C-12 45.34 -12 44.68 -12 44 C-9.64393177 42.03591184 -6.9730595 40.49935594 -4.375 38.875 C-3.66214844 38.40707031 -2.94929688 37.93914062 -2.21484375 37.45703125 C2.00310426 34.80243278 4.85076982 33.3664985 10 34 C10.83139386 36.37238501 11.14379438 37.59324463 10.29296875 40 C9.74576172 40.99 9.74576172 40.99 9.1875 42 C8.83042969 42.66 8.47335937 43.32 8.10546875 44 C7.55826172 44.99 7.55826172 44.99 7 46 C6.32779514 47.33054983 5.65949511 48.66310493 5 50 C4.34 50 3.68 50 3 50 C2.9175 50.680625 2.835 51.36125 2.75 52.0625 C1.77667472 55.8746907 0.04192545 58.64070329 -2 62 C-2.66 62 -3.32 62 -4 62 C-4.09539062 62.53238281 -4.19078125 63.06476563 -4.2890625 63.61328125 C-5.22432726 66.75309866 -6.76128105 69.3379583 -8.375 72.1875 C-11.23579562 77.39215076 -13.35847089 82.30292838 -15 88 C-15.99 88 -16.98 88 -18 88 C-18.3208567 82.5932233 -17.57257105 79.28108772 -15.0625 74.5 C-14.75618652 73.9112207 -14.44987305 73.32244141 -14.13427734 72.71582031 C-10.93550119 66.6682087 -7.39768656 60.81358877 -3.8203125 54.984375 C-2.06649195 52.20294665 -2.06649195 52.20294665 -1 50 C-0.34 50 0.32 50 1 50 C1.0825 49.29875 1.165 48.5975 1.25 47.875 C2.17027725 44.34727053 3.88126977 41.93888386 6 39 C3.69 39.66 1.38 40.32 -1 41 C-1 41.66 -1 42.32 -1 43 C-3.1171875 44.7265625 -3.1171875 44.7265625 -5.875 46.625 C-6.77992188 47.25664062 -7.68484375 47.88828125 -8.6171875 48.5390625 C-11 50 -11 50 -13 50 C-13.33 50.99 -13.66 51.98 -14 53 C-15.64453125 54.5078125 -15.64453125 54.5078125 -17.8125 56.125 C-18.61816406 56.72828125 -19.42382812 57.3315625 -20.25390625 57.953125 C-21.16011719 58.62859375 -22.06632812 59.3040625 -23 60 C-24.52947266 61.19882812 -24.52947266 61.19882812 -26.08984375 62.421875 C-27.14300721 63.23986918 -28.1963902 64.05758081 -29.25 64.875 C-30.22453125 65.63554687 -31.1990625 66.39609375 -32.203125 67.1796875 C-34.93980624 68.96082361 -36.78957002 69.63677617 -40 70 C-40 70.66 -40 71.32 -40 72 C-41.65 71.67 -43.3 71.34 -45 71 C-44.38400666 60.060808 -44.38400666 60.060808 -41 56 C-40.34 56 -39.68 56 -39 56 C-38.7525 55.30132812 -38.505 54.60265625 -38.25 53.8828125 C-36.82249033 50.59061833 -35.02047554 47.83885934 -33 44.875 C-32.29875 43.84117187 -31.5975 42.80734375 -30.875 41.7421875 C-30.25625 40.83726562 -29.6375 39.93234375 -29 39 C-28.34 38.01 -27.68 37.02 -27 36 C-26.34 36 -25.68 36 -25 36 C-24.77183594 35.14535156 -24.54367187 34.29070312 -24.30859375 33.41015625 C-22.81632756 29.5213551 -20.66520351 26.62609348 -18.0625 23.4375 C-15.10700861 19.75926836 -12.32529307 16.12106395 -10 12 C-10.48210937 12.433125 -10.96421875 12.86625 -11.4609375 13.3125 C-12.09257812 13.869375 -12.72421875 14.42625 -13.375 15 C-14.00148438 15.556875 -14.62796875 16.11375 -15.2734375 16.6875 C-17 18 -17 18 -19 18 C-19 18.66 -19 19.32 -19 20 C-19.66 20 -20.32 20 -21 20 C-21 20.66 -21 21.32 -21 22 C-23.73955562 25.04395069 -26.18063472 27.44396229 -30 29 C-30 29.66 -30 30.32 -30 31 C-30.66 31 -31.32 31 -32 31 C-32.2578125 31.57234375 -32.515625 32.1446875 -32.78125 32.734375 C-34.11365942 35.21128995 -35.65056118 37.1341166 -37.5 39.25 C-38.41265625 40.30960937 -38.41265625 40.30960937 -39.34375 41.390625 C-41 43 -41 43 -43 43 C-43.33837891 43.78503906 -43.33837891 43.78503906 -43.68359375 44.5859375 C-45.47037807 47.86259243 -47.75794971 50.70438182 -50.0625 53.625 C-53.32192349 57.62122778 -53.32192349 57.62122778 -56 62 C-56.66 62 -57.32 62 -58 62 C-58 62.66 -58 63.32 -58 64 C-58.66 64 -59.32 64 -60 64 C-59.60791281 58.64147506 -57.6642613 54.85831875 -54 51 C-53.34 51 -52.68 51 -52 51 C-52 50.01 -52 49.02 -52 48 C-51.34 48 -50.68 48 -50 48 C-49.73832031 47.43152344 -49.47664063 46.86304688 -49.20703125 46.27734375 C-47.9033337 43.81761666 -46.40134237 41.75515421 -44.6875 39.5625 C-44.11386719 38.82128906 -43.54023438 38.08007812 -42.94921875 37.31640625 C-40.76605916 34.72199015 -38.40500739 32.39027028 -36 30 C-34.44507832 28.41296205 -32.89172724 26.82438396 -31.33984375 25.234375 C-6.55260216 0 -6.55260216 0 0 0 Z " fill="#857A95" transform="translate(307,254)"/>
<path d="M0 0 C-3.11616786 4.33317869 -6.53909626 7.08444297 -10.875 10.0625 C-11.77412109 10.69381836 -11.77412109 10.69381836 -12.69140625 11.33789062 C-15.52980138 13.32353581 -18.39170998 15.25679799 -21.2890625 17.15625 C-24.24529564 19.16682931 -26.50648958 21.44415182 -29 24 C-34.50546448 29 -34.50546448 29 -37 29 C-37.268125 29.639375 -37.53625 30.27875 -37.8125 30.9375 C-39 33 -39 33 -42 34 C-42 34.66 -42 35.32 -42 36 C-44.375 38.625 -44.375 38.625 -47 41 C-47.66 41 -48.32 41 -49 41 C-49.33 41.99 -49.66 42.98 -50 44 C-52.4375 46.6875 -52.4375 46.6875 -55 49 C-55.66 49 -56.32 49 -57 49 C-57.66 50.32 -58.32 51.64 -59 53 C-59.66 53 -60.32 53 -61 53 C-61.33 54.32 -61.66 55.64 -62 57 C-62.66 57 -63.32 57 -64 57 C-64.23074219 57.52207031 -64.46148437 58.04414063 -64.69921875 58.58203125 C-66.44662675 61.8302161 -68.63290439 64.72264409 -70.8125 67.6875 C-74.61883054 72.9493518 -78.07478325 78.18936536 -81 84 C-81.75410156 85.46953125 -81.75410156 85.46953125 -82.5234375 86.96875 C-84.61199875 91.08474389 -86.65637625 95.17829104 -88.4375 99.4375 C-90.00123388 103.00281325 -91.74039952 106.43820391 -93.5625 109.875 C-94.16191406 111.00679688 -94.76132813 112.13859375 -95.37890625 113.3046875 C-97 116 -97 116 -99 117 C-98.58411954 110.80481527 -97.39748106 105.73310689 -95 100 C-94.34 100 -93.68 100 -93 100 C-92.86464844 98.50726563 -92.86464844 98.50726563 -92.7265625 96.984375 C-92.09816249 92.62717632 -90.40023241 89.12205935 -88.375 85.25 C-88.01962158 84.55551758 -87.66424316 83.86103516 -87.2980957 83.14550781 C-84.21208252 77.20796633 -80.80381332 71.50830688 -77 66 C-76.48050781 65.24203125 -75.96101563 64.4840625 -75.42578125 63.703125 C-74.95527344 63.14109375 -74.48476562 62.5790625 -74 62 C-73.34 62 -72.68 62 -72 62 C-71.87625 61.401875 -71.7525 60.80375 -71.625 60.1875 C-71 58 -71 58 -69 55 C-68.34 55 -67.68 55 -67 55 C-66.75121094 54.43410156 -66.50242188 53.86820312 -66.24609375 53.28515625 C-64.80608409 50.64438619 -63.08409853 48.66238776 -61.0625 46.4375 C-60.37285156 45.67308594 -59.68320313 44.90867187 -58.97265625 44.12109375 C-58.32167969 43.42113281 -57.67070312 42.72117187 -57 42 C-56.46246094 41.41347656 -55.92492187 40.82695312 -55.37109375 40.22265625 C-54 39 -54 39 -52 39 C-51.773125 38.4225 -51.54625 37.845 -51.3125 37.25 C-49.65599487 34.41027692 -47.57432012 33.04775464 -45 31 C-44.0205262 29.89335695 -43.0634214 28.7666624 -42.125 27.625 C-39.11932719 24.01974997 -35.85068269 20.7093721 -32 18 C-31.34 18 -30.68 18 -30 18 C-30 17.34 -30 16.68 -30 16 C-28.62366485 15.03336461 -27.23865156 14.07728236 -25.81787109 13.17724609 C-23.89813704 11.93403395 -22.07117329 10.60603415 -20.23828125 9.23828125 C-19.27245117 8.51995117 -19.27245117 8.51995117 -18.28710938 7.78710938 C-16.9575604 6.79422167 -15.62946063 5.79939074 -14.30273438 4.80273438 C-13.66271484 4.32771484 -13.02269531 3.85269531 -12.36328125 3.36328125 C-11.78876221 2.93313721 -11.21424316 2.50299316 -10.62231445 2.05981445 C-7.14801833 -0.20984988 -4.0163834 -0.08925296 0 0 Z " fill="#776C87" transform="translate(312,231)"/>
<path d="M0 0 C0.99 0.33 1.98 0.66 3 1 C2.3426725 11.07902163 -3.796135 19.54274418 -8.70117188 28.11499023 C-11.29918681 32.67004751 -13.68831005 37.29274926 -16 42 C-15.54625 41.505 -15.0925 41.01 -14.625 40.5 C-13 39 -13 39 -11 39 C-11 38.34 -11 37.68 -11 37 C-9.35 36.34 -7.7 35.68 -6 35 C-6.99 37.475 -6.99 37.475 -8 40 C-8.66 40 -9.32 40 -10 40 C-10.33 41.32 -10.66 42.64 -11 44 C-11.66 44 -12.32 44 -13 44 C-13.33 44.99 -13.66 45.98 -14 47 C-14.66 47 -15.32 47 -16 47 C-16.061875 47.556875 -16.12375 48.11375 -16.1875 48.6875 C-17.3476371 51.98942866 -19.45559795 53.62907991 -22 56 C-22.825 56.94875 -23.65 57.8975 -24.5 58.875 C-27 61 -27 61 -29.8125 60.8125 C-30.534375 60.544375 -31.25625 60.27625 -32 60 C-32.46920144 55.31667454 -31.00634157 52.66774234 -28.625 48.6875 C-27.99851562 47.61886719 -27.37203125 46.55023437 -26.7265625 45.44921875 C-25.87191406 44.23685547 -25.87191406 44.23685547 -25 43 C-24.34 43 -23.68 43 -23 43 C-22.9175 42.484375 -22.835 41.96875 -22.75 41.4375 C-21.01686218 35.80480208 -17.30122645 30.83393873 -14 26 C-14.73605469 26.61488281 -15.47210937 27.22976563 -16.23046875 27.86328125 C-17.20628906 28.67152344 -18.18210937 29.47976563 -19.1875 30.3125 C-20.15042969 31.11300781 -21.11335937 31.91351562 -22.10546875 32.73828125 C-28.98387097 38.11290323 -28.98387097 38.11290323 -32.8125 37.6875 C-33.534375 37.460625 -34.25625 37.23375 -35 37 C-35.1953125 30.9453125 -35.1953125 30.9453125 -35 29 C-34.34 28.34 -33.68 27.68 -33 27 C-32.49635902 25.74643206 -32.04261777 24.47228878 -31.625 23.1875 C-30.30003888 19.48559859 -28.55256742 17.01667059 -26 14 C-24.58690303 11.70432028 -23.29802942 9.36426787 -22 7 C-21.01 7 -20.02 7 -19 7 C-19.52107407 11.48123704 -20.62124093 14.21160592 -23 18 C-24.39612759 20.97304867 -25.70463203 23.98185839 -27 27 C-27.66 27 -28.32 27 -29 27 C-29 28.32 -29 29.64 -29 31 C-28.34 31 -27.68 31 -27 31 C-27 30.34 -27 29.68 -27 29 C-26.360625 28.896875 -25.72125 28.79375 -25.0625 28.6875 C-24.381875 28.460625 -23.70125 28.23375 -23 28 C-22.67 27.01 -22.34 26.02 -22 25 C-16.53488372 20 -16.53488372 20 -14 20 C-13.60748047 19.14341797 -13.60748047 19.14341797 -13.20703125 18.26953125 C-11.91138207 15.83337535 -10.41174059 13.83993338 -8.6875 11.6875 C-5.66579694 7.86928107 -2.79774433 3.98466616 0 0 Z " fill="#766B85" transform="translate(565,490)"/>
<path d="M0 0 C0.66 0 1.32 0 2 0 C2.7699236 20.63822994 2.7699236 20.63822994 -2 30 C-2.32210449 30.64710938 -2.64420898 31.29421875 -2.97607422 31.9609375 C-12.28911887 50.57862533 -12.28911887 50.57862533 -17 56 C-17.66 56 -18.32 56 -19 56 C-19.0825 56.515625 -19.165 57.03125 -19.25 57.5625 C-20.72831492 62.36702351 -23.2745194 66.61319945 -27 70 C-27.66 70.99 -28.32 71.98 -29 73 C-29.66 73 -30.32 73 -31 73 C-31.10054687 73.59296875 -31.20109375 74.1859375 -31.3046875 74.796875 C-32.12726602 77.40324737 -33.13005756 78.40713837 -35.125 80.25 C-37.68568161 82.69617958 -40.07726325 85.17999101 -42.375 87.875 C-46.33942764 92.45971224 -50.44577902 96.99302757 -55 101 C-55.66 101 -56.32 101 -57 101 C-57.04125 101.5775 -57.0825 102.155 -57.125 102.75 C-58.45538973 106.17100215 -60.90837638 107.13335932 -64 109 C-65.051875 109.763125 -66.10375 110.52625 -67.1875 111.3125 C-68.115625 111.869375 -69.04375 112.42625 -70 113 C-70.99 112.67 -71.98 112.34 -73 112 C-65.78426422 102.96816892 -57.93693 94.76338843 -49.6394043 86.71362305 C-45.20508837 82.37385738 -41.50396414 78.11151758 -38 73 C-36.68181673 71.65168682 -35.34946058 70.31700862 -34 69 C-11.59068224 41.24639466 -11.59068224 41.24639466 -2.23828125 7.91015625 C-1.99212973 4.90387951 -1.25903667 2.72373271 0 0 Z " fill="#776D87" transform="translate(605,493)"/>
<path d="M0 0 C2.5 0.8125 2.5 0.8125 5.5 2.8125 C6.98064537 7.87809056 6.68391867 13.14267739 6.6875 18.375 C6.69974609 19.32052734 6.71199219 20.26605469 6.72460938 21.24023438 C6.72750977 22.60825195 6.72750977 22.60825195 6.73046875 24.00390625 C6.73457764 24.83092041 6.73868652 25.65793457 6.74291992 26.51000977 C6.47116961 29.08576573 5.89779171 30.63857754 4.5 32.8125 C1.5 34.8125 1.5 34.8125 -0.515625 34.6328125 C-3.67349925 33.32739204 -4.82252985 31.4161722 -6.51953125 28.5234375 C-9.36057426 20.66812337 -8.33996211 10.58502787 -5.5 2.8125 C-3.75114513 0.06429948 -3.26427629 -0.24482072 0 0 Z " fill="#FBFBFC" transform="translate(398.5,392.1875)"/>
<path d="M0 0 C3.1262378 7.92813906 3.30967345 17.56783169 1.3125 25.8515625 C0.375 28 0.375 28 -2 31 C-5.25 32 -5.25 32 -8 32 C-12.35570937 26.85234347 -13.29069713 21.62807335 -13.3125 15 C-13.32925781 13.824375 -13.34601563 12.64875 -13.36328125 11.4375 C-12.88794569 6.93970117 -11.17034631 3.81403679 -8.75 0.0625 C-5.84193655 -1.70310995 -3.19099281 -0.66228153 0 0 Z " fill="#FAFAFB" transform="translate(454,396)"/>
<path d="M0 0 C1.32 0 2.64 0 4 0 C4 1.32 4 2.64 4 4 C3.34 4 2.68 4 2 4 C1.9071875 5.670625 1.9071875 5.670625 1.8125 7.375 C1.11670616 12.87370411 -1.36050183 17.19835971 -4 22 C-4.5259375 23.00546875 -5.051875 24.0109375 -5.59375 25.046875 C-9.72403169 32.86201585 -9.72403169 32.86201585 -12 34 C-12.73963549 35.39015828 -13.41630909 36.8140202 -14.0625 38.25 C-18.09064354 46.57003458 -23.33966431 54.56834536 -30 61 C-30.7734375 62.11375 -30.7734375 62.11375 -31.5625 63.25 C-32.2740625 64.11625 -32.2740625 64.11625 -33 65 C-33.99 65 -34.98 65 -36 65 C-36.55716142 60.79382365 -35.38218105 58.60379289 -32.90161133 55.24389648 C-32.45970459 54.66841064 -32.01779785 54.0929248 -31.5625 53.5 C-30.63991073 52.25182972 -29.71805124 51.00311974 -28.796875 49.75390625 C-28.32830078 49.12629395 -27.85972656 48.49868164 -27.37695312 47.85205078 C-20.76240622 38.95525063 -15.02418428 29.87066429 -10 20 C-9.34 20 -8.68 20 -8 20 C-7.81050781 19.12601563 -7.81050781 19.12601563 -7.6171875 18.234375 C-7.00711925 16.0257735 -6.20011334 14.26687929 -5.125 12.25 C-3.07122493 8.26237832 -1.50803887 4.22250884 0 0 Z " fill="#7B718B" transform="translate(582,500)"/>
<path d="M0 0 C0.99 0 1.98 0 3 0 C3.71484375 1.546875 3.71484375 1.546875 4 4 C2.94608774 6.53857885 1.86034426 8.84495527 0.5625 11.25 C0.22412109 11.8996875 -0.11425781 12.549375 -0.46289062 13.21875 C-1.29786887 14.81814494 -2.14753114 16.40985859 -3 18 C-3.66 18 -4.32 18 -5 18 C-5.12375 18.7425 -5.2475 19.485 -5.375 20.25 C-5.95486701 22.80141485 -6.73708739 24.7267573 -8 27 C-8.66 27 -9.32 27 -10 27 C-10.11085938 27.57363281 -10.22171875 28.14726562 -10.3359375 28.73828125 C-12.68448976 36.73717395 -20.1754346 45.1754346 -26 51 C-27.32 51 -28.64 51 -30 51 C-28.71595422 45.99222146 -26.36433315 42.31264654 -23.45703125 38.125 C-21.88061224 35.88799638 -21.88061224 35.88799638 -20.25 32.9375 C-19.8375 32.298125 -19.425 31.65875 -19 31 C-18.34 31 -17.68 31 -17 31 C-16.938125 30.319375 -16.87625 29.63875 -16.8125 28.9375 C-15.92852654 25.74159595 -14.43857556 23.70315182 -12.45703125 21.08203125 C-10.76568207 18.66517035 -9.39195003 16.16296478 -8 13.5625 C-6.14922176 10.1178639 -4.30081744 6.68010071 -2.3125 3.3125 C-1.93738281 2.66925781 -1.56226563 2.02601563 -1.17578125 1.36328125 C-0.78777344 0.91339844 -0.39976562 0.46351563 0 0 Z " fill="#776D87" transform="translate(334,299)"/>
<path d="M0 0 C1.875 0.25 1.875 0.25 4 1 C9.01309269 8.69867806 7.09478913 21.92330996 7.125 30.8125 C7.13200928 32.29049072 7.13200928 32.29049072 7.13916016 33.79833984 C7.13601807 35.17626709 7.13601807 35.17626709 7.1328125 36.58203125 C7.13168457 37.40936768 7.13055664 38.2367041 7.12939453 39.08911133 C7 41 7 41 6 42 C4.00041636 42.04080783 1.99954746 42.04254356 0 42 C-1.07453076 37.63945386 -1.14512935 33.38892531 -1.1328125 28.92578125 C-1.13376923 28.16073776 -1.13472595 27.39569427 -1.13571167 26.60746765 C-1.13638967 24.99799517 -1.13456199 23.3885199 -1.13037109 21.77905273 C-1.12499526 19.31032226 -1.13034025 16.84177189 -1.13671875 14.37304688 C-1.13605833 12.80729126 -1.13477793 11.24153577 -1.1328125 9.67578125 C-1.13483673 8.93620682 -1.13686096 8.19663239 -1.13894653 7.43464661 C-1.11497642 2.22995283 -1.11497642 2.22995283 0 0 Z " fill="#766C86" transform="translate(416,208)"/>
<path d="M0 0 C0.66 0 1.32 0 2 0 C2.77034815 20.64961014 2.77034815 20.64961014 -2 30 C-2.32742188 30.65242676 -2.65484375 31.30485352 -2.9921875 31.97705078 C-5.55051588 37.0472131 -8.19769491 42.06036328 -11 47 C-11.41741455 47.75297363 -11.8348291 48.50594727 -12.26489258 49.28173828 C-12.68794678 50.00989746 -13.11100098 50.73805664 -13.546875 51.48828125 C-13.92553711 52.14997314 -14.30419922 52.81166504 -14.69433594 53.4934082 C-16 55 -16 55 -19.8125 55.5 C-20.864375 55.335 -21.91625 55.17 -23 55 C-22.5875 54.36835937 -22.175 53.73671875 -21.75 53.0859375 C-7.69984531 32.06377481 -7.69984531 32.06377481 -2.23828125 7.91015625 C-1.99212973 4.90387951 -1.25903667 2.72373271 0 0 Z " fill="#7C728C" transform="translate(605,493)"/>
<path d="M0 0 C0.99 0 1.98 0 3 0 C2.47892593 4.48123704 1.37875907 7.21160592 -1 11 C-2.39612759 13.97304867 -3.70463203 16.98185839 -5 20 C-5.66 20 -6.32 20 -7 20 C-7 21.32 -7 22.64 -7 24 C-6.34 24 -5.68 24 -5 24 C-5 23.34 -5 22.68 -5 22 C-4.360625 21.896875 -3.72125 21.79375 -3.0625 21.6875 C-2.381875 21.460625 -1.70125 21.23375 -1 21 C-0.67 20.01 -0.34 19.02 0 18 C1.87617698 16.15500602 3.92737609 14.6316401 6 13 C7.32 13.66 8.64 14.32 10 15 C9.67 16.65 9.34 18.3 9 20 C8.14921875 20.12568359 8.14921875 20.12568359 7.28125 20.25390625 C4.31940366 21.2225923 2.75531388 22.80190312 0.5 24.9375 C-2.18913169 27.47467733 -4.51595634 29.6682891 -8 31 C-10.75 30.625 -10.75 30.625 -13 30 C-13.1953125 23.9453125 -13.1953125 23.9453125 -13 22 C-12.34 21.34 -11.68 20.68 -11 20 C-10.49635902 18.74643206 -10.04261777 17.47228878 -9.625 16.1875 C-8.30003888 12.48559859 -6.55256742 10.01667059 -4 7 C-2.58690303 4.70432028 -1.29802942 2.36426787 0 0 Z " fill="#7E748E" transform="translate(543,497)"/>
<path d="M0 0 C0.99 0 1.98 0 3 0 C2.47892593 4.48123704 1.37875907 7.21160592 -1 11 C-2.39612759 13.97304867 -3.70463203 16.98185839 -5 20 C-5.66 20 -6.32 20 -7 20 C-7 21.32 -7 22.64 -7 24 C-6.34 24 -5.68 24 -5 24 C-5 23.34 -5 22.68 -5 22 C-4.34 22.33 -3.68 22.66 -3 23 C-3.33 23.66 -3.66 24.32 -4 25 C-5.32 25 -6.64 25 -8 25 C-8 23.68 -8 22.36 -8 21 C-9.32 21.33 -10.64 21.66 -12 22 C-9.92578468 16.31797398 -7.9945245 11.61866896 -4 7 C-2.58610749 4.70484572 -1.298006 2.36422522 0 0 Z " fill="#807690" transform="translate(543,497)"/>
<path d="M0 0 C0.66 0 1.32 0 2 0 C2.08184423 2.97973615 2.14089764 5.95716832 2.1875 8.9375 C2.22520508 10.18370117 2.22520508 10.18370117 2.26367188 11.45507812 C2.33425885 17.50202899 1.25464398 22.39516349 -1 28 C-1.66 27.34 -2.32 26.68 -3 26 C-3.99 26 -4.98 26 -6 26 C-5.525625 24.948125 -5.05125 23.89625 -4.5625 22.8125 C-2.70664741 17.95606331 -2.51244706 13.20888762 -2.30859375 8.05078125 C-2.00086621 5.00856346 -1.27581425 2.76170233 0 0 Z " fill="#877C96" transform="translate(605,493)"/>
<path d="M0 0 C1.32 0 2.64 0 4 0 C4 1.32 4 2.64 4 4 C3.34 4 2.68 4 2 4 C1.938125 5.11375 1.87625 6.2275 1.8125 7.375 C1.16800296 12.82392948 -1.36835643 17.26109941 -4 22 C-5.941401 16.17579699 -4.69852911 11.863786 -2.5 6.3125 C-2.0359375 5.13300781 -1.571875 3.95351563 -1.09375 2.73828125 C-0.7328125 1.83464844 -0.371875 0.93101562 0 0 Z " fill="#867B96" transform="translate(582,500)"/>
<path d="M0 0 C-0.66 1.65 -1.32 3.3 -2 5 C-2.66 5 -3.32 5 -4 5 C-4.33 6.32 -4.66 7.64 -5 9 C-5.66 9 -6.32 9 -7 9 C-7.33 9.99 -7.66 10.98 -8 12 C-8.66 12 -9.32 12 -10 12 C-10.103125 12.639375 -10.20625 13.27875 -10.3125 13.9375 C-10.539375 14.618125 -10.76625 15.29875 -11 16 C-11.99 16.33 -12.98 16.66 -14 17 C-14.95465783 14.83032311 -15.14401212 13.43671207 -14.3984375 11.17578125 C-13.64129615 9.4315257 -12.82390802 7.71372869 -12 6 C-11.34 6.33 -10.68 6.66 -10 7 C-9.319375 6.2575 -9.319375 6.2575 -8.625 5.5 C-7 4 -7 4 -5 4 C-5 3.34 -5 2.68 -5 2 C-2 0 -2 0 0 0 Z " fill="#7B708B" transform="translate(559,525)"/>
<path d="M0 0 C0 1.65 0 3.3 0 5 C-0.66 5 -1.32 5 -2 5 C-2.268125 5.639375 -2.53625 6.27875 -2.8125 6.9375 C-4 9 -4 9 -7 10 C-7 10.66 -7 11.32 -7 12 C-10 14 -10 14 -13 14 C-13 14.66 -13 15.32 -13 16 C-13.99 15.67 -14.98 15.34 -16 15 C-15.34 15 -14.68 15 -14 15 C-13.9071875 14.1646875 -13.9071875 14.1646875 -13.8125 13.3125 C-12.57095596 9.77887466 -4.34018064 0 0 0 Z " fill="#736983" transform="translate(277,255)"/>
<path d="M0 0 C0.6640625 1.78515625 0.6640625 1.78515625 1 4 C-0.0390625 5.74609375 -0.0390625 5.74609375 -1.625 7.4375 C-2.18058594 8.04207031 -2.73617187 8.64664062 -3.30859375 9.26953125 C-4.74761643 10.74178771 -6.21474122 12.18649143 -7.6875 13.625 C-9.94358967 15.94206507 -11.46276837 18.16825753 -13 21 C-13.99 20.67 -14.98 20.34 -16 20 C-15.31292969 19.10796875 -14.62585938 18.2159375 -13.91796875 17.296875 C-13.00779952 16.11459332 -12.097644 14.9323011 -11.1875 13.75 C-10.73568359 13.16347656 -10.28386719 12.57695312 -9.81835938 11.97265625 C-9.37685547 11.39902344 -8.93535156 10.82539063 -8.48046875 10.234375 C-8.05040527 9.67814453 -7.6203418 9.12191406 -7.17724609 8.54882812 C-6.18824241 7.24765862 -5.23947952 5.91603977 -4.30078125 4.578125 C-3.87152344 4.05734375 -3.44226563 3.5365625 -3 3 C-2.34 3 -1.68 3 -1 3 C-0.67 2.01 -0.34 1.02 0 0 Z " fill="#635B6E" transform="translate(230,256)"/>
<path d="M0 0 C-3.13922331 4.52048157 -6.21495828 6.51545911 -11 9 C-11 8.01 -11 7.02 -11 6 C-12.32 5.67 -13.64 5.34 -15 5 C-9.6694441 1.32783927 -6.48396644 -0.14408814 0 0 Z " fill="#7E738E" transform="translate(312,231)"/>
<path d="M0 0 C0.99 0 1.98 0 3 0 C3.88336837 2.4667645 4.1312406 3.63859372 3.22265625 6.140625 C2.83980469 6.83671875 2.45695312 7.5328125 2.0625 8.25 C1.68222656 8.95640625 1.30195313 9.6628125 0.91015625 10.390625 C0.60980469 10.92171875 0.30945313 11.4528125 0 12 C-2.97 11.505 -2.97 11.505 -6 11 C-4.54923295 6.88949336 -2.65754275 3.46285873 0 0 Z " fill="#7F758F" transform="translate(334,299)"/>
<path d="M0 0 C0.33 0.99 0.66 1.98 1 3 C0.67 3.66 0.34 4.32 0 5 C0.99 5.33 1.98 5.66 3 6 C2.67 6.99 2.34 7.98 2 9 C1.34 9 0.68 9 0 9 C0 10.32 0 11.64 0 13 C0.66 13 1.32 13 2 13 C2 12.34 2 11.68 2 11 C2.66 11.33 3.32 11.66 4 12 C3.67 12.66 3.34 13.32 3 14 C1.68 14 0.36 14 -1 14 C-1 12.68 -1 11.36 -1 10 C-2.32 10.33 -3.64 10.66 -5 11 C-4.35731563 9.35293447 -3.71076198 7.70737825 -3.0625 6.0625 C-2.70285156 5.14597656 -2.34320312 4.22945312 -1.97265625 3.28515625 C-1 1 -1 1 0 0 Z " fill="#877C97" transform="translate(536,508)"/>
<path d="M0 0 C0.66 0 1.32 0 2 0 C2 4.29 2 8.58 2 13 C1.34 12.34 0.68 11.68 0 11 C-0.66 12.32 -1.32 13.64 -2 15 C-2.3690205 4.44191344 -2.3690205 4.44191344 0 0 Z " fill="#877C97" transform="translate(605,493)"/>
<path d="M0 0 C0.33 0 0.66 0 1 0 C0.54177532 3.46941546 0.10868317 6.67395049 -1 10 C-0.34 10.33 0.32 10.66 1 11 C-0.30406884 13.01920337 -1.63823419 15.01924973 -3 17 C-3.33 17 -3.66 17 -4 17 C-3.58411954 10.80481527 -2.39748106 5.73310689 0 0 Z " fill="#827892" transform="translate(217,331)"/>
<path d="M0 0 C1.16144531 0.00902344 2.32289063 0.01804687 3.51953125 0.02734375 C4.39996094 0.03894531 5.28039062 0.05054688 6.1875 0.0625 C6.1875 0.7225 6.1875 1.3825 6.1875 2.0625 C-4.2075 2.5575 -4.2075 2.5575 -14.8125 3.0625 C-10.00106169 -0.14512554 -5.68834248 -0.057458 0 0 Z " fill="#5F596B" transform="translate(441.8125,666.9375)"/>
<path d="M0 0 C0.66 0 1.32 0 2 0 C2.53469802 1.72492978 3.05219175 3.455198 3.5625 5.1875 C3.85253906 6.15042969 4.14257812 7.11335938 4.44140625 8.10546875 C5.02461026 11.12752588 4.81178385 13.05929955 4 16 C1.11388804 11.0523795 0 5.66834163 0 0 Z " fill="#665F71" transform="translate(659,354)"/>
<path d="M0 0 C-0.66 1.65 -1.32 3.3 -2 5 C-2.66 5 -3.32 5 -4 5 C-4.33 6.32 -4.66 7.64 -5 9 C-6.65 8.67 -8.3 8.34 -10 8 C-8.625 6 -8.625 6 -7 4 C-6.34 4 -5.68 4 -5 4 C-5 3.34 -5 2.68 -5 2 C-2 0 -2 0 0 0 Z " fill="#8C809B" transform="translate(559,525)"/>
<path d="M0 0 C3.20105218 4.80157828 3.25593353 9.91596979 2.5625 15.5625 C2.376875 16.366875 2.19125 17.17125 2 18 C1.67 18 1.34 18 1 18 C-0.0712828 11.97403427 -0.09945415 6.11090483 0 0 Z " fill="#5F596B" transform="translate(171,443)"/>
<path d="M0 0 C0 0.66 0 1.32 0 2 C-0.66 2 -1.32 2 -2 2 C-2 2.99 -2 3.98 -2 5 C-3.98 5.33 -5.96 5.66 -8 6 C-7.6875 4.125 -7.6875 4.125 -7 2 C-4 0 -4 0 0 0 Z " fill="#766B85" transform="translate(588,547)"/>
<path d="M0 0 C0.66 0.33 1.32 0.66 2 1 C1.67 2.65 1.34 4.3 1 6 C-0.32 6.33 -1.64 6.66 -3 7 C-3.33 5.68 -3.66 4.36 -4 3 C-2.68 2.01 -1.36 1.02 0 0 Z " fill="#756A85" transform="translate(560,543)"/>
<path d="M0 0 C0.66 0 1.32 0 2 0 C2.6708712 1.6232687 3.33657029 3.24867578 4 4.875 C4.556875 6.23238281 4.556875 6.23238281 5.125 7.6171875 C6 10 6 10 6 12 C3 11 3 11 2.05078125 9.2578125 C1.80714844 8.55398438 1.56351563 7.85015625 1.3125 7.125 C1.06113281 6.42632812 0.80976562 5.72765625 0.55078125 5.0078125 C0 3 0 3 0 0 Z " fill="#676074" transform="translate(645,314)"/>
<path d="M0 0 C-0.875 3.875 -0.875 3.875 -2 5 C-3.66617115 5.04063832 -5.33388095 5.042721 -7 5 C-7 4.01 -7 3.02 -7 2 C-4 0 -4 0 0 0 Z " fill="#7C718C" transform="translate(286,309)"/>
<path d="M0 0 C0.99 0.33 1.98 0.66 3 1 C2.67 1.99 2.34 2.98 2 4 C1.34 4 0.68 4 0 4 C-1.35712166 5.55855981 -1.35712166 5.55855981 -2.625 7.5 C-3.07101562 8.1496875 -3.51703125 8.799375 -3.9765625 9.46875 C-4.31429687 9.9740625 -4.65203125 10.479375 -5 11 C-5.66 10.67 -6.32 10.34 -7 10 C-3.535 5.05 -3.535 5.05 0 0 Z " fill="#887D98" transform="translate(565,490)"/>
<path d="M0 0 C0.33 0 0.66 0 1 0 C0.88570603 1.77155654 0.75816963 3.54226229 0.625 5.3125 C0.52058594 6.79169922 0.52058594 6.79169922 0.4140625 8.30078125 C0 11 0 11 -2 14 C-3.05128687 10.76470168 -2.91901775 8.60277903 -2.125 5.3125 C-1.94195313 4.52488281 -1.75890625 3.73726563 -1.5703125 2.92578125 C-1 1 -1 1 0 0 Z " fill="#5F576A" transform="translate(662,471)"/>
<path d="M0 0 C0.33 0.99 0.66 1.98 1 3 C1.99 3.33 2.98 3.66 4 4 C3.01 4.99 2.02 5.98 1 7 C0.67 6.34 0.34 5.68 0 5 C-2.475 6.485 -2.475 6.485 -5 8 C-4.67 7.01 -4.34 6.02 -4 5 C-3.34 5 -2.68 5 -2 5 C-1.7834375 4.0409375 -1.7834375 4.0409375 -1.5625 3.0625 C-1 1 -1 1 0 0 Z " fill="#837892" transform="translate(242,288)"/>
<path d="M0 0 C1 3 1 3 0 6 C0.66 6.33 1.32 6.66 2 7 C1.34 7.66 0.68 8.32 0 9 C-0.99 9 -1.98 9 -3 9 C-3.26218749 5.85375007 -3.24754367 4.38162983 -1.5 1.6875 C-1.005 1.130625 -0.51 0.57375 0 0 Z " fill="#857A95" transform="translate(549,556)"/>
<path d="M0 0 C0.66 0 1.32 0 2 0 C2 0.66 2 1.32 2 2 C2.99 2.33 3.98 2.66 5 3 C3.69593116 5.01920337 2.36176581 7.01924973 1 9 C0.67 9 0.34 9 0 9 C0 6 0 3 0 0 Z " fill="#7E738E" transform="translate(555,548)"/>
<path d="M0 0 C3 4 3 4 3 7 C2.34 7 1.68 7 1 7 C1 8.32 1 9.64 1 11 C0.34 11 -0.32 11 -1 11 C-0.67 7.37 -0.34 3.74 0 0 Z " fill="#796E88" transform="translate(604,502)"/>
<path d="M0 0 C-1.32 1.32 -2.64 2.64 -4 4 C-4.99 3.67 -5.98 3.34 -7 3 C-7 3.99 -7 4.98 -7 6 C-7.66 5.67 -8.32 5.34 -9 5 C-8.00233891 2.50584728 -7.31383315 1.21259665 -5.0625 -0.3125 C-3 -1 -3 -1 0 0 Z " fill="#9085A0" transform="translate(306,261)"/>
<path d="M0 0 C-4.38423952 3.44475962 -7.30835767 5.31620235 -13 5 C-11.05073178 3.05073178 -9.4892942 2.06431004 -7.0625 0.8125 C-6.37285156 0.44769531 -5.68320312 0.08289063 -4.97265625 -0.29296875 C-3 -1 -3 -1 0 0 Z " fill="#686173" transform="translate(315,194)"/>
<path d="M0 0 C0.33 0.66 0.66 1.32 1 2 C0.01 3.485 0.01 3.485 -1 5 C-1.66 5 -2.32 5 -3 5 C-3 5.66 -3 6.32 -3 7 C-4.32 6.67 -5.64 6.34 -7 6 C-6.67 5.01 -6.34 4.02 -6 3 C-4.35 3 -2.7 3 -1 3 C-0.67 2.01 -0.34 1.02 0 0 Z " fill="#796E89" transform="translate(297,299)"/>
<path d="M0 0 C0.97001682 3.39505887 1 6.47064557 1 10 C0.01 10.33 -0.98 10.66 -2 11 C-2.95465783 8.83032311 -3.14401212 7.43671207 -2.3984375 5.17578125 C-1.64129615 3.4315257 -0.82390802 1.71372869 0 0 Z " fill="#837893" transform="translate(547,531)"/>
<path d="M0 0 C1.0326802 2.78823655 1.04509293 3.8677274 0.0625 6.75 C-0.288125 7.4925 -0.63875 8.235 -1 9 C-1.99 8.67 -2.98 8.34 -4 8 C-1.125 1.125 -1.125 1.125 0 0 Z " fill="#756B85" transform="translate(578,514)"/>
<path d="M0 0 C-0.33 0.66 -0.66 1.32 -1 2 C-4.63 1.34 -8.26 0.68 -12 0 C-6.76844369 -2.61577816 -5.40261966 -1.6207859 0 0 Z " fill="#5C5567" transform="translate(370,663)"/>
<path d="M0 0 C0.99 0 1.98 0 3 0 C3 1.65 3 3.3 3 5 C1.68 5 0.36 5 -1 5 C-0.67 3.35 -0.34 1.7 0 0 Z " fill="#7A6F8A" transform="translate(580,507)"/>
<path d="M0 0 C0.66 0.99 1.32 1.98 2 3 C1.21069203 5.48935591 0.1651105 7.669779 -1 10 C-1.66 10 -2.32 10 -3 10 C-2.01 6.7 -1.02 3.4 0 0 Z " fill="#625B6D" transform="translate(186,329)"/>
<path d="M0 0 C1.32 0.66 2.64 1.32 4 2 C4 3.98 4 5.96 4 8 C3.01 8 2.02 8 1 8 C1.33 6.35 1.66 4.7 2 3 C1.01 3 0.02 3 -1 3 C-0.67 2.01 -0.34 1.02 0 0 Z " fill="#8F849F" transform="translate(264,314)"/>
<path d="M0 0 C1.65 1.65 3.3 3.3 5 5 C4.34 6.32 3.68 7.64 3 9 C0 3.375 0 3.375 0 0 Z " fill="#645C70" transform="translate(623,275)"/>
<path d="M0 0 C2.64752004 2.57784846 4.94432065 4.91648098 7 8 C5.0625 7.6875 5.0625 7.6875 3 7 C2.67 6.01 2.34 5.02 2 4 C1.34 4 0.68 4 0 4 C0 2.68 0 1.36 0 0 Z " fill="#60596A" transform="translate(607,254)"/>
<path d="M0 0 C1.11375 0.598125 2.2275 1.19625 3.375 1.8125 C4.00148438 2.14894531 4.62796875 2.48539063 5.2734375 2.83203125 C7 4 7 4 9 7 C6.83125748 6.49396008 5.00032373 6.00016187 3 5 C3 4.34 3 3.68 3 3 C2.01 2.67 1.02 2.34 0 2 C0 1.34 0 0.68 0 0 Z " fill="#5A5464" transform="translate(564,215)"/>
<path d="M0 0 C-3.1749094 1.9078584 -5.10585211 2.1609041 -8.75 1.625 C-9.54921875 1.51414063 -10.3484375 1.40328125 -11.171875 1.2890625 C-11.77515625 1.19367188 -12.3784375 1.09828125 -13 1 C-13 0.67 -13 0.34 -13 0 C-8.37078475 -1.0161692 -4.65537393 -0.83796731 0 0 Z " fill="#5A5464" transform="translate(422,169)"/>
<path d="M0 0 C0.928125 0.0825 1.85625 0.165 2.8125 0.25 C1.40490479 3.06519043 -0.41333277 3.86291638 -3.1875 5.25 C-4.1775 4.92 -5.1675 4.59 -6.1875 4.25 C-4.36434338 1.00883268 -3.82500054 0.30000004 0 0 Z " fill="#8D829D" transform="translate(538.1875,600.75)"/>
<path d="M0 0 C0.66 0 1.32 0 2 0 C1.67 1.65 1.34 3.3 1 5 C-0.65 5 -2.3 5 -4 5 C-3.67 4.34 -3.34 3.68 -3 3 C-2.34 3 -1.68 3 -1 3 C-0.67 2.01 -0.34 1.02 0 0 Z " fill="#756B85" transform="translate(540,519)"/>
<path d="M0 0 C1.32 0 2.64 0 4 0 C3.67 1.65 3.34 3.3 3 5 C2.01 5 1.02 5 0 5 C0 3.35 0 1.7 0 0 Z " fill="#7B708A" transform="translate(293,327)"/>
<path d="M0 0 C0.33 0.99 0.66 1.98 1 3 C-0.375 4.5 -0.375 4.5 -2 6 C-2.66 6 -3.32 6 -4 6 C-3.67 4.35 -3.34 2.7 -3 1 C-2.01 0.67 -1.02 0.34 0 0 Z " fill="#7F748F" transform="translate(269,289)"/>
</svg>
