<?xml version="1.0" encoding="UTF-8"?>
<svg version="1.1" xmlns="http://www.w3.org/2000/svg" width="839" height="839">
<path d="M0 0 C0.81082031 0.16226074 1.62164062 0.32452148 2.45703125 0.49169922 C6.99088566 1.44016747 11.31102542 2.70627734 15.6875 4.21923828 C18.08910348 5.03008371 20.50363351 5.75702594 22.9375 6.46484375 C23.77023437 6.70783203 24.60296875 6.95082031 25.4609375 7.20117188 C27.15260474 7.69175537 28.84531949 8.17874118 30.5390625 8.66210938 C36.27029626 10.34333042 41.58502315 12.49504024 47 15 C48.23455934 15.52911955 49.47144449 16.05285587 50.7109375 16.5703125 C60.75865812 20.83363106 70.34424691 25.76390289 79.95898438 30.92089844 C82.48623118 32.25707438 85.04932411 33.51015602 87.625 34.75 C91.54295475 36.6818635 95.09465597 38.96456952 98.68359375 41.44921875 C102.0624097 43.71125911 105.59175793 45.70035609 109.12890625 47.703125 C109.74636719 48.13109375 110.36382813 48.5590625 111 49 C111 49.66 111 50.32 111 51 C111.65355469 51.20625 112.30710937 51.4125 112.98046875 51.625 C117.18553981 53.53985771 120.64155225 56.21808428 124.3125 59 C125.05306641 59.5465625 125.79363281 60.093125 126.55664062 60.65625 C127.60561523 61.44515625 127.60561523 61.44515625 128.67578125 62.25 C129.31427002 62.72953125 129.95275879 63.2090625 130.6105957 63.703125 C131.06909912 64.13109375 131.52760254 64.5590625 132 65 C132 65.66 132 66.32 132 67 C132.66 67 133.32 67 134 67 C134.66 67.99 135.32 68.98 136 70 C137.66279327 71.0064275 139.32983484 72.00585407 141 73 C143.3125 75.0625 143.3125 75.0625 145 77 C145 77.66 145 78.32 145 79 C145.556875 79.226875 146.11375 79.45375 146.6875 79.6875 C149.67961603 81.38572802 151.61600535 83.50764196 154 86 C155.33062607 87.33603511 156.66415805 88.66918001 158 90 C159.33333333 91.33333333 160.66666667 92.66666667 162 94 C163.21816406 95.18529297 163.21816406 95.18529297 164.4609375 96.39453125 C167.88837428 99.91160868 170.8653947 103.72956772 173.9140625 107.57421875 C175.94813781 110.15985855 175.94813781 110.15985855 179 112 C179.97516576 113.66721889 180.94996904 115.33652045 181.83984375 117.05078125 C183.33599803 119.56452194 185.16497799 121.72204164 187 124 C188.51831989 126.13580562 190.01886756 128.27646205 191.5 130.4375 C191.87769531 130.98470703 192.25539063 131.53191406 192.64453125 132.09570312 C193.76809095 133.72698826 194.8840944 135.36346943 196 137 C196.7528125 138.06347656 197.505625 139.12695312 198.28125 140.22265625 C200 143 200 143 200 146 C200.66 146 201.32 146 202 146 C202.91145833 147.85546875 203.82291667 149.7109375 204.734375 151.56640625 C206.04620273 154.08884044 207.45791157 156.54428435 208.87597656 159.00805664 C211.00060237 162.77322214 212.99289754 166.60880001 215 170.4375 C215.42539062 171.24509766 215.85078125 172.05269531 216.2890625 172.88476562 C217.53321478 175.25285301 218.76861255 177.6252532 220 180 C220.37382813 180.71559082 220.74765625 181.43118164 221.1328125 182.16845703 C223.12284331 186.04441056 224.72752384 189.81737656 226 194 C226.31839844 194.95519531 226.63679687 195.91039062 226.96484375 196.89453125 C227.64101564 198.92304691 228.31676613 200.95170307 228.9921875 202.98046875 C229.59836246 204.79664411 230.20696212 206.61201656 230.8203125 208.42578125 C232.45251901 213.26226685 233.94317053 218.12459411 235.3515625 223.03125 C235.82945524 224.97959154 235.82945524 224.97959154 237 226 C237.34309051 227.30430031 237.63956853 228.62096562 237.9140625 229.94140625 C238.61081667 233.21331749 239.34860257 236.4666029 240.1484375 239.71484375 C242.97006169 251.54418033 244.87164322 263.37501931 246.3125 275.4375 C246.44298737 276.49491898 246.44298737 276.49491898 246.57611084 277.57369995 C247.68144971 286.64368548 248.13889355 295.45611123 247.86401367 304.59399414 C247.99812744 307.95309869 248.68669698 309.95969376 250 313 C249.84720262 315.79936335 249.58799217 318.42544398 249.1875 321.1875 C248.38557036 327.38371359 247.81423673 333.50777065 247.5625 339.75 C246.87548318 354.69882386 244.67834545 369.4998556 241 384 C240.69553522 385.33249703 240.39499796 386.66589541 240.09765625 388 C237.89065663 397.84696052 235.19505527 407.42985459 232 417 C231.73815918 417.79341797 231.47631836 418.58683594 231.20654297 419.40429688 C227.70208251 429.96478672 223.87549797 440.18733474 218.91796875 450.15380859 C217.95385034 452.09281483 217.00769725 454.03998871 216.0625 455.98828125 C208.37538804 471.72729804 199.34992436 486.28990457 189.50585938 500.76171875 C188.20388475 502.69694951 186.95113403 504.65494508 185.703125 506.625 C185.14109375 507.40875 184.5790625 508.1925 184 509 C183.34 509 182.68 509 182 509 C181.77699219 509.69480469 181.55398438 510.38960937 181.32421875 511.10546875 C179.68917763 514.67940818 177.3818385 517.38879972 174.8125 520.3125 C174.32072266 520.88210449 173.82894531 521.45170898 173.32226562 522.03857422 C171.88743976 523.69765039 170.44428867 525.34916307 169 527 C168.28199219 527.83144531 167.56398438 528.66289063 166.82421875 529.51953125 C162.4289333 534.59246242 162.4289333 534.59246242 160.35546875 536.5625 C158.80885617 537.98350605 158.80885617 537.98350605 158.3125 540.375 C156.8761818 543.24763639 156.24272526 543.64582571 153.5625 545.1875 C148.7394616 547.96466471 144.95128087 551.57447198 140.890625 555.3515625 C128.17699115 567 128.17699115 567 125 567 C124.70609375 567.84304688 124.70609375 567.84304688 124.40625 568.703125 C122.42719875 571.93557537 119.59409489 573.6895073 116.5 575.75 C115.90574219 576.16121094 115.31148437 576.57242188 114.69921875 576.99609375 C110.27818729 580 110.27818729 580 108 580 C108 580.66 108 581.32 108 582 C106.55947266 582.81210938 106.55947266 582.81210938 105.08984375 583.640625 C102.19810833 585.29221592 99.34440175 586.99620632 96.50390625 588.734375 C85.16112058 595.66709476 73.73968689 602.05402128 61.6171875 607.52734375 C58.69895129 608.78362952 58.69895129 608.78362952 58 612 C56.7934375 612.185625 56.7934375 612.185625 55.5625 612.375 C54.386875 612.58125 53.21125 612.7875 52 613 C51.34644531 613.11085938 50.69289063 613.22171875 50.01953125 613.3359375 C45.65619055 614.17840401 41.81196259 615.4446833 37.75 617.25 C29.57285573 620.79482341 21.00651202 622.96968627 12.4296875 625.31982422 C9.3088037 626.19349607 6.22086702 627.16693436 3.125 628.125 C-15.35205772 633.300287 -34.46860092 634.91204839 -53.50341797 636.69335938 C-54.35643494 636.77354813 -55.2094519 636.85373688 -56.08831787 636.93635559 C-57.69942673 637.0867 -59.31078642 637.2343889 -60.92242432 637.37895203 C-63.97888065 637.6617134 -66.9566543 637.99101457 -69.96435547 638.61450195 C-70.63611816 638.74171631 -71.30788086 638.86893066 -72 639 C-72.33 638.67 -72.66 638.34 -73 638 C-74.84368771 637.78265163 -76.69484916 637.62815996 -78.546875 637.5 C-80.28130859 637.37625 -80.28130859 637.37625 -82.05078125 637.25 C-83.88189453 637.12625 -83.88189453 637.12625 -85.75 637 C-88.11980446 636.83351538 -90.48959617 636.66684911 -92.859375 636.5 C-96.34616713 636.25465414 -99.83282669 636.01092612 -103.32080078 635.78295898 C-111.07524103 635.2449603 -118.69833266 634.27294755 -126.375 633.0625 C-127.49777344 632.89298828 -128.62054688 632.72347656 -129.77734375 632.54882812 C-135.32481095 631.68756256 -140.62826666 630.66754422 -146 629 C-148.5185114 628.36570824 -151.03948056 627.74111575 -153.5625 627.125 C-173.28424562 622.23249887 -173.28424562 622.23249887 -181.5 618.75 C-185.1456424 617.20992664 -187.98652281 616.57752872 -192 617 C-192.33 616.01 -192.66 615.02 -193 614 C-195.20458249 612.89125108 -195.20458249 612.89125108 -198 612 C-207.05153407 608.52989687 -215.55956755 604.8110465 -224 600 C-226.12324559 598.87169235 -228.24833164 597.746843 -230.375 596.625 C-241.14069825 590.82121718 -251.19887605 584.30112711 -261 577 C-262.91597141 575.62403137 -264.83263427 574.24902503 -266.75 572.875 C-270.39179899 570.22876363 -273.86585629 567.49975658 -277.23046875 564.51171875 C-280.13171052 562.03317445 -283.21274734 559.78721232 -286.27734375 557.515625 C-286.84582031 557.01546875 -287.41429687 556.5153125 -288 556 C-288 555.34 -288 554.68 -288 554 C-288.5775 553.7525 -289.155 553.505 -289.75 553.25 C-292.34375315 551.80902603 -293.96552222 550.15777947 -296 548 C-296.804375 547.21625 -297.60875 546.4325 -298.4375 545.625 C-301.12699591 542.86990663 -303.53592281 539.95689262 -306 537 C-306.78375 536.21625 -307.5675 535.4325 -308.375 534.625 C-311.16906598 531.83093402 -313.72699448 528.89488329 -316.30859375 525.90625 C-317.66355512 524.37918038 -319.10120666 522.92565204 -320.5625 521.5 C-323.1725515 518.8230241 -325.31666008 515.997042 -327.51953125 512.984375 C-328.85163795 511.19885996 -330.23728677 509.50223794 -331.6875 507.8125 C-333.77077913 505.27878215 -335.3227552 502.80519193 -337 500 C-338.09241662 498.44998514 -339.19700274 496.90848818 -340.3125 495.375 C-343.45427215 490.93135186 -346.10935278 486.35665216 -348.640625 481.54296875 C-350.01450747 478.97286103 -351.49585377 476.49593121 -353 474 C-354.49532756 471.40491328 -355.96715773 468.79680524 -357.4375 466.1875 C-357.81970703 465.51396484 -358.20191406 464.84042969 -358.59570312 464.14648438 C-360.54677369 460.68490757 -362.45376246 457.2022828 -364.28515625 453.67578125 C-364.61523682 453.04196533 -364.94531738 452.40814941 -365.28540039 451.75512695 C-366 450 -366 450 -366 447 C-366.66 447 -367.32 447 -368 447 C-368.18062988 446.4423999 -368.36125977 445.8847998 -368.54736328 445.31030273 C-373.07440609 431.37034095 -373.07440609 431.37034095 -378.3125 417.6875 C-380.32737181 412.7729185 -381.89469625 408.18642528 -383 403 C-383.45982054 401.1904566 -383.92381226 399.38197097 -384.390625 397.57421875 C-386.01846741 391.08985705 -387.32599156 384.56870731 -388.5625 378 C-388.77068359 376.91460937 -388.97886719 375.82921875 -389.19335938 374.7109375 C-389.8090219 371.47629678 -390.40752234 368.23896087 -391 365 C-391.18401367 364.02200439 -391.36802734 363.04400879 -391.55761719 362.03637695 C-392.97892273 354.1139881 -393.63678021 346.21700778 -394.125 338.1875 C-394.16669312 337.5149115 -394.20838623 336.842323 -394.25134277 336.14935303 C-395.28415554 319.2782519 -395.84075682 302.58491452 -393.50390625 285.8046875 C-392.90081573 281.25112033 -392.5929254 276.7098274 -392.34375 272.125 C-391.97772942 268.79754018 -391.29149359 265.65308796 -390.53515625 262.39648438 C-390.00599911 260.02686461 -389.5597495 257.65698489 -389.140625 255.265625 C-386.16776407 238.42220135 -382.31053889 221.05874786 -375.4375 205.3125 C-373.99005213 202.11194609 -373.99005213 202.11194609 -373.0546875 199.1484375 C-370.05100596 190.18189186 -365.96612711 181.57358541 -362 173 C-361.34 173 -360.68 173 -360 173 C-359.88785156 172.11441406 -359.77570313 171.22882813 -359.66015625 170.31640625 C-357.82908531 161.11771261 -351.00131034 152.54289415 -346.07080078 144.70458984 C-345.35245686 143.56107017 -344.63732153 142.41552907 -343.92529297 141.26806641 C-339.00828932 133.34733314 -333.75288117 125.85998428 -327.96875 118.546875 C-326.01201239 116.18501908 -326.01201239 116.18501908 -325 114 C-324.34 114 -323.68 114 -323 114 C-322.58814453 113.11054688 -322.58814453 113.11054688 -322.16796875 112.203125 C-321.04856139 110.09160075 -319.89116747 108.53194793 -318.3125 106.75 C-317.51392578 105.84314453 -317.51392578 105.84314453 -316.69921875 104.91796875 C-316.13847656 104.28503906 -315.57773437 103.65210938 -315 103 C-314.44957031 102.35675781 -313.89914062 101.71351563 -313.33203125 101.05078125 C-309.10789249 96.13067455 -304.62416238 91.54255951 -300 87 C-299.21238281 86.2059375 -298.42476563 85.411875 -297.61328125 84.59375 C-294.89737015 81.89813719 -292.12732264 79.27959452 -289.3125 76.6875 C-288.35988281 75.80449219 -287.40726562 74.92148438 -286.42578125 74.01171875 C-284 72 -284 72 -282 72 C-281.79375 71.443125 -281.5875 70.88625 -281.375 70.3125 C-279.42316968 67.02987629 -277.05769006 65.29326754 -274 63 C-273.34 63 -272.68 63 -272 63 C-272 62.34 -272 61.68 -272 61 C-271.05125 60.505 -270.1025 60.01 -269.125 59.5 C-265.9011688 57.66798347 -263.11202022 55.5420374 -260.25 53.1875 C-255.08869668 48.98084376 -249.68464818 45.45451697 -244 42 C-242.7968284 41.25788804 -241.59370586 40.51569655 -240.390625 39.7734375 C-233.76273362 35.71296937 -227.10438472 31.92331417 -220.1015625 28.53515625 C-217.13696875 27.06779435 -214.23451253 25.51918609 -211.32983398 23.93823242 C-203.10721275 19.46595623 -194.89474085 15.93951044 -186 13 C-184.14453125 12.38151042 -182.2890625 11.76302083 -180.43359375 11.14453125 C-179.14453125 10.71484375 -177.85546875 10.28515625 -176.56640625 9.85546875 C-175.93605469 9.64535156 -175.30570313 9.43523437 -174.65625 9.21875 C-173.4496875 8.8165625 -172.243125 8.414375 -171 8 C-169.97648438 7.65582031 -168.95296875 7.31164062 -167.8984375 6.95703125 C-143.87843026 -0.97410322 -118.24117369 -5.82388972 -92.94995117 -6.70996094 C-61.17581278 -7.83250165 -31.46903188 -6.44632365 0 0 Z " fill="#8B809B" transform="translate(492,103)"/>
<path d="M0 0 C0.81082031 0.16226074 1.62164062 0.32452148 2.45703125 0.49169922 C6.99088566 1.44016747 11.31102542 2.70627734 15.6875 4.21923828 C18.08910348 5.03008371 20.50363351 5.75702594 22.9375 6.46484375 C23.77023437 6.70783203 24.60296875 6.95082031 25.4609375 7.20117188 C27.15260474 7.69175537 28.84531949 8.17874118 30.5390625 8.66210938 C36.27029626 10.34333042 41.58502315 12.49504024 47 15 C48.23455934 15.52911955 49.47144449 16.05285587 50.7109375 16.5703125 C60.75865812 20.83363106 70.34424691 25.76390289 79.95898438 30.92089844 C82.48623118 32.25707438 85.04932411 33.51015602 87.625 34.75 C91.54295475 36.6818635 95.09465597 38.96456952 98.68359375 41.44921875 C102.0624097 43.71125911 105.59175793 45.70035609 109.12890625 47.703125 C109.74636719 48.13109375 110.36382813 48.5590625 111 49 C111 49.66 111 50.32 111 51 C111.65355469 51.20625 112.30710937 51.4125 112.98046875 51.625 C117.18553981 53.53985771 120.64155225 56.21808428 124.3125 59 C125.05306641 59.5465625 125.79363281 60.093125 126.55664062 60.65625 C127.60561523 61.44515625 127.60561523 61.44515625 128.67578125 62.25 C129.31427002 62.72953125 129.95275879 63.2090625 130.6105957 63.703125 C131.06909912 64.13109375 131.52760254 64.5590625 132 65 C132 65.66 132 66.32 132 67 C132.66 67 133.32 67 134 67 C134.66 67.99 135.32 68.98 136 70 C137.66279327 71.0064275 139.32983484 72.00585407 141 73 C143.3125 75.0625 143.3125 75.0625 145 77 C145 77.66 145 78.32 145 79 C145.556875 79.226875 146.11375 79.45375 146.6875 79.6875 C149.67961603 81.38572802 151.61600535 83.50764196 154 86 C155.33062607 87.33603511 156.66415805 88.66918001 158 90 C159.33333333 91.33333333 160.66666667 92.66666667 162 94 C163.21816406 95.18529297 163.21816406 95.18529297 164.4609375 96.39453125 C167.88837428 99.91160868 170.8653947 103.72956772 173.9140625 107.57421875 C175.94813781 110.15985855 175.94813781 110.15985855 179 112 C179.97516576 113.66721889 180.94996904 115.33652045 181.83984375 117.05078125 C183.33599803 119.56452194 185.16497799 121.72204164 187 124 C188.51831989 126.13580562 190.01886756 128.27646205 191.5 130.4375 C191.87769531 130.98470703 192.25539063 131.53191406 192.64453125 132.09570312 C193.76809095 133.72698826 194.8840944 135.36346943 196 137 C196.7528125 138.06347656 197.505625 139.12695312 198.28125 140.22265625 C200 143 200 143 200 146 C200.66 146 201.32 146 202 146 C202.91145833 147.85546875 203.82291667 149.7109375 204.734375 151.56640625 C206.04620273 154.08884044 207.45791157 156.54428435 208.87597656 159.00805664 C211.00060237 162.77322214 212.99289754 166.60880001 215 170.4375 C215.42539062 171.24509766 215.85078125 172.05269531 216.2890625 172.88476562 C217.53321478 175.25285301 218.76861255 177.6252532 220 180 C220.37382813 180.71559082 220.74765625 181.43118164 221.1328125 182.16845703 C223.12284331 186.04441056 224.72752384 189.81737656 226 194 C226.31839844 194.95519531 226.63679687 195.91039062 226.96484375 196.89453125 C227.64101564 198.92304691 228.31676613 200.95170307 228.9921875 202.98046875 C229.59836246 204.79664411 230.20696212 206.61201656 230.8203125 208.42578125 C232.45251901 213.26226685 233.94317053 218.12459411 235.3515625 223.03125 C235.82945524 224.97959154 235.82945524 224.97959154 237 226 C237.34309051 227.30430031 237.63956853 228.62096562 237.9140625 229.94140625 C238.61081667 233.21331749 239.34860257 236.4666029 240.1484375 239.71484375 C242.97006169 251.54418033 244.87164322 263.37501931 246.3125 275.4375 C246.44298737 276.49491898 246.44298737 276.49491898 246.57611084 277.57369995 C247.68144971 286.64368548 248.13889355 295.45611123 247.86401367 304.59399414 C247.99812744 307.95309869 248.68669698 309.95969376 250 313 C249.84720262 315.79936335 249.58799217 318.42544398 249.1875 321.1875 C248.38557036 327.38371359 247.81423673 333.50777065 247.5625 339.75 C246.87548318 354.69882386 244.67834545 369.4998556 241 384 C240.69553522 385.33249703 240.39499796 386.66589541 240.09765625 388 C237.89065663 397.84696052 235.19505527 407.42985459 232 417 C231.73815918 417.79341797 231.47631836 418.58683594 231.20654297 419.40429688 C227.70208251 429.96478672 223.87549797 440.18733474 218.91796875 450.15380859 C217.95385034 452.09281483 217.00769725 454.03998871 216.0625 455.98828125 C208.37538804 471.72729804 199.34992436 486.28990457 189.50585938 500.76171875 C188.20388475 502.69694951 186.95113403 504.65494508 185.703125 506.625 C185.14109375 507.40875 184.5790625 508.1925 184 509 C183.34 509 182.68 509 182 509 C181.77699219 509.69480469 181.55398438 510.38960937 181.32421875 511.10546875 C179.68917763 514.67940818 177.3818385 517.38879972 174.8125 520.3125 C174.32072266 520.88210449 173.82894531 521.45170898 173.32226562 522.03857422 C171.88743976 523.69765039 170.44428867 525.34916307 169 527 C168.28199219 527.83144531 167.56398438 528.66289063 166.82421875 529.51953125 C162.4289333 534.59246242 162.4289333 534.59246242 160.35546875 536.5625 C158.80885617 537.98350605 158.80885617 537.98350605 158.3125 540.375 C156.8761818 543.24763639 156.24272526 543.64582571 153.5625 545.1875 C148.7394616 547.96466471 144.95128087 551.57447198 140.890625 555.3515625 C128.17699115 567 128.17699115 567 125 567 C124.70609375 567.84304688 124.70609375 567.84304688 124.40625 568.703125 C122.42719875 571.93557537 119.59409489 573.6895073 116.5 575.75 C115.90574219 576.16121094 115.31148437 576.57242188 114.69921875 576.99609375 C110.27818729 580 110.27818729 580 108 580 C108 580.66 108 581.32 108 582 C106.55947266 582.81210938 106.55947266 582.81210938 105.08984375 583.640625 C102.19810833 585.29221592 99.34440175 586.99620632 96.50390625 588.734375 C85.16112058 595.66709476 73.73968689 602.05402128 61.6171875 607.52734375 C58.69895129 608.78362952 58.69895129 608.78362952 58 612 C56.7934375 612.185625 56.7934375 612.185625 55.5625 612.375 C54.386875 612.58125 53.21125 612.7875 52 613 C51.34644531 613.11085938 50.69289063 613.22171875 50.01953125 613.3359375 C45.65619055 614.17840401 41.81196259 615.4446833 37.75 617.25 C29.57285573 620.79482341 21.00651202 622.96968627 12.4296875 625.31982422 C9.3088037 626.19349607 6.22086702 627.16693436 3.125 628.125 C-15.35205772 633.300287 -34.46860092 634.91204839 -53.50341797 636.69335938 C-54.35643494 636.77354813 -55.2094519 636.85373688 -56.08831787 636.93635559 C-57.69942673 637.0867 -59.31078642 637.2343889 -60.92242432 637.37895203 C-63.97888065 637.6617134 -66.9566543 637.99101457 -69.96435547 638.61450195 C-70.63611816 638.74171631 -71.30788086 638.86893066 -72 639 C-72.33 638.67 -72.66 638.34 -73 638 C-74.84368771 637.78265163 -76.69484916 637.62815996 -78.546875 637.5 C-80.28130859 637.37625 -80.28130859 637.37625 -82.05078125 637.25 C-83.88189453 637.12625 -83.88189453 637.12625 -85.75 637 C-88.11980446 636.83351538 -90.48959617 636.66684911 -92.859375 636.5 C-96.34616713 636.25465414 -99.83282669 636.01092612 -103.32080078 635.78295898 C-111.07524103 635.2449603 -118.69833266 634.27294755 -126.375 633.0625 C-127.49777344 632.89298828 -128.62054688 632.72347656 -129.77734375 632.54882812 C-135.32481095 631.68756256 -140.62826666 630.66754422 -146 629 C-148.5185114 628.36570824 -151.03948056 627.74111575 -153.5625 627.125 C-173.28424562 622.23249887 -173.28424562 622.23249887 -181.5 618.75 C-185.1456424 617.20992664 -187.98652281 616.57752872 -192 617 C-192.33 616.01 -192.66 615.02 -193 614 C-195.20458249 612.89125108 -195.20458249 612.89125108 -198 612 C-207.05153407 608.52989687 -215.55956755 604.8110465 -224 600 C-226.12324559 598.87169235 -228.24833164 597.746843 -230.375 596.625 C-241.14069825 590.82121718 -251.19887605 584.30112711 -261 577 C-262.91597141 575.62403137 -264.83263427 574.24902503 -266.75 572.875 C-270.39179899 570.22876363 -273.86585629 567.49975658 -277.23046875 564.51171875 C-280.13171052 562.03317445 -283.21274734 559.78721232 -286.27734375 557.515625 C-286.84582031 557.01546875 -287.41429687 556.5153125 -288 556 C-288 555.34 -288 554.68 -288 554 C-288.5775 553.7525 -289.155 553.505 -289.75 553.25 C-292.34375315 551.80902603 -293.96552222 550.15777947 -296 548 C-296.804375 547.21625 -297.60875 546.4325 -298.4375 545.625 C-301.12699591 542.86990663 -303.53592281 539.95689262 -306 537 C-306.78375 536.21625 -307.5675 535.4325 -308.375 534.625 C-311.16906598 531.83093402 -313.72699448 528.89488329 -316.30859375 525.90625 C-317.66355512 524.37918038 -319.10120666 522.92565204 -320.5625 521.5 C-323.1725515 518.8230241 -325.31666008 515.997042 -327.51953125 512.984375 C-328.85163795 511.19885996 -330.23728677 509.50223794 -331.6875 507.8125 C-333.77077913 505.27878215 -335.3227552 502.80519193 -337 500 C-338.09241662 498.44998514 -339.19700274 496.90848818 -340.3125 495.375 C-343.45427215 490.93135186 -346.10935278 486.35665216 -348.640625 481.54296875 C-350.01450747 478.97286103 -351.49585377 476.49593121 -353 474 C-354.49532756 471.40491328 -355.96715773 468.79680524 -357.4375 466.1875 C-357.81970703 465.51396484 -358.20191406 464.84042969 -358.59570312 464.14648438 C-360.54677369 460.68490757 -362.45376246 457.2022828 -364.28515625 453.67578125 C-364.61523682 453.04196533 -364.94531738 452.40814941 -365.28540039 451.75512695 C-366 450 -366 450 -366 447 C-366.66 447 -367.32 447 -368 447 C-368.18062988 446.4423999 -368.36125977 445.8847998 -368.54736328 445.31030273 C-373.07440609 431.37034095 -373.07440609 431.37034095 -378.3125 417.6875 C-380.32737181 412.7729185 -381.89469625 408.18642528 -383 403 C-383.45982054 401.1904566 -383.92381226 399.38197097 -384.390625 397.57421875 C-386.01846741 391.08985705 -387.32599156 384.56870731 -388.5625 378 C-388.77068359 376.91460937 -388.97886719 375.82921875 -389.19335938 374.7109375 C-389.8090219 371.47629678 -390.40752234 368.23896087 -391 365 C-391.18401367 364.02200439 -391.36802734 363.04400879 -391.55761719 362.03637695 C-392.97892273 354.1139881 -393.63678021 346.21700778 -394.125 338.1875 C-394.16669312 337.5149115 -394.20838623 336.842323 -394.25134277 336.14935303 C-395.28415554 319.2782519 -395.84075682 302.58491452 -393.50390625 285.8046875 C-392.90081573 281.25112033 -392.5929254 276.7098274 -392.34375 272.125 C-391.97772942 268.79754018 -391.29149359 265.65308796 -390.53515625 262.39648438 C-390.00599911 260.02686461 -389.5597495 257.65698489 -389.140625 255.265625 C-386.16776407 238.42220135 -382.31053889 221.05874786 -375.4375 205.3125 C-373.99005213 202.11194609 -373.99005213 202.11194609 -373.0546875 199.1484375 C-370.05100596 190.18189186 -365.96612711 181.57358541 -362 173 C-361.34 173 -360.68 173 -360 173 C-359.88785156 172.11441406 -359.77570313 171.22882813 -359.66015625 170.31640625 C-357.82908531 161.11771261 -351.00131034 152.54289415 -346.07080078 144.70458984 C-345.35245686 143.56107017 -344.63732153 142.41552907 -343.92529297 141.26806641 C-339.00828932 133.34733314 -333.75288117 125.85998428 -327.96875 118.546875 C-326.01201239 116.18501908 -326.01201239 116.18501908 -325 114 C-324.34 114 -323.68 114 -323 114 C-322.58814453 113.11054688 -322.58814453 113.11054688 -322.16796875 112.203125 C-321.04856139 110.09160075 -319.89116747 108.53194793 -318.3125 106.75 C-317.51392578 105.84314453 -317.51392578 105.84314453 -316.69921875 104.91796875 C-316.13847656 104.28503906 -315.57773437 103.65210938 -315 103 C-314.44957031 102.35675781 -313.89914062 101.71351563 -313.33203125 101.05078125 C-309.10789249 96.13067455 -304.62416238 91.54255951 -300 87 C-299.21238281 86.2059375 -298.42476563 85.411875 -297.61328125 84.59375 C-294.89737015 81.89813719 -292.12732264 79.27959452 -289.3125 76.6875 C-288.35988281 75.80449219 -287.40726562 74.92148438 -286.42578125 74.01171875 C-284 72 -284 72 -282 72 C-281.79375 71.443125 -281.5875 70.88625 -281.375 70.3125 C-279.42316968 67.02987629 -277.05769006 65.29326754 -274 63 C-273.34 63 -272.68 63 -272 63 C-272 62.34 -272 61.68 -272 61 C-271.05125 60.505 -270.1025 60.01 -269.125 59.5 C-265.9011688 57.66798347 -263.11202022 55.5420374 -260.25 53.1875 C-255.08869668 48.98084376 -249.68464818 45.45451697 -244 42 C-242.7968284 41.25788804 -241.59370586 40.51569655 -240.390625 39.7734375 C-233.76273362 35.71296937 -227.10438472 31.92331417 -220.1015625 28.53515625 C-217.13696875 27.06779435 -214.23451253 25.51918609 -211.32983398 23.93823242 C-203.10721275 19.46595623 -194.89474085 15.93951044 -186 13 C-184.14453125 12.38151042 -182.2890625 11.76302083 -180.43359375 11.14453125 C-179.14453125 10.71484375 -177.85546875 10.28515625 -176.56640625 9.85546875 C-175.93605469 9.64535156 -175.30570313 9.43523437 -174.65625 9.21875 C-173.4496875 8.8165625 -172.243125 8.414375 -171 8 C-169.97648438 7.65582031 -168.95296875 7.31164062 -167.8984375 6.95703125 C-143.87843026 -0.97410322 -118.24117369 -5.82388972 -92.94995117 -6.70996094 C-61.17581278 -7.83250165 -31.46903188 -6.44632365 0 0 Z M-154.88476562 13.35009766 C-159.47487245 14.76040056 -164.12411724 15.97380869 -168.76293945 17.21264648 C-175.39519703 19.01935701 -181.73752321 21.3498152 -188 24.1875 C-188.763125 24.53167969 -189.52625 24.87585938 -190.3125 25.23046875 C-190.869375 25.48441406 -191.42625 25.73835938 -192 26 C-190.16238687 31.03178883 -187.51956001 35.59359688 -184.83398438 40.20898438 C-182.25101564 44.86405741 -181.38340157 48.68546434 -181 54 C-183.625 53.6875 -183.625 53.6875 -187 52 C-189.40145458 48.53944237 -191.14979094 44.77632412 -193 41 C-194.11535332 38.93226737 -195.23993255 36.8694767 -196.375 34.8125 C-197.6875 32.40625 -197.6875 32.40625 -199 30 C-202.38964148 30.58110263 -205.25695597 31.42153471 -208.36328125 32.890625 C-209.16830078 33.27089844 -209.97332031 33.65117187 -210.80273438 34.04296875 C-212.04506836 34.64044922 -212.04506836 34.64044922 -213.3125 35.25 C-214.12912109 35.63285156 -214.94574219 36.01570313 -215.78710938 36.41015625 C-221.10189675 38.94262067 -226.07071018 41.78700613 -231 45 C-231.87785156 45.55042969 -232.75570312 46.10085937 -233.66015625 46.66796875 C-236.44886798 48.4318856 -239.22534254 50.21405361 -242 52 C-242.5770166 52.36754395 -243.1540332 52.73508789 -243.74853516 53.11376953 C-251.99210727 58.38043518 -259.63656881 63.97395285 -267.0078125 70.40625 C-269.68245756 72.72474128 -272.40393208 74.93976911 -275.1875 77.125 C-278.70880919 79.93050208 -282.16503623 82.79526522 -285.5625 85.75 C-286.38878906 86.46671875 -287.21507812 87.1834375 -288.06640625 87.921875 C-290.03765023 90.04046449 -290.7816016 91.13655427 -291 94 C-289.77045984 95.81299492 -289.77045984 95.81299492 -288 97 C-287.34 97 -286.68 97 -286 97 C-286 97.99 -286 98.98 -286 100 C-282.96344042 103.05076843 -282.96344042 103.05076843 -279 104 C-279 104.99 -279 105.98 -279 107 C-278.38125 107.0825 -277.7625 107.165 -277.125 107.25 C-275 108 -275 108 -273.75 110.0625 C-273.5025 110.701875 -273.255 111.34125 -273 112 C-272.34 112 -271.68 112 -271 112 C-270.67 112.99 -270.34 113.98 -270 115 C-268.515 115.99 -268.515 115.99 -267 117 C-264 119 -264 119 -263 122 C-262.34 122.33 -261.68 122.66 -261 123 C-260.59270772 125.32156597 -260.25561323 127.6568787 -260 130 C-265.01276138 128.70231769 -268.11775108 126.49280219 -271.75 122.9375 C-272.80026994 121.94086715 -273.8510593 120.94478141 -274.90234375 119.94921875 C-275.4216748 119.45212402 -275.94100586 118.9550293 -276.47607422 118.44287109 C-278.70994473 116.32781587 -281.01126727 114.29124613 -283.3125 112.25 C-294.31908858 102.36182284 -294.31908858 102.36182284 -296 99 C-296.99 99 -297.98 99 -299 99 C-302.05076843 102.03655958 -302.05076843 102.03655958 -303 106 C-303.58265625 106.2475 -304.1653125 106.495 -304.765625 106.75 C-307.33114236 108.18525446 -308.83724798 109.77663013 -310.75 112 C-311.36359375 112.70125 -311.9771875 113.4025 -312.609375 114.125 C-314.19856922 115.8786657 -314.19856922 115.8786657 -314 118 C-315.485 118.495 -315.485 118.495 -317 119 C-318.04644066 120.63790712 -319.0398183 122.31008021 -320 124 C-320.70125 124.86625 -321.4025 125.7325 -322.125 126.625 C-324.16710072 128.93522806 -324.16710072 128.93522806 -325 132 C-326.15372649 133.11979336 -327.30849889 134.23853091 -328.46875 135.3515625 C-333.25767209 140.50698373 -337.05169419 146.63786642 -340 153 C-340.66 153.99 -341.32 154.98 -342 156 C-342 156.99 -342 157.98 -342 159 C-342.99 159.33 -343.98 159.66 -345 160 C-345.66616129 161.75305602 -346.31819659 163.51219739 -346.91796875 165.2890625 C-348.33997529 168.85177924 -350.15677689 172.14031639 -352 175.5 C-354.77582098 180.57868261 -357.10292101 185.51954958 -359 191 C-359.66 191.99 -360.32 192.98 -361 194 C-361 194.99 -361 195.98 -361 197 C-359.91332031 197.29003906 -359.91332031 197.29003906 -358.8046875 197.5859375 C-348.85900217 200.26464208 -348.85900217 200.26464208 -344 202 C-342.6696875 202.37125 -342.6696875 202.37125 -341.3125 202.75 C-338.10292863 204.48490344 -337.36171133 206.70322521 -336 210 C-344.23322684 209.55371294 -351.23907236 208.16405802 -358.75 204.75 C-361.52904714 203.82365095 -363.18841976 204.34830922 -366 205 C-366.25394531 206.05058594 -366.50789063 207.10117187 -366.76953125 208.18359375 C-371.35067817 226.95086913 -371.35067817 226.95086913 -374.5234375 232.81640625 C-376.11756791 236.25348637 -376.62871466 239.06004626 -377.0625 242.8125 C-377.56191954 246.76245456 -378.06324954 250.62955041 -379 254.5 C-380.2310478 259.6277503 -380.85322019 264.83417454 -381.53515625 270.05859375 C-382 273 -382 273 -383 275 C-383.13954369 276.43769559 -383.22539863 277.88084712 -383.28125 279.32421875 C-383.31863281 280.18853516 -383.35601562 281.05285156 -383.39453125 281.94335938 C-383.44673828 283.30170898 -383.44673828 283.30170898 -383.5 284.6875 C-383.87238704 294.16957744 -383.87238704 294.16957744 -384.53125 298.45703125 C-385.17357622 303.31194695 -385.07957696 308.11043816 -385 313 C-383.27499268 312.98428955 -383.27499268 312.98428955 -381.51513672 312.96826172 C-377.23245377 312.93195387 -372.94978433 312.90906033 -368.66699219 312.89013672 C-366.81638294 312.88010369 -364.96578945 312.86647414 -363.11523438 312.84912109 C-360.4491791 312.82475392 -357.78333416 312.81348977 -355.1171875 312.8046875 C-354.29507782 312.79436493 -353.47296814 312.78404236 -352.62594604 312.77340698 C-348.01244664 312.7725139 -344.34366196 313.23443276 -340 315 C-339.67 316.65 -339.34 318.3 -339 320 C-353.9956311 320.78748007 -368.99483204 321.42387565 -384 322 C-384.35483583 333.52559333 -383.90597317 344.78384252 -382.625 356.25 C-382.49891357 357.39122314 -382.37282715 358.53244629 -382.24291992 359.70825195 C-381.54199301 365.63180587 -380.56493948 371.24728246 -379 377 C-378.57488414 379.06077506 -378.15813195 381.12329418 -377.75 383.1875 C-375.85845707 392.1171189 -373.29381806 400.84307497 -370.70800781 409.59277344 C-370.09229831 411.68618574 -369.49183808 413.7830014 -368.8984375 415.8828125 C-366.92513662 422.66904236 -364.41133434 428.80647085 -361 435 C-355.87397296 433.12702858 -351.25008942 430.44881355 -346.52734375 427.74609375 C-342.87499393 425.73176749 -340.20191789 424.4990021 -336 425 C-335.67 426.98 -335.34 428.96 -335 431 C-336.29744141 431.38671875 -336.29744141 431.38671875 -337.62109375 431.78125 C-341.08010553 433.02889356 -343.92639851 434.59001303 -347.0625 436.5 C-350.64272483 438.67485987 -354.06352172 440.55542082 -358 442 C-356.39868852 447.56819674 -354.75950114 451.51285348 -351 456 C-350.71125 456.886875 -350.4225 457.77375 -350.125 458.6875 C-348.74646143 462.74653025 -346.63535715 466.02958609 -344.33984375 469.6328125 C-343.10868225 471.80798413 -342.45532455 473.5603598 -342 476 C-341.34 476 -340.68 476 -340 476 C-339.79375 476.804375 -339.5875 477.60875 -339.375 478.4375 C-336.6032255 485.61891575 -331.68408087 491.73823781 -326.6796875 497.52734375 C-324.54763703 500.01879702 -323.04824203 501.85527392 -322 505 C-321.236875 505.763125 -320.47375 506.52625 -319.6875 507.3125 C-316.96800319 510.03199681 -315.08089467 512.77796954 -313 516 C-310.63534072 519.29363257 -308.08105726 521.83571832 -305 524.4375 C-301.5732127 527.35282651 -299.26648163 530.12809388 -297 534 C-295.01508358 533.73323796 -295.01508358 533.73323796 -293 533 C-292.67 532.01 -292.34 531.02 -292 530 C-291.01 530 -290.02 530 -289 530 C-285.94923157 526.96344042 -285.94923157 526.96344042 -285 523 C-284.01 522.67 -283.02 522.34 -282 522 C-280.75547209 520.55896768 -279.51580623 519.11243565 -278.33203125 517.62109375 C-276.38601039 515.25276924 -274.16600759 513.16600759 -272 511 C-271.34 510.01 -270.68 509.02 -270 508 C-269.01 507.67 -268.02 507.34 -267 507 C-266.67 506.34 -266.34 505.68 -266 505 C-263.67843403 504.59270772 -261.3431213 504.25561323 -259 504 C-260.29763237 509.01256847 -262.50694369 512.1181104 -266.0625 515.75 C-267.06052612 516.80018262 -268.05791274 517.85097333 -269.0546875 518.90234375 C-269.55194336 519.4216748 -270.04919922 519.94100586 -270.56152344 520.47607422 C-272.66317316 522.70256736 -274.66977522 525.01004402 -276.6875 527.3125 C-280.50423143 531.57704288 -284.58354256 535.36574892 -289 539 C-287.60848486 542.17021556 -286.00031891 544.20560244 -283.48046875 546.56640625 C-282.78759766 547.21673828 -282.09472656 547.86707031 -281.38085938 548.53710938 C-280.65705078 549.20548828 -279.93324219 549.87386719 -279.1875 550.5625 C-278.11918945 551.57086914 -278.11918945 551.57086914 -277.02929688 552.59960938 C-273.51736307 555.87113328 -270.20243106 558.63849026 -266 561 C-264.98457862 561.98433705 -263.9841718 562.98441846 -263 564 C-257.11919376 568.43254798 -250.90291413 572.38437954 -244.671875 576.30078125 C-242.1451963 577.90766024 -239.66398996 579.56715028 -237.1875 581.25 C-231.53335162 585.35126669 -231.53335162 585.35126669 -225 587 C-225 587.66 -225 588.32 -225 589 C-222.77208002 590.12752649 -220.54274113 591.25208139 -218.3125 592.375 C-217.37374023 592.85066406 -217.37374023 592.85066406 -216.41601562 593.3359375 C-212.99247259 595.05667117 -209.55495783 596.57919596 -206 598 C-203.48484889 599.3322441 -200.98893028 600.69364023 -198.5 602.07421875 C-195.55237327 603.16576177 -193.97357609 602.87614296 -191 602 C-190.71125 600.80375 -190.4225 599.6075 -190.125 598.375 C-189.2390186 594.84966143 -188.23754106 591.42143706 -187 588 C-186.67708984 587.06414062 -186.67708984 587.06414062 -186.34765625 586.109375 C-185.625 584.1875 -185.625 584.1875 -184 581 C-181.8984375 580.30078125 -181.8984375 580.30078125 -180 580 C-179.57726378 588.5173519 -180.7310089 594.00821959 -184.25 601.75 C-185.11476771 604.34430313 -184.75378177 605.43714198 -184 608 C-182.93072266 608.27263672 -182.93072266 608.27263672 -181.83984375 608.55078125 C-177.61151952 609.66050295 -173.57598365 610.74866168 -169.5625 612.5 C-162.93111975 615.29216011 -155.82883757 616.61430531 -148.8125 618.125 C-145 619 -145 619 -144 620 C-142.31391034 620.07205511 -140.62499341 620.08386068 -138.9375 620.0625 C-137.55884766 620.04896484 -137.55884766 620.04896484 -136.15234375 620.03515625 C-135.44207031 620.02355469 -134.73179687 620.01195312 -134 620 C-134 620.66 -134 621.32 -134 622 C-123.0517745 623.83489813 -112.13013617 625.29082621 -101.0625 626.1875 C-99.55635132 626.31294189 -99.55635132 626.31294189 -98.01977539 626.44091797 C-90.67147385 626.99992987 -83.36746685 627.08697343 -76 627 C-76.01047363 625.91058105 -76.02094727 624.82116211 -76.03173828 623.69873047 C-76.06806023 619.63968213 -76.09094473 615.58064805 -76.10986328 611.52148438 C-76.11989313 609.76787903 -76.13352029 608.0142903 -76.15087891 606.26074219 C-76.1752603 603.73368215 -76.1865134 601.2068441 -76.1953125 598.6796875 C-76.21079636 597.51214432 -76.21079636 597.51214432 -76.22659302 596.3210144 C-76.2275122 591.81634138 -75.70651048 588.24560912 -74 584 C-72.35 583.67 -70.7 583.34 -69 583 C-68.34 597.52 -67.68 612.04 -67 627 C-49.85605519 626.41554734 -33.3550676 625.36888412 -16.51245117 622.03125 C-13.10378959 621.36061033 -9.77814008 620.84634563 -6.3125 620.625 C-1.42096325 620.17361525 2.79223461 618.18145606 7.3046875 616.3359375 C12.23304671 614.55422624 17.22928575 613.42117151 22.3515625 612.34448242 C25.7683201 611.6102142 28.05376193 610.96415871 31 609 C32.175625 608.67 33.35125 608.34 34.5625 608 C38.03073325 607.29022994 38.03073325 607.29022994 40 605 C42.625 604.375 42.625 604.375 45 604 C43.93060044 599.04545486 41.29797482 594.92763315 38.79492188 590.57617188 C36.7589357 586.90550602 35.47458701 584.32840227 36 580 C37.98 579.67 39.96 579.34 42 579 C43.00510115 581.49051612 43.99354284 583.98263622 44.9296875 586.5 C46.73992403 591.2874024 48.45096852 595.19746627 52 599 C56.75880621 598.31749931 60.83245058 596.4976396 65.1875 594.5625 C66.27321289 594.09360352 66.27321289 594.09360352 67.38085938 593.61523438 C71.51450714 591.80649099 71.51450714 591.80649099 75 589 C76.134375 588.525625 77.26875 588.05125 78.4375 587.5625 C81.59494725 586.17765472 82.74708729 585.36019427 85 583 C87.1875 582.3125 87.1875 582.3125 89 582 C89 581.34 89 580.68 89 580 C89.70125 579.7525 90.4025 579.505 91.125 579.25 C94.39514548 577.82819762 97.141122 576.12753712 100 574 C100 573.34 100 572.68 100 572 C101.11568359 571.85498047 101.11568359 571.85498047 102.25390625 571.70703125 C105.36530773 570.90594495 106.63579537 569.88565146 108.9375 567.6875 C112.12890283 564.75212389 115.36283883 562.37528893 119 560 C122.03476864 557.71042366 125.0175879 555.35715688 128 553 C128.9075 552.29875 129.815 551.5975 130.75 550.875 C133.1075112 548.96793526 133.1075112 548.96793526 135.5 546.5 C138 544 138 544 140.75 541.875 C143.25052455 540.12568403 143.25052455 540.12568403 144 537 C142.94567143 535.12297549 142.94567143 535.12297549 141.3125 533.375 C140.79300781 532.76398437 140.27351562 532.15296875 139.73828125 531.5234375 C138.09755241 529.84885198 138.09755241 529.84885198 135.85546875 529.4765625 C135.24316406 529.31929687 134.63085938 529.16203125 134 529 C133.67 528.01 133.34 527.02 133 526 C131.55896768 524.75547209 130.11243565 523.51580623 128.62109375 522.33203125 C126.25276924 520.38601039 124.16600759 518.16600759 122 516 C121.01 515.34 120.02 514.68 119 514 C118.67 513.01 118.34 512.02 118 511 C117.34 510.67 116.68 510.34 116 510 C115.59270772 507.67843403 115.25561323 505.3431213 115 503 C120.01276746 504.29768388 123.11773343 506.50719337 126.75 510.0625 C127.79897232 511.0578261 128.8484597 512.05260965 129.8984375 513.046875 C130.41760742 513.54380859 130.93677734 514.04074219 131.47167969 514.55273438 C133.72820771 516.68958711 136.05162458 518.74883724 138.375 520.8125 C141.18761086 523.31410101 143.82828692 525.85544952 146.375 528.625 C148.64310185 531.22898778 148.64310185 531.22898778 150.8828125 530.94140625 C157.47491564 528.01023124 162.15526317 519.82911713 166 514 C167.31874293 512.50781071 168.65368452 511.02986036 170 509.5625 C172.37998429 506.94100439 174.45424676 504.49888737 176.125 501.375 C177.64364084 498.64144648 178.95773454 496.78611805 181 494.5 C183.92882705 491.20968044 185.91623344 487.88011705 188 484 C188.5775 483.071875 189.155 482.14375 189.75 481.1875 C191.16537965 479.13049488 191.16537965 479.13049488 191 477 C191.66 477 192.32 477 193 477 C199.16010423 466.56952072 199.16010423 466.56952072 204.2109375 455.57421875 C205 454 205 454 207 453 C208.07213353 450.34297344 209.05190424 447.7002139 210 445 C210.56025087 443.54080114 211.12264826 442.08242406 211.6875 440.625 C213.11348036 437.32912682 213.11348036 437.32912682 213 435 C211.80375 434.71125 210.6075 434.4225 209.375 434.125 C206.8156227 433.48966162 204.37666132 432.78806485 201.875 431.9375 C198.92390857 430.97518758 196.06871161 430.43838737 193 430 C192.67 429.01 192.34 428.02 192 427 C191.34 427 190.68 427 190 427 C190.66 425.68 191.32 424.36 192 423 C197.80145456 423.34475857 202.79667763 424.06111568 208.171875 426.30078125 C210.72553522 427.27750172 213.29686195 427.66210774 216 428 C219.54055217 423.23856778 221.29018376 418.65160817 223 413 C223.350625 412.01 223.70125 411.02 224.0625 410 C224.82137316 407.5716059 225.40811641 405.232028 225.9375 402.75 C226.82231903 398.61155507 227.96692131 394.59591708 229.21875 390.5546875 C230.99076121 384.76021085 232.46873462 379.04621127 233.4375 373.0625 C233.56165283 372.29671631 233.68580566 371.53093262 233.8137207 370.74194336 C236.50213922 353.75349805 238.4394837 337.21425618 238 320 C236.91058105 320.01047363 235.82116211 320.02094727 234.69873047 320.03173828 C230.63968213 320.06806023 226.58064805 320.09094473 222.52148438 320.10986328 C220.76787903 320.11989313 219.0142903 320.13352029 217.26074219 320.15087891 C214.73368215 320.1752603 212.2068441 320.1865134 209.6796875 320.1953125 C208.90132538 320.20563507 208.12296326 320.21595764 207.3210144 320.22659302 C202.81634138 320.2275122 199.24560912 319.70651048 195 318 C194.67 316.35 194.34 314.7 194 313 C208.85 312.34 223.7 311.68 239 311 C238.62902575 285.03180218 236.28470052 260.05710217 229 235 C228.28970494 232.25558656 227.61295155 229.50317133 226.9375 226.75 C225.6143354 221.33460046 225.6143354 221.33460046 224 216 C223.34 216 222.68 216 222 216 C222.0515625 215.14148438 222.103125 214.28296875 222.15625 213.3984375 C221.98149863 209.59759525 221.03929696 207.08841816 219.5 203.625 C219.0359375 202.56539062 218.571875 201.50578125 218.09375 200.4140625 C217.7328125 199.61742187 217.371875 198.82078125 217 198 C213.24557342 198.61653503 213.24557342 198.61653503 210 200.5 C207.67385313 202.24461015 205.84968477 202.60421045 203 203 C203 203.66 203 204.32 203 205 C202.195625 205.144375 201.39125 205.28875 200.5625 205.4375 C198.07896294 205.74135249 198.07896294 205.74135249 197 207 C194.67182036 207.36760731 192.3381615 207.70241581 190 208 C190.56130957 204.91279737 191.03659171 202.66952457 193.703125 200.81640625 C195.7758429 199.79982514 197.86792411 198.88471186 200 198 C203.78032236 196.1469008 207.40789057 194.19517799 211 192 C211.66 191.67 212.32 191.34 213 191 C212.21846118 187.2318664 210.75765302 183.84460463 209.25 180.3125 C208.51523438 178.57419922 208.51523438 178.57419922 207.765625 176.80078125 C206.14691098 173.18380259 204.25247886 169.75253434 202.30273438 166.30493164 C201.03433139 164.06074263 199.79824056 161.8016985 198.5703125 159.53515625 C198.16683594 158.79716797 197.76335938 158.05917969 197.34765625 157.29882812 C196.53599058 155.81423198 195.72865465 154.32726001 194.92578125 152.83789062 C189.60454304 143.14985852 182.89679806 134.42967639 176.25 125.625 C175.59128906 124.74972656 174.93257812 123.87445313 174.25390625 122.97265625 C173.03884007 121.35831883 171.82310995 119.74448072 170.60644531 118.13134766 C169.51494922 116.68320771 168.45247537 115.21282778 167.41699219 113.72412109 C166.94938477 113.15516113 166.48177734 112.58620117 166 112 C165.34 112 164.68 112 164 112 C163.74992188 111.43667969 163.49984375 110.87335938 163.2421875 110.29296875 C161.80730173 107.64429596 160.10935844 105.57766388 158.125 103.3125 C157.44695313 102.52488281 156.76890625 101.73726563 156.0703125 100.92578125 C153.93652524 98.9409565 152.89431902 98.15264157 150 98 C145.55293142 101.12240985 142.4294048 104.77919409 139 109 C138.113125 109.86625 137.22625 110.7325 136.3125 111.625 C133.95459022 113.80623987 133.95459022 113.80623987 132.875 116.25 C132.58625 116.8275 132.2975 117.405 132 118 C130.515 118.495 130.515 118.495 129 119 C128.34 119.99 127.68 120.98 127 122 C125 125 125 125 122 126 C121.67 126.66 121.34 127.32 121 128 C118.67843403 128.40729228 116.3431213 128.74438677 114 129 C115.29768231 123.98723862 117.50719781 120.88224892 121.0625 117.25 C122.05913285 116.19973006 123.05521859 115.1489407 124.05078125 114.09765625 C124.54787598 113.5783252 125.0449707 113.05899414 125.55712891 112.52392578 C127.67218413 110.29005527 129.70875387 107.98873273 131.75 105.6875 C135.37101675 101.6511695 139.12166811 97.78790446 143 94 C144.00115274 93.00115407 145.00149588 92.00149365 146 91 C134.53409405 80.23684312 122.84681407 70.11267345 110 61 C108.81432142 60.14170528 107.62946667 59.28227166 106.4453125 58.421875 C105.2136671 57.53107654 103.98189767 56.64044955 102.75 55.75 C102.18361816 55.3375 101.61723633 54.925 101.03369141 54.5 C97.16767407 51.72196946 93.16369632 49.3074619 89 47 C87.49432783 46.14143794 85.98914624 45.28201513 84.484375 44.421875 C82.90653888 43.53073832 81.32841003 42.64011976 79.75 41.75 C78.94820312 41.29109375 78.14640625 40.8321875 77.3203125 40.359375 C76.16402344 39.7096875 76.16402344 39.7096875 74.984375 39.046875 C73.94361816 38.45664551 73.94361816 38.45664551 72.88183594 37.85449219 C70.88919454 36.79327654 70.88919454 36.79327654 68 37 C68 36.34 68 35.68 68 35 C67.11957031 34.67386719 66.23914063 34.34773438 65.33203125 34.01171875 C64.17058594 33.57472656 63.00914062 33.13773438 61.8125 32.6875 C60.66394531 32.25824219 59.51539063 31.82898438 58.33203125 31.38671875 C55 30 55 30 52.26171875 28.33203125 C50.00663682 26.74626234 50.00663682 26.74626234 47 27 C46.80664062 27.79664063 46.61328125 28.59328125 46.4140625 29.4140625 C43.77865613 40.13833992 43.77865613 40.13833992 42 45 C41.67 45.9075 41.34 46.815 41 47.75 C40 50 40 50 38 52 C35.875 52.625 35.875 52.625 34 53 C34.34589712 46.6187946 35.04473808 40.94768003 37.37890625 34.97265625 C38.2002118 32.70879424 38.2002118 32.70879424 38 29 C38.66 29 39.32 29 40 29 C40 27.35 40 25.7 40 24 C31.88706478 19.96072081 23.6460166 17.13398246 14.98144531 14.58642578 C13.1366546 14.0404441 11.29847382 13.47226395 9.4609375 12.90234375 C1.01598224 10.34944348 -7.42979931 8.72901511 -16.11962891 7.31591797 C-18.54866475 6.90781976 -20.95988166 6.42052367 -23.375 5.9375 C-38.56249233 3.2156452 -53.6084614 2.77045335 -69 3 C-68.98952637 4.18029785 -68.97905273 5.3605957 -68.96826172 6.57666016 C-68.93196038 10.97116035 -68.90906267 15.36564737 -68.89013672 19.76025391 C-68.88010221 21.65936515 -68.86647157 23.55846104 -68.84912109 25.45751953 C-68.82476049 28.19307251 -68.81349123 30.92842053 -68.8046875 33.6640625 C-68.79436493 34.50804596 -68.78404236 35.35202942 -68.77340698 36.22158813 C-68.77252614 40.88859637 -69.20486914 44.6084515 -71 49 C-72.65 49.33 -74.3 49.66 -76 50 C-77.00090639 34.32509099 -77.11531128 18.70362179 -77 3 C-103.39934051 2.41334799 -129.66791202 5.34368584 -154.88476562 13.35009766 Z " fill="#6B6179" transform="translate(492,103)"/>
<path d="M0 0 C0.66 0 1.32 0 2 0 C3.01286753 8.69980864 3.10621544 17.25492893 3 26 C2.34 26 1.68 26 1 26 C0.28038418 17.31320899 -0.14368684 8.71700174 0 0 Z " fill="#5D5667" transform="translate(737,384)"/>
<path d="M0 0 C0.66 0.99 1.32 1.98 2 3 C0.06273348 7.58826282 -1.48864333 9.80528594 -6 12 C-4.68139111 7.38486888 -2.78644563 3.90102388 0 0 Z " fill="#5B5565" transform="translate(142,254)"/>
<path d="M0 0 C2.58926331 2.58926331 2.37398043 4.02705279 2.625 7.625 C2.69976562 8.62789063 2.77453125 9.63078125 2.8515625 10.6640625 C2.90054688 11.43492187 2.94953125 12.20578125 3 13 C2.34 13 1.68 13 1 13 C0.63901937 11.02206479 0.28638652 9.04260427 -0.0625 7.0625 C-0.25972656 5.96035156 -0.45695312 4.85820312 -0.66015625 3.72265625 C-0.77230469 2.82417969 -0.88445312 1.92570312 -1 1 C-0.67 0.67 -0.34 0.34 0 0 Z " fill="#5E5868" transform="translate(102,467)"/>
<path d="M0 0 C1.41702513 0.14230808 2.8336096 0.28900746 4.25 0.4375 C5.43335938 0.55931641 5.43335938 0.55931641 6.640625 0.68359375 C8.82364639 0.97634993 10.8773182 1.42064419 13 2 C13 2.66 13 3.32 13 4 C3.40546697 3.40546697 3.40546697 3.40546697 0 0 Z " fill="#595463" transform="translate(311,721)"/>
<path d="M0 0 C0.33 0.99 0.66 1.98 1 3 C-0.21484375 4.82421875 -0.21484375 4.82421875 -1.9375 6.6875 C-2.50339844 7.31011719 -3.06929687 7.93273437 -3.65234375 8.57421875 C-4.09707031 9.04472656 -4.54179687 9.51523438 -5 10 C-5.66 9.67 -6.32 9.34 -7 9 C-4.69 6.03 -2.38 3.06 0 0 Z " fill="#544F5D" transform="translate(162,224)"/>
<path d="M0 0 C0.66 0.33 1.32 0.66 2 1 C0.35 2.98 -1.3 4.96 -3 7 C-3.99 6.67 -4.98 6.34 -6 6 C-4.02 4.02 -2.04 2.04 0 0 Z " fill="#655E6F" transform="translate(208,175)"/>
<path d="M0 0 C0 0.66 0 1.32 0 2 C-3.37097383 3.49821059 -5.20442119 4 -9 4 C-9 3.34 -9 2.68 -9 2 C-3.375 0 -3.375 0 0 0 Z " fill="#635B6E" transform="translate(336,107)"/>
<path d="M0 0 C2.05825864 4.11651727 2.34008135 4.86808251 1 9 C0.01 9.495 0.01 9.495 -1 10 C-0.67 6.7 -0.34 3.4 0 0 Z " fill="#5A5464" transform="translate(106,342)"/>
<path d="M0 0 C0.66 0 1.32 0 2 0 C2.33 2.97 2.66 5.94 3 9 C0 6 0 6 -0.1875 2.8125 C-0.125625 1.884375 -0.06375 0.95625 0 0 Z " fill="#5E576A" transform="translate(730,342)"/>
<path d="M0 0 C0.66 0.33 1.32 0.66 2 1 C-0.57404971 4.86107457 -2.61020259 4.94319692 -7 6 C-4.74259377 3.66475218 -2.7194239 1.81294927 0 0 Z " fill="#5D5767" transform="translate(259,138)"/>
</svg>
