<?xml version="1.0" encoding="UTF-8"?>
<svg version="1.1" xmlns="http://www.w3.org/2000/svg" width="839" height="839">
<path d="M0 0 C1.05525879 0.08910645 2.11051758 0.17821289 3.19775391 0.27001953 C28.71040738 2.52517909 54.48409509 7.29567845 77.91967773 18.04589844 C79.7898314 18.90361004 81.68287166 19.7109949 83.578125 20.51171875 C87.36853331 22.16028675 91.05924108 23.95408058 94.75 25.8125 C95.79607422 26.33807495 95.79607422 26.33807495 96.86328125 26.87426758 C110.76108474 33.89195449 123.42512612 41.86308425 136 51 C136.79921875 51.55429688 137.5984375 52.10859375 138.421875 52.6796875 C138.94265625 53.11539063 139.4634375 53.55109375 140 54 C140 54.66 140 55.32 140 56 C141.32 56.66 142.64 57.32 144 58 C144 58.66 144 59.32 144 60 C144.721875 60.226875 145.44375 60.45375 146.1875 60.6875 C149.56582327 62.26405086 151.43796738 64.30986575 154 67 C154.804375 67.61875 155.60875 68.2375 156.4375 68.875 C159.16628071 71.13789132 161.28123572 73.57498286 163.54296875 76.2890625 C165.08854912 78.15013236 165.08854912 78.15013236 167.3125 80.3125 C175.05273391 88.05273391 181.59825504 96.31230482 187.80615234 105.29125977 C189.05449896 107.07800373 190.33506421 108.83894164 191.6171875 110.6015625 C193.59537819 113.36573074 195.29504252 116.17249239 196.875 119.1875 C198.9097191 123.01877769 201.04945442 126.73718529 203.3125 130.4375 C206.4996482 135.86062076 209.16193978 141.45623037 211.75 147.1875 C212.12680908 148.01886475 212.50361816 148.85022949 212.8918457 149.70678711 C215.26459677 155.05197225 217.23027333 160.42966445 219 166 C219.56023339 167.68651862 220.12147105 169.3727039 220.68359375 171.05859375 C234.99662332 214.6431404 238.02902733 262.22833102 227 307 C226.76095947 308.01102783 226.52191895 309.02205566 226.27563477 310.0637207 C224.56132315 317.18510934 222.4555675 324.12028832 220.125 331.0625 C219.79886719 332.06087891 219.47273438 333.05925781 219.13671875 334.08789062 C216.84736231 340.95150595 214.08711656 347.46106279 211 354 C210.3570607 355.42083003 209.71624885 356.84262575 209.078125 358.265625 C202.22600566 373.30067779 193.75136011 386.69681999 184 400 C183.55849609 400.64710938 183.11699219 401.29421875 182.66210938 401.9609375 C181.4878089 403.67338739 180.248524 405.34088757 179 407 C178.34 407 177.68 407 177 407 C176.70802734 408.01320313 176.70802734 408.01320313 176.41015625 409.046875 C174.44980261 413.15221393 171.57641645 415.99735171 168.4375 419.25 C167.80416748 419.91531738 167.17083496 420.58063477 166.51831055 421.26611328 C164.68629183 423.18470428 162.8441189 425.09304911 161 427 C159.74316406 428.31871094 159.74316406 428.31871094 158.4609375 429.6640625 C145.13421231 443.37847424 145.13421231 443.37847424 137 447 C137 447.66 137 448.32 137 449 C134.96633799 450.54236738 132.93877684 451.97124441 130.8125 453.375 C129.65113083 454.15183557 128.49095784 454.93046264 127.33203125 455.7109375 C126.75662598 456.09733398 126.1812207 456.48373047 125.58837891 456.88183594 C123.84468039 458.07214122 123.84468039 458.07214122 121.76171875 459.9140625 C117.47829682 463.14934865 112.73506908 465.49167188 108 468 C106.23391161 468.96399529 104.46827747 469.9288233 102.703125 470.89453125 C57.71133052 495.14740732 4.1532284 507.11926375 -47 500 C-47.66 499.67 -48.32 499.34 -49 499 C-50.65414366 498.82271223 -52.31287585 498.68714006 -53.97265625 498.57421875 C-59.59798229 498.10094071 -64.94851547 497.10491321 -70.4375 495.8125 C-71.38197998 495.59255371 -72.32645996 495.37260742 -73.29956055 495.14599609 C-93.53030303 490.33003654 -112.57438068 483.69015731 -131 474 C-132.19253024 473.38767387 -133.38524808 472.77571299 -134.578125 472.1640625 C-146.18626371 466.15611722 -157.25519755 459.53182993 -167.3515625 451.1796875 C-169.4095103 449.48597825 -171.48274272 447.83137549 -173.5859375 446.1953125 C-174.21242188 445.70788574 -174.83890625 445.22045898 -175.484375 444.71826172 C-176.71493903 443.76260417 -177.94665197 442.8084236 -179.1796875 441.85595703 C-182.31693034 439.40944237 -185.36237833 436.98843835 -188 434 C-188 433.34 -188 432.68 -188 432 C-188.86625 431.62875 -188.86625 431.62875 -189.75 431.25 C-192.32939979 429.81700012 -194.06121592 428.21575324 -196 426 C-196 425.34 -196 424.68 -196 424 C-196.61875 423.7525 -197.2375 423.505 -197.875 423.25 C-200.38710296 421.77229238 -200.76107344 420.56044823 -202 418 C-202.99 417.67 -203.98 417.34 -205 417 C-206.2890625 415.5390625 -206.2890625 415.5390625 -207.625 413.625 C-210.90169558 409.05248274 -214.49538875 404.79435155 -218.14453125 400.515625 C-219.85104792 398.20194766 -220.60061131 396.80226817 -221 394 C-221.66 394 -222.32 394 -223 394 C-224.42578125 391.83984375 -224.42578125 391.83984375 -226 389 C-226.50917969 388.13503906 -227.01835937 387.27007813 -227.54296875 386.37890625 C-228.71219926 384.37649486 -229.87856666 382.37241047 -231.04296875 380.3671875 C-232.35029434 378.11785684 -233.66544559 375.87305678 -234.98828125 373.6328125 C-241.51744507 362.45082709 -247.22576865 351.1524372 -251.10546875 338.75390625 C-251.95331876 336.143713 -252.93530668 333.6531328 -254 331.125 C-267.44238793 297.7020977 -269.95424348 257.58859375 -265.26464844 222.07714844 C-265.02458645 220.1929719 -264.82629358 218.3035905 -264.6328125 216.4140625 C-263.7308253 208.22254611 -262.02874233 200.32437719 -260.125 192.3125 C-259.75810059 190.76260376 -259.75810059 190.76260376 -259.38378906 189.18139648 C-257.00730659 179.47227582 -254.0539374 170.01839143 -250 160.875 C-248.31706786 157.04674596 -246.69632804 153.2353237 -245.25 149.3125 C-240.38595896 136.94629396 -233.45306973 124.43482843 -226 113.4375 C-224.34611334 110.99369733 -222.71290423 108.55021663 -221.125 106.0625 C-218.52542218 102.31604962 -215.68277745 98.80469457 -212.8046875 95.26953125 C-210.89405672 92.93175446 -210.89405672 92.93175446 -209 90 C-208.34 90 -207.68 90 -207 90 C-206.731875 89.4225 -206.46375 88.845 -206.1875 88.25 C-204.97070811 85.94449957 -203.69666121 83.97943808 -202 82 C-201.34 82 -200.68 82 -200 82 C-199.61328125 81.12601563 -199.61328125 81.12601563 -199.21875 80.234375 C-197.90165983 77.8197097 -196.44911616 76.18259823 -194.5 74.25 C-193.8915625 73.63640625 -193.283125 73.0228125 -192.65625 72.390625 C-191 71 -191 71 -189 71 C-188.61328125 70.11054688 -188.61328125 70.11054688 -188.21875 69.203125 C-186.04953712 65.28185557 -182.42127599 62.81650499 -179 60 C-178.25492187 59.37996094 -177.50984375 58.75992188 -176.7421875 58.12109375 C-138.75948851 27.0956218 -93.22333548 6.24199297 -44.18261719 1.23095703 C-41.80845529 0.9797314 -39.44018436 0.69114042 -37.0703125 0.40234375 C-24.55853436 -1.04923408 -12.54012835 -1.08137264 0 0 Z " fill="#F8CF86" transform="translate(436,169)"/>
<path d="M0 0 C-0.39414587 5.35208604 -3.44245672 8.68139686 -6.625 12.75 C-7.43662598 13.80864258 -7.43662598 13.80864258 -8.26464844 14.88867188 C-9.8346054 16.932525 -11.41580493 18.96717414 -13 21 C-13.77601563 22.00546875 -14.55203125 23.0109375 -15.3515625 24.046875 C-16.89257417 26.03814111 -18.44051745 28.02319113 -20 30 C-19.01 30.33 -18.02 30.66 -17 31 C-18.69206009 57.40504292 -18.69206009 57.40504292 -23 67 C-23.66 67 -24.32 67 -25 67 C-23.35 55.78 -21.7 44.56 -20 33 C-26.09628401 34.524071 -28.39375177 39.11411531 -32 44 C-32.53496094 44.721875 -33.06992187 45.44375 -33.62109375 46.1875 C-35.40142358 48.59828071 -37.17174576 51.01602544 -38.9375 53.4375 C-39.51749756 54.2308374 -40.09749512 55.0241748 -40.69506836 55.84155273 C-41.23784424 56.59380127 -41.78062012 57.3460498 -42.33984375 58.12109375 C-42.82831787 58.7958374 -43.31679199 59.47058105 -43.82006836 60.16577148 C-45.1701912 62.09841197 -45.1701912 62.09841197 -46 65 C-45.27425781 65.26941406 -44.54851562 65.53882813 -43.80078125 65.81640625 C-35.08623408 69.49912284 -27.31461135 75.79033348 -19.57104492 81.17944336 C-18.92111572 81.6306958 -18.27118652 82.08194824 -17.6015625 82.546875 C-17.02744629 82.94745117 -16.45333008 83.34802734 -15.86181641 83.76074219 C-13.9278618 85.09475765 -13.9278618 85.09475765 -11.43164062 86.34594727 C-8.54855053 88.30708536 -7.81734561 89.72394536 -6.4921875 92.91796875 C-6.0681665 93.91368896 -5.64414551 94.90940918 -5.20727539 95.93530273 C-4.76762451 97.00852783 -4.32797363 98.08175293 -3.875 99.1875 C-2.91470197 101.45394862 -1.9524078 103.71955234 -0.98828125 105.984375 C-0.4979541 107.14517578 -0.00762695 108.30597656 0.49755859 109.50195312 C3.29470545 116.01438735 6.3042174 122.42926067 9.29541016 128.85424805 C11.26882781 133.1200609 13.17576032 137.37729794 14.87109375 141.76171875 C17.57445309 148.64021349 20.88615224 155.23777171 24.125 161.875 C24.76463231 163.19255818 25.40395717 164.51026566 26.04296875 165.828125 C28.34092033 170.5627823 30.64635265 175.29270529 33 180 C34.65 176.7 36.3 173.4 38 170 C36.68 169.34 35.36 168.68 34 168 C32.56241654 166.98739559 31.1454872 165.94487352 29.75 164.875 C29.04359375 164.33617187 28.3371875 163.79734375 27.609375 163.2421875 C27.07828125 162.83226562 26.5471875 162.42234375 26 162 C26.37389205 156.94311008 29.10810341 154.26847524 32.5 150.8125 C36.16549121 147.21492953 36.16549121 147.21492953 39 143 C36.03 142.01 36.03 142.01 33 141 C33 140.34 33 139.68 33 139 C36.82097239 139.53069061 39.06171403 140.49701566 42 143 C41.43009348 146.59357719 40.13617523 148.17249271 37.5 150.625 C34.88193354 153.03610916 34.88193354 153.03610916 33 156 C32.34 156 31.68 156 31 156 C30.67 157.65 30.34 159.3 30 161 C33.3 163.64 36.6 166.28 40 169 C39.1434969 174.1390186 38.26825587 176.91185046 35.9375 181.375 C35.38964844 182.43460938 34.84179688 183.49421875 34.27734375 184.5859375 C33.85582031 185.38257813 33.43429687 186.17921875 33 187 C33.66 187 34.32 187 35 187 C35.309375 186.05125 35.61875 185.1025 35.9375 184.125 C37 181 37 181 38 179 C38.66 179 39.32 179 40 179 C39.45276317 182.37462715 38.9451 184.08235 37 187 C37.29968203 190.89586643 38.51459938 193.05434 41 196 C43.97708822 199.66364122 46.7130939 203.41304106 49.375 207.3125 C53.08622726 212.74568565 56.96319319 218.01554809 60.95703125 223.24609375 C65.24596276 229.02754063 65.24596276 229.02754063 67 232 C66.67 232.99 66.34 233.98 66 235 C55.91127915 235.55029386 45.75049758 233.50480169 36 231 C35.98582031 231.63164062 35.97164062 232.26328125 35.95703125 232.9140625 C35.28311638 245.55451976 30.83327463 256.15819342 23 266 C21.8553125 267.5778125 21.8553125 267.5778125 20.6875 269.1875 C18.15009668 271.84292208 15.8964122 273.377323 12.8125 275.3125 C9.25947826 277.70395694 7.42145514 279.11724823 6.5625 283.375 C6.44575928 284.47013916 6.44575928 284.47013916 6.32666016 285.58740234 C5.0997518 294.64891835 0.56591875 303.54561507 -2.6875 312.0625 C-3.20394574 313.41855517 -3.72022307 314.7746745 -4.23632812 316.13085938 C-5.48894607 319.42131425 -6.74383611 322.71089693 -8 326 C-11.32275684 325.40100702 -11.88928154 325.13309983 -14.18359375 322.375 C-14.94773477 321.2586809 -15.69842444 320.13306979 -16.4375 319 C-16.83364502 318.40912598 -17.22979004 317.81825195 -17.63793945 317.20947266 C-20.68850812 312.60765071 -23.44380586 307.89376642 -26 303 C-27.05695757 300.99706541 -28.11962348 298.99713445 -29.1875 297 C-29.67605469 296.071875 -30.16460937 295.14375 -30.66796875 294.1875 C-31.81203393 291.8725884 -31.81203393 291.8725884 -34 291 C-35.99960012 290.960008 -38.00047242 290.95653201 -40 291 C-42.08577288 294.71455274 -44.16688499 298.4316674 -46.24389648 302.15112305 C-46.94968201 303.41353906 -47.65669039 304.67527227 -48.36499023 305.9362793 C-49.38855669 307.75907875 -50.40755816 309.58436777 -51.42578125 311.41015625 C-52.34484253 313.05189819 -52.34484253 313.05189819 -53.2824707 314.72680664 C-55.05277464 318.10057564 -56.54535119 321.4811909 -58 325 C-59.79736328 324.79858398 -59.79736328 324.79858398 -62 324 C-63.64404297 321.93383789 -63.64404297 321.93383789 -65.2421875 319.22265625 C-65.83386719 318.23330078 -66.42554688 317.24394531 -67.03515625 316.22460938 C-67.64230469 315.18111328 -68.24945313 314.13761719 -68.875 313.0625 C-69.47441406 312.05380859 -70.07382812 311.04511719 -70.69140625 310.00585938 C-71.88852697 307.98945104 -73.08013666 305.96976031 -74.26611328 303.94677734 C-76.38027355 300.35371702 -78.53887642 296.78857106 -80.70605469 293.22729492 C-82.0322479 290.94449102 -83.21216801 288.61951016 -84.375 286.25 C-86.61030538 282.15434368 -89.27441287 279.93049512 -93.08984375 277.3203125 C-95.7340156 275.49264361 -97.81537279 273.35267545 -100 271 C-100.78117187 270.2265625 -100.78117187 270.2265625 -101.578125 269.4375 C-109.21139375 261.46039032 -115.04433207 250.7176848 -117.13671875 239.85546875 C-117.86498809 237.77744455 -117.86498809 237.77744455 -120.20898438 236.93725586 C-123.02166068 235.99272609 -125.57811674 235.50995213 -128.51953125 235.1484375 C-129.54111328 235.01953125 -130.56269531 234.890625 -131.61523438 234.7578125 C-132.67033203 234.63148438 -133.72542969 234.50515625 -134.8125 234.375 C-135.88693359 234.2409375 -136.96136719 234.106875 -138.06835938 233.96875 C-140.71155761 233.63981866 -143.35536252 233.31711501 -146 233 C-146 228.62579442 -145.7563333 228.22131255 -143.125 225.0625 C-140.47102618 221.8080311 -137.86878499 218.53173232 -135.33618164 215.18139648 C-124.88276195 201.38176041 -124.88276195 201.38176041 -118.45703125 195.78515625 C-115.32235169 192.23185494 -114.31152792 188.92230632 -113 184.4375 C-112.4873825 182.80894611 -111.97175283 181.18133732 -111.453125 179.5546875 C-111.20498047 178.76803711 -110.95683594 177.98138672 -110.70117188 177.17089844 C-106.9226167 165.4721127 -100.8181103 154.77483157 -95 144 C-94.19369141 142.49953125 -94.19369141 142.49953125 -93.37109375 140.96875 C-92.91863281 140.1334375 -92.46617187 139.298125 -92 138.4375 C-91.55269531 137.60734375 -91.10539062 136.7771875 -90.64453125 135.921875 C-89.29286354 133.52033712 -87.88946182 131.17642695 -86.44921875 128.828125 C-80.76225112 119.36832507 -77.38144197 112.31597339 -78 101 C-71.375 98 -71.375 98 -68 98 C-67.34 95.69 -66.68 93.38 -66 91 C-78.74832798 82.58289321 -78.74832798 82.58289321 -92 75 C-91.49396008 72.83125748 -91.00016187 71.00032373 -90 69 C-89.34 69 -88.68 69 -88 69 C-87.73445313 68.40832031 -87.46890625 67.81664062 -87.1953125 67.20703125 C-83.66547963 60.68952939 -76.57992809 55.73911701 -71 51 C-70.1028125 50.236875 -69.205625 49.47375 -68.28125 48.6875 C-63.05920521 44.2899886 -57.77718498 39.98709683 -52.375 35.8125 C-51.83480225 35.39250732 -51.29460449 34.97251465 -50.73803711 34.53979492 C-47.39642082 31.97301686 -43.95179863 29.71990264 -40.375 27.5 C-35.75840125 24.37480247 -34.47215289 21.30694925 -33.3046875 15.94140625 C-33.20414062 15.30074219 -33.10359375 14.66007812 -33 14 C-37.455 14.495 -37.455 14.495 -42 15 C-41.67 14.01 -41.34 13.02 -41 12 C-37.37 11.67 -33.74 11.34 -30 11 C-30.66 14.3 -31.32 17.6 -32 21 C-22.51716872 14.77294079 -13.12213529 8.54567264 -4.1875 1.546875 C-2 0 -2 0 0 0 Z " fill="#FBB53C" transform="translate(459,274)"/>
<path d="M0 0 C1.05525879 0.08910645 2.11051758 0.17821289 3.19775391 0.27001953 C28.71040738 2.52517909 54.48409509 7.29567845 77.91967773 18.04589844 C79.7898314 18.90361004 81.68287166 19.7109949 83.578125 20.51171875 C87.36853331 22.16028675 91.05924108 23.95408058 94.75 25.8125 C95.79607422 26.33807495 95.79607422 26.33807495 96.86328125 26.87426758 C110.76108474 33.89195449 123.42512612 41.86308425 136 51 C136.79921875 51.55429688 137.5984375 52.10859375 138.421875 52.6796875 C138.94265625 53.11539063 139.4634375 53.55109375 140 54 C140 54.66 140 55.32 140 56 C141.32 56.66 142.64 57.32 144 58 C144 58.66 144 59.32 144 60 C144.721875 60.226875 145.44375 60.45375 146.1875 60.6875 C149.56582327 62.26405086 151.43796738 64.30986575 154 67 C154.804375 67.61875 155.60875 68.2375 156.4375 68.875 C159.16628071 71.13789132 161.28123572 73.57498286 163.54296875 76.2890625 C165.08854912 78.15013236 165.08854912 78.15013236 167.3125 80.3125 C175.05273391 88.05273391 181.59825504 96.31230482 187.80615234 105.29125977 C189.05449896 107.07800373 190.33506421 108.83894164 191.6171875 110.6015625 C193.59537819 113.36573074 195.29504252 116.17249239 196.875 119.1875 C198.9097191 123.01877769 201.04945442 126.73718529 203.3125 130.4375 C206.4996482 135.86062076 209.16193978 141.45623037 211.75 147.1875 C212.12680908 148.01886475 212.50361816 148.85022949 212.8918457 149.70678711 C215.26459677 155.05197225 217.23027333 160.42966445 219 166 C219.56023339 167.68651862 220.12147105 169.3727039 220.68359375 171.05859375 C234.99662332 214.6431404 238.02902733 262.22833102 227 307 C226.76095947 308.01102783 226.52191895 309.02205566 226.27563477 310.0637207 C224.56132315 317.18510934 222.4555675 324.12028832 220.125 331.0625 C219.79886719 332.06087891 219.47273438 333.05925781 219.13671875 334.08789062 C216.84736231 340.95150595 214.08711656 347.46106279 211 354 C210.3570607 355.42083003 209.71624885 356.84262575 209.078125 358.265625 C202.22600566 373.30067779 193.75136011 386.69681999 184 400 C183.55849609 400.64710938 183.11699219 401.29421875 182.66210938 401.9609375 C181.4878089 403.67338739 180.248524 405.34088757 179 407 C178.34 407 177.68 407 177 407 C176.70802734 408.01320313 176.70802734 408.01320313 176.41015625 409.046875 C174.44980261 413.15221393 171.57641645 415.99735171 168.4375 419.25 C167.80416748 419.91531738 167.17083496 420.58063477 166.51831055 421.26611328 C164.68629183 423.18470428 162.8441189 425.09304911 161 427 C159.74316406 428.31871094 159.74316406 428.31871094 158.4609375 429.6640625 C145.13421231 443.37847424 145.13421231 443.37847424 137 447 C137 447.66 137 448.32 137 449 C134.96633799 450.54236738 132.93877684 451.97124441 130.8125 453.375 C129.65113083 454.15183557 128.49095784 454.93046264 127.33203125 455.7109375 C126.75662598 456.09733398 126.1812207 456.48373047 125.58837891 456.88183594 C123.84468039 458.07214122 123.84468039 458.07214122 121.76171875 459.9140625 C117.47829682 463.14934865 112.73506908 465.49167188 108 468 C106.23391161 468.96399529 104.46827747 469.9288233 102.703125 470.89453125 C57.71133052 495.14740732 4.1532284 507.11926375 -47 500 C-47.66 499.67 -48.32 499.34 -49 499 C-50.65414366 498.82271223 -52.31287585 498.68714006 -53.97265625 498.57421875 C-59.59798229 498.10094071 -64.94851547 497.10491321 -70.4375 495.8125 C-71.38197998 495.59255371 -72.32645996 495.37260742 -73.29956055 495.14599609 C-93.53030303 490.33003654 -112.57438068 483.69015731 -131 474 C-132.19253024 473.38767387 -133.38524808 472.77571299 -134.578125 472.1640625 C-146.18626371 466.15611722 -157.25519755 459.53182993 -167.3515625 451.1796875 C-169.4095103 449.48597825 -171.48274272 447.83137549 -173.5859375 446.1953125 C-174.21242188 445.70788574 -174.83890625 445.22045898 -175.484375 444.71826172 C-176.71493903 443.76260417 -177.94665197 442.8084236 -179.1796875 441.85595703 C-182.31693034 439.40944237 -185.36237833 436.98843835 -188 434 C-188 433.34 -188 432.68 -188 432 C-188.86625 431.62875 -188.86625 431.62875 -189.75 431.25 C-192.32939979 429.81700012 -194.06121592 428.21575324 -196 426 C-196 425.34 -196 424.68 -196 424 C-196.61875 423.7525 -197.2375 423.505 -197.875 423.25 C-200.38710296 421.77229238 -200.76107344 420.56044823 -202 418 C-202.99 417.67 -203.98 417.34 -205 417 C-206.2890625 415.5390625 -206.2890625 415.5390625 -207.625 413.625 C-210.90169558 409.05248274 -214.49538875 404.79435155 -218.14453125 400.515625 C-219.85104792 398.20194766 -220.60061131 396.80226817 -221 394 C-221.66 394 -222.32 394 -223 394 C-224.42578125 391.83984375 -224.42578125 391.83984375 -226 389 C-226.50917969 388.13503906 -227.01835937 387.27007813 -227.54296875 386.37890625 C-228.71219926 384.37649486 -229.87856666 382.37241047 -231.04296875 380.3671875 C-232.35029434 378.11785684 -233.66544559 375.87305678 -234.98828125 373.6328125 C-241.51744507 362.45082709 -247.22576865 351.1524372 -251.10546875 338.75390625 C-251.95331876 336.143713 -252.93530668 333.6531328 -254 331.125 C-267.44238793 297.7020977 -269.95424348 257.58859375 -265.26464844 222.07714844 C-265.02458645 220.1929719 -264.82629358 218.3035905 -264.6328125 216.4140625 C-263.7308253 208.22254611 -262.02874233 200.32437719 -260.125 192.3125 C-259.75810059 190.76260376 -259.75810059 190.76260376 -259.38378906 189.18139648 C-257.00730659 179.47227582 -254.0539374 170.01839143 -250 160.875 C-248.31706786 157.04674596 -246.69632804 153.2353237 -245.25 149.3125 C-240.38595896 136.94629396 -233.45306973 124.43482843 -226 113.4375 C-224.34611334 110.99369733 -222.71290423 108.55021663 -221.125 106.0625 C-218.52542218 102.31604962 -215.68277745 98.80469457 -212.8046875 95.26953125 C-210.89405672 92.93175446 -210.89405672 92.93175446 -209 90 C-208.34 90 -207.68 90 -207 90 C-206.731875 89.4225 -206.46375 88.845 -206.1875 88.25 C-204.97070811 85.94449957 -203.69666121 83.97943808 -202 82 C-201.34 82 -200.68 82 -200 82 C-199.61328125 81.12601563 -199.61328125 81.12601563 -199.21875 80.234375 C-197.90165983 77.8197097 -196.44911616 76.18259823 -194.5 74.25 C-193.8915625 73.63640625 -193.283125 73.0228125 -192.65625 72.390625 C-191 71 -191 71 -189 71 C-188.61328125 70.11054688 -188.61328125 70.11054688 -188.21875 69.203125 C-186.04953712 65.28185557 -182.42127599 62.81650499 -179 60 C-178.25492187 59.37996094 -177.50984375 58.75992188 -176.7421875 58.12109375 C-138.75948851 27.0956218 -93.22333548 6.24199297 -44.18261719 1.23095703 C-41.80845529 0.9797314 -39.44018436 0.69114042 -37.0703125 0.40234375 C-24.55853436 -1.04923408 -12.54012835 -1.08137264 0 0 Z M-76.57543945 15.34057617 C-78.9343159 15.98213546 -81.29282122 16.51119651 -83.6875 17 C-87.23523122 17.76605878 -90.51218037 18.83411439 -93.8828125 20.171875 C-95.32370103 20.73546978 -96.77800388 21.26565986 -98.2421875 21.765625 C-116.1498221 27.9021976 -132.93599222 36.53849285 -148.73828125 46.8828125 C-151.42227961 48.62500066 -154.12972823 50.29519583 -156.875 51.9375 C-158.421875 52.9584375 -158.421875 52.9584375 -160 54 C-160 54.66 -160 55.32 -160 56 C-160.53625 56.23976562 -161.0725 56.47953125 -161.625 56.7265625 C-172.02109551 62.30078477 -180.61697409 71.32943612 -188.875 79.5625 C-189.77347656 80.45565918 -190.67195313 81.34881836 -191.59765625 82.26904297 C-196.05402743 86.02893782 -196.05402743 86.02893782 -198 91 C-198.66 91 -199.32 91 -200 91 C-203.02517909 94.05558423 -203.02517909 94.05558423 -204 98 C-204.99 98.33 -205.98 98.66 -207 99 C-207 99.99 -207 100.98 -207 102 C-207.66 102 -208.32 102 -209 102 C-210.35074255 103.71516175 -210.35074255 103.71516175 -211.6875 105.9375 C-214.37973826 110.13792088 -217.31725724 114.00747502 -220.484375 117.859375 C-222.1127424 120.15923411 -222.98021154 122.38240532 -224 125 C-224.86023007 126.31564599 -225.75825709 127.60715626 -226.6875 128.875 C-229.51311748 133.01226214 -231.74183735 137.29283774 -233.875 141.8125 C-234.18526123 142.45880371 -234.49552246 143.10510742 -234.81518555 143.77099609 C-236.37965634 147.16149281 -237 149.19148893 -237 153 C-237.66 153 -238.32 153 -239 153 C-239.495 155.97 -239.495 155.97 -240 159 C-240.66 159 -241.32 159 -242 159 C-242.25394531 159.90621094 -242.50789063 160.81242188 -242.76953125 161.74609375 C-244.50574857 167.89113257 -246.28990541 173.99787663 -248.33984375 180.046875 C-250.07696982 185.18630123 -251.26606584 189.54565033 -251 195 C-251.66 195 -252.32 195 -253 195 C-253.13277344 195.85464844 -253.26554688 196.70929688 -253.40234375 197.58984375 C-253.57894531 198.69457031 -253.75554687 199.79929687 -253.9375 200.9375 C-254.11152344 202.03964844 -254.28554687 203.14179688 -254.46484375 204.27734375 C-255 207 -255 207 -256 208 C-257.81702025 218.90212148 -258.66660684 229.96098196 -259 241 C-259.03399902 242.10827148 -259.06799805 243.21654297 -259.10302734 244.35839844 C-259.94243827 276.61393496 -255.3872252 308.6439432 -242.94921875 338.6328125 C-241.45377708 342.36218555 -240.22013372 346.17321697 -239 350 C-238.34 350 -237.68 350 -237 350 C-236.896875 350.9075 -236.79375 351.815 -236.6875 352.75 C-235.96499076 356.1654982 -235.10805916 357.32438645 -233 360 C-232.30520005 361.6542856 -231.61179458 363.3091905 -230.9296875 364.96875 C-228.99957267 369.18580761 -226.43761728 373.06273004 -224 377 C-223.33097656 378.09570312 -222.66195312 379.19140625 -221.97265625 380.3203125 C-219.99505974 383.55538004 -218.01400114 386.78738279 -216 390 C-214.95199219 391.67835938 -214.95199219 391.67835938 -213.8828125 393.390625 C-213.26148438 394.25171875 -212.64015625 395.1128125 -212 396 C-211.34 396 -210.68 396 -210 396 C-210 396.66 -210 397.32 -210 398 C-209.34 398 -208.68 398 -208 398 C-207.90203125 398.56847656 -207.8040625 399.13695312 -207.703125 399.72265625 C-205.78077151 405.94894562 -199.82354446 411.72771777 -195 416 C-194.34 416 -193.68 416 -193 416 C-192.77828125 416.54785156 -192.5565625 417.09570312 -192.328125 417.66015625 C-190.58951031 420.72318624 -188.25234051 423.00264395 -185.75 425.4375 C-185.25636963 425.92323486 -184.76273926 426.40896973 -184.25415039 426.90942383 C-178.88309812 432.97301675 -178.88309812 432.97301675 -172 436 C-171.7525 436.639375 -171.505 437.27875 -171.25 437.9375 C-170.20311706 440.19895007 -170.20311706 440.19895007 -167.9375 440.5625 C-167.298125 440.706875 -166.65875 440.85125 -166 441 C-165.505 442.485 -165.505 442.485 -165 444 C-164.01 444 -163.02 444 -162 444 C-161.505 445.485 -161.505 445.485 -161 447 C-158.07920195 449.07530387 -156.62453269 450 -153 450 C-152.505 451.485 -152.505 451.485 -152 453 C-149.74572728 454.52012037 -149.74572728 454.52012037 -147 456 C-146.030625 456.66 -145.06125 457.32 -144.0625 458 C-141.11835995 459.92270371 -138.15474016 461.45619098 -135 463 C-133.92878906 463.66322266 -133.92878906 463.66322266 -132.8359375 464.33984375 C-129.21893556 466.45723469 -125.48148362 468.22480274 -121.6875 470 C-120.96626953 470.34289062 -120.24503906 470.68578125 -119.50195312 471.0390625 C-114.74024449 473.27685203 -109.93546312 475.17950002 -105 477 C-103.49226607 477.67036904 -101.99045065 478.35453594 -100.5 479.0625 C-97.199649 480.54486104 -93.99863939 481.63294507 -90.45703125 482.43359375 C-86.97302245 483.23674363 -83.51901452 484.14985675 -80.0625 485.0625 C-79.38687012 485.23716797 -78.71124023 485.41183594 -78.01513672 485.59179688 C-73.11564581 486.88435419 -73.11564581 486.88435419 -72 488 C-70.34356371 488.35681126 -68.67531737 488.65914715 -67.00390625 488.9375 C-65.96943359 489.11023438 -64.93496094 489.28296875 -63.86914062 489.4609375 C-62.77794922 489.63882812 -61.68675781 489.81671875 -60.5625 490 C-59.50611328 490.17789062 -58.44972656 490.35578125 -57.36132812 490.5390625 C-44.57407999 492.65057359 -32.12806273 493.27156272 -19.1875 493.3125 C-18.31181366 493.31611542 -17.43612732 493.31973083 -16.53390503 493.32345581 C-0.58309493 493.34980577 15.37694624 492.50801606 31 489 C31.33 488.67 31.66 488.34 32 488 C33.5561547 487.69481238 35.12070108 487.43224085 36.6875 487.1875 C46.08671727 485.54539424 55.34919486 483.060582 64 479 C67.83459761 477.2957344 71.62964411 475.7700469 75.625 474.5 C79.09652844 473.37599754 81.88634598 471.91609478 85 470 C86.89377784 469.31432182 88.78773994 468.62913596 90.68359375 467.94921875 C97.10481006 465.31792775 103.06629623 461.57011177 109 458 C109.928125 457.484375 110.85625 456.96875 111.8125 456.4375 C112.534375 455.963125 113.25625 455.48875 114 455 C114 454.34 114 453.68 114 453 C114.825 452.814375 115.65 452.62875 116.5 452.4375 C120.48244527 450.80185284 122.87825354 448.68378039 125.97265625 445.75390625 C128.18250304 443.84211202 130.48805562 442.48728518 133 441 C138.33839944 437.01288292 143.40688622 432.83485662 148 428 C149.33059268 426.66393163 150.66418605 425.3308481 152 424 C152.68835938 423.31035156 153.37671875 422.62070312 154.0859375 421.91015625 C155.58946483 420.40969734 157.1050201 418.9212899 158.625 417.4375 C160.9965643 415.00352612 163.20071622 412.4869086 165.390625 409.890625 C167.10442511 407.87732584 168.86382401 405.90941499 170.625 403.9375 C173.39277679 400.787333 175.70728837 397.51549117 178 394 C178.845625 392.989375 179.69125 391.97875 180.5625 390.9375 C182.71405248 388.34460343 184.28557722 385.88239937 186 383 C186.64195312 382.04867188 187.28390625 381.09734375 187.9453125 380.1171875 C196.69799866 367.09795898 203.02828041 352.99477663 208.66796875 338.390625 C209.8766452 335.31399403 211.20367786 332.32462586 212.5625 329.3125 C215.88265316 321.47951731 217.60890387 313.14009259 219.50683594 304.87255859 C220 303 220 303 221 301 C224.62109911 282.54140593 225.39619029 263.88337121 225.375 245.125 C225.37731125 243.65938126 225.37731125 243.65938126 225.37966919 242.16415405 C225.37916476 239.34091887 225.36153444 236.51842265 225.3359375 233.6953125 C225.33354568 232.86406357 225.33115387 232.03281464 225.32868958 231.17637634 C225.24749268 226.03149309 224.59089343 221.24552615 223.47718811 216.22125244 C222.79500668 213.04578111 222.43620257 209.84951935 222.0625 206.625 C221.18832939 199.9006107 219.84358157 193.51979061 218 187 C217.82065918 186.35804688 217.64131836 185.71609375 217.45654297 185.0546875 C212.69730566 167.34351116 212.69730566 167.34351116 205.04174805 150.80810547 C203.27372113 147.73943723 201.74813645 144.55261075 200.1875 141.375 C199.12545929 139.24699691 198.06029719 137.12057369 196.99511719 134.99414062 C196.11686293 133.23418459 195.24902976 131.46903651 194.3828125 129.703125 C189.67997185 120.48462143 183.69223763 112.32959379 177.51074219 104.05566406 C176.03818835 102.05196282 174.63250531 100.01165701 173.2265625 97.9609375 C172.49179687 96.98382813 171.75703125 96.00671875 171 95 C170.34 95 169.68 95 169 95 C168.72800781 94.41089844 168.45601562 93.82179688 168.17578125 93.21484375 C167.0244625 91.04608053 165.80016325 89.40493585 164.1875 87.5625 C163.46626953 86.72912109 163.46626953 86.72912109 162.73046875 85.87890625 C152.98129774 75.29346324 142.05506876 65.8938199 130.60205078 57.21679688 C129.17200379 56.1306411 127.75498115 55.02738615 126.33984375 53.921875 C111.23492356 42.43559875 93.57686638 33.28998285 76.01171875 26.23828125 C74.34765787 25.55409539 72.6887294 24.8547169 71.05834961 24.09375 C64.92213674 21.2401459 58.68591271 19.2399413 52.1875 17.375 C50.68219727 16.92640625 50.68219727 16.92640625 49.14648438 16.46875 C43.04333777 14.69699517 37.00509052 13.39383532 30.7253418 12.42480469 C26.02544703 11.69222233 21.39180898 10.66515752 16.73828125 9.68359375 C9.42123998 8.3455768 2.16462642 7.82605231 -5.265625 7.7265625 C-6.12947815 7.71417038 -6.9933313 7.70177826 -7.88336182 7.68901062 C-10.67228116 7.65676598 -13.46092554 7.63782381 -16.25 7.625 C-17.20253662 7.62043793 -18.15507324 7.61587585 -19.13647461 7.61117554 C-38.92639752 7.57732851 -57.48292941 9.91568727 -76.57543945 15.34057617 Z " fill="#C78B3D" transform="translate(436,169)"/>
<path d="M0 0 C0.41865654 3.94480594 0.1952507 5.68641554 -1.93359375 9.10546875 C-2.75988281 10.12253906 -3.58617187 11.13960938 -4.4375 12.1875 C-7.81581941 16.2667403 -7.81581941 16.2667403 -10 21 C-10.66 21 -11.32 21 -12 21 C-12.495 22.485 -12.495 22.485 -13 24 C-13.66 24 -14.32 24 -15 24 C-15.3403125 25.2684375 -15.3403125 25.2684375 -15.6875 26.5625 C-17.19238618 30.50386856 -19.12703255 33.88761859 -22 37 C-22.66 37 -23.32 37 -24 37 C-24.10054688 37.56589844 -24.20109375 38.13179688 -24.3046875 38.71484375 C-25.14071654 41.46246729 -26.42515126 43.24902873 -28.125 45.5625 C-30.79310223 49.28351034 -33.38500268 53.03196694 -35.875 56.875 C-36.44992187 57.75929688 -37.02484375 58.64359375 -37.6171875 59.5546875 C-38.88165823 61.79072896 -39.44619713 63.52652153 -40 66 C-36.97573256 63.79634033 -33.95624117 61.58622235 -30.9375 59.375 C-30.08994141 58.75753906 -29.24238281 58.14007813 -28.36914062 57.50390625 C-24.45832537 54.63496842 -20.64277093 51.74866002 -17.00390625 48.5390625 C-14 46 -14 46 -12 46 C-12 45.34 -12 44.68 -12 44 C-9.88609939 42.33413806 -7.81051016 40.84013389 -5.5625 39.375 C-4.92812012 38.9612915 -4.29374023 38.54758301 -3.64013672 38.12133789 C1.46373212 34.97267927 4.96671939 34.06380129 11 35 C10.39050431 39.1445707 8.96084772 42.3136063 7 46 C6.4121875 47.175625 6.4121875 47.175625 5.8125 48.375 C5.544375 48.91125 5.27625 49.4475 5 50 C4.34 50 3.68 50 3 50 C2.9175 50.680625 2.835 51.36125 2.75 52.0625 C1.77667472 55.8746907 0.04192545 58.64070329 -2 62 C-2.66 62 -3.32 62 -4 62 C-4.09539062 62.53238281 -4.19078125 63.06476563 -4.2890625 63.61328125 C-5.22432726 66.75309866 -6.76128105 69.3379583 -8.375 72.1875 C-11.23579562 77.39215076 -13.35847089 82.30292838 -15 88 C-15.99 88 -16.98 88 -18 88 C-18.3208567 82.5932233 -17.57257105 79.28108772 -15.0625 74.5 C-14.75618652 73.9112207 -14.44987305 73.32244141 -14.13427734 72.71582031 C-10.93550119 66.6682087 -7.39768656 60.81358877 -3.8203125 54.984375 C-2.06649195 52.20294665 -2.06649195 52.20294665 -1 50 C-0.34 50 0.32 50 1 50 C1.0825 49.29875 1.165 48.5975 1.25 47.875 C2.17027725 44.34727053 3.88126977 41.93888386 6 39 C3.69 39.66 1.38 40.32 -1 41 C-1 41.66 -1 42.32 -1 43 C-3.1171875 44.7265625 -3.1171875 44.7265625 -5.875 46.625 C-6.77992188 47.25664062 -7.68484375 47.88828125 -8.6171875 48.5390625 C-11 50 -11 50 -13 50 C-13 50.66 -13 51.32 -13 52 C-16.13781244 54.89484024 -19.61448559 57.4025312 -23 60 C-24.05386565 60.83011985 -25.10724538 61.66085695 -26.16015625 62.4921875 C-27.20042969 63.29914063 -28.24070312 64.10609375 -29.3125 64.9375 C-30.76076172 66.06478516 -30.76076172 66.06478516 -32.23828125 67.21484375 C-34.95460884 68.97065946 -36.81875547 69.63493915 -40 70 C-40 70.66 -40 71.32 -40 72 C-41.98 71.67 -43.96 71.34 -46 71 C-46 69.35 -46 67.7 -46 66 C-45.34 66 -44.68 66 -44 66 C-44.061875 65.278125 -44.12375 64.55625 -44.1875 63.8125 C-43.96253379 60.43800685 -43.00130237 58.69406089 -41 56 C-40.34 56 -39.68 56 -39 56 C-38.7525 55.30132812 -38.505 54.60265625 -38.25 53.8828125 C-36.82249033 50.59061833 -35.02047554 47.83885934 -33 44.875 C-32.29875 43.84117187 -31.5975 42.80734375 -30.875 41.7421875 C-30.25625 40.83726562 -29.6375 39.93234375 -29 39 C-28.34 38.01 -27.68 37.02 -27 36 C-26.34 36 -25.68 36 -25 36 C-24.77183594 35.14535156 -24.54367187 34.29070312 -24.30859375 33.41015625 C-22.81632756 29.5213551 -20.66520351 26.62609348 -18.0625 23.4375 C-15.10700861 19.75926836 -12.32529307 16.12106395 -10 12 C-10.48210937 12.433125 -10.96421875 12.86625 -11.4609375 13.3125 C-12.09257812 13.869375 -12.72421875 14.42625 -13.375 15 C-14.00148438 15.556875 -14.62796875 16.11375 -15.2734375 16.6875 C-17 18 -17 18 -19 18 C-19 18.66 -19 19.32 -19 20 C-19.66 20 -20.32 20 -21 20 C-21 20.66 -21 21.32 -21 22 C-21.99 22 -22.98 22 -24 22 C-24.2475 22.78375 -24.495 23.5675 -24.75 24.375 C-26.15389099 27.32317108 -27.00675737 27.9024777 -30 29 C-30 29.66 -30 30.32 -30 31 C-30.66 31 -31.32 31 -32 31 C-32 31.66 -32 32.32 -32 33 C-32.66 33 -33.32 33 -34 33 C-34.226875 33.53625 -34.45375 34.0725 -34.6875 34.625 C-36.45570089 37.82460161 -38.53670203 40.29037223 -41 43 C-41.66 43 -42.32 43 -43 43 C-43.2475 43.556875 -43.495 44.11375 -43.75 44.6875 C-45.22924818 47.42410913 -46.93467439 49.67650869 -49 52 C-49.66 52 -50.32 52 -51 52 C-51.0825 52.53625 -51.165 53.0725 -51.25 53.625 C-52.27581271 56.87340691 -53.96563894 59.28751859 -56 62 C-56.66 62 -57.32 62 -58 62 C-58 62.99 -58 63.98 -58 65 C-58.99 64.67 -59.98 64.34 -61 64 C-60.66951441 58.71223057 -57.51647805 54.75899378 -54 51 C-53.34 51 -52.68 51 -52 51 C-52 50.01 -52 49.02 -52 48 C-51.34 48 -50.68 48 -50 48 C-49.73832031 47.43152344 -49.47664063 46.86304688 -49.20703125 46.27734375 C-47.9033337 43.81761666 -46.40134237 41.75515421 -44.6875 39.5625 C-44.11386719 38.82128906 -43.54023438 38.08007812 -42.94921875 37.31640625 C-40.76605916 34.72199015 -38.40500739 32.39027028 -36 30 C-34.44507832 28.41296205 -32.89172724 26.82438396 -31.33984375 25.234375 C-6.55260216 0 -6.55260216 0 0 0 Z " fill="#DAA151" transform="translate(307,254)"/>
<path d="M0 0 C-3.11616786 4.33317869 -6.53909626 7.08444297 -10.875 10.0625 C-11.77412109 10.69381836 -11.77412109 10.69381836 -12.69140625 11.33789062 C-15.52980138 13.32353581 -18.39170998 15.25679799 -21.2890625 17.15625 C-24.24529564 19.16682931 -26.50648958 21.44415182 -29 24 C-34.50546448 29 -34.50546448 29 -37 29 C-37.226875 29.5775 -37.45375 30.155 -37.6875 30.75 C-39.33488275 33.57408471 -41.43454838 34.9976963 -44 37 C-44.556875 37.7425 -45.11375 38.485 -45.6875 39.25 C-46.120625 39.8275 -46.55375 40.405 -47 41 C-47.66 41 -48.32 41 -49 41 C-49.33 41.99 -49.66 42.98 -50 44 C-51.6222454 45.70993434 -53.29413425 47.37347684 -55 49 C-55.721875 49.763125 -56.44375 50.52625 -57.1875 51.3125 C-59 53 -59 53 -61 53 C-61.33 54.32 -61.66 55.64 -62 57 C-62.66 57 -63.32 57 -64 57 C-64.226875 57.515625 -64.45375 58.03125 -64.6875 58.5625 C-69.31578947 67.15789474 -69.31578947 67.15789474 -73 69 C-73.98592043 70.64385301 -73.98592043 70.64385301 -74.875 72.625 C-76.41132917 75.82192027 -78.08235296 78.88401538 -79.86328125 81.953125 C-83.01281195 87.62444489 -85.93487633 93.45296514 -88.4375 99.4375 C-90.00123388 103.00281325 -91.74039952 106.43820391 -93.5625 109.875 C-94.16191406 111.00679688 -94.76132813 112.13859375 -95.37890625 113.3046875 C-97 116 -97 116 -99 117 C-98.58411954 110.80481527 -97.39748106 105.73310689 -95 100 C-94.34 100 -93.68 100 -93 100 C-92.86464844 98.50726563 -92.86464844 98.50726563 -92.7265625 96.984375 C-92.09816249 92.62717632 -90.40023241 89.12205935 -88.375 85.25 C-88.01962158 84.55551758 -87.66424316 83.86103516 -87.2980957 83.14550781 C-84.21208252 77.20796633 -80.80381332 71.50830688 -77 66 C-76.48050781 65.24203125 -75.96101563 64.4840625 -75.42578125 63.703125 C-74.95527344 63.14109375 -74.48476562 62.5790625 -74 62 C-73.34 62 -72.68 62 -72 62 C-71.87625 61.401875 -71.7525 60.80375 -71.625 60.1875 C-71 58 -71 58 -69 55 C-68.34 55 -67.68 55 -67 55 C-66.75121094 54.43410156 -66.50242188 53.86820312 -66.24609375 53.28515625 C-64.80608409 50.64438619 -63.08409853 48.66238776 -61.0625 46.4375 C-60.37285156 45.67308594 -59.68320313 44.90867187 -58.97265625 44.12109375 C-58.32167969 43.42113281 -57.67070312 42.72117187 -57 42 C-56.46246094 41.41347656 -55.92492187 40.82695312 -55.37109375 40.22265625 C-54 39 -54 39 -52 39 C-51.773125 38.4225 -51.54625 37.845 -51.3125 37.25 C-49.65599487 34.41027692 -47.57432012 33.04775464 -45 31 C-44.0205262 29.89335695 -43.0634214 28.7666624 -42.125 27.625 C-39.11932719 24.01974997 -35.85068269 20.7093721 -32 18 C-31.34 18 -30.68 18 -30 18 C-30 17.34 -30 16.68 -30 16 C-28.62366485 15.03336461 -27.23865156 14.07728236 -25.81787109 13.17724609 C-23.89813704 11.93403395 -22.07117329 10.60603415 -20.23828125 9.23828125 C-19.27245117 8.51995117 -19.27245117 8.51995117 -18.28710938 7.78710938 C-16.9575604 6.79422167 -15.62946063 5.79939074 -14.30273438 4.80273438 C-13.66271484 4.32771484 -13.02269531 3.85269531 -12.36328125 3.36328125 C-11.78876221 2.93313721 -11.21424316 2.50299316 -10.62231445 2.05981445 C-7.14801833 -0.20984988 -4.0163834 -0.08925296 0 0 Z " fill="#D29342" transform="translate(312,231)"/>
<path d="M0 0 C0.99 0.33 1.98 0.66 3 1 C2.3426725 11.07902163 -3.796135 19.54274418 -8.70117188 28.11499023 C-11.29918681 32.67004751 -13.68831005 37.29274926 -16 42 C-15.54625 41.505 -15.0925 41.01 -14.625 40.5 C-13 39 -13 39 -11 39 C-11 38.34 -11 37.68 -11 37 C-9.35 36.34 -7.7 35.68 -6 35 C-6.99 37.475 -6.99 37.475 -8 40 C-8.66 40 -9.32 40 -10 40 C-10.33 41.32 -10.66 42.64 -11 44 C-11.66 44 -12.32 44 -13 44 C-13.33 44.99 -13.66 45.98 -14 47 C-14.66 47 -15.32 47 -16 47 C-16.061875 47.556875 -16.12375 48.11375 -16.1875 48.6875 C-17.3476371 51.98942866 -19.45559795 53.62907991 -22 56 C-22.825 56.94875 -23.65 57.8975 -24.5 58.875 C-27 61 -27 61 -29.8125 60.8125 C-30.534375 60.544375 -31.25625 60.27625 -32 60 C-32.46920144 55.31667454 -31.00634157 52.66774234 -28.625 48.6875 C-27.99851562 47.61886719 -27.37203125 46.55023437 -26.7265625 45.44921875 C-25.87191406 44.23685547 -25.87191406 44.23685547 -25 43 C-24.34 43 -23.68 43 -23 43 C-22.88785156 42.43796875 -22.77570312 41.8759375 -22.66015625 41.296875 C-21.90942661 38.68486892 -20.78832624 36.60528678 -19.4375 34.25 C-18.98246094 33.45078125 -18.52742187 32.6515625 -18.05859375 31.828125 C-17.70925781 31.22484375 -17.35992188 30.6215625 -17 30 C-20.54357605 31.98440259 -23.85544941 33.89303256 -27.125 36.3125 C-30 38 -30 38 -32.875 37.75 C-33.57625 37.5025 -34.2775 37.255 -35 37 C-34.63909625 29.54132257 -32.72786343 24.42866244 -29 18 C-28.4121875 16.98421875 -27.824375 15.9684375 -27.21875 14.921875 C-23.72946543 9.1556844 -23.72946543 9.1556844 -22 7 C-21.01 7 -20.02 7 -19 7 C-19.51700924 11.44627946 -20.57310569 14.26631645 -23 18 C-24.0150089 19.99242489 -25.01873444 21.99074195 -26 24 C-26.66 24 -27.32 24 -28 24 C-28.2165625 25.1446875 -28.2165625 25.1446875 -28.4375 26.3125 C-29 29 -29 29 -30 32 C-28.824375 31.01 -28.824375 31.01 -27.625 30 C-25 28 -25 28 -23 28 C-22.67 27.01 -22.34 26.02 -22 25 C-16.53488372 20 -16.53488372 20 -14 20 C-13.60748047 19.14341797 -13.60748047 19.14341797 -13.20703125 18.26953125 C-11.91138207 15.83337535 -10.41174059 13.83993338 -8.6875 11.6875 C-5.66579694 7.86928107 -2.79774433 3.98466616 0 0 Z " fill="#D29342" transform="translate(565,490)"/>
<path d="M0 0 C0.66 0 1.32 0 2 0 C2.76908225 20.61567687 2.76908225 20.61567687 -2 30 C-2.30615234 30.62583984 -2.61230469 31.25167969 -2.92773438 31.89648438 C-7.32151995 40.84306873 -12.24392154 49.16002127 -18.05859375 57.25 C-19.64649622 59.49926225 -21.05443928 61.71485116 -22.375 64.125 C-23.77089545 66.59466118 -24.93773708 68.12521552 -27 70 C-27.66 70.99 -28.32 71.98 -29 73 C-29.66 73 -30.32 73 -31 73 C-31.10054687 73.59296875 -31.20109375 74.1859375 -31.3046875 74.796875 C-32.12726602 77.40324737 -33.13005756 78.40713837 -35.125 80.25 C-37.68568161 82.69617958 -40.07726325 85.17999101 -42.375 87.875 C-46.33942764 92.45971224 -50.44577902 96.99302757 -55 101 C-55.66 101 -56.32 101 -57 101 C-57.05542969 101.58394531 -57.11085938 102.16789063 -57.16796875 102.76953125 C-58.38047386 106.01995575 -60.38966598 106.90282916 -63.3125 108.6875 C-64.27800781 109.28949219 -65.24351562 109.89148438 -66.23828125 110.51171875 C-68.57629533 111.77166693 -70.41007159 112.53861133 -73 113 C-70.34352697 108.84124566 -67.54758561 105.20130239 -64.1875 101.5625 C-63.7239209 101.05952393 -63.2603418 100.55654785 -62.78271484 100.03833008 C-58.08064535 94.98747649 -53.17448628 90.13794914 -48.21557617 85.34008789 C-44.76107285 81.95276953 -41.83561811 78.54781758 -39.11206055 74.55029297 C-37.62131892 72.47209114 -35.82738876 70.78344354 -34 69 C-11.59068224 41.24639466 -11.59068224 41.24639466 -2.23828125 7.91015625 C-1.99212973 4.90387951 -1.25903667 2.72373271 0 0 Z " fill="#D59847" transform="translate(605,493)"/>
<path d="M0 0 C2.47471504 1.23735752 3.45761343 2.57518905 4.875 4.9375 C6.10345459 9.02216418 6.09590583 13.07929855 6.125 17.3125 C6.145625 18.055 6.16625 18.7975 6.1875 19.5625 C6.22200226 24.44456918 5.49192415 27.66847728 2.875 31.9375 C1.875 32.9375 1.875 32.9375 -1.4375 33 C-5.125 31.9375 -5.125 31.9375 -6.44140625 30.2265625 C-10.00294074 23.15606229 -11.47809236 15.66949754 -9.62890625 7.8359375 C-8.48014953 4.78556654 -7.20441413 3.00266031 -4.6875 0.9375 C-2.125 -0.0625 -2.125 -0.0625 0 0 Z " fill="#EFE3D1" transform="translate(402.125,431.0625)"/>
<path d="M0 0 C3.5 1 3.5 1 5.375 3.75 C8.1257878 11.6967203 8.9609119 20.177799 5.8125 28.125 C3.97701971 31.81569693 3.97701971 31.81569693 0.75 33.0625 C0.0075 33.041875 -0.735 33.02125 -1.5 33 C-7.59372631 26.26482881 -8.86064319 21.00035095 -8.69140625 11.91796875 C-8.44957699 8.23130635 -7.91093571 5.41594962 -6.5 2 C-3.5 0 -3.5 0 0 0 Z " fill="#EFE2CF" transform="translate(441.5,432)"/>
<path d="M0 0 C1.32 0 2.64 0 4 0 C4 1.32 4 2.64 4 4 C3.34 4 2.68 4 2 4 C1.9071875 5.670625 1.9071875 5.670625 1.8125 7.375 C1.11670616 12.87370411 -1.36050183 17.19835971 -4 22 C-4.5259375 23.00546875 -5.051875 24.0109375 -5.59375 25.046875 C-9.72403169 32.86201585 -9.72403169 32.86201585 -12 34 C-12.73737644 35.41256451 -13.41469503 36.85668022 -14.0625 38.3125 C-16.70165039 43.77038795 -20.07538204 48.37370547 -23.7890625 53.1484375 C-26.18792506 56.24237684 -28.41934498 59.43038358 -30.61328125 62.671875 C-32 64 -32 64 -36 64 C-35.4625822 59.43194872 -33.665211 56.70168194 -31 53 C-30.18096181 51.84637389 -29.36195221 50.69272747 -28.54296875 49.5390625 C-27.69553915 48.35921218 -26.84788456 47.17952342 -26 46 C-20.47206438 38.25865663 -15.33733079 30.48756104 -11 22 C-10.34 22 -9.68 22 -9 22 C-8.7525 21.195625 -8.505 20.39125 -8.25 19.5625 C-7.00926884 16.0264162 -5.56306354 12.6686142 -4.01953125 9.2578125 C-2.63450436 6.19058821 -1.31772132 3.09664509 0 0 Z " fill="#D49746" transform="translate(582,500)"/>
<path d="M0 0 C0.66 0.33 1.32 0.66 2 1 C1.67 2.98 1.34 4.96 1 7 C0.01 7.33 -0.98 7.66 -2 8 C-2.35169068 9.32860925 -2.68276782 10.66274436 -3 12 C-4.3828125 13.640625 -4.3828125 13.640625 -6.125 15.25 C-8.68568161 17.69617958 -11.07726325 20.17999101 -13.375 22.875 C-17.33942764 27.45971224 -21.44577902 31.99302757 -26 36 C-26.66 36 -27.32 36 -28 36 C-28.08314453 36.87591797 -28.08314453 36.87591797 -28.16796875 37.76953125 C-29.38047386 41.01995575 -31.38966598 41.90282916 -34.3125 43.6875 C-35.27800781 44.28949219 -36.24351562 44.89148438 -37.23828125 45.51171875 C-39.57629533 46.77166693 -41.41007159 47.53861133 -44 48 C-41.34352697 43.84124566 -38.54758561 40.20130239 -35.1875 36.5625 C-34.7239209 36.05952393 -34.2603418 35.55654785 -33.78271484 35.03833008 C-29.08064535 29.98747649 -24.17448628 25.13794914 -19.21557617 20.34008789 C-16.27102402 17.45280291 -13.63017093 14.62268322 -11.28515625 11.22265625 C-9.34499354 8.48652936 -8.09120845 6.97342367 -5.3125 5.25 C-2.64556596 3.5706003 -1.85325472 2.77988208 0 0 Z " fill="#D29342" transform="translate(576,558)"/>
<path d="M0 0 C0.99 0 1.98 0 3 0 C3.71484375 1.546875 3.71484375 1.546875 4 4 C2.94608774 6.53857885 1.86034426 8.84495527 0.5625 11.25 C0.22412109 11.8996875 -0.11425781 12.549375 -0.46289062 13.21875 C-1.29786887 14.81814494 -2.14753114 16.40985859 -3 18 C-3.66 18 -4.32 18 -5 18 C-5.12375 18.7425 -5.2475 19.485 -5.375 20.25 C-5.95486701 22.80141485 -6.73708739 24.7267573 -8 27 C-8.66 27 -9.32 27 -10 27 C-10.11085938 27.57363281 -10.22171875 28.14726562 -10.3359375 28.73828125 C-12.68448976 36.73717395 -20.1754346 45.1754346 -26 51 C-27.32 51 -28.64 51 -30 51 C-28.5476835 44.86799698 -25.00613024 39.78090071 -21 35 C-20.34 35 -19.68 35 -19 35 C-19 33.68 -19 32.36 -19 31 C-18.34 31 -17.68 31 -17 31 C-16.938125 30.319375 -16.87625 29.63875 -16.8125 28.9375 C-15.92852654 25.74159595 -14.43857556 23.70315182 -12.45703125 21.08203125 C-10.76568207 18.66517035 -9.39195003 16.16296478 -8 13.5625 C-6.14922176 10.1178639 -4.30081744 6.68010071 -2.3125 3.3125 C-1.93738281 2.66925781 -1.56226563 2.02601563 -1.17578125 1.36328125 C-0.78777344 0.91339844 -0.39976562 0.46351563 0 0 Z " fill="#D19341" transform="translate(334,299)"/>
<path d="M0 0 C1.875 0.25 1.875 0.25 4 1 C9.01309269 8.69867806 7.09478913 21.92330996 7.125 30.8125 C7.13200928 32.29049072 7.13200928 32.29049072 7.13916016 33.79833984 C7.13601807 35.17626709 7.13601807 35.17626709 7.1328125 36.58203125 C7.13168457 37.40936768 7.13055664 38.2367041 7.12939453 39.08911133 C7 41 7 41 6 42 C4.00041636 42.04080783 1.99954746 42.04254356 0 42 C-0.99351207 33.30167735 -1.15139174 24.68636038 -1.125 15.9375 C-1.12886719 14.62072266 -1.13273437 13.30394531 -1.13671875 11.94726562 C-1.13542969 10.69494141 -1.13414062 9.44261719 -1.1328125 8.15234375 C-1.13168457 7.01788818 -1.13055664 5.88343262 -1.12939453 4.71459961 C-1 2 -1 2 0 0 Z " fill="#D19342" transform="translate(416,208)"/>
<path d="M0 0 C0.99 0 1.98 0 3 0 C2.48299076 4.44627946 1.42689431 7.26631645 -1 11 C-2.0150089 12.99242489 -3.01873444 14.99074195 -4 17 C-4.66 17 -5.32 17 -6 17 C-6.2165625 18.1446875 -6.2165625 18.1446875 -6.4375 19.3125 C-7 22 -7 22 -8 25 C-6.824375 24.01 -6.824375 24.01 -5.625 23 C-3 21 -3 21 -1 21 C-0.67 20.01 -0.34 19.02 0 18 C2.0625 16.8125 2.0625 16.8125 4 16 C4 16.66 4 17.32 4 18 C6.16874252 17.49396008 7.99967627 17.00016187 10 16 C8.82596494 19.34148439 7.84565166 21.81103718 5 24 C4.39800781 24.12632812 3.79601562 24.25265625 3.17578125 24.3828125 C-0.29675564 25.36784092 -2.83110403 27.66730287 -5.68359375 29.8203125 C-8.56939272 31.28997741 -9.96459092 30.9315012 -13 30 C-12.63909625 22.54132257 -10.72786343 17.42866244 -7 11 C-6.4121875 9.98421875 -5.824375 8.9684375 -5.21875 7.921875 C-1.72946543 2.1556844 -1.72946543 2.1556844 0 0 Z " fill="#D59949" transform="translate(543,497)"/>
<path d="M0 0 C3.82097239 0.53069061 6.06171403 1.49701566 9 4 C8.43009348 7.59357719 7.13617523 9.17249271 4.5 11.625 C1.88193354 14.03610916 1.88193354 14.03610916 0 17 C-0.66 17 -1.32 17 -2 17 C-2.33 18.65 -2.66 20.3 -3 22 C1.95 25.96 1.95 25.96 7 30 C5.875 36.75 5.875 36.75 3.9375 40.375 C3.57527344 41.06335938 3.21304687 41.75171875 2.83984375 42.4609375 C2.56269531 42.96882813 2.28554688 43.47671875 2 44 C0.68 43.67 -0.64 43.34 -2 43 C-1 41 -1 41 1 38 C1.71791299 36.77640377 2.42617224 35.54709571 3.125 34.3125 C3.74375 33.219375 4.3625 32.12625 5 31 C4.42765625 30.73445313 3.8553125 30.46890625 3.265625 30.1953125 C0.8923988 28.94323109 -1.12213286 27.5063648 -3.25 25.875 C-3.95640625 25.33617187 -4.6628125 24.79734375 -5.390625 24.2421875 C-5.92171875 23.83226562 -6.4528125 23.42234375 -7 23 C-6.62610795 17.94311008 -3.89189659 15.26847524 -0.5 11.8125 C3.16549121 8.21492953 3.16549121 8.21492953 6 4 C4.02 3.34 2.04 2.68 0 2 C0 1.34 0 0.68 0 0 Z " fill="#FBBA49" transform="translate(492,413)"/>
<path d="M0 0 C0.66 0 1.32 0 2 0 C2.08184423 2.97973615 2.14089764 5.95716832 2.1875 8.9375 C2.22520508 10.18370117 2.22520508 10.18370117 2.26367188 11.45507812 C2.33425885 17.50202899 1.25464398 22.39516349 -1 28 C-1.66 27.34 -2.32 26.68 -3 26 C-3.99 26 -4.98 26 -6 26 C-5.525625 24.948125 -5.05125 23.89625 -4.5625 22.8125 C-2.70664741 17.95606331 -2.51244706 13.20888762 -2.30859375 8.05078125 C-2.00086621 5.00856346 -1.27581425 2.76170233 0 0 Z " fill="#DA9F50" transform="translate(605,493)"/>
<path d="M0 0 C1.32 0.66 2.64 1.32 4 2 C2.30793991 28.40504292 2.30793991 28.40504292 -2 38 C-2.66 38 -3.32 38 -4 38 C-2.35 26.78 -0.7 15.56 1 4 C0.01 3.67 -0.98 3.34 -2 3 C-1.34 2.67 -0.68 2.34 0 2 C0 1.34 0 0.68 0 0 Z " fill="#FBBA49" transform="translate(438,303)"/>
<path d="M0 0 C0 4.61804575 -2.89216979 6.79060671 -6 10 C-12.32751092 16 -12.32751092 16 -15 16 C-15.226875 16.5775 -15.45375 17.155 -15.6875 17.75 C-17.33708262 20.57785592 -19.39710359 22.04782769 -22 24 C-22.66 24.66 -23.32 25.32 -24 26 C-24 22 -24 22 -22.3203125 19.859375 C-21.23363281 18.81523437 -21.23363281 18.81523437 -20.125 17.75 C-19.40570313 17.04359375 -18.68640625 16.3371875 -17.9453125 15.609375 C-16 14 -16 14 -14 14 C-13.74992188 13.41347656 -13.49984375 12.82695312 -13.2421875 12.22265625 C-11.83560368 9.70584431 -10.32306294 8.29133799 -8.125 6.4375 C-7.44695312 5.85871094 -6.76890625 5.27992188 -6.0703125 4.68359375 C-4.08348175 3.06788799 -2.06062859 1.5200601 0 0 Z " fill="#B58642" transform="translate(261,226)"/>
<path d="M0 0 C1.32 0 2.64 0 4 0 C4 1.32 4 2.64 4 4 C3.34 4 2.68 4 2 4 C1.938125 5.11375 1.87625 6.2275 1.8125 7.375 C1.16800296 12.82392948 -1.36835643 17.26109941 -4 22 C-5 19 -5 19 -5 18 C-5.99 18.33 -6.98 18.66 -8 19 C-6.21127475 14.42419121 -4.17969187 9.98271532 -2.12109375 5.5234375 C-0.93154689 2.95494272 -0.93154689 2.95494272 0 0 Z " fill="#D99F50" transform="translate(582,500)"/>
<path d="M0 0 C-0.66 1.65 -1.32 3.3 -2 5 C-2.66 5 -3.32 5 -4 5 C-4.33 6.32 -4.66 7.64 -5 9 C-5.66 9 -6.32 9 -7 9 C-7.33 9.99 -7.66 10.98 -8 12 C-8.66 12 -9.32 12 -10 12 C-10.103125 12.639375 -10.20625 13.27875 -10.3125 13.9375 C-10.539375 14.618125 -10.76625 15.29875 -11 16 C-11.99 16.33 -12.98 16.66 -14 17 C-14.95465783 14.83032311 -15.14401212 13.43671207 -14.3984375 11.17578125 C-13.64129615 9.4315257 -12.82390802 7.71372869 -12 6 C-11.34 6.33 -10.68 6.66 -10 7 C-9.319375 6.2575 -9.319375 6.2575 -8.625 5.5 C-7 4 -7 4 -5 4 C-5 3.34 -5 2.68 -5 2 C-2 0 -2 0 0 0 Z " fill="#D59847" transform="translate(559,525)"/>
<path d="M0 0 C0.33 0.66 0.66 1.32 1 2 C3.16874252 1.49396008 4.99967627 1.00016187 7 0 C5.82596494 3.34148439 4.84565166 5.81103718 2 8 C1.401875 8.144375 0.80375 8.28875 0.1875 8.4375 C-3.00535021 9.25851863 -5.32891129 11.11809659 -8 13 C-7.67 11.68 -7.34 10.36 -7 9 C-6.01 9 -5.02 9 -4 9 C-4.0825 8.071875 -4.165 7.14375 -4.25 6.1875 C-4 3 -4 3 -2 1.125 C-1.34 0.75375 -0.68 0.3825 0 0 Z " fill="#D79B4B" transform="translate(546,513)"/>
<path d="M0 0 C-1.33250791 3.5875213 -2.830717 6.8364623 -5 10 C-5.66 10 -6.32 10 -7 10 C-7.33 11.32 -7.66 12.64 -8 14 C-8 9.71 -8 5.42 -8 1 C-3 -1 -3 -1 0 0 Z " fill="#FBBB4C" transform="translate(389,374)"/>
<path d="M0 0 C0.99 0 1.98 0 3 0 C3.88336837 2.4667645 4.1312406 3.63859372 3.22265625 6.140625 C2.83980469 6.83671875 2.45695312 7.5328125 2.0625 8.25 C1.68222656 8.95640625 1.30195313 9.6628125 0.91015625 10.390625 C0.60980469 10.92171875 0.30945313 11.4528125 0 12 C-2.97 11.505 -2.97 11.505 -6 11 C-4.54923295 6.88949336 -2.65754275 3.46285873 0 0 Z " fill="#D79C4C" transform="translate(334,299)"/>
<path d="M0 0 C-3.13922331 4.52048157 -6.21495828 6.51545911 -11 9 C-11 8.01 -11 7.02 -11 6 C-12.32 5.67 -13.64 5.34 -15 5 C-5.77448747 -0.74031891 -5.77448747 -0.74031891 0 0 Z " fill="#D69A4A" transform="translate(312,231)"/>
<path d="M0 0 C0.33 0 0.66 0 1 0 C1 1.65 1 3.3 1 5 C1.66 5 2.32 5 3 5 C1.68315519 9.60895683 -0.15198745 13.14140235 -3 17 C-3.33 17 -3.66 17 -4 17 C-3.58411954 10.80481527 -2.39748106 5.73310689 0 0 Z " fill="#D79C4C" transform="translate(217,331)"/>
<path d="M0 0 C-0.33 3.63 -0.66 7.26 -1 11 C-2.32 11 -3.64 11 -5 11 C-4.34 8.36 -3.68 5.72 -3 3 C-7.455 3.495 -7.455 3.495 -12 4 C-11.67 3.01 -11.34 2.02 -11 1 C-7.26562152 0.12132271 -3.83225427 -0.08912219 0 0 Z " fill="#FBBB4D" transform="translate(429,285)"/>
<path d="M0 0 C-3.28860286 3.28860286 -6.9672921 3.05380838 -11.42578125 3.09765625 C-13.0547163 3.09106137 -14.68363734 3.07921288 -16.3125 3.0625 C-17.14845703 3.05798828 -17.98441406 3.05347656 -18.84570312 3.04882812 C-20.89716649 3.03710548 -22.94859273 3.01917203 -25 3 C-24.67 2.34 -24.34 1.68 -24 1 C-22.00634766 0.57348633 -22.00634766 0.57348633 -19.4140625 0.33203125 C-18.48335938 0.24373047 -17.55265625 0.15542969 -16.59375 0.06445312 C-15.12421875 -0.06026367 -15.12421875 -0.06026367 -13.625 -0.1875 C-12.65304687 -0.28224609 -11.68109375 -0.37699219 -10.6796875 -0.47460938 C-3.39968512 -1.13322837 -3.39968512 -1.13322837 0 0 Z " fill="#AF8644" transform="translate(418,169)"/>
<path d="M0 0 C2.55326901 3.11319643 4.09686122 6.22027897 5.625 9.9375 C6.05039062 10.95714844 6.47578125 11.97679687 6.9140625 13.02734375 C7.88964257 15.69790647 8.53612948 18.20131451 9 21 C8.34 21.33 7.68 21.66 7 22 C5.1407481 17.81668322 3.42635265 13.59696291 1.8125 9.3125 C1.46832031 8.40113281 1.12414062 7.48976563 0.76953125 6.55078125 C0 4 0 4 0 0 Z " fill="#AA8142" transform="translate(644,310)"/>
<path d="M0 0 C0.66 0.99 1.32 1.98 2 3 C1.01 3.33 0.02 3.66 -1 4 C-1.79953138 7.28696233 -2.09658936 8.71023192 -1 12 C-1.66 12.66 -2.32 13.32 -3 14 C-4.32 14 -5.64 14 -7 14 C-5.53967505 8.68972746 -3.01679014 4.53669968 0 0 Z " fill="#D79B4B" transform="translate(311,336)"/>
<path d="M0 0 C0.66 0 1.32 0 2 0 C1.48758893 6.02900687 0.930215 12.02004643 0 18 C-0.66 18 -1.32 18 -2 18 C-2.23268915 11.71739294 -1.40454548 6.11980533 0 0 Z " fill="#FBBD51" transform="translate(444,314)"/>
<path d="M0 0 C5.69139902 1.09698167 10.74567937 2.54053077 16 5 C16 5.66 16 6.32 16 7 C10.23955788 6.39363767 5.27985631 4.24341721 0 2 C0 1.34 0 0.68 0 0 Z " fill="#AF8444" transform="translate(324,650)"/>
<path d="M0 0 C0.33 0 0.66 0 1 0 C1.33249053 6.20648988 0.54922986 10.31325646 -2 16 C-2.66 16.66 -3.32 17.32 -4 18 C-3.41632611 11.69632197 -1.95928381 6.01339937 0 0 Z " fill="#A37C40" transform="translate(182,339)"/>
<path d="M0 0 C-0.66 1.65 -1.32 3.3 -2 5 C-2.66 5 -3.32 5 -4 5 C-4.33 6.32 -4.66 7.64 -5 9 C-6.65 8.67 -8.3 8.34 -10 8 C-8.625 6 -8.625 6 -7 4 C-6.34 4 -5.68 4 -5 4 C-5 3.34 -5 2.68 -5 2 C-2 0 -2 0 0 0 Z " fill="#DEA758" transform="translate(559,525)"/>
<path d="M0 0 C0.66 0 1.32 0 2 0 C3.33257403 12.66970387 3.33257403 12.66970387 2 18 C1.67 18 1.34 18 1 18 C-0.0712828 11.97403427 -0.09945415 6.11090483 0 0 Z " fill="#A47B3F" transform="translate(171,443)"/>
<path d="M0 0 C0.99 0.33 1.98 0.66 3 1 C3 1.99 3 2.98 3 4 C2.236875 4.226875 1.47375 4.45375 0.6875 4.6875 C-2.54736301 6.26731682 -3.41641358 7.83282717 -5 11 C-5.66 10.67 -6.32 10.34 -7 10 C-3.535 5.05 -3.535 5.05 0 0 Z " fill="#DBA253" transform="translate(565,490)"/>
<path d="M0 0 C0.66 0 1.32 0 2 0 C1.625 1.9375 1.625 1.9375 1 4 C0.01 4.495 0.01 4.495 -1 5 C-2.0409066 6.64142963 -3.04504326 8.30712215 -4 10 C-4.99 9.67 -5.98 9.34 -7 9 C-5.88266271 7.49428343 -4.75589965 5.99555708 -3.625 4.5 C-2.99851563 3.6646875 -2.37203125 2.829375 -1.7265625 1.96875 C-1.15679687 1.3190625 -0.58703125 0.669375 0 0 Z " fill="#A47A3E" transform="translate(221,267)"/>
<path d="M0 0 C0.33 0.99 0.66 1.98 1 3 C1.66 3.33 2.32 3.66 3 4 C0.1875 6.0625 0.1875 6.0625 -3 8 C-3.99 7.67 -4.98 7.34 -6 7 C-4.02 4.69 -2.04 2.38 0 0 Z " fill="#DBA253" transform="translate(538,598)"/>
<path d="M0 0 C-0.33 0.99 -0.66 1.98 -1 3 C-3.50390625 3.94921875 -3.50390625 3.94921875 -6.5625 4.6875 C-7.57441406 4.93886719 -8.58632813 5.19023437 -9.62890625 5.44921875 C-10.41136719 5.63097656 -11.19382812 5.81273437 -12 6 C-11 3 -11 3 -9.2578125 2.05078125 C-8.55398438 1.80714844 -7.85015625 1.56351562 -7.125 1.3125 C-6.42632812 1.06113281 -5.72765625 0.80976563 -5.0078125 0.55078125 C-3 0 -3 0 0 0 Z " fill="#FBBE54" transform="translate(391,366)"/>
<path d="M0 0 C0.33 0.99 0.66 1.98 1 3 C1.99 3.33 2.98 3.66 4 4 C3.01 4.99 2.02 5.98 1 7 C0.67 6.34 0.34 5.68 0 5 C-2.475 6.485 -2.475 6.485 -5 8 C-4.67 7.01 -4.34 6.02 -4 5 C-3.34 5 -2.68 5 -2 5 C-1.7834375 4.0409375 -1.7834375 4.0409375 -1.5625 3.0625 C-1 1 -1 1 0 0 Z " fill="#D99F4F" transform="translate(242,288)"/>
<path d="M0 0 C0.99 0.33 1.98 0.66 3 1 C1.12050295 4.57104439 -0.17053157 6.54744301 -4 8 C-3.40072174 4.64404172 -2.15377564 2.62198774 0 0 Z " fill="#C29047" transform="translate(234,251)"/>
<path d="M0 0 C3.63 1.32 7.26 2.64 11 4 C11 4.99 11 5.98 11 7 C10.01 6.67 9.02 6.34 8 6 C8 5.34 8 4.68 8 4 C7.4225 4.226875 6.845 4.45375 6.25 4.6875 C4 5 4 5 1.75 3.6875 C1.1725 3.130625 0.595 2.57375 0 2 C0 1.34 0 0.68 0 0 Z " fill="#A1793D" transform="translate(511,186)"/>
<path d="M0 0 C0.88300781 0.19464844 1.76601563 0.38929688 2.67578125 0.58984375 C3.67158203 0.82380859 3.67158203 0.82380859 4.6875 1.0625 C4.6875 1.3925 4.6875 1.7225 4.6875 2.0625 C2.56277424 2.11636629 0.43766348 2.15523071 -1.6875 2.1875 C-3.46253906 2.22230469 -3.46253906 2.22230469 -5.2734375 2.2578125 C-8.3125 2.0625 -8.3125 2.0625 -10.3125 0.0625 C-6.51681539 -0.91548721 -3.8119001 -0.86403069 0 0 Z " fill="#CE984C" transform="translate(439.3125,169.9375)"/>
<path d="M0 0 C0.66 0 1.32 0 2 0 C1.39301257 4.12751449 -0.03810791 7.3321148 -2 11 C-2.33 10.34 -2.66 9.68 -3 9 C-3.66 8.67 -4.32 8.34 -5 8 C-4.34 8 -3.68 8 -3 8 C-2.690625 7.05125 -2.38125 6.1025 -2.0625 5.125 C-1 2 -1 2 0 0 Z " fill="#FBBD50" transform="translate(497,453)"/>
<path d="M0 0 C1.134375 0.020625 2.26875 0.04125 3.4375 0.0625 C3.1075 1.7125 2.7775 3.3625 2.4375 5.0625 C1.4475 4.7325 0.4575 4.4025 -0.5625 4.0625 C-0.5625 3.4025 -0.5625 2.7425 -0.5625 2.0625 C-1.8825 1.7325 -3.2025 1.4025 -4.5625 1.0625 C-3.5625 0.0625 -3.5625 0.0625 0 0 Z " fill="#D79C4C" transform="translate(314.5625,288.9375)"/>
<path d="M0 0 C-1.32 1.32 -2.64 2.64 -4 4 C-4.99 3.67 -5.98 3.34 -7 3 C-7 3.99 -7 4.98 -7 6 C-7.66 5.67 -8.32 5.34 -9 5 C-8.00233891 2.50584728 -7.31383315 1.21259665 -5.0625 -0.3125 C-3 -1 -3 -1 0 0 Z " fill="#E1AB5D" transform="translate(306,261)"/>
<path d="M0 0 C0.99 0 1.98 0 3 0 C2.67 1.98 2.34 3.96 2 6 C1.34 5.34 0.68 4.68 0 4 C-0.66 5.32 -1.32 6.64 -2 8 C-2.66 7.67 -3.32 7.34 -4 7 C-2.68 4.69 -1.36 2.38 0 0 Z " fill="#DDA455" transform="translate(543,497)"/>
<path d="M0 0 C2.97148323 3.35490043 4.2679078 5.6074468 5 10 C5.66 10.33 6.32 10.66 7 11 C6.01 11 5.02 11 4 11 C0 4.5 0 4.5 0 0 Z " fill="#A57C3F" transform="translate(201,539)"/>
<path d="M0 0 C0.33 0.66 0.66 1.32 1 2 C0.22265625 3.7265625 0.22265625 3.7265625 -0.9375 5.625 C-1.618125 6.73875 -2.29875 7.8525 -3 9 C-3.33 9 -3.66 9 -4 9 C-4 6.69 -4 4.38 -4 2 C-2.68 1.34 -1.36 0.68 0 0 Z " fill="#F8CB7C" transform="translate(387,375)"/>
<path d="M0 0 C0.66 0 1.32 0 2 0 C1.75 2.875 1.75 2.875 1 6 C-1.0625 7.375 -1.0625 7.375 -3 8 C-3 6.35 -3 4.7 -3 3 C-2.01 3 -1.02 3 0 3 C0 2.01 0 1.02 0 0 Z " fill="#D49746" transform="translate(296,324)"/>
<path d="M0 0 C0.33 0.66 0.66 1.32 1 2 C0.01 3.485 0.01 3.485 -1 5 C-1.66 5 -2.32 5 -3 5 C-3 5.66 -3 6.32 -3 7 C-4.32 6.67 -5.64 6.34 -7 6 C-6.67 5.01 -6.34 4.02 -6 3 C-4.35 3 -2.7 3 -1 3 C-0.67 2.01 -0.34 1.02 0 0 Z " fill="#D39645" transform="translate(297,299)"/>
<path d="M0 0 C1.32 0.33 2.64 0.66 4 1 C3.67 1.66 3.34 2.32 3 3 C2.34 3 1.68 3 1 3 C0.67 3.99 0.34 4.98 0 6 C-1.65 6.33 -3.3 6.66 -5 7 C-3.625 4.5 -3.625 4.5 -2 2 C-1.34 2 -0.68 2 0 2 C0 1.34 0 0.68 0 0 Z " fill="#DFA759" transform="translate(282,288)"/>
<path d="M0 0 C3.85658398 2.15078722 7.54319097 4.23455278 11 7 C9.68 7.33 8.36 7.66 7 8 C6.67 7.01 6.34 6.02 6 5 C4.7625 4.505 4.7625 4.505 3.5 4 C2.2625 3.505 2.2625 3.505 1 3 C0.67 2.01 0.34 1.02 0 0 Z " fill="#A37C3F" transform="translate(544,202)"/>
<path d="M0 0 C1 3 1 3 0 6 C0.66 6.33 1.32 6.66 2 7 C0.35 7.33 -1.3 7.66 -3 8 C-2.45276317 4.62537285 -1.9451 2.91765 0 0 Z " fill="#D89E4E" transform="translate(549,556)"/>
<path d="M0 0 C1.98 0.495 1.98 0.495 4 1 C4.625 2.875 4.625 2.875 5 5 C4.34 5.66 3.68 6.32 3 7 C2.67 6.34 2.34 5.68 2 5 C1.67 5.66 1.34 6.32 1 7 C0.34 6.67 -0.32 6.34 -1 6 C-0.01 4.35 0.98 2.7 2 1 C1.34 0.67 0.68 0.34 0 0 Z " fill="#DFA859" transform="translate(311,292)"/>
<path d="M0 0 C2.96404505 2.80804268 5.44499019 5.18315774 7 9 C6.01 9 5.02 9 4 9 C4 8.01 4 7.02 4 6 C3.34 6 2.68 6 2 6 C2 5.34 2 4.68 2 4 C1.34 4 0.68 4 0 4 C0 2.68 0 1.36 0 0 Z " fill="#A77F41" transform="translate(620,271)"/>
<path d="M0 0 C3.74633486 1.24877829 5.41041797 3.06047445 8 6 C8 6.99 8 7.98 8 9 C4.48536988 7.10019993 2.10449322 5.43364683 0 2 C0 1.34 0 0.68 0 0 Z " fill="#AA8141" transform="translate(585,232)"/>
<path d="M0 0 C0.97001682 3.39505887 1 6.47064557 1 10 C0.01 10.33 -0.98 10.66 -2 11 C-2.95465783 8.83032311 -3.14401212 7.43671207 -2.3984375 5.17578125 C-1.64129615 3.4315257 -0.82390802 1.71372869 0 0 Z " fill="#D99F50" transform="translate(547,531)"/>
<path d="M0 0 C0.66 0.33 1.32 0.66 2 1 C1.34 3.31 0.68 5.62 0 8 C-1.32 7.67 -2.64 7.34 -4 7 C-3.67 6.01 -3.34 5.02 -3 4 C-2.34 3.67 -1.68 3.34 -1 3 C-0.67 2.01 -0.34 1.02 0 0 Z " fill="#D19342" transform="translate(577,515)"/>
<path d="M0 0 C0.66 0 1.32 0 2 0 C1.67 2.31 1.34 4.62 1 7 C0.01 7 -0.98 7 -2 7 C-1.125 2.25 -1.125 2.25 0 0 Z " fill="#D89C4D" transform="translate(270,305)"/>
<path d="M0 0 C1.11375 0.598125 2.2275 1.19625 3.375 1.8125 C4.00148438 2.14894531 4.62796875 2.48539063 5.2734375 2.83203125 C7 4 7 4 9 7 C6.83125748 6.49396008 5.00032373 6.00016187 3 5 C3 4.34 3 3.68 3 3 C2.01 3 1.02 3 0 3 C0 2.01 0 1.02 0 0 Z " fill="#99753C" transform="translate(564,215)"/>
<path d="M0 0 C0.33 0.66 0.66 1.32 1 2 C-0.98 4.97 -0.98 4.97 -3 8 C-3.99 7.34 -4.98 6.68 -6 6 C-4.02 4.02 -2.04 2.04 0 0 Z " fill="#E7B568" transform="translate(552,513)"/>
<path d="M0 0 C3.36720387 1.39332574 4.9859524 2.9789286 7 6 C4 6 4 6 1.8125 4.125 C0 2 0 2 0 0 Z " fill="#B18643" transform="translate(223,574)"/>
<path d="M0 0 C0.33 1.32 0.66 2.64 1 4 C-0.65 4.66 -2.3 5.32 -4 6 C-3.67 4.35 -3.34 2.7 -3 1 C-2.01 0.67 -1.02 0.34 0 0 Z " fill="#D89D4D" transform="translate(269,289)"/>
<path d="M0 0 C1.77706209 2.66559313 2.87548273 5.0280615 4 8 C3.01 8.495 3.01 8.495 2 9 C0.4375 6.1875 0.4375 6.1875 -1 3 C-0.67 2.01 -0.34 1.02 0 0 Z " fill="#A57E40" transform="translate(189,514)"/>
<path d="M0 0 C4.42857143 5.14285714 4.42857143 5.14285714 5 9 C2 8 2 8 0.8125 6.1875 C0 4 0 4 0 0 Z " fill="#A88142" transform="translate(639,301)"/>
<path d="M0 0 C0 0.99 0 1.98 0 3 C-1.75 4.0625 -1.75 4.0625 -4 5 C-5.32 4.67 -6.64 4.34 -8 4 C-5.36 2.68 -2.72 1.36 0 0 Z " fill="#A98142" transform="translate(301,199)"/>
</svg>
