<?xml version="1.0" encoding="UTF-8"?>
<svg version="1.1" xmlns="http://www.w3.org/2000/svg" width="839" height="839">
<path d="M0 0 C0.81082031 0.16226074 1.62164062 0.32452148 2.45703125 0.49169922 C6.99088566 1.44016747 11.31102542 2.70627734 15.6875 4.21923828 C18.08910348 5.03008371 20.50363351 5.75702594 22.9375 6.46484375 C23.77023437 6.70783203 24.60296875 6.95082031 25.4609375 7.20117188 C27.15260474 7.69175537 28.84531949 8.17874118 30.5390625 8.66210938 C36.27029626 10.34333042 41.58502315 12.49504024 47 15 C48.23455934 15.52911955 49.47144449 16.05285587 50.7109375 16.5703125 C60.75865812 20.83363106 70.34424691 25.76390289 79.95898438 30.92089844 C82.48623118 32.25707438 85.04932411 33.51015602 87.625 34.75 C91.54295475 36.6818635 95.09465597 38.96456952 98.68359375 41.44921875 C102.0624097 43.71125911 105.59175793 45.70035609 109.12890625 47.703125 C109.74636719 48.13109375 110.36382813 48.5590625 111 49 C111 49.66 111 50.32 111 51 C111.65355469 51.20625 112.30710937 51.4125 112.98046875 51.625 C117.18553981 53.53985771 120.64155225 56.21808428 124.3125 59 C125.05306641 59.5465625 125.79363281 60.093125 126.55664062 60.65625 C127.60561523 61.44515625 127.60561523 61.44515625 128.67578125 62.25 C129.31427002 62.72953125 129.95275879 63.2090625 130.6105957 63.703125 C131.06909912 64.13109375 131.52760254 64.5590625 132 65 C132 65.66 132 66.32 132 67 C132.66 67 133.32 67 134 67 C134.66 67.99 135.32 68.98 136 70 C137.66279327 71.0064275 139.32983484 72.00585407 141 73 C143.3125 75.0625 143.3125 75.0625 145 77 C145 77.66 145 78.32 145 79 C145.556875 79.226875 146.11375 79.45375 146.6875 79.6875 C149.67961603 81.38572802 151.61600535 83.50764196 154 86 C155.33062607 87.33603511 156.66415805 88.66918001 158 90 C159.33333333 91.33333333 160.66666667 92.66666667 162 94 C163.21816406 95.18529297 163.21816406 95.18529297 164.4609375 96.39453125 C167.88837428 99.91160868 170.8653947 103.72956772 173.9140625 107.57421875 C175.94813781 110.15985855 175.94813781 110.15985855 179 112 C179.97516576 113.66721889 180.94996904 115.33652045 181.83984375 117.05078125 C183.33599803 119.56452194 185.16497799 121.72204164 187 124 C188.51831989 126.13580562 190.01886756 128.27646205 191.5 130.4375 C191.87769531 130.98470703 192.25539063 131.53191406 192.64453125 132.09570312 C193.76809095 133.72698826 194.8840944 135.36346943 196 137 C196.7528125 138.06347656 197.505625 139.12695312 198.28125 140.22265625 C200 143 200 143 200 146 C200.66 146 201.32 146 202 146 C202.91145833 147.85546875 203.82291667 149.7109375 204.734375 151.56640625 C206.04620273 154.08884044 207.45791157 156.54428435 208.87597656 159.00805664 C211.00060237 162.77322214 212.99289754 166.60880001 215 170.4375 C215.42539062 171.24509766 215.85078125 172.05269531 216.2890625 172.88476562 C217.53321478 175.25285301 218.76861255 177.6252532 220 180 C220.37382813 180.71559082 220.74765625 181.43118164 221.1328125 182.16845703 C223.12284331 186.04441056 224.72752384 189.81737656 226 194 C226.31839844 194.95519531 226.63679687 195.91039062 226.96484375 196.89453125 C227.64101564 198.92304691 228.31676613 200.95170307 228.9921875 202.98046875 C229.59836246 204.79664411 230.20696212 206.61201656 230.8203125 208.42578125 C232.45251901 213.26226685 233.94317053 218.12459411 235.3515625 223.03125 C235.82945524 224.97959154 235.82945524 224.97959154 237 226 C237.34309051 227.30430031 237.63956853 228.62096562 237.9140625 229.94140625 C238.61081667 233.21331749 239.34860257 236.4666029 240.1484375 239.71484375 C242.97006169 251.54418033 244.87164322 263.37501931 246.3125 275.4375 C246.44298737 276.49491898 246.44298737 276.49491898 246.57611084 277.57369995 C247.68144971 286.64368548 248.13889355 295.45611123 247.86401367 304.59399414 C247.99812744 307.95309869 248.68669698 309.95969376 250 313 C249.84720262 315.79936335 249.58799217 318.42544398 249.1875 321.1875 C248.38557036 327.38371359 247.81423673 333.50777065 247.5625 339.75 C246.87548318 354.69882386 244.67834545 369.4998556 241 384 C240.69553522 385.33249703 240.39499796 386.66589541 240.09765625 388 C237.89065663 397.84696052 235.19505527 407.42985459 232 417 C231.73815918 417.79341797 231.47631836 418.58683594 231.20654297 419.40429688 C227.70208251 429.96478672 223.87549797 440.18733474 218.91796875 450.15380859 C217.95385034 452.09281483 217.00769725 454.03998871 216.0625 455.98828125 C208.37538804 471.72729804 199.34992436 486.28990457 189.50585938 500.76171875 C188.20388475 502.69694951 186.95113403 504.65494508 185.703125 506.625 C185.14109375 507.40875 184.5790625 508.1925 184 509 C183.34 509 182.68 509 182 509 C181.77699219 509.69480469 181.55398438 510.38960937 181.32421875 511.10546875 C179.68917763 514.67940818 177.3818385 517.38879972 174.8125 520.3125 C174.32072266 520.88210449 173.82894531 521.45170898 173.32226562 522.03857422 C171.88743976 523.69765039 170.44428867 525.34916307 169 527 C168.28199219 527.83144531 167.56398438 528.66289063 166.82421875 529.51953125 C162.4289333 534.59246242 162.4289333 534.59246242 160.35546875 536.5625 C158.80885617 537.98350605 158.80885617 537.98350605 158.3125 540.375 C156.8761818 543.24763639 156.24272526 543.64582571 153.5625 545.1875 C148.7394616 547.96466471 144.95128087 551.57447198 140.890625 555.3515625 C128.17699115 567 128.17699115 567 125 567 C124.70609375 567.84304688 124.70609375 567.84304688 124.40625 568.703125 C122.42719875 571.93557537 119.59409489 573.6895073 116.5 575.75 C115.90574219 576.16121094 115.31148437 576.57242188 114.69921875 576.99609375 C110.27818729 580 110.27818729 580 108 580 C108 580.66 108 581.32 108 582 C106.55947266 582.81210938 106.55947266 582.81210938 105.08984375 583.640625 C102.19810833 585.29221592 99.34440175 586.99620632 96.50390625 588.734375 C85.16112058 595.66709476 73.73968689 602.05402128 61.6171875 607.52734375 C58.69895129 608.78362952 58.69895129 608.78362952 58 612 C56.7934375 612.185625 56.7934375 612.185625 55.5625 612.375 C54.386875 612.58125 53.21125 612.7875 52 613 C51.34644531 613.11085938 50.69289063 613.22171875 50.01953125 613.3359375 C45.65619055 614.17840401 41.81196259 615.4446833 37.75 617.25 C29.57285573 620.79482341 21.00651202 622.96968627 12.4296875 625.31982422 C9.3088037 626.19349607 6.22086702 627.16693436 3.125 628.125 C-15.35205772 633.300287 -34.46860092 634.91204839 -53.50341797 636.69335938 C-54.35643494 636.77354813 -55.2094519 636.85373688 -56.08831787 636.93635559 C-57.69942673 637.0867 -59.31078642 637.2343889 -60.92242432 637.37895203 C-63.97888065 637.6617134 -66.9566543 637.99101457 -69.96435547 638.61450195 C-70.63611816 638.74171631 -71.30788086 638.86893066 -72 639 C-72.33 638.67 -72.66 638.34 -73 638 C-74.84368771 637.78265163 -76.69484916 637.62815996 -78.546875 637.5 C-80.28130859 637.37625 -80.28130859 637.37625 -82.05078125 637.25 C-83.88189453 637.12625 -83.88189453 637.12625 -85.75 637 C-88.11980446 636.83351538 -90.48959617 636.66684911 -92.859375 636.5 C-96.34616713 636.25465414 -99.83282669 636.01092612 -103.32080078 635.78295898 C-111.07524103 635.2449603 -118.69833266 634.27294755 -126.375 633.0625 C-127.49777344 632.89298828 -128.62054688 632.72347656 -129.77734375 632.54882812 C-135.32481095 631.68756256 -140.62826666 630.66754422 -146 629 C-148.5185114 628.36570824 -151.03948056 627.74111575 -153.5625 627.125 C-173.28424562 622.23249887 -173.28424562 622.23249887 -181.5 618.75 C-185.1456424 617.20992664 -187.98652281 616.57752872 -192 617 C-192.33 616.01 -192.66 615.02 -193 614 C-195.20458249 612.89125108 -195.20458249 612.89125108 -198 612 C-207.05153407 608.52989687 -215.55956755 604.8110465 -224 600 C-226.12324559 598.87169235 -228.24833164 597.746843 -230.375 596.625 C-241.14069825 590.82121718 -251.19887605 584.30112711 -261 577 C-262.91597141 575.62403137 -264.83263427 574.24902503 -266.75 572.875 C-270.39179899 570.22876363 -273.86585629 567.49975658 -277.23046875 564.51171875 C-280.13171052 562.03317445 -283.21274734 559.78721232 -286.27734375 557.515625 C-286.84582031 557.01546875 -287.41429687 556.5153125 -288 556 C-288 555.34 -288 554.68 -288 554 C-288.5775 553.7525 -289.155 553.505 -289.75 553.25 C-292.34375315 551.80902603 -293.96552222 550.15777947 -296 548 C-296.804375 547.21625 -297.60875 546.4325 -298.4375 545.625 C-301.12699591 542.86990663 -303.53592281 539.95689262 -306 537 C-306.78375 536.21625 -307.5675 535.4325 -308.375 534.625 C-311.16906598 531.83093402 -313.72699448 528.89488329 -316.30859375 525.90625 C-317.66355512 524.37918038 -319.10120666 522.92565204 -320.5625 521.5 C-323.1725515 518.8230241 -325.31666008 515.997042 -327.51953125 512.984375 C-328.85163795 511.19885996 -330.23728677 509.50223794 -331.6875 507.8125 C-333.77077913 505.27878215 -335.3227552 502.80519193 -337 500 C-338.09241662 498.44998514 -339.19700274 496.90848818 -340.3125 495.375 C-343.45427215 490.93135186 -346.10935278 486.35665216 -348.640625 481.54296875 C-350.01450747 478.97286103 -351.49585377 476.49593121 -353 474 C-354.49532756 471.40491328 -355.96715773 468.79680524 -357.4375 466.1875 C-357.81970703 465.51396484 -358.20191406 464.84042969 -358.59570312 464.14648438 C-360.54677369 460.68490757 -362.45376246 457.2022828 -364.28515625 453.67578125 C-364.61523682 453.04196533 -364.94531738 452.40814941 -365.28540039 451.75512695 C-366 450 -366 450 -366 447 C-366.66 447 -367.32 447 -368 447 C-368.18062988 446.4423999 -368.36125977 445.8847998 -368.54736328 445.31030273 C-373.07440609 431.37034095 -373.07440609 431.37034095 -378.3125 417.6875 C-380.32737181 412.7729185 -381.89469625 408.18642528 -383 403 C-383.45982054 401.1904566 -383.92381226 399.38197097 -384.390625 397.57421875 C-386.01846741 391.08985705 -387.32599156 384.56870731 -388.5625 378 C-388.77068359 376.91460937 -388.97886719 375.82921875 -389.19335938 374.7109375 C-389.8090219 371.47629678 -390.40752234 368.23896087 -391 365 C-391.18401367 364.02200439 -391.36802734 363.04400879 -391.55761719 362.03637695 C-392.97892273 354.1139881 -393.63678021 346.21700778 -394.125 338.1875 C-394.16669312 337.5149115 -394.20838623 336.842323 -394.25134277 336.14935303 C-395.28415554 319.2782519 -395.84075682 302.58491452 -393.50390625 285.8046875 C-392.90081573 281.25112033 -392.5929254 276.7098274 -392.34375 272.125 C-391.97772942 268.79754018 -391.29149359 265.65308796 -390.53515625 262.39648438 C-390.00599911 260.02686461 -389.5597495 257.65698489 -389.140625 255.265625 C-386.16776407 238.42220135 -382.31053889 221.05874786 -375.4375 205.3125 C-373.99005213 202.11194609 -373.99005213 202.11194609 -373.0546875 199.1484375 C-370.05100596 190.18189186 -365.96612711 181.57358541 -362 173 C-361.34 173 -360.68 173 -360 173 C-359.88785156 172.11441406 -359.77570313 171.22882813 -359.66015625 170.31640625 C-357.82908531 161.11771261 -351.00131034 152.54289415 -346.07080078 144.70458984 C-345.35245686 143.56107017 -344.63732153 142.41552907 -343.92529297 141.26806641 C-339.00828932 133.34733314 -333.75288117 125.85998428 -327.96875 118.546875 C-326.01201239 116.18501908 -326.01201239 116.18501908 -325 114 C-324.34 114 -323.68 114 -323 114 C-322.58814453 113.11054688 -322.58814453 113.11054688 -322.16796875 112.203125 C-321.04856139 110.09160075 -319.89116747 108.53194793 -318.3125 106.75 C-317.51392578 105.84314453 -317.51392578 105.84314453 -316.69921875 104.91796875 C-316.13847656 104.28503906 -315.57773437 103.65210938 -315 103 C-314.44957031 102.35675781 -313.89914062 101.71351563 -313.33203125 101.05078125 C-309.10789249 96.13067455 -304.62416238 91.54255951 -300 87 C-299.21238281 86.2059375 -298.42476563 85.411875 -297.61328125 84.59375 C-294.89737015 81.89813719 -292.12732264 79.27959452 -289.3125 76.6875 C-288.35988281 75.80449219 -287.40726562 74.92148438 -286.42578125 74.01171875 C-284 72 -284 72 -282 72 C-281.79375 71.443125 -281.5875 70.88625 -281.375 70.3125 C-279.42316968 67.02987629 -277.05769006 65.29326754 -274 63 C-273.34 63 -272.68 63 -272 63 C-272 62.34 -272 61.68 -272 61 C-271.05125 60.505 -270.1025 60.01 -269.125 59.5 C-265.9011688 57.66798347 -263.11202022 55.5420374 -260.25 53.1875 C-255.08869668 48.98084376 -249.68464818 45.45451697 -244 42 C-242.7968284 41.25788804 -241.59370586 40.51569655 -240.390625 39.7734375 C-233.76273362 35.71296937 -227.10438472 31.92331417 -220.1015625 28.53515625 C-217.13696875 27.06779435 -214.23451253 25.51918609 -211.32983398 23.93823242 C-203.10721275 19.46595623 -194.89474085 15.93951044 -186 13 C-184.14453125 12.38151042 -182.2890625 11.76302083 -180.43359375 11.14453125 C-179.14453125 10.71484375 -177.85546875 10.28515625 -176.56640625 9.85546875 C-175.93605469 9.64535156 -175.30570313 9.43523437 -174.65625 9.21875 C-173.4496875 8.8165625 -172.243125 8.414375 -171 8 C-169.97648438 7.65582031 -168.95296875 7.31164062 -167.8984375 6.95703125 C-143.87843026 -0.97410322 -118.24117369 -5.82388972 -92.94995117 -6.70996094 C-61.17581278 -7.83250165 -31.46903188 -6.44632365 0 0 Z " fill="#FBB53B" transform="translate(492,103)"/>
<path d="M0 0 C0.81082031 0.16226074 1.62164062 0.32452148 2.45703125 0.49169922 C6.99088566 1.44016747 11.31102542 2.70627734 15.6875 4.21923828 C18.08910348 5.03008371 20.50363351 5.75702594 22.9375 6.46484375 C23.77023437 6.70783203 24.60296875 6.95082031 25.4609375 7.20117188 C27.15260474 7.69175537 28.84531949 8.17874118 30.5390625 8.66210938 C36.27029626 10.34333042 41.58502315 12.49504024 47 15 C48.23455934 15.52911955 49.47144449 16.05285587 50.7109375 16.5703125 C60.75865812 20.83363106 70.34424691 25.76390289 79.95898438 30.92089844 C82.48623118 32.25707438 85.04932411 33.51015602 87.625 34.75 C91.54295475 36.6818635 95.09465597 38.96456952 98.68359375 41.44921875 C102.0624097 43.71125911 105.59175793 45.70035609 109.12890625 47.703125 C109.74636719 48.13109375 110.36382813 48.5590625 111 49 C111 49.66 111 50.32 111 51 C111.65355469 51.20625 112.30710937 51.4125 112.98046875 51.625 C117.18553981 53.53985771 120.64155225 56.21808428 124.3125 59 C125.05306641 59.5465625 125.79363281 60.093125 126.55664062 60.65625 C127.60561523 61.44515625 127.60561523 61.44515625 128.67578125 62.25 C129.31427002 62.72953125 129.95275879 63.2090625 130.6105957 63.703125 C131.06909912 64.13109375 131.52760254 64.5590625 132 65 C132 65.66 132 66.32 132 67 C132.66 67 133.32 67 134 67 C134.66 67.99 135.32 68.98 136 70 C137.66279327 71.0064275 139.32983484 72.00585407 141 73 C143.3125 75.0625 143.3125 75.0625 145 77 C145 77.66 145 78.32 145 79 C145.556875 79.226875 146.11375 79.45375 146.6875 79.6875 C149.67961603 81.38572802 151.61600535 83.50764196 154 86 C155.33062607 87.33603511 156.66415805 88.66918001 158 90 C159.33333333 91.33333333 160.66666667 92.66666667 162 94 C163.21816406 95.18529297 163.21816406 95.18529297 164.4609375 96.39453125 C167.88837428 99.91160868 170.8653947 103.72956772 173.9140625 107.57421875 C175.94813781 110.15985855 175.94813781 110.15985855 179 112 C179.97516576 113.66721889 180.94996904 115.33652045 181.83984375 117.05078125 C183.33599803 119.56452194 185.16497799 121.72204164 187 124 C188.51831989 126.13580562 190.01886756 128.27646205 191.5 130.4375 C191.87769531 130.98470703 192.25539063 131.53191406 192.64453125 132.09570312 C193.76809095 133.72698826 194.8840944 135.36346943 196 137 C196.7528125 138.06347656 197.505625 139.12695312 198.28125 140.22265625 C200 143 200 143 200 146 C200.66 146 201.32 146 202 146 C202.91145833 147.85546875 203.82291667 149.7109375 204.734375 151.56640625 C206.04620273 154.08884044 207.45791157 156.54428435 208.87597656 159.00805664 C211.00060237 162.77322214 212.99289754 166.60880001 215 170.4375 C215.42539062 171.24509766 215.85078125 172.05269531 216.2890625 172.88476562 C217.53321478 175.25285301 218.76861255 177.6252532 220 180 C220.37382813 180.71559082 220.74765625 181.43118164 221.1328125 182.16845703 C223.12284331 186.04441056 224.72752384 189.81737656 226 194 C226.31839844 194.95519531 226.63679687 195.91039062 226.96484375 196.89453125 C227.64101564 198.92304691 228.31676613 200.95170307 228.9921875 202.98046875 C229.59836246 204.79664411 230.20696212 206.61201656 230.8203125 208.42578125 C232.45251901 213.26226685 233.94317053 218.12459411 235.3515625 223.03125 C235.82945524 224.97959154 235.82945524 224.97959154 237 226 C237.34309051 227.30430031 237.63956853 228.62096562 237.9140625 229.94140625 C238.61081667 233.21331749 239.34860257 236.4666029 240.1484375 239.71484375 C242.97006169 251.54418033 244.87164322 263.37501931 246.3125 275.4375 C246.44298737 276.49491898 246.44298737 276.49491898 246.57611084 277.57369995 C247.68144971 286.64368548 248.13889355 295.45611123 247.86401367 304.59399414 C247.99812744 307.95309869 248.68669698 309.95969376 250 313 C249.84720262 315.79936335 249.58799217 318.42544398 249.1875 321.1875 C248.38557036 327.38371359 247.81423673 333.50777065 247.5625 339.75 C246.87548318 354.69882386 244.67834545 369.4998556 241 384 C240.69553522 385.33249703 240.39499796 386.66589541 240.09765625 388 C237.89065663 397.84696052 235.19505527 407.42985459 232 417 C231.73815918 417.79341797 231.47631836 418.58683594 231.20654297 419.40429688 C227.70208251 429.96478672 223.87549797 440.18733474 218.91796875 450.15380859 C217.95385034 452.09281483 217.00769725 454.03998871 216.0625 455.98828125 C208.37538804 471.72729804 199.34992436 486.28990457 189.50585938 500.76171875 C188.20388475 502.69694951 186.95113403 504.65494508 185.703125 506.625 C185.14109375 507.40875 184.5790625 508.1925 184 509 C183.34 509 182.68 509 182 509 C181.77699219 509.69480469 181.55398438 510.38960937 181.32421875 511.10546875 C179.68917763 514.67940818 177.3818385 517.38879972 174.8125 520.3125 C174.32072266 520.88210449 173.82894531 521.45170898 173.32226562 522.03857422 C171.88743976 523.69765039 170.44428867 525.34916307 169 527 C168.28199219 527.83144531 167.56398438 528.66289063 166.82421875 529.51953125 C162.4289333 534.59246242 162.4289333 534.59246242 160.35546875 536.5625 C158.80885617 537.98350605 158.80885617 537.98350605 158.3125 540.375 C156.8761818 543.24763639 156.24272526 543.64582571 153.5625 545.1875 C148.7394616 547.96466471 144.95128087 551.57447198 140.890625 555.3515625 C128.17699115 567 128.17699115 567 125 567 C124.70609375 567.84304688 124.70609375 567.84304688 124.40625 568.703125 C122.42719875 571.93557537 119.59409489 573.6895073 116.5 575.75 C115.90574219 576.16121094 115.31148437 576.57242188 114.69921875 576.99609375 C110.27818729 580 110.27818729 580 108 580 C108 580.66 108 581.32 108 582 C106.55947266 582.81210938 106.55947266 582.81210938 105.08984375 583.640625 C102.19810833 585.29221592 99.34440175 586.99620632 96.50390625 588.734375 C85.16112058 595.66709476 73.73968689 602.05402128 61.6171875 607.52734375 C58.69895129 608.78362952 58.69895129 608.78362952 58 612 C56.7934375 612.185625 56.7934375 612.185625 55.5625 612.375 C54.386875 612.58125 53.21125 612.7875 52 613 C51.34644531 613.11085938 50.69289063 613.22171875 50.01953125 613.3359375 C45.65619055 614.17840401 41.81196259 615.4446833 37.75 617.25 C29.57285573 620.79482341 21.00651202 622.96968627 12.4296875 625.31982422 C9.3088037 626.19349607 6.22086702 627.16693436 3.125 628.125 C-15.35205772 633.300287 -34.46860092 634.91204839 -53.50341797 636.69335938 C-54.35643494 636.77354813 -55.2094519 636.85373688 -56.08831787 636.93635559 C-57.69942673 637.0867 -59.31078642 637.2343889 -60.92242432 637.37895203 C-63.97888065 637.6617134 -66.9566543 637.99101457 -69.96435547 638.61450195 C-70.63611816 638.74171631 -71.30788086 638.86893066 -72 639 C-72.33 638.67 -72.66 638.34 -73 638 C-74.84368771 637.78265163 -76.69484916 637.62815996 -78.546875 637.5 C-80.28130859 637.37625 -80.28130859 637.37625 -82.05078125 637.25 C-83.88189453 637.12625 -83.88189453 637.12625 -85.75 637 C-88.11980446 636.83351538 -90.48959617 636.66684911 -92.859375 636.5 C-96.34616713 636.25465414 -99.83282669 636.01092612 -103.32080078 635.78295898 C-111.07524103 635.2449603 -118.69833266 634.27294755 -126.375 633.0625 C-127.49777344 632.89298828 -128.62054688 632.72347656 -129.77734375 632.54882812 C-135.32481095 631.68756256 -140.62826666 630.66754422 -146 629 C-148.5185114 628.36570824 -151.03948056 627.74111575 -153.5625 627.125 C-173.28424562 622.23249887 -173.28424562 622.23249887 -181.5 618.75 C-185.1456424 617.20992664 -187.98652281 616.57752872 -192 617 C-192.33 616.01 -192.66 615.02 -193 614 C-195.20458249 612.89125108 -195.20458249 612.89125108 -198 612 C-207.05153407 608.52989687 -215.55956755 604.8110465 -224 600 C-226.12324559 598.87169235 -228.24833164 597.746843 -230.375 596.625 C-241.14069825 590.82121718 -251.19887605 584.30112711 -261 577 C-262.91597141 575.62403137 -264.83263427 574.24902503 -266.75 572.875 C-270.39179899 570.22876363 -273.86585629 567.49975658 -277.23046875 564.51171875 C-280.13171052 562.03317445 -283.21274734 559.78721232 -286.27734375 557.515625 C-286.84582031 557.01546875 -287.41429687 556.5153125 -288 556 C-288 555.34 -288 554.68 -288 554 C-288.5775 553.7525 -289.155 553.505 -289.75 553.25 C-292.34375315 551.80902603 -293.96552222 550.15777947 -296 548 C-296.804375 547.21625 -297.60875 546.4325 -298.4375 545.625 C-301.12699591 542.86990663 -303.53592281 539.95689262 -306 537 C-306.78375 536.21625 -307.5675 535.4325 -308.375 534.625 C-311.16906598 531.83093402 -313.72699448 528.89488329 -316.30859375 525.90625 C-317.66355512 524.37918038 -319.10120666 522.92565204 -320.5625 521.5 C-323.1725515 518.8230241 -325.31666008 515.997042 -327.51953125 512.984375 C-328.85163795 511.19885996 -330.23728677 509.50223794 -331.6875 507.8125 C-333.77077913 505.27878215 -335.3227552 502.80519193 -337 500 C-338.09241662 498.44998514 -339.19700274 496.90848818 -340.3125 495.375 C-343.45427215 490.93135186 -346.10935278 486.35665216 -348.640625 481.54296875 C-350.01450747 478.97286103 -351.49585377 476.49593121 -353 474 C-354.49532756 471.40491328 -355.96715773 468.79680524 -357.4375 466.1875 C-357.81970703 465.51396484 -358.20191406 464.84042969 -358.59570312 464.14648438 C-360.54677369 460.68490757 -362.45376246 457.2022828 -364.28515625 453.67578125 C-364.61523682 453.04196533 -364.94531738 452.40814941 -365.28540039 451.75512695 C-366 450 -366 450 -366 447 C-366.66 447 -367.32 447 -368 447 C-368.18062988 446.4423999 -368.36125977 445.8847998 -368.54736328 445.31030273 C-373.07440609 431.37034095 -373.07440609 431.37034095 -378.3125 417.6875 C-380.32737181 412.7729185 -381.89469625 408.18642528 -383 403 C-383.45982054 401.1904566 -383.92381226 399.38197097 -384.390625 397.57421875 C-386.01846741 391.08985705 -387.32599156 384.56870731 -388.5625 378 C-388.77068359 376.91460937 -388.97886719 375.82921875 -389.19335938 374.7109375 C-389.8090219 371.47629678 -390.40752234 368.23896087 -391 365 C-391.18401367 364.02200439 -391.36802734 363.04400879 -391.55761719 362.03637695 C-392.97892273 354.1139881 -393.63678021 346.21700778 -394.125 338.1875 C-394.16669312 337.5149115 -394.20838623 336.842323 -394.25134277 336.14935303 C-395.28415554 319.2782519 -395.84075682 302.58491452 -393.50390625 285.8046875 C-392.90081573 281.25112033 -392.5929254 276.7098274 -392.34375 272.125 C-391.97772942 268.79754018 -391.29149359 265.65308796 -390.53515625 262.39648438 C-390.00599911 260.02686461 -389.5597495 257.65698489 -389.140625 255.265625 C-386.16776407 238.42220135 -382.31053889 221.05874786 -375.4375 205.3125 C-373.99005213 202.11194609 -373.99005213 202.11194609 -373.0546875 199.1484375 C-370.05100596 190.18189186 -365.96612711 181.57358541 -362 173 C-361.34 173 -360.68 173 -360 173 C-359.88785156 172.11441406 -359.77570313 171.22882813 -359.66015625 170.31640625 C-357.82908531 161.11771261 -351.00131034 152.54289415 -346.07080078 144.70458984 C-345.35245686 143.56107017 -344.63732153 142.41552907 -343.92529297 141.26806641 C-339.00828932 133.34733314 -333.75288117 125.85998428 -327.96875 118.546875 C-326.01201239 116.18501908 -326.01201239 116.18501908 -325 114 C-324.34 114 -323.68 114 -323 114 C-322.58814453 113.11054688 -322.58814453 113.11054688 -322.16796875 112.203125 C-321.04856139 110.09160075 -319.89116747 108.53194793 -318.3125 106.75 C-317.51392578 105.84314453 -317.51392578 105.84314453 -316.69921875 104.91796875 C-316.13847656 104.28503906 -315.57773437 103.65210938 -315 103 C-314.44957031 102.35675781 -313.89914062 101.71351563 -313.33203125 101.05078125 C-309.10789249 96.13067455 -304.62416238 91.54255951 -300 87 C-299.21238281 86.2059375 -298.42476563 85.411875 -297.61328125 84.59375 C-294.89737015 81.89813719 -292.12732264 79.27959452 -289.3125 76.6875 C-288.35988281 75.80449219 -287.40726562 74.92148438 -286.42578125 74.01171875 C-284 72 -284 72 -282 72 C-281.79375 71.443125 -281.5875 70.88625 -281.375 70.3125 C-279.42316968 67.02987629 -277.05769006 65.29326754 -274 63 C-273.34 63 -272.68 63 -272 63 C-272 62.34 -272 61.68 -272 61 C-271.05125 60.505 -270.1025 60.01 -269.125 59.5 C-265.9011688 57.66798347 -263.11202022 55.5420374 -260.25 53.1875 C-255.08869668 48.98084376 -249.68464818 45.45451697 -244 42 C-242.7968284 41.25788804 -241.59370586 40.51569655 -240.390625 39.7734375 C-233.76273362 35.71296937 -227.10438472 31.92331417 -220.1015625 28.53515625 C-217.13696875 27.06779435 -214.23451253 25.51918609 -211.32983398 23.93823242 C-203.10721275 19.46595623 -194.89474085 15.93951044 -186 13 C-184.14453125 12.38151042 -182.2890625 11.76302083 -180.43359375 11.14453125 C-179.14453125 10.71484375 -177.85546875 10.28515625 -176.56640625 9.85546875 C-175.93605469 9.64535156 -175.30570313 9.43523437 -174.65625 9.21875 C-173.4496875 8.8165625 -172.243125 8.414375 -171 8 C-169.97648438 7.65582031 -168.95296875 7.31164062 -167.8984375 6.95703125 C-143.87843026 -0.97410322 -118.24117369 -5.82388972 -92.94995117 -6.70996094 C-61.17581278 -7.83250165 -31.46903188 -6.44632365 0 0 Z M-192 26 C-190.16238687 31.03178883 -187.51956001 35.59359688 -184.83398438 40.20898438 C-182.25101564 44.86405741 -181.38340157 48.68546434 -181 54 C-184.5408785 53.13445192 -186.51097014 52.64621803 -188.75 49.6875 C-189.92855276 47.15361158 -190.96244559 44.59388602 -192 42 C-192.97383946 40.31791365 -193.97695052 38.65261839 -195 37 C-196.34542375 34.67343691 -197.67151204 32.3363064 -199 30 C-202.38964148 30.58110263 -205.25695597 31.42153471 -208.36328125 32.890625 C-209.16830078 33.27089844 -209.97332031 33.65117187 -210.80273438 34.04296875 C-212.04506836 34.64044922 -212.04506836 34.64044922 -213.3125 35.25 C-214.12912109 35.63285156 -214.94574219 36.01570313 -215.78710938 36.41015625 C-221.10189675 38.94262067 -226.07071018 41.78700613 -231 45 C-231.87785156 45.55042969 -232.75570312 46.10085937 -233.66015625 46.66796875 C-236.44886798 48.4318856 -239.22534254 50.21405361 -242 52 C-242.5770166 52.36754395 -243.1540332 52.73508789 -243.74853516 53.11376953 C-251.89871811 58.32077057 -259.44237432 63.84342668 -266.73046875 70.19921875 C-270.17310246 73.18884674 -273.7656524 75.96605699 -277.375 78.75 C-284.63275826 84.39380978 -284.63275826 84.39380978 -291 91 C-290.89178101 93.12588609 -290.89178101 93.12588609 -290 95 C-288.0162233 96.28436734 -288.0162233 96.28436734 -286 97 C-286 97.99 -286 98.98 -286 100 C-282.96344042 103.05076843 -282.96344042 103.05076843 -279 104 C-279 104.99 -279 105.98 -279 107 C-278.38125 107.268125 -277.7625 107.53625 -277.125 107.8125 C-275 109 -275 109 -273 112 C-272.34 112 -271.68 112 -271 112 C-270.67 112.99 -270.34 113.98 -270 115 C-269.01 115 -268.02 115 -267 115 C-266.7525 115.5775 -266.505 116.155 -266.25 116.75 C-265.09999701 119.11685509 -265.09999701 119.11685509 -262.9375 120.8125 C-260.34740822 123.73679717 -260.29385997 126.17982042 -260 130 C-265.4254195 128.64567256 -268.33304446 126.25287361 -272.1875 122.4375 C-276.09335768 118.48143741 -276.09335768 118.48143741 -281 116 C-281.33 115.01 -281.66 114.02 -282 113 C-283.66047001 111.35522325 -283.66047001 111.35522325 -285.6875 109.75 C-289.58589601 106.45567977 -292.77515235 102.95043838 -296 99 C-299.41143931 100.64389186 -302.19415108 102.42165234 -305 105 C-305.35169068 106.32860925 -305.68770276 107.66158328 -306 109 C-307.32407669 109.68486725 -308.65909241 110.34870203 -310 111 C-313.04108661 114.05484045 -313.04108661 114.05484045 -314 118 C-315.485 118.495 -315.485 118.495 -317 119 C-318.04644066 120.63790712 -319.0398183 122.31008021 -320 124 C-320.5671875 124.70769531 -321.134375 125.41539062 -321.71875 126.14453125 C-324.64654459 129.80928784 -327.35248285 133.61022425 -330.0625 137.4375 C-330.59166016 138.17548828 -331.12082031 138.91347656 -331.66601562 139.67382812 C-334.49188185 143.66266063 -336.87518588 147.58226938 -339 152 C-339.8353125 152.804375 -339.8353125 152.804375 -340.6875 153.625 C-342.46031716 155.16542648 -342.46031716 155.16542648 -342 159 C-342.99 159.33 -343.98 159.66 -345 160 C-345.66572649 161.75191181 -346.31761532 163.50977953 -346.91796875 165.28515625 C-348.60810316 169.5257462 -350.84199922 173.46211682 -353.04370117 177.45556641 C-355.28877381 181.55619992 -357.20059434 185.6846112 -359 190 C-359.391875 190.7425 -359.78375 191.485 -360.1875 192.25 C-361.21055565 194.13193471 -361.21055565 194.13193471 -361 197 C-359.91332031 197.29003906 -359.91332031 197.29003906 -358.8046875 197.5859375 C-353.8183842 198.92891519 -348.87822974 200.29829195 -344 202 C-342.329375 202.556875 -342.329375 202.556875 -340.625 203.125 C-339.75875 203.41375 -338.8925 203.7025 -338 204 C-337.67 205.98 -337.34 207.96 -337 210 C-343.72785579 210.4294376 -348.99963297 208.65903911 -355.17578125 206.09765625 C-359.33301788 204.39874787 -361.6768449 203.89685008 -366 205 C-366.25394531 206.05058594 -366.50789063 207.10117187 -366.76953125 208.18359375 C-368.84213386 216.67014317 -371.08080284 224.94948117 -374.1875 233.125 C-375.1439075 236.50921115 -375.13997691 239.50057723 -375 243 C-375.66 243 -376.32 243 -377 243 C-381.59033404 266.01678132 -385.13351586 289.48078936 -385 313 C-383.27499268 312.98428955 -383.27499268 312.98428955 -381.51513672 312.96826172 C-377.23245377 312.93195387 -372.94978433 312.90906033 -368.66699219 312.89013672 C-366.81638294 312.88010369 -364.96578945 312.86647414 -363.11523438 312.84912109 C-360.4491791 312.82475392 -357.78333416 312.81348977 -355.1171875 312.8046875 C-354.29507782 312.79436493 -353.47296814 312.78404236 -352.62594604 312.77340698 C-348.01244664 312.7725139 -344.34366196 313.23443276 -340 315 C-339.67 316.65 -339.34 318.3 -339 320 C-353.9956311 320.78748007 -368.99483204 321.42387565 -384 322 C-384.35545876 333.54582715 -383.90339185 344.82571583 -382.625 356.3125 C-382.43587036 358.03690308 -382.43587036 358.03690308 -382.24291992 359.79614258 C-381.5821572 365.39675584 -380.68764604 370.60221147 -379 376 C-378.51897245 378.34963457 -378.06125762 380.70414264 -377.625 383.0625 C-376.17307055 390.52318365 -374.20738859 397.72794319 -372 405 C-371.34 405 -370.68 405 -370 405 C-369.896875 406.0725 -369.79375 407.145 -369.6875 408.25 C-368.72348035 415.98970058 -366.64621166 423.67202925 -364 431 C-363.34 431 -362.68 431 -362 431 C-361.505 432.98 -361.505 432.98 -361 435 C-356.97609769 433.51436631 -353.40441257 431.56971691 -349.6875 429.4375 C-344.58899129 426.64490773 -340.79385719 425.11360504 -335 425 C-335 426.98 -335 428.96 -335 431 C-335.66 431.2475 -336.32 431.495 -337 431.75 C-340.76605113 433.31918797 -344.36375734 435.153715 -348 437 C-349.83281012 437.91771234 -351.66614819 438.83437102 -353.5 439.75 C-354.78390625 440.39195312 -354.78390625 440.39195312 -356.09375 441.046875 C-356.7228125 441.36140625 -357.351875 441.6759375 -358 442 C-357.505 443.98 -357.505 443.98 -357 446 C-356.34 446 -355.68 446 -355 446 C-355.0825 446.721875 -355.165 447.44375 -355.25 448.1875 C-354.92290282 451.86734327 -353.30061473 453.15806415 -351 456 C-350.71125 457.0725 -350.4225 458.145 -350.125 459.25 C-348.85452683 463.48491055 -346.91585463 466.34076734 -344.33984375 469.88671875 C-343.02135296 471.96632084 -342.439674 473.59536319 -342 476 C-341.34 476 -340.68 476 -340 476 C-339.62875 477.0828125 -339.62875 477.0828125 -339.25 478.1875 C-337.87772017 481.27512962 -336.12224528 483.37840289 -334 486 C-333.06603113 487.67470281 -332.13276632 489.34983423 -331.2109375 491.03125 C-329.24513567 494.22726329 -326.85828114 497.08150575 -324.48828125 499.984375 C-323 502 -323 502 -322 505 C-321.34 505.33 -320.68 505.66 -320 506 C-319.505 507.485 -319.505 507.485 -319 509 C-318.443125 509.556875 -317.88625 510.11375 -317.3125 510.6875 C-315.32736929 512.67263071 -313.86191012 514.5373789 -312.25 516.8125 C-309.50502093 520.5676871 -306.39507714 523.35826905 -302.8359375 526.32421875 C-300.31064266 528.62922192 -298.72096376 531.06002025 -297 534 C-295.01508358 533.73323796 -295.01508358 533.73323796 -293 533 C-292.67 532.01 -292.34 531.02 -292 530 C-291.01 530 -290.02 530 -289 530 C-285.94923157 526.96344042 -285.94923157 526.96344042 -285 523 C-284.01 522.67 -283.02 522.34 -282 522 C-280.7114261 520.51814001 -279.42612811 519.03171163 -278.20703125 517.4921875 C-277 516 -277 516 -275.1875 514.25 C-273.77041685 513.04569007 -273.77041685 513.04569007 -274 511 C-273.01 510.67 -272.02 510.34 -271 510 C-270.67 509.34 -270.34 508.68 -270 508 C-269.01 507.67 -268.02 507.34 -267 507 C-266.67 506.34 -266.34 505.68 -266 505 C-263.67843403 504.59270772 -261.3431213 504.25561323 -259 504 C-260.3120506 509.17102294 -262.72940951 512.37387926 -266.375 516.125 C-266.85710937 516.63675781 -267.33921875 517.14851562 -267.8359375 517.67578125 C-269.95897926 519.91997485 -272.11564517 522.11026632 -274.3515625 524.2421875 C-276.22801632 525.84150806 -276.22801632 525.84150806 -276 528 C-276.66 528 -277.32 528 -278 528 C-279.19961999 529.43287943 -280.39501028 530.86973679 -281.55859375 532.33203125 C-283.7814031 534.90422526 -286.33703093 536.89439655 -289 539 C-287.39756933 543.2063805 -284.26602216 545.81520178 -281 548.75 C-280.4534375 549.25660156 -279.906875 549.76320313 -279.34375 550.28515625 C-276.60592792 553.09777088 -276.60592792 553.09777088 -273 554 C-272.773125 554.598125 -272.54625 555.19625 -272.3125 555.8125 C-270.64880506 558.58532489 -268.79334541 559.43300136 -266 561 C-265.54496094 561.45761719 -265.08992188 561.91523437 -264.62109375 562.38671875 C-258.95998693 568.02054313 -251.40014957 572.07185161 -244.671875 576.30078125 C-242.1451963 577.90766024 -239.66398996 579.56715028 -237.1875 581.25 C-231.53335162 585.35126669 -231.53335162 585.35126669 -225 587 C-225 587.66 -225 588.32 -225 589 C-222.75474054 590.17666004 -220.50455858 591.3414074 -218.25 592.5 C-217.29867187 593.00080078 -217.29867187 593.00080078 -216.328125 593.51171875 C-212.87989007 595.27175533 -210.95159931 596 -207 596 C-207 596.66 -207 597.32 -207 598 C-205.08959948 598.8680908 -203.17139263 599.71901783 -201.25 600.5625 C-200.18265625 601.03816406 -199.1153125 601.51382813 -198.015625 602.00390625 C-195.01630163 602.9946154 -193.86578759 603.16161779 -191 602 C-190.814375 600.329375 -190.814375 600.329375 -190.625 598.625 C-190 595 -190 595 -188 593 C-187.43957587 591.18422581 -186.94715248 589.34693415 -186.5 587.5 C-185.22222222 582.22222222 -185.22222222 582.22222222 -183 580 C-182.01 580 -181.02 580 -180 580 C-179.32057325 588.36072366 -181.34534134 595.13197554 -184 603 C-184.35073256 604.32886251 -184.69261458 605.66044668 -185 607 C-181.96474514 609.02350324 -180.80573798 609.32124018 -177.3125 609.625 C-176.50425781 609.69976563 -175.69601562 609.77453125 -174.86328125 609.8515625 C-174.24839844 609.90054688 -173.63351562 609.94953125 -173 610 C-173 610.66 -173 611.32 -173 612 C-171.81921875 612.26554688 -170.6384375 612.53109375 -169.421875 612.8046875 C-167.86452189 613.16119002 -166.30723358 613.51797572 -164.75 613.875 C-163.97269531 614.04902344 -163.19539062 614.22304688 -162.39453125 614.40234375 C-161.64042969 614.57636719 -160.88632812 614.75039063 -160.109375 614.9296875 C-159.41811523 615.08679199 -158.72685547 615.24389648 -158.01464844 615.40576172 C-155.85103073 616.0439398 -154.00480055 616.97508978 -152 618 C-146.02145104 619.48319285 -140.15108799 620.27338169 -134 620 C-134 620.66 -134 621.32 -134 622 C-123.0517745 623.83489813 -112.13013617 625.29082621 -101.0625 626.1875 C-99.55635132 626.31294189 -99.55635132 626.31294189 -98.01977539 626.44091797 C-90.61914659 627.00391059 -83.47233446 627 -76 627 C-75.67 613.14 -75.34 599.28 -75 585 C-71 583 -71 583 -69 583 C-68.34 597.52 -67.68 612.04 -67 627 C-49.85852564 626.41563156 -33.36185526 625.36692626 -16.52124023 622.03344727 C-13.03030358 621.34726914 -9.60980178 620.82115742 -6.0625 620.5625 C-2.12131573 620.1927829 0.83377918 618.80845168 4.375 617.10546875 C10.66396199 614.4569922 17.47922005 613.11386117 24.09472656 611.48388672 C25.48196731 611.14110733 26.86822935 610.79433955 28.25341797 610.44335938 C30.15111247 609.96255441 32.05204712 609.49459179 33.953125 609.02734375 C36.94000705 608.02022839 37.98887041 607.29483126 40 605 C42.6875 604.3125 42.6875 604.3125 45 604 C44.37815415 601.16714666 43.50653861 598.76777075 42.1875 596.1875 C41.83558594 595.49398437 41.48367188 594.80046875 41.12109375 594.0859375 C40.06147623 592.11438434 38.92015879 590.21973391 37.75 588.3125 C36.05009379 585.09482038 35.57004773 583.5471062 36 580 C37.98 579.67 39.96 579.34 42 579 C43.00510115 581.49051612 43.99354284 583.98263622 44.9296875 586.5 C46.73992403 591.2874024 48.45096852 595.19746627 52 599 C55.80461158 598.38080463 58.9508984 597.25702628 62.4375 595.625 C63.40171875 595.17511719 64.3659375 594.72523438 65.359375 594.26171875 C68.25874876 592.87636709 71.13868507 591.46244985 74 590 C74.64710938 589.69320312 75.29421875 589.38640625 75.9609375 589.0703125 C76.65445312 588.73773437 77.34796875 588.40515625 78.0625 588.0625 C78.69285156 587.76472656 79.32320312 587.46695313 79.97265625 587.16015625 C82.13571366 585.99406804 82.13571366 585.99406804 84.35546875 584.09375 C88.11423939 581.11782524 92.25702074 578.98121669 96.453125 576.68359375 C99.27875746 575.19208952 99.27875746 575.19208952 100 572 C100.99 572 101.98 572 103 572 C103 571.34 103 570.68 103 570 C104.32 570 105.64 570 107 570 C108.13757813 568.89689394 109.26414898 567.78041293 110.3359375 566.61328125 C112.46228162 564.55182557 114.77758593 562.9083823 117.1875 561.1875 C124.56738009 555.90904325 131.66489813 550.51610478 138 544 C139.64864545 542.64444707 141.31003995 541.30368347 143 540 C142.49785005 535.60618791 141.07786311 533.16580205 138 530 C135.88719655 529.36707617 135.88719655 529.36707617 134 529 C133.67 528.01 133.34 527.02 133 526 C131.55631296 524.75317937 130.1074388 523.51108746 128.6171875 522.3203125 C125.30173389 519.61349289 122.47221291 516.59363909 119.8125 513.25 C118.19690923 510.92512612 118.19690923 510.92512612 116 510 C115.59270772 507.67843403 115.25561323 505.3431213 115 503 C120.0125866 504.29763706 123.11805762 506.50693024 126.75 510.0625 C127.79628944 511.05660625 128.84317426 512.05008619 129.890625 513.04296875 C130.40947266 513.53974121 130.92832031 514.03651367 131.46289062 514.54833984 C134.51190431 517.42785627 137.69057939 520.16540793 140.84375 522.9296875 C143 525 143 525 144.96875 527.6953125 C146.83116348 530.11996925 146.83116348 530.11996925 149.43359375 531.12890625 C152.21775545 531.24551111 152.21775545 531.24551111 154.53515625 528.90234375 C155.36917969 527.92394531 156.20320312 526.94554687 157.0625 525.9375 C157.89910156 524.97714844 158.73570312 524.01679687 159.59765625 523.02734375 C162.02816444 520.05110375 162.02816444 520.05110375 164.05859375 516.90625 C165.86899256 514.19611577 167.77334263 511.9326724 170 509.5625 C172.37998429 506.94100439 174.45424676 504.49888737 176.125 501.375 C177.64364084 498.64144648 178.95773454 496.78611805 181 494.5 C183.92882705 491.20968044 185.91623344 487.88011705 188 484 C188.5775 483.071875 189.155 482.14375 189.75 481.1875 C191.16537965 479.13049488 191.16537965 479.13049488 191 477 C191.66 477 192.32 477 193 477 C199.16010423 466.56952072 199.16010423 466.56952072 204.2109375 455.57421875 C205 454 205 454 207 453 C208.06227339 450.79437235 208.06227339 450.79437235 209 448.1875 C210.87317073 443.23384146 210.87317073 443.23384146 212.125 440.92578125 C213.27577587 438.74558758 213.27577587 438.74558758 213 435 C211.88625 434.87625 210.7725 434.7525 209.625 434.625 C206 434 206 434 204 432 C201.34280163 431.31822002 201.34280163 431.31822002 198.375 430.875 C197.37210938 430.70742188 196.36921875 430.53984375 195.3359375 430.3671875 C194.56507813 430.24601562 193.79421875 430.12484375 193 430 C192.67 427.69 192.34 425.38 192 423 C198.82362041 423.46261833 204.7105144 425.04024725 211.1796875 427.2578125 C214.04858012 428.28783405 214.04858012 428.28783405 217 427 C220.14962768 422.80049643 221.44942281 417.94246478 223 413 C223.350625 412.01 223.70125 411.02 224.0625 410 C225.00697176 406.97769036 225.65240108 403.94733458 226.3046875 400.8515625 C227.01605982 397.9341367 227.88118365 395.08256682 228.77270508 392.21582031 C231.75401966 382.55912011 233.60211356 372.99805197 235 363 C235.13680176 362.06704102 235.27360352 361.13408203 235.41455078 360.17285156 C235.85596265 357.13820715 236.27488992 354.10118609 236.6875 351.0625 C236.81914551 350.14718506 236.95079102 349.23187012 237.08642578 348.28881836 C238.32317032 338.68865129 238 329.94625243 238 320 C224.14 319.67 210.28 319.34 196 319 C194 315 194 315 194 313 C208.85 312.34 223.7 311.68 239 311 C238.73096419 291.98813592 237.40977443 274.67595528 233.60791016 256.05664062 C232.48406134 250.40580242 231.60166749 244.71330772 230.67578125 239.02734375 C230.15584657 235.84365908 230.15584657 235.84365908 228 233 C227.40576172 231.09887695 227.40576172 231.09887695 226.9296875 228.98828125 C226.75566406 228.23095703 226.58164062 227.47363281 226.40234375 226.69335938 C226.22832031 225.90767578 226.05429687 225.12199219 225.875 224.3125 C225.69324219 223.51521484 225.51148438 222.71792969 225.32421875 221.89648438 C224.87726573 219.93224349 224.43789584 217.96627986 224 216 C223.34 216 222.68 216 222 216 C222.0825 215.195625 222.165 214.39125 222.25 213.5625 C221.86909726 208.13463596 219.40256402 203.80512804 217 199 C214.12549017 198.74951364 214.12549017 198.74951364 211 199 C209.39588754 200.35405861 209.39588754 200.35405861 208 202 C206.34561387 202.69658363 204.67745682 203.36096883 203 204 C202.236875 204.515625 201.47375 205.03125 200.6875 205.5625 C197.08185023 207.49110336 194.06249584 207.65572069 190 208 C191.46130031 202.52012384 191.46130031 202.52012384 193.8125 200.25 C196 199 196 199 198.2421875 198.1171875 C201.35509097 196.85615295 204.31537251 195.39003148 207.3125 193.875 C208.91544922 193.06675781 208.91544922 193.06675781 210.55078125 192.2421875 C211.35902344 191.83226562 212.16726563 191.42234375 213 191 C206.21238894 159.34990347 180.42784922 128.09299906 159 105 C156.97835511 102.68414484 154.98804124 100.34486915 153 98 C147.02697485 99.26547143 143.46951257 103.11698231 140 108 C140 108.66 140 109.32 140 110 C139.01 110 138.02 110 137 110 C133.34079297 113.45967217 133.34079297 113.45967217 132 118 C130.515 118.495 130.515 118.495 129 119 C126.78285938 121.54971172 124.66585531 124.12228164 122.625 126.8125 C120.00529439 128.72690025 117.15941298 128.70194217 114 129 C115.29768231 123.98723862 117.50719781 120.88224892 121.0625 117.25 C122.05913285 116.19973006 123.05521859 115.1489407 124.05078125 114.09765625 C124.54787598 113.5783252 125.0449707 113.05899414 125.55712891 112.52392578 C127.67218413 110.29005527 129.70875387 107.98873273 131.75 105.6875 C141.63817716 94.68091142 141.63817716 94.68091142 145 93 C143.65157445 87.43774461 139.43310121 84.26557159 135 81 C134.01 80.67 133.02 80.34 132 80 C132 79.34 132 78.68 132 78 C129.86957836 76.16879488 127.73232306 74.44889363 125.5 72.75 C124.85506592 72.25201904 124.21013184 71.75403809 123.5456543 71.2409668 C121.7021397 69.82057673 119.85238669 68.40879022 118 67 C117.23300781 66.41347656 116.46601562 65.82695312 115.67578125 65.22265625 C113.7950883 63.79932259 111.89831283 62.39972872 110 61 C109.06929687 60.29488281 108.13859375 59.58976562 107.1796875 58.86328125 C105.69855469 57.75533203 105.69855469 57.75533203 104.1875 56.625 C103.27355469 55.93664062 102.35960937 55.24828125 101.41796875 54.5390625 C99.05590266 52.73151816 99.05590266 52.73151816 96 53 C96 52.34 96 51.68 96 51 C89.14622083 47.21116927 82.24098497 43.52497739 75.3125 39.875 C74.11983521 39.24585693 74.11983521 39.24585693 72.90307617 38.60400391 C68.53436681 36.30697416 64.14655689 34.05704976 59.72583008 31.86181641 C57.05058331 30.52589604 54.40662467 29.12925439 51.76171875 27.734375 C49.8566008 26.80761965 49.8566008 26.80761965 47 27 C46.80664062 27.79664063 46.61328125 28.59328125 46.4140625 29.4140625 C43.77865613 40.13833992 43.77865613 40.13833992 42 45 C41.67 45.9075 41.34 46.815 41 47.75 C40 50 40 50 38 52 C36.68 52 35.36 52 34 52 C33.66902897 46.8147872 34.49604563 43.08899951 36.265625 38.22265625 C37.27913184 35.15518075 37.65889885 32.20635078 38 29 C38.66 29 39.32 29 40 29 C40 27.35 40 25.7 40 24 C33.1715628 20.46048897 26.22739878 18.00787564 18.875 15.8125 C18.0406543 15.56290527 17.20630859 15.31331055 16.34667969 15.05615234 C11.50455321 13.64203782 6.66387229 12.43681118 1.71923828 11.4362793 C0 11 0 11 -1 10 C-2.86509573 9.77490224 -4.73098444 9.5526556 -6.6015625 9.37890625 C-9 9 -9 9 -12.02734375 8.0625 C-17.21822509 6.52762927 -22.57627061 6.05952109 -27.9375 5.4375 C-29.50661133 5.24897461 -29.50661133 5.24897461 -31.10742188 5.05664062 C-33.15303101 4.81106467 -35.19908788 4.56918548 -37.24560547 4.33129883 C-38.88216162 4.1344537 -40.51744226 3.92539943 -42.14892578 3.69018555 C-47.78085755 2.87917016 -53.32551532 2.88662531 -59 2.9375 C-59.96550781 2.94201172 -60.93101562 2.94652344 -61.92578125 2.95117188 C-64.28392089 2.96284583 -66.64192602 2.97921979 -69 3 C-68.98952637 4.18029785 -68.97905273 5.3605957 -68.96826172 6.57666016 C-68.93196038 10.97116035 -68.90906267 15.36564737 -68.89013672 19.76025391 C-68.88010221 21.65936515 -68.86647157 23.55846104 -68.84912109 25.45751953 C-68.82476049 28.19307251 -68.81349123 30.92842053 -68.8046875 33.6640625 C-68.79436493 34.50804596 -68.78404236 35.35202942 -68.77340698 36.22158813 C-68.77252614 40.88859637 -69.20486914 44.6084515 -71 49 C-72.65 49.33 -74.3 49.66 -76 50 C-76.87193986 34.32065292 -77.12806208 18.70238071 -77 3 C-114.57779455 2.02674061 -158.26546698 8.20684535 -192 26 Z " fill="#C98935" transform="translate(492,103)"/>
<path d="M0 0 C2.08984375 0.4296875 2.08984375 0.4296875 4 1 C1.10369567 4.04094153 -1.82009114 7.05395095 -4.75 10.0625 C-5.575 10.92939453 -6.4 11.79628906 -7.25 12.68945312 C-8.04921875 13.50478516 -8.8484375 14.32011719 -9.671875 15.16015625 C-10.4050293 15.91949463 -11.13818359 16.67883301 -11.89355469 17.46118164 C-14 19 -14 19 -16.27050781 18.73999023 C-16.84124023 18.49579346 -17.41197266 18.25159668 -18 18 C-8 8 -8 8 -5.265625 5.28515625 C-3.05694101 3.12314072 -3.05694101 3.12314072 -1.4375 1.125 C-0.963125 0.75375 -0.48875 0.3825 0 0 Z " fill="#B07B2B" transform="translate(200,182)"/>
<path d="M0 0 C0.33 0 0.66 0 1 0 C2.01286753 8.69980864 2.10621544 17.25492893 2 26 C1.34 26 0.68 26 0 26 C-1.96491228 3.92982456 -1.96491228 3.92982456 0 0 Z " fill="#AC7927" transform="translate(738,384)"/>
<path d="M0 0 C1.32 0 2.64 0 4 0 C2.59257936 3.51855159 1.33533477 4.38612834 -2 6 C-2.33 6.99 -2.66 7.98 -3 9 C-3.99 8.67 -4.98 8.34 -6 8 C-5.09970429 6.65555841 -4.17911978 5.32468562 -3.25 4 C-2.48429688 2.88625 -2.48429688 2.88625 -1.703125 1.75 C-0.86007813 0.88375 -0.86007813 0.88375 0 0 Z " fill="#BD842F" transform="translate(178,204)"/>
<path d="M0 0 C1.09570312 0.28746094 2.19140625 0.57492187 3.3203125 0.87109375 C4.16335938 1.09925781 5.00640625 1.32742188 5.875 1.5625 C5.875 2.2225 5.875 2.8825 5.875 3.5625 C3.91520573 3.28081703 1.95717622 2.98683283 0 2.6875 C-1.63582031 2.44386719 -1.63582031 2.44386719 -3.3046875 2.1953125 C-6.125 1.5625 -6.125 1.5625 -8.125 -0.4375 C-5.13816063 -1.93091969 -3.17339022 -0.84398676 0 0 Z " fill="#A37525" transform="translate(321.125,722.4375)"/>
<path d="M0 0 C0 0.66 0 1.32 0 2 C-3.44450737 4.29633824 -5.93812283 4.54016485 -10 5 C-9 2 -9 2 -6.6875 0.8125 C-4 0 -4 0 0 0 Z " fill="#BF862E" transform="translate(315,114)"/>
<path d="M0 0 C0.66 0.33 1.32 0.66 2 1 C1.01 4.3 0.02 7.6 -1 11 C-1.99 10.67 -2.98 10.34 -4 10 C-2.66666667 6.66666667 -1.33333333 3.33333333 0 0 Z " fill="#A67425" transform="translate(130,276)"/>
<path d="M0 0 C0.598125 0.226875 1.19625 0.45375 1.8125 0.6875 C1.049375 1.265 0.28625 1.8425 -0.5 2.4375 C-2.84950917 4.40453093 -4.48073505 6.17226744 -6.1875 8.6875 C-5.58623418 3.27610759 -5.58623418 3.27610759 -3.875 0.75 C-2.1875 -0.3125 -2.1875 -0.3125 0 0 Z " fill="#DB9839" transform="translate(311.1875,682.3125)"/>
<path d="M0 0 C1.9078584 3.1749094 2.1609041 5.10585211 1.625 8.75 C1.51414062 9.54921875 1.40328125 10.3484375 1.2890625 11.171875 C1.19367188 11.77515625 1.09828125 12.3784375 1 13 C-1.30143236 9.54785147 -1.13833854 8.76520676 -0.625 4.8125 C-0.51414062 3.91144531 -0.40328125 3.01039063 -0.2890625 2.08203125 C-0.19367188 1.39496094 -0.09828125 0.70789063 0 0 Z " fill="#B07D2B" transform="translate(106,342)"/>
<path d="M0 0 C4.55737263 0.43820891 7.57653445 0.85041169 11 4 C10.01 4.495 10.01 4.495 9 5 C6.8359375 4.22265625 6.8359375 4.22265625 4.375 3.0625 C3.55773437 2.68222656 2.74046875 2.30195312 1.8984375 1.91015625 C1.27195312 1.60980469 0.64546875 1.30945313 0 1 C0 0.67 0 0.34 0 0 Z " fill="#A57625" transform="translate(276,706)"/>
<path d="M0 0 C0.66 0.99 1.32 1.98 2 3 C1.319375 3.8353125 1.319375 3.8353125 0.625 4.6875 C-1.03733768 7.05313439 -2.02144543 9.29015658 -3 12 C-3.66 11.67 -4.32 11.34 -5 11 C-3.35 7.37 -1.7 3.74 0 0 Z " fill="#AA7F23" transform="translate(117,308)"/>
<path d="M0 0 C0 2.83967231 -0.40267181 5.23735711 -1 8 C-1.99 8 -2.98 8 -4 8 C-4 8.66 -4 9.32 -4 10 C-4.66 9.67 -5.32 9.34 -6 9 C-4.02 6.03 -2.04 3.06 0 0 Z " fill="#997020" transform="translate(157,231)"/>
<path d="M0 0 C2.26609984 4.53219967 1.92735976 6.17772925 1 11 C0.34 11 -0.32 11 -1 11 C-0.67 7.37 -0.34 3.74 0 0 Z " fill="#A87826" transform="translate(103,356)"/>
<path d="M0 0 C0.66 0 1.32 0 2 0 C2.33 2.97 2.66 5.94 3 9 C2.01 8.34 1.02 7.68 0 7 C-0.1875 3.375 -0.1875 3.375 0 0 Z " fill="#B47D2C" transform="translate(730,342)"/>
<path d="M0 0 C0.75 1.75 0.75 1.75 1 4 C-0.9375 6.25 -0.9375 6.25 -3 8 C-3 4 -3 4 -2 2 C-1.34 2 -0.68 2 0 2 C0 1.34 0 0.68 0 0 Z " fill="#A57825" transform="translate(169,215)"/>
<path d="M0 0 C0.66 0.33 1.32 0.66 2 1 C-0.57404971 4.86107457 -2.61020259 4.94319692 -7 6 C-4.74259377 3.66475218 -2.7194239 1.81294927 0 0 Z " fill="#AE7B26" transform="translate(259,138)"/>
</svg>
