<?xml version="1.0" encoding="UTF-8"?>
<svg version="1.1" xmlns="http://www.w3.org/2000/svg" width="839" height="839">
<path d="M0 0 C-0.36825537 6.29307513 -2.50823792 9.9120049 -6.1875 14.9375 C-6.68564209 15.6389917 -7.18378418 16.3404834 -7.69702148 17.06323242 C-10.69172523 21.26225893 -13.72921965 25.43521954 -16.87890625 29.51953125 C-17.97771027 30.97056513 -18.99037408 32.48556112 -20 34 C-20.66 34 -21.32 34 -22 34 C-22.33 35.32 -22.66 36.64 -23 38 C-23.66 38 -24.32 38 -25 38 C-25.26683594 38.57492188 -25.53367187 39.14984375 -25.80859375 39.7421875 C-27.04064495 42.07702551 -28.44838275 44.03894184 -30.0625 46.125 C-32.23226195 48.93627263 -32.23226195 48.93627263 -34 52 C-34.66 52 -35.32 52 -36 52 C-36.309375 52.61875 -36.61875 53.2375 -36.9375 53.875 C-37.625 55.25 -38.3125 56.625 -39 58 C-39.66 58 -40.32 58 -41 58 C-41 58.99 -41 59.98 -41 61 C-39.35 61.33 -37.7 61.66 -36 62 C-35.19062345 66.0815811 -34.95749206 69.59161791 -35.3828125 73.7265625 C-35.49560547 74.82758301 -35.60839844 75.92860352 -35.72460938 77.06298828 C-35.85673828 78.23845215 -35.98886719 79.41391602 -36.125 80.625 C-36.32706055 82.45973877 -36.32706055 82.45973877 -36.53320312 84.33154297 C-37.57446555 93.31415151 -38.92358116 102.22139593 -40.5 111.125 C-40.70125488 112.26662598 -40.90250977 113.40825195 -41.10986328 114.58447266 C-44.43107966 132.57550445 -44.43107966 132.57550445 -49 140 C-52 141 -52 141 -55 140 C-55.2117454 135.23937935 -54.44677712 131.33433467 -53.1875 126.75 C-49.28103681 111.78702035 -47.52917983 96.67827452 -46.00170898 81.30566406 C-45.88512939 80.14389648 -45.7685498 78.98212891 -45.6484375 77.78515625 C-45.54708496 76.74238525 -45.44573242 75.69961426 -45.34130859 74.62524414 C-45 72 -45 72 -44 69 C-46.83538907 68.87055003 -46.83538907 68.87055003 -50 70 C-51.46974408 71.83932884 -52.54203612 73.71072135 -53.62890625 75.796875 C-55.39080089 78.62795357 -57.62774481 80.65477906 -60 83 C-62.16511609 85.49262752 -64.24049504 88.0547497 -66.3125 90.625 C-66.88863037 91.33720703 -67.46476074 92.04941406 -68.05834961 92.78320312 C-71.81049411 97.44954096 -75.41958005 102.19008263 -78.890625 107.0703125 C-82.14004329 111.58339345 -85.51007934 116.00589536 -88.87719727 120.43164062 C-91.46396306 123.85516375 -93.88267338 127.25673997 -96 131 C-93.963006 132.29956591 -91.92092385 133.5896261 -89.875 134.875 C-89.30523437 135.23980469 -88.73546875 135.60460937 -88.1484375 135.98046875 C-85.33722575 137.73747609 -82.80117385 139.06319996 -79.6328125 140.0703125 C-78.32957031 140.53050781 -78.32957031 140.53050781 -77 141 C-76.67 141.99 -76.34 142.98 -76 144 C-73.67837811 145.60864828 -73.67837811 145.60864828 -70.9375 147.0625 C-68.15234375 148.59765625 -68.15234375 148.59765625 -66 150 C-66 150.66 -66 151.32 -66 152 C-65.195625 152.20625 -64.39125 152.4125 -63.5625 152.625 C-59.57675787 154.16335661 -56.44462075 156.23154781 -52.953125 158.66015625 C-51.04576051 160.03428077 -51.04576051 160.03428077 -49 161 C-49 161.66 -49 162.32 -49 163 C-47.90558594 163.39445312 -47.90558594 163.39445312 -46.7890625 163.796875 C-43.97082882 165.01258365 -41.83368867 166.42448534 -39.375 168.25 C-34.97077822 171.44289621 -30.481392 173.88373278 -25.54296875 176.15234375 C-18.3670394 181.36619104 -15.46198441 191.33952255 -12.0625 199.1875 C-11.05434104 201.49390753 -10.04522809 203.79989831 -9.03515625 206.10546875 C-8.53790039 207.24322754 -8.04064453 208.38098633 -7.52832031 209.55322266 C-5.98948984 213.02370326 -4.40291008 216.46849132 -2.80078125 219.91015625 C-0.75590722 224.31524313 1.14433165 228.71371401 2.875 233.25 C5.10839777 238.97474752 7.57275094 244.56430833 10.1875 250.125 C10.68709229 251.19089355 10.68709229 251.19089355 11.19677734 252.27832031 C12.95896141 255.98342527 14.88609729 259.48083242 17 263 C17.64047633 264.4848594 18.24469775 265.98586065 18.8125 267.5 C20.38804346 271.56260824 22.13987578 275.49703534 24 279.4375 C25.82775649 283.3333879 27.45595133 287.16796541 28.8125 291.25 C30.85152989 297.11758813 33.77255009 302.43184549 36.71972656 307.87963867 C38.97942031 312.05801953 41.07294006 316.22516838 42.92578125 320.6015625 C44.4199467 323.93762645 46.09493528 327.17940924 47.75 330.4375 C53.99011319 342.80498854 59.65279489 355.3419998 64.08984375 368.47265625 C64.76328556 370.90518489 64.76328556 370.90518489 66 372 C66.24234375 371.27554687 66.4846875 370.55109375 66.734375 369.8046875 C68.63197065 364.33085389 70.49800176 359.62764053 74 355 C72.49583188 351.10126539 70.27848432 349.51495237 66.875 347.1875 C61.18747514 343.18904297 55.91732892 338.91732892 51 334 C50.66129032 327.67741935 50.66129032 327.67741935 52 325 C52.66 325 53.32 325 54 325 C54 324.34 54 323.68 54 323 C54.66 323 55.32 323 56 323 C56.39058594 322.13181641 56.39058594 322.13181641 56.7890625 321.24609375 C58.08192325 318.84804558 59.54725075 317.07781303 61.375 315.0625 C63.45328427 312.75089483 65.41188058 310.46566844 67.3125 308 C67.869375 307.34 68.42625 306.68 69 306 C69.66 306 70.32 306 71 306 C71.268125 305.38125 71.53625 304.7625 71.8125 304.125 C73 302 73 302 76 300 C76 299.01 76 298.02 76 297 C75.21753906 296.62488281 74.43507813 296.24976563 73.62890625 295.86328125 C72.61699219 295.35152344 71.60507812 294.83976562 70.5625 294.3125 C69.55316406 293.81363281 68.54382813 293.31476563 67.50390625 292.80078125 C65 291 65 291 64.02734375 288.41796875 C64.01832031 287.62003906 64.00929688 286.82210938 64 286 C64.66 285.34 65.32 284.68 66 284 C70.3880427 284.32561448 73.81056368 286.29678987 77.625 288.375 C78.75164062 288.98085938 79.87828125 289.58671875 81.0390625 290.2109375 C85.86095463 293.12442905 85.86095463 293.12442905 87 295 C87.04417297 300.30706636 85.58265716 303.14736608 82.09960938 306.88085938 C81.59236328 307.39455078 81.08511719 307.90824219 80.5625 308.4375 C80.05912109 308.97826172 79.55574219 309.51902344 79.03710938 310.07617188 C77.74320222 311.4353758 76.37627955 312.72427055 75 314 C74.34 314 73.68 314 73 314 C72.62875 314.8353125 72.62875 314.8353125 72.25 315.6875 C70.77075182 318.42410913 69.06532561 320.67650869 67 323 C66.34 323 65.68 323 65 323 C64.71125 323.61875 64.4225 324.2375 64.125 324.875 C63 327 63 327 61 329 C60.97990993 331.00024345 60.97990993 331.00024345 62 333 C64.02262456 334.80180706 64.02262456 334.80180706 66.5625 336.375 C67.91408203 337.27798828 67.91408203 337.27798828 69.29296875 338.19921875 C70.18628906 338.79347656 71.07960938 339.38773437 72 340 C74.71544753 341.9409226 77.37329675 343.94090618 80 346 C80.845625 346.66 81.69125 347.32 82.5625 348 C84 350 84 350 83.875 352.5703125 C82.7228707 357.08624786 80.68436288 360.81481899 78.4375 364.875 C77.80038086 366.050625 77.80038086 366.050625 77.15039062 367.25 C76.10789462 369.17100387 75.05767555 371.0873249 74 373 C75.32 371.35 76.64 369.7 78 368 C79.65 368.33 81.3 368.66 83 369 C82.35064191 372.96181397 81.13419855 376.373439 79.5625 380.0625 C78.91474609 381.59583984 78.91474609 381.59583984 78.25390625 383.16015625 C77.49903168 384.86979429 76.70214757 386.5629411 75.828125 388.21484375 C74.62239905 390.81397941 75.12832823 392.31793303 76 395 C76.96873032 396.35622245 77.96434215 397.69417053 79 399 C79 399.66 79 400.32 79 401 C79.66 401 80.32 401 81 401 C82.2890625 402.4609375 82.2890625 402.4609375 83.625 404.375 C84.07101562 405.00148438 84.51703125 405.62796875 84.9765625 406.2734375 C86 408 86 408 86 410 C86.99 410.33 87.98 410.66 89 411 C90.83061617 413.28034235 92.52320984 415.5419668 94.1875 417.9375 C94.65091797 418.58396484 95.11433594 419.23042969 95.59179688 419.89648438 C99 424.73020987 99 424.73020987 99 427 C99.99 427.33 100.98 427.66 102 428 C103.1875 431.0625 103.1875 431.0625 104 434 C104.66 434 105.32 434 106 434 C106.83848804 435.45537568 107.67063934 436.91440373 108.5 438.375 C108.9640625 439.18710937 109.428125 439.99921875 109.90625 440.8359375 C111 443 111 443 111 445 C111.66 445 112.32 445 113 445 C114.7265625 447.1171875 114.7265625 447.1171875 116.625 449.875 C117.57246094 451.23238281 117.57246094 451.23238281 118.5390625 452.6171875 C120 455 120 455 120 457 C120.99 457.33 121.98 457.66 123 458 C124.39453125 459.56640625 124.39453125 459.56640625 125.8125 461.5625 C126.33070313 462.28179687 126.84890625 463.00109375 127.3828125 463.7421875 C127.91648437 464.48726563 128.45015625 465.23234375 129 466 C130.05988531 467.39781976 131.12229767 468.7937278 132.1875 470.1875 C138.09479908 478.14680824 138.09479908 478.14680824 137.6875 481.8125 C137.3471875 482.8953125 137.3471875 482.8953125 137 484 C119.32444317 490.6250213 96.30313491 483.33227408 78.5 479.41796875 C77.675 479.28003906 76.85 479.14210938 76 479 C74.40438164 480.59561836 74.51046578 482.48727508 74.16015625 484.6875 C69.02865138 514.66488892 57.60071089 538.74808709 37 561 C36.21625 561.86625 35.4325 562.7325 34.625 563.625 C23.15789474 574 23.15789474 574 18 574 C18 574.66 18 575.32 18 576 C17.34 576 16.68 576 16 576 C14.2317244 580.77434411 12.85876982 585.40163144 12.0625 590.4375 C11.29157451 595.01881953 9.9380979 598.87542453 8.11328125 603.12890625 C6.78820057 606.54621957 5.84170973 610.03259518 4.875 613.5625 C2.43498954 622.3188922 -0.96685789 630.62803888 -4.40551758 639.0324707 C-6.97703365 645.34683688 -9.26011138 651.57412128 -11.13671875 658.12890625 C-15.43968872 672.43968872 -15.43968872 672.43968872 -19 676 C-24.62342279 675.46061047 -28.03375162 670.35199738 -31.43359375 666.28515625 C-33.02097691 664.23010213 -34.51618293 662.13154122 -36 660 C-36.40750488 659.41524902 -36.81500977 658.83049805 -37.23486328 658.22802734 C-38.62549035 656.22155826 -40.00227613 654.20625407 -41.375 652.1875 C-41.8285083 651.52878906 -42.2820166 650.87007812 -42.74926758 650.19140625 C-46 645.34800803 -46 645.34800803 -46 642 C-46.66 642 -47.32 642 -48 642 C-48.96189997 640.27281484 -49.91936508 638.54315942 -50.875 636.8125 C-51.40867187 635.84957031 -51.94234375 634.88664063 -52.4921875 633.89453125 C-54 631 -54 631 -54.92236328 628.62792969 C-56.01782178 625.95653972 -57.30384798 623.55607302 -58.75 621.05859375 C-59.2759375 620.14529297 -59.801875 619.23199219 -60.34375 618.29101562 C-61.16359375 616.87852539 -61.16359375 616.87852539 -62 615.4375 C-63.08428083 613.5617453 -64.16764986 611.68546317 -65.25 609.80859375 C-65.72953125 608.98157959 -66.2090625 608.15456543 -66.703125 607.30249023 C-68 605 -68 605 -68.98193359 602.73754883 C-69.31789551 602.16415771 -69.65385742 601.5907666 -70 601 C-73.10930941 600.29327794 -73.10930941 600.29327794 -76.625 600.25 C-77.81351563 600.19328125 -79.00203125 600.1365625 -80.2265625 600.078125 C-81.59941406 600.03945312 -81.59941406 600.03945312 -83 600 C-83.24234375 600.67804687 -83.4846875 601.35609375 -83.734375 602.0546875 C-85.26394245 605.61423644 -87.22116757 608.83660252 -89.25 612.125 C-92.51499258 617.48476268 -95.62409922 622.89094937 -98.5859375 628.42578125 C-100.54373943 631.98984609 -102.66209552 635.4484274 -104.80078125 638.90625 C-106.13477837 641.07583419 -106.13477837 641.07583419 -107 644 C-107.66 644 -108.32 644 -109 644 C-109.08507812 644.65097656 -109.17015625 645.30195312 -109.2578125 645.97265625 C-110.26321135 650.07362523 -112.03833024 653.64895718 -113.875 657.4375 C-114.22691406 658.17548828 -114.57882812 658.91347656 -114.94140625 659.67382812 C-115.63173918 661.11736817 -116.32770376 662.55823106 -117.02978516 663.99609375 C-117.90617493 665.80621134 -118.74452067 667.63462831 -119.578125 669.46484375 C-121 672 -121 672 -123.875 673.125 C-127.92465135 672.96301395 -129.07902143 671.74617985 -132 669 C-133.51953125 666.44140625 -133.51953125 666.44140625 -134.8125 663.5625 C-137.76880405 657.33314503 -141.24542606 651.58576985 -144.91162109 645.75341797 C-146.86113401 642.61268182 -148.73635185 639.42755513 -150.625 636.25 C-156.36270894 626.51917442 -156.36270894 626.51917442 -163.125 617.5 C-164.79881468 615.26824709 -165.73181335 613.48960428 -166.80859375 610.953125 C-168.99340634 605.94659873 -171.41513093 601.09387568 -173.9375 596.25 C-174.35451172 595.42628906 -174.77152344 594.60257813 -175.20117188 593.75390625 C-178.74415684 586.95268936 -182.89312118 582.60379238 -189.1875 578.1875 C-197.6596187 572.1099236 -205.46286182 566.17916815 -212 558 C-212.58523438 557.278125 -213.17046875 556.55625 -213.7734375 555.8125 C-217.25702484 551.43139452 -220.4794923 546.93345333 -223.53125 542.2421875 C-224.50725061 540.75222912 -225.5073655 539.27778075 -226.53125 537.8203125 C-230.47978351 532.15940476 -233.29027137 526.33368181 -236 520 C-236.49628906 518.91589844 -236.99257812 517.83179688 -237.50390625 516.71484375 C-240.88060042 509.20825797 -243.20069818 501.99298548 -244.9453125 493.984375 C-245.67334656 490.95969506 -245.67334656 490.95969506 -247.74853516 489.86450195 C-250.22934264 488.91193859 -252.44094352 488.50878836 -255.078125 488.18359375 C-256.06651367 488.05984375 -257.05490234 487.93609375 -258.07324219 487.80859375 C-259.12157227 487.68613281 -260.16990234 487.56367187 -261.25 487.4375 C-262.86503418 487.24027344 -262.86503418 487.24027344 -264.51269531 487.0390625 C-270.59054629 486.31996212 -276.63710643 485.7763321 -282.75 485.5 C-290.84286197 485.08692684 -298.79449355 483.88895325 -306 480 C-306.56386369 475.16310676 -304.95479263 473.05091162 -302 469.3125 C-301.59136719 468.78922119 -301.18273437 468.26594238 -300.76171875 467.72680664 C-299.51945594 466.14200813 -298.25983935 464.57086219 -297 463 C-296.319375 462.13632812 -295.63875 461.27265625 -294.9375 460.3828125 C-291.55100564 456.1087289 -288.09188968 451.89642572 -284.625 447.6875 C-281.80944656 444.26551966 -279.07850869 440.80029684 -276.41650391 437.25756836 C-271.52908057 430.76527598 -266.26225197 424.78418271 -260.6875 418.875 C-258.6271721 416.6709283 -256.66312633 414.45402336 -254.75 412.125 C-252.70012515 409.63370668 -250.49790834 407.83212103 -247.9375 405.875 C-242.64661286 401.30559747 -241.05347193 395.48928009 -239 389 C-237.9458333 385.72642326 -236.88221161 382.4560294 -235.8125 379.1875 C-235.52439453 378.30425049 -235.23628906 377.42100098 -234.93945312 376.51098633 C-231.54811889 366.31800227 -227.35581159 356.47417064 -223.11767578 346.60986328 C-222.16700218 344.3899636 -221.23190046 342.16496594 -220.30859375 339.93359375 C-215.40253721 328.18312047 -209.66528818 316.84558111 -203.49609375 305.7109375 C-201.79921176 302.63616962 -200.15097427 299.53714097 -198.5 296.4375 C-195.91539936 291.62204098 -193.18359277 286.93275509 -190.3359375 282.26953125 C-188.73546516 279.55060017 -187.36424254 276.75482722 -185.98828125 273.91796875 C-184.96433877 271.93079183 -183.82842159 270.07095029 -182.625 268.1875 C-180.13704314 264.28970092 -177.93214863 260.27702498 -175.75390625 256.19921875 C-174.42504015 253.77529596 -173.06219651 251.39565584 -171.65234375 249.01953125 C-171.24532227 248.32408203 -170.83830078 247.62863281 -170.41894531 246.91210938 C-169.61790431 245.54633764 -168.80655085 244.18654462 -167.98339844 242.83398438 C-163.93075442 235.86554194 -163.55895605 229.9262874 -165 221.9375 C-165.89582261 216.96008561 -165.9145215 212.98541232 -165 208 C-163.9275 207.608125 -162.855 207.21625 -161.75 206.8125 C-160.16508445 206.21249625 -158.58197653 205.6077105 -157 205 C-155.4840625 204.41992188 -155.4840625 204.41992188 -153.9375 203.828125 C-152.3596875 203.20164063 -152.3596875 203.20164063 -150.75 202.5625 C-149.75484375 202.17191406 -148.7596875 201.78132812 -147.734375 201.37890625 C-143.48992078 199.23848862 -140.98149739 196.39420944 -138.75 192.25 C-138.1725 191.1775 -137.595 190.105 -137 189 C-140.7563795 185.81276891 -144.72814535 183.40721971 -149 181 C-151.65566772 179.47477433 -154.2985113 177.92886969 -156.9375 176.375 C-157.62134766 175.98054687 -158.30519531 175.58609375 -159.00976562 175.1796875 C-160.70747578 174.17564713 -162.35887347 173.09408435 -164 172 C-164 171.34 -164 170.68 -164 170 C-164.59079346 169.87399414 -165.18158691 169.74798828 -165.7902832 169.61816406 C-169.26075246 168.6473069 -172.15021565 166.63684377 -175.1875 164.75 C-180.17033379 161.67578138 -185.1221292 158.79273896 -190.4609375 156.36328125 C-192 155 -192 155 -193.046875 152.23046875 C-192.99251861 148.48440741 -191.9804509 147.15538688 -189.421875 144.5 C-188.91140625 144.005 -188.4009375 143.51 -187.875 143 C-186.89190572 142.00130105 -185.9101297 141.00130268 -184.9296875 140 C-184.44209961 139.51273438 -183.95451172 139.02546875 -183.45214844 138.5234375 C-181.9572063 136.95510547 -180.60958182 135.317443 -179.2578125 133.625 C-178.51273437 132.75875 -177.76765625 131.8925 -177 131 C-176.34 131 -175.68 131 -175 131 C-175 130.34 -175 129.68 -175 129 C-174.34 129 -173.68 129 -173 129 C-173 128.34 -173 127.68 -173 127 C-172.34 127 -171.68 127 -171 127 C-171 126.34 -171 125.68 -171 125 C-169.625 123.375 -169.625 123.375 -168 122 C-167.34 122 -166.68 122 -166 122 C-166 121.34 -166 120.68 -166 120 C-164.42578125 118.4140625 -164.42578125 118.4140625 -162.3125 116.625 C-161.5803125 116.00109375 -160.848125 115.3771875 -160.09375 114.734375 C-158.51644714 113.42780323 -156.91911912 112.14535 -155.3125 110.875 C-152.86035787 108.96062458 -152.86035787 108.96062458 -150.375 106.3125 C-148 104 -148 104 -145 103 C-144.67 102.01 -144.34 101.02 -144 100 C-141.95233151 98.22160583 -139.90843729 96.57060335 -137.75 94.9375 C-137.12029297 94.45216797 -136.49058594 93.96683594 -135.84179688 93.46679688 C-133.89930198 91.97152303 -131.9500292 90.48542827 -130 89 C-128.35778163 87.7392455 -126.71723797 86.47633984 -125.0769043 85.21313477 C-124.02472158 84.40367573 -122.97149538 83.59557127 -121.91723633 82.78881836 C-118.99594892 80.55096162 -116.0955509 78.28992426 -113.21484375 76 C-112.58449219 75.49984375 -111.95414063 74.9996875 -111.3046875 74.484375 C-110.08998651 73.51871312 -108.87761343 72.55011322 -107.66796875 71.578125 C-104.88194955 69.36493218 -102.21835203 67.51020619 -99 66 C-98.38125 65.38125 -97.7625 64.7625 -97.125 64.125 C-93.94954328 60.94954328 -90.19382599 58.68268134 -86.30859375 56.4609375 C-80.27284706 52.68357273 -77.3694644 49.82629503 -75.375 42.875 C-74.4155344 38.60965294 -73.69523363 34.31569556 -73 30 C-73.73605469 30.15597656 -74.47210938 30.31195313 -75.23046875 30.47265625 C-76.20628906 30.66730469 -77.18210937 30.86195312 -78.1875 31.0625 C-79.15042969 31.25972656 -80.11335937 31.45695312 -81.10546875 31.66015625 C-84.03610862 32.00423947 -86.16307068 31.74164697 -89 31 C-89.33 29.35 -89.66 27.7 -90 26 C-81.94142697 21.87700915 -72.98293709 20.82439371 -64 21 C-62.97424324 26.27823181 -63.19511468 30.21948164 -64.4375 35.4375 C-64.72496094 36.67371094 -65.01242187 37.90992188 -65.30859375 39.18359375 C-65.53675781 40.11300781 -65.76492188 41.04242188 -66 42 C-65.27554688 41.46890625 -64.55109375 40.9378125 -63.8046875 40.390625 C-53.94845361 33.18900344 -53.94845361 33.18900344 -49 30 C-48.31808594 29.55527344 -47.63617188 29.11054687 -46.93359375 28.65234375 C-45.85271484 27.95818359 -45.85271484 27.95818359 -44.75 27.25 C-44.08484375 26.82203125 -43.4196875 26.3940625 -42.734375 25.953125 C-41 25 -41 25 -39 25 C-39 24.34 -39 23.68 -39 23 C-37.5234375 21.84375 -37.5234375 21.84375 -35.375 20.5 C-31.05629837 17.71927796 -26.85992825 14.80574003 -22.6875 11.8125 C-22.08921387 11.38453125 -21.49092773 10.9565625 -20.87451172 10.515625 C-18.4537823 8.77982802 -16.04997407 7.0392471 -13.70703125 5.19921875 C-12 4 -12 4 -10 4 C-10 3.34 -10 2.68 -10 2 C-3.375 -1.125 -3.375 -1.125 0 0 Z M-159 214 C-158.67 216.97 -158.34 219.94 -158 223 C-154.18699218 219.7129243 -152.77027754 216.60272162 -151 212 C-153.88395737 212 -156.29477815 213.05905327 -159 214 Z M72 376 C73 378 73 378 73 378 Z M70 380 C71 382 71 382 71 382 Z M69 382 C68.67 383.32 68.34 384.64 68 386 C68.66 385.67 69.32 385.34 70 385 C69.67 384.01 69.34 383.02 69 382 Z " fill="#F9B43B" transform="translate(481,43)"/>
<path d="M0 0 C6.18701937 7.19031981 7.08950078 16.54453212 7.3125 25.6875 C7.33828125 26.58855469 7.3640625 27.48960937 7.390625 28.41796875 C7.4713512 31.57032679 7.52142332 34.72188687 7.5625 37.875 C7.5948877 39.4077356 7.5948877 39.4077356 7.62792969 40.97143555 C7.66588646 49.96792153 6.06833984 57.53630505 0.3125 64.6875 C-2.4506903 66.95726346 -3.95733516 66.6832169 -7.625 66.625 C-12.00693026 65.91090766 -13.91425993 64.21026442 -16.6875 60.6875 C-25.38926561 48.53100356 -27.61469368 34.30942898 -25.37109375 19.61523438 C-23.52080542 10.53445037 -20.50004495 4.8958633 -12.6875 -0.3125 C-8.1287219 -1.8320927 -4.38989765 -2.1439035 0 0 Z " fill="#EFE4D3" transform="translate(366.6875,369.3125)"/>
<path d="M0 0 C5.83115093 3.03219848 9.04666054 7.01547833 11.046875 13.27734375 C13.30011466 25.00670796 13.97521417 37.07135762 13 49 C12.67 49.33 12.34 49.66 12 50 C11.70427773 51.39077307 11.43834311 52.7879361 11.1875 54.1875 C10.06130941 59.43471393 7.92770244 63.00582506 4.1875 66.875 C0.68729032 68.67510784 -1.10323684 68.77935263 -5 68 C-14.61173022 59.83709676 -18.15292008 48.97030181 -19.19335938 36.72412109 C-19.78438567 26.33619154 -19.66805648 15.53674576 -15 6 C-10.26925687 1.68667539 -6.54133919 -0.7849607 0 0 Z " fill="#EFE4D3" transform="translate(445,369)"/>
<path d="M0 0 C1.32 0.66 2.64 1.32 4 2 C3.07381382 11.15347826 2.14219385 20.30802535 1 29.4375 C0.855625 30.61183594 0.71125 31.78617188 0.5625 32.99609375 C0.05271727 35.71847516 -0.60378806 37.63225724 -2 40 C-3.66611905 40.042721 -5.33382885 40.04063832 -7 40 C-8 39 -8 39 -8.01953125 36.8671875 C-7.48402622 29.12762425 -6.39065807 21.52618026 -5.125 13.875 C-4.96362549 12.85519043 -4.80225098 11.83538086 -4.63598633 10.78466797 C-4.46993896 9.82189941 -4.3038916 8.85913086 -4.1328125 7.8671875 C-3.98730957 7.00206543 -3.84180664 6.13694336 -3.69189453 5.24560547 C-2.92023736 2.74112322 -1.98788699 1.66325085 0 0 Z " fill="#EFB349" transform="translate(450,124)"/>
<path d="M0 0 C0.875 1.875 0.875 1.875 1 4 C-1.18182187 6.76663552 -3.41532412 7.72514923 -6.7109375 8.82421875 C-7.62617188 9.13037109 -8.54140625 9.43652344 -9.484375 9.75195312 C-10.43828125 10.06068359 -11.3921875 10.36941406 -12.375 10.6875 C-13.32117188 11.00783203 -14.26734375 11.32816406 -15.2421875 11.65820312 C-19.67121893 13.11692204 -23.29668425 14.19146891 -28 14 C-28 12.35 -28 10.7 -28 9 C-21.93749327 6.09247126 -15.80881537 3.44560717 -9.5 1.125 C-8.3346875 0.69445312 -7.169375 0.26390625 -5.96875 -0.1796875 C-3 -1 -3 -1 0 0 Z " fill="#E6AD49" transform="translate(340,232)"/>
<path d="M0 0 C0.66 1.32 1.32 2.64 2 4 C1.26394531 4.72445313 0.52789063 5.44890625 -0.23046875 6.1953125 C-5.05073726 10.96281037 -9.73033467 15.72570754 -14 21 C-14.9075 21.845625 -15.815 22.69125 -16.75 23.5625 C-19.14507293 26.15716234 -19.70324176 27.53782048 -20 31 C-20.33 31 -20.66 31 -21 31 C-21.125 24.25 -21.125 24.25 -20 22 C-19.34 22 -18.68 22 -18 22 C-18 21.34 -18 20.68 -18 20 C-17.34 20 -16.68 20 -16 20 C-15.60941406 19.13181641 -15.60941406 19.13181641 -15.2109375 18.24609375 C-13.91807675 15.84804558 -12.45274925 14.07781303 -10.625 12.0625 C-8.54671573 9.75089483 -6.58811942 7.46566844 -4.6875 5 C-4.130625 4.34 -3.57375 3.68 -3 3 C-2.34 3 -1.68 3 -1 3 C-0.67 2.01 -0.34 1.02 0 0 Z " fill="#D3A148" transform="translate(553,346)"/>
<path d="M0 0 C0.66 0 1.32 0 2 0 C1.44753618 8.01571155 0.23298176 15.75737496 -1.375 23.625 C-1.68824219 25.22601563 -1.68824219 25.22601563 -2.0078125 26.859375 C-3.2648578 33.09861203 -4.85196938 39.00812512 -7 45 C-7.33 45 -7.66 45 -8 45 C-8.12324074 40.98000435 -7.79852304 37.6697441 -6.6875 33.8125 C-5.02482723 27.54610593 -4.01714925 21.25859481 -3.09057617 14.85083008 C-2.34527093 9.79849513 -1.31308307 4.93674151 0 0 Z " fill="#C99C4C" transform="translate(441,134)"/>
<path d="M0 0 C1.69843394 6.79373575 -0.07741484 12.38500359 -2 19 C-2.66 19 -3.32 19 -4 19 C-4 17.35 -4 15.7 -4 14 C-3.34 14 -2.68 14 -2 14 C-2.020625 12.948125 -2.04125 11.89625 -2.0625 10.8125 C-2.01072932 7.6544885 -1.67024271 5.05567345 -1 2 C-1.71285156 2.15597656 -2.42570312 2.31195313 -3.16015625 2.47265625 C-8.81616649 3.62212805 -13.34868396 4.25584801 -19 3 C-19 2.67 -19 2.34 -19 2 C-16.95928485 1.66089006 -14.91737379 1.32897296 -12.875 1 C-11.73804688 0.814375 -10.60109375 0.62875 -9.4296875 0.4375 C-6.23862398 0.03043951 -3.21182209 -0.07809902 0 0 Z " fill="#C59B4B" transform="translate(417,64)"/>
<path d="M0 0 C-0.61538462 6.52307692 -0.61538462 6.52307692 -2.5625 8.9375 C-3.036875 9.288125 -3.51125 9.63875 -4 10 C-3.67 7.69 -3.34 5.38 -3 3 C-7.37859255 3.50522222 -9.81651224 6.17827222 -13 9 C-13.66 8.67 -14.32 8.34 -15 8 C-15.33 8.99 -15.66 9.98 -16 11 C-17.32 10.67 -18.64 10.34 -20 10 C-18.71283353 8.99421411 -17.42011342 7.99553202 -16.125 7 C-15.40570313 6.443125 -14.68640625 5.88625 -13.9453125 5.3125 C-12 4 -12 4 -10 4 C-10 3.34 -10 2.68 -10 2 C-3.375 -1.125 -3.375 -1.125 0 0 Z " fill="#A56E37" transform="translate(481,43)"/>
<path d="M0 0 C-0.66 0 -1.32 0 -2 0 C-2 0.66 -2 1.32 -2 2 C-2.99 2.66 -3.98 3.32 -5 4 C-2.03 4 0.94 4 4 4 C-0.65285818 7.10190545 -5.41532676 8.33846504 -11 8 C-11 6.35 -11 4.7 -11 3 C-9.73581754 2.30034557 -8.46334598 1.61565237 -7.1875 0.9375 C-6.47980469 0.55464844 -5.77210938 0.17179688 -5.04296875 -0.22265625 C-3 -1 -3 -1 0 0 Z " fill="#C89A49" transform="translate(323,238)"/>
<path d="M0 0 C3.63 1.98 7.26 3.96 11 6 C11 6.66 11 7.32 11 8 C11.66 8.226875 12.32 8.45375 13 8.6875 C16.92734533 10.40571358 20.41260178 12.66774607 24 15 C22.25390625 15.6484375 22.25390625 15.6484375 20 16 C17.96484375 15.0390625 17.96484375 15.0390625 15.9375 13.625 C13.52656523 11.96835001 11.81183321 10.93727774 9 10 C8.34 9.01 7.68 8.02 7 7 C6.175 6.525625 5.35 6.05125 4.5 5.5625 C2 4 2 4 0 0 Z " fill="#B57939" transform="translate(421,198)"/>
<path d="M0 0 C0.75 1.71484375 0.75 1.71484375 1 4 C-3.12892395 9.72689691 -8.29861184 13.8612591 -15 16 C-15 15.34 -15 14.68 -15 14 C-14.34 14 -13.68 14 -13 14 C-13 13.34 -13 12.68 -13 12 C-12.34 12 -11.68 12 -11 12 C-11 11.34 -11 10.68 -11 10 C-9.625 8.375 -9.625 8.375 -8 7 C-7.34 7 -6.68 7 -6 7 C-6 6.34 -6 5.68 -6 5 C-4.04072937 3.2856382 -2.04119788 1.61594832 0 0 Z " fill="#C2843A" transform="translate(321,158)"/>
<path d="M0 0 C0.33 0.66 0.66 1.32 1 2 C0.39351421 3.68949614 -0.27840576 5.35636866 -1 7 C-1.33 7.99 -1.66 8.98 -2 10 C-0.68 10.33 0.64 10.66 2 11 C2 11.66 2 12.32 2 13 C2.99 13 3.98 13 5 13 C5.66 14.65 6.32 16.3 7 18 C5.37025436 17.23925157 3.74633352 16.46601567 2.125 15.6875 C1.22007812 15.25824219 0.31515625 14.82898438 -0.6171875 14.38671875 C-3 13 -3 13 -5 10 C-4.76838349 5.59928637 -2.8638918 3.23342622 0 0 Z " fill="#B57A3A" transform="translate(293,186)"/>
<path d="M0 0 C10.30054746 -0.37156283 20.24462781 0.52947895 30 4 C30 4.33 30 4.66 30 5 C23.03026979 5.22875012 16.75463237 4.4042249 9.9375 3 C8.97650391 2.80921875 8.01550781 2.6184375 7.02539062 2.421875 C4.681954 1.95551945 2.34037235 1.48145534 0 1 C0 0.67 0 0.34 0 0 Z " fill="#9C6D25" transform="translate(576,524)"/>
<path d="M0 0 C0.66 0 1.32 0 2 0 C1.4376049 3.26189156 0.5859495 4.91134848 -2 7 C-2.99 7.33 -3.98 7.66 -5 8 C-5.33 8.99 -5.66 9.98 -6 11 C-8.875 13.25 -8.875 13.25 -12 15 C-12.99 14.67 -13.98 14.34 -15 14 C-14.113125 13.278125 -13.22625 12.55625 -12.3125 11.8125 C-10.16600673 10.03556807 -8.27153645 8.25459543 -6.3125 6.25 C-4 4 -4 4 -1 3 C-0.67 2.01 -0.34 1.02 0 0 Z " fill="#B27938" transform="translate(337,143)"/>
<path d="M0 0 C0.33 0 0.66 0 1 0 C1.19239856 5.50473664 1.32620349 9.91142987 -1 15 C-1.16798262 17.70886941 -1.16798262 17.70886941 -1 20 C0.32 19.67 1.64 19.34 3 19 C2.67 19.99 2.34 20.98 2 22 C-1 23 -1 23 -4 22 C-4.25903503 16.8678684 -3.31287876 12.53055374 -2 7.625 C-1.80921875 6.88894531 -1.6184375 6.15289062 -1.421875 5.39453125 C-0.95437696 3.59466378 -0.47808424 1.79708452 0 0 Z " fill="#BA9144" transform="translate(430,161)"/>
<path d="M0 0 C0 0.99 0 1.98 0 3 C-1.89545392 3.48066535 -3.79138039 3.95946743 -5.6875 4.4375 C-7.27111328 4.83775391 -7.27111328 4.83775391 -8.88671875 5.24609375 C-11.5828317 5.89897932 -14.2757576 6.47941193 -17 7 C-17 9.64 -17 12.28 -17 15 C-17.66 14.34 -18.32 13.68 -19 13 C-18.625 9.375 -18.625 9.375 -18 6 C-16.10188337 5.28820626 -14.20363599 4.576759 -12.3046875 3.8671875 C-10.7864632 3.29592344 -9.27074292 2.71795284 -7.7578125 2.1328125 C-2.2125 0 -2.2125 0 0 0 Z " fill="#9C7A3F" transform="translate(334,245)"/>
<path d="M0 0 C0.66 0.33 1.32 0.66 2 1 C1.690625 1.9075 1.38125 2.815 1.0625 3.75 C-0.27450635 7.83966647 -1 10.66543614 -1 15 C-1.99 15 -2.98 15 -4 15 C-5.70532323 16.94009522 -5.70532323 16.94009522 -7 19 C-7 17.02 -7 15.04 -7 13 C-6.34 13 -5.68 13 -5 13 C-4.67 11.02 -4.34 9.04 -4 7 C-3.34 7 -2.68 7 -2 7 C-1.855625 6.401875 -1.71125 5.80375 -1.5625 5.1875 C-1.1127561 3.43849596 -0.57107659 1.71322977 0 0 Z M-3 11 C-2 13 -2 13 -2 13 Z " fill="#BE9343" transform="translate(556,408)"/>
<path d="M0 0 C0.875 1.875 0.875 1.875 1 4 C-1.0143053 6.90955211 -3.66441081 8.02372999 -7 9 C-9.3125 8.625 -9.3125 8.625 -11 8 C-8 6 -8 6 -5.875 5.5625 C-4.946875 5.2840625 -4.946875 5.2840625 -4 5 C-3.67 4.01 -3.34 3.02 -3 2 C-4.65 2 -6.3 2 -8 2 C-5.14066998 -0.85933002 -3.8625627 -1.2875209 0 0 Z " fill="#CB9C46" transform="translate(340,232)"/>
<path d="M0 0 C1.32 0.33 2.64 0.66 4 1 C2.40284723 3.46315118 0.79774957 5.9204332 -0.8125 8.375 C-1.26431641 9.07367188 -1.71613281 9.77234375 -2.18164062 10.4921875 C-2.62314453 11.1625 -3.06464844 11.8328125 -3.51953125 12.5234375 C-4.12438354 13.450354 -4.12438354 13.450354 -4.74145508 14.39599609 C-6 16 -6 16 -9 18 C-9 17.01 -9 16.02 -9 15 C-8.34 15 -7.68 15 -7 15 C-7 14.01 -7 13.02 -7 12 C-6.34 12 -5.68 12 -5 12 C-5 11.01 -5 10.02 -5 9 C-4.34 9 -3.68 9 -3 9 C-3 7.68 -3 6.36 -3 5 C-2.34 4.67 -1.68 4.34 -1 4 C-0.34786708 1.97536745 -0.34786708 1.97536745 0 0 Z " fill="#A56E36" transform="translate(473,53)"/>
<path d="M0 0 C1.67542976 0.28604898 3.34385343 0.61781233 5 1 C4.32829194 4.8063457 3.27253436 8.35206816 2 12 C1.67 12 1.34 12 1 12 C0.67 10.35 0.34 8.7 0 7 C-0.33 7 -0.66 7 -1 7 C-1.04254356 5.00045254 -1.04080783 2.99958364 -1 1 C-0.67 0.67 -0.34 0.34 0 0 Z " fill="#DBA749" transform="translate(559,411)"/>
<path d="M0 0 C0.556875 0.37511719 1.11375 0.75023437 1.6875 1.13671875 C6.73448638 4.52126874 11.82564989 7.81361546 17 11 C15.2890625 11.6796875 15.2890625 11.6796875 13 12 C10.7109375 10.8203125 10.7109375 10.8203125 8.375 9.125 C7.59898437 8.57070313 6.82296875 8.01640625 6.0234375 7.4453125 C5.35570312 6.96835937 4.68796875 6.49140625 4 6 C3.34 5.67 2.68 5.34 2 5 C2 4.34 2 3.68 2 3 C1.34 3 0.68 3 0 3 C0 2.01 0 1.02 0 0 Z " fill="#BE9347" transform="translate(541,375)"/>
<path d="M0 0 C1.32 0.66 2.64 1.32 4 2 C3.34 8.27 2.68 14.54 2 21 C1.67 21 1.34 21 1 21 C1.03480469 19.96359375 1.06960938 18.9271875 1.10546875 17.859375 C1.13361482 16.48959958 1.16091411 15.11980659 1.1875 13.75 C1.21263672 13.06808594 1.23777344 12.38617188 1.26367188 11.68359375 C1.31137459 8.40800711 1.21085076 6.34651444 -0.51171875 3.515625 C-1.00285156 3.01546875 -1.49398438 2.5153125 -2 2 C-1.34 1.34 -0.68 0.68 0 0 Z " fill="#B38D43" transform="translate(450,124)"/>
<path d="M0 0 C0.66 0.33 1.32 0.66 2 1 C-2.93654267 7.70459519 -2.93654267 7.70459519 -7.375 8.9375 C-8.24125 8.958125 -9.1075 8.97875 -10 9 C-6.83047153 5.73991357 -3.60062011 2.77762123 0 0 Z " fill="#AE7437" transform="translate(360,125)"/>
<path d="M0 0 C1.5625 1.6875 1.5625 1.6875 3 4 C2.6875 6.75 2.6875 6.75 2 9 C-1.82320557 10.42258812 -4.91281305 11.24042276 -9 11 C-5.86501708 9.14223235 -3.62528568 8.79859524 0 9 C0 6.03 0 3.06 0 0 Z " fill="#996B22" transform="translate(616,518)"/>
<path d="M0 0 C0.33 0 0.66 0 1 0 C1.83288874 6.25307239 2.03863773 11.76817361 1 18 C0.67 18 0.34 18 0 18 C-1.04167441 13.90274731 -0.94409525 10.38504776 -0.5625 6.1875 C-0.46066406 5.02605469 -0.35882813 3.86460937 -0.25390625 2.66796875 C-0.17011719 1.78753906 -0.08632813 0.90710938 0 0 Z " fill="#C89842" transform="translate(449,142)"/>
<path d="M0 0 C0.66 0 1.32 0 2 0 C3.50875941 6.03503763 2.64186094 11.89738369 2 18 C1.67 18 1.34 18 1 18 C0.6392073 15.18820232 0.2860722 12.37581501 -0.0625 9.5625 C-0.2181543 8.35883789 -0.2181543 8.35883789 -0.37695312 7.13085938 C-0.62644343 5.09192132 -0.81780318 3.04604939 -1 1 C-0.67 0.67 -0.34 0.34 0 0 Z " fill="#CA9F4D" transform="translate(443,105)"/>
<path d="M0 0 C1.98 0 3.96 0 6 0 C5.67 1.32 5.34 2.64 5 4 C2.36 4.33 -0.28 4.66 -3 5 C-2.67 4.34 -2.34 3.68 -2 3 C-1.34 3 -0.68 3 0 3 C0 2.01 0 1.02 0 0 Z " fill="#FCB945" transform="translate(331,234)"/>
<path d="M0 0 C1.32 0 2.64 0 4 0 C4 0.66 4 1.32 4 2 C5.3921875 2.0928125 5.3921875 2.0928125 6.8125 2.1875 C10 3 10 3 11.875 5.5625 C12.431875 6.7690625 12.431875 6.7690625 13 8 C7.73691968 6.58795406 4.2437012 4.31008693 0 1 C0 0.67 0 0.34 0 0 Z " fill="#A36A31" transform="translate(329,221)"/>
<path d="M0 0 C0.33 0 0.66 0 1 0 C0.54996653 5.62541841 -0.68441485 8.61487125 -4 13 C-5 10 -5 10 -4.00390625 7.51953125 C-3.52824219 6.62621094 -3.05257813 5.73289062 -2.5625 4.8125 C-2.08941406 3.91144531 -1.61632812 3.01039063 -1.12890625 2.08203125 C-0.75636719 1.39496094 -0.38382812 0.70789063 0 0 Z " fill="#B57F28" transform="translate(266,372)"/>
<path d="M0 0 C4.44441654 2.16800807 8.72509633 4.52055587 13 7 C10 8 10 8 7.625 7.3125 C4.70172609 5.85086304 2.41059024 4.20396822 0 2 C0 1.34 0 0.68 0 0 Z " fill="#AF7430" transform="translate(445,214)"/>
<path d="M0 0 C0.33 0.66 0.66 1.32 1 2 C0.1875 4.3125 0.1875 4.3125 -1 7 C-1.37125 7.928125 -1.7425 8.85625 -2.125 9.8125 C-2.41375 10.534375 -2.7025 11.25625 -3 12 C-3.66 11.34 -4.32 10.68 -5 10 C-4.76236269 5.60370982 -2.85856441 3.22741144 0 0 Z " fill="#966531" transform="translate(293,186)"/>
<path d="M0 0 C0.66 0.33 1.32 0.66 2 1 C1.01347016 4.31832766 0.31268497 5.76548627 -2.5 7.875 C-3.325 8.24625 -4.15 8.6175 -5 9 C-5.66 8.67 -6.32 8.34 -7 8 C-4.69 5.36 -2.38 2.72 0 0 Z " fill="#B47A38" transform="translate(304,174)"/>
<path d="M0 0 C0.33 0.66 0.66 1.32 1 2 C1.66 2.33 2.32 2.66 3 3 C-0.19990508 5.74277578 -3.00499382 7.6302836 -7 9 C-7 8.34 -7 7.68 -7 7 C-6.34 7 -5.68 7 -5 7 C-5 6.34 -5 5.68 -5 5 C-4.34 5 -3.68 5 -3 5 C-3 4.34 -3 3.68 -3 3 C-1.5 1.375 -1.5 1.375 0 0 Z " fill="#B37B37" transform="translate(313,165)"/>
<path d="M0 0 C1.99954746 -0.04254356 4.00041636 -0.04080783 6 0 C7 1 7 1 7.09765625 3.06640625 C7.08605469 3.89011719 7.07445312 4.71382813 7.0625 5.5625 C7.05347656 6.38878906 7.04445313 7.21507813 7.03515625 8.06640625 C7.01775391 9.02353516 7.01775391 9.02353516 7 10 C6.34 10 5.68 10 5 10 C5 7.36 5 4.72 5 2 C3.35 1.67 1.7 1.34 0 1 C0 0.67 0 0.34 0 0 Z " fill="#F4BB58" transform="translate(432,110)"/>
<path d="M0 0 C-1.75 3.875 -1.75 3.875 -4 5 C-4.66 4.67 -5.32 4.34 -6 4 C-6.33 4.99 -6.66 5.98 -7 7 C-8.32 6.67 -9.64 6.34 -11 6 C-9.73608512 4.99126984 -8.46359117 3.99328178 -7.1875 3 C-6.47980469 2.443125 -5.77210938 1.88625 -5.04296875 1.3125 C-3 0 -3 0 0 0 Z " fill="#B37A3A" transform="translate(472,47)"/>
<path d="M0 0 C0.33 0 0.66 0 1 0 C1.50130606 5.26371362 0.31168629 7.9090934 -3 12 C-3.66 12 -4.32 12 -5 12 C-3.68938409 7.76570244 -2.05643741 3.92592596 0 0 Z " fill="#BB8126" transform="translate(278,347)"/>
<path d="M0 0 C0.33 0 0.66 0 1 0 C1.33 1.98 1.66 3.96 2 6 C2.66 5.67 3.32 5.34 4 5 C3.34 7.31 2.68 9.62 2 12 C1.34 12 0.68 12 0 12 C-0.19573608 10.56359829 -0.38127816 9.12580496 -0.5625 7.6875 C-0.66691406 6.88699219 -0.77132813 6.08648437 -0.87890625 5.26171875 C-1 3 -1 3 0 0 Z " fill="#BA8A3C" transform="translate(322,259)"/>
<path d="M0 0 C0.66 0 1.32 0 2 0 C2.07654536 4.51617599 2.10228696 8.59085217 1 13 C-1.30143236 9.54785147 -1.13833854 8.76520676 -0.625 4.8125 C-0.51414062 3.91144531 -0.40328125 3.01039063 -0.2890625 2.08203125 C-0.19367188 1.39496094 -0.09828125 0.70789063 0 0 Z " fill="#D1A34B" transform="translate(446,133)"/>
<path d="M0 0 C0.66 0.99 1.32 1.98 2 3 C0.7934375 4.0828125 0.7934375 4.0828125 -0.4375 5.1875 C-3.02292072 8.02515689 -3.68042813 9.27166147 -4 13 C-4.33 13 -4.66 13 -5 13 C-5.125 6.25 -5.125 6.25 -4 4 C-3.34 4 -2.68 4 -2 4 C-2 3.34 -2 2.68 -2 2 C-1.34 2 -0.68 2 0 2 C0 1.34 0 0.68 0 0 Z " fill="#BF944A" transform="translate(537,364)"/>
<path d="M0 0 C3.04271313 3.47738644 4.87906012 7.53556703 6 12 C5.67 12.66 5.34 13.32 5 14 C4.15675328 12.421924 3.32576082 10.8372958 2.5 9.25 C2.0359375 8.36828125 1.571875 7.4865625 1.09375 6.578125 C0 4 0 4 0 0 Z " fill="#AC7524" transform="translate(493,298)"/>
<path d="M0 0 C0 0.99 0 1.98 0 3 C-1.65 3.33 -3.3 3.66 -5 4 C-5.33 4.99 -5.66 5.98 -6 7 C-7.32 6.67 -8.64 6.34 -10 6 C-8.71283353 4.99421411 -7.42011342 3.99553202 -6.125 3 C-5.40570313 2.443125 -4.68640625 1.88625 -3.9453125 1.3125 C-2 0 -2 0 0 0 Z " fill="#996532" transform="translate(461,54)"/>
<path d="M0 0 C0.66 0 1.32 0 2 0 C1.71788123 1.6266848 1.42397625 3.25132896 1.125 4.875 C0.96257812 5.77992188 0.80015625 6.68484375 0.6328125 7.6171875 C0 10 0 10 -2 12 C-2.21278058 7.53160785 -1.59138085 4.17737474 0 0 Z " fill="#BD9547" transform="translate(435,167)"/>
<path d="M0 0 C0.66 0.33 1.32 0.66 2 1 C-0.25740623 3.33524782 -2.2805761 5.18705073 -5 7 C-7.1875 6.625 -7.1875 6.625 -9 6 C-4.25 3 -4.25 3 -2 3 C-2 2.34 -2 1.68 -2 1 C-1.34 0.67 -0.68 0.34 0 0 Z " fill="#A66F39" transform="translate(444,65)"/>
<path d="M0 0 C1.65 1.65 3.3 3.3 5 5 C4.67 5.66 4.34 6.32 4 7 C2.02 6.01 0.04 5.02 -2 4 C-1.34 2.68 -0.68 1.36 0 0 Z " fill="#A86C0F" transform="translate(436,714)"/>
<path d="M0 0 C1.32 0.33 2.64 0.66 4 1 C4 1.99 4 2.98 4 4 C4.99 4 5.98 4 7 4 C7.33 5.65 7.66 7.3 8 9 C6.84775972 8.07038578 5.70340824 7.1309875 4.5625 6.1875 C3.60537109 5.40439453 3.60537109 5.40439453 2.62890625 4.60546875 C1 3 1 3 0 0 Z " fill="#A57525" transform="translate(266,596)"/>
<path d="M0 0 C0.66 0.33 1.32 0.66 2 1 C0.84414715 4.91211733 -0.35534962 7.8745041 -3 11 C-3.33 9.68 -3.66 8.36 -4 7 C-3.34 7 -2.68 7 -2 7 C-1.855625 6.401875 -1.71125 5.80375 -1.5625 5.1875 C-1.1127561 3.43849596 -0.57107659 1.71322977 0 0 Z " fill="#C69947" transform="translate(556,408)"/>
<path d="M0 0 C0.33 0 0.66 0 1 0 C0.49202991 4.3177458 -0.19682779 8.03302114 -2 12 C-2.66 11.67 -3.32 11.34 -4 11 C-3.52269162 9.5410574 -3.04308958 8.08286504 -2.5625 6.625 C-2.29566406 5.81289063 -2.02882813 5.00078125 -1.75390625 4.1640625 C-1 2 -1 2 0 0 Z " fill="#B87E27" transform="translate(260,385)"/>
<path d="M0 0 C0.66 0.33 1.32 0.66 2 1 C0.38405168 3.04119788 -1.2856382 5.04072937 -3 7 C-3.66 7 -4.32 7 -5 7 C-4.49396008 4.83125748 -4.00016187 3.00032373 -3 1 C-2.01 0.67 -1.02 0.34 0 0 Z " fill="#DFA849" transform="translate(543,359)"/>
<path d="M0 0 C0.66 0 1.32 0 2 0 C2.66 1.32 3.32 2.64 4 4 C4.99 3.67 5.98 3.34 7 3 C6.67 3.99 6.34 4.98 6 6 C3 7 3 7 0 6 C0 4.02 0 2.04 0 0 Z " fill="#B18C48" transform="translate(426,177)"/>
<path d="M0 0 C-0.33 0.99 -0.66 1.98 -1 3 C-1.66 3 -2.32 3 -3 3 C-3.66 4.32 -4.32 5.64 -5 7 C-6.32 6.67 -7.64 6.34 -9 6 C-7.8803014 4.99406757 -6.7540588 3.9954151 -5.625 3 C-4.68527344 2.1646875 -4.68527344 2.1646875 -3.7265625 1.3125 C-2 0 -2 0 0 0 Z " fill="#956536" transform="translate(350,134)"/>
<path d="M0 0 C5.21979128 -0.1799928 9.07262981 0.02905192 14 2 C14 2.33 14 2.66 14 3 C11.03 3 8.06 3 5 3 C5 2.34 5 1.68 5 1 C3.35 1 1.7 1 0 1 C0 0.67 0 0.34 0 0 Z " fill="#B07A2B" transform="translate(592,526)"/>
<path d="M0 0 C3.33773709 3.64116773 3.97864902 7.28607242 5 12 C2.69857565 10.21825212 1.19965609 8.83695835 0.51171875 5.953125 C0.27676898 3.9753389 0.13248542 1.98728128 0 0 Z " fill="#AB7223" transform="translate(532,382)"/>
<path d="M0 0 C0.6875 1.6875 0.6875 1.6875 1 4 C-0.25 6.6875 -0.25 6.6875 -2 9 C-2.99 9.33 -3.98 9.66 -5 10 C-3.66511872 6.40608886 -2.03977277 3.24509304 0 0 Z " fill="#BA8429" transform="translate(301,307)"/>
<path d="M0 0 C0.33 0 0.66 0 1 0 C1.125 6.625 1.125 6.625 0 10 C-0.99 10.33 -1.98 10.66 -3 11 C-2.01 7.37 -1.02 3.74 0 0 Z " fill="#AB7723" transform="translate(242,432)"/>
<path d="M0 0 C1.98 0 3.96 0 6 0 C6 0.99 6 1.98 6 3 C6.66 3 7.32 3 8 3 C7.67 3.99 7.34 4.98 7 6 C5.83054208 5.19152271 4.66449539 4.37810888 3.5 3.5625 C2.8503125 3.11003906 2.200625 2.65757812 1.53125 2.19140625 C1.0259375 1.79824219 0.520625 1.40507812 0 1 C0 0.67 0 0.34 0 0 Z " fill="#C49647" transform="translate(546,388)"/>
<path d="M0 0 C2.475 0.99 2.475 0.99 5 2 C5 2.66 5 3.32 5 4 C6.32 4.66 7.64 5.32 9 6 C5.21213403 5.4739075 2.82847776 4.61896089 0 2 C0 1.34 0 0.68 0 0 Z " fill="#A46B39" transform="translate(410,191)"/>
<path d="M0 0 C0.66 1.32 1.32 2.64 2 4 C3.65 4 5.3 4 7 4 C6.67 4.99 6.34 5.98 6 7 C4.33388095 7.042721 2.66617115 7.04063832 1 7 C0 6 0 6 -0.0625 2.9375 C-0.041875 1.968125 -0.02125 0.99875 0 0 Z " fill="#D1A450" transform="translate(442,157)"/>
<path d="M0 0 C0.33 1.32 0.66 2.64 1 4 C0.01 4.33 -0.98 4.66 -2 5 C-2.33 5.99 -2.66 6.98 -3 8 C-3.99 7.67 -4.98 7.34 -6 7 C-4.02 4.69 -2.04 2.38 0 0 Z " fill="#B37D2A" transform="translate(227,454)"/>
<path d="M0 0 C0.6875 2.0625 0.6875 2.0625 1 4 C0.34 4 -0.32 4 -1 4 C-1 3.34 -1 2.68 -1 2 C-3.31 2 -5.62 2 -8 2 C-5.14066998 -0.85933002 -3.8625627 -1.2875209 0 0 Z " fill="#B48E42" transform="translate(340,232)"/>
<path d="M0 0 C2.97 1.65 5.94 3.3 9 5 C9 5.33 9 5.66 9 6 C6.75 6.25 6.75 6.25 4 6 C1.6875 4.125 1.6875 4.125 0 2 C0 1.34 0 0.68 0 0 Z " fill="#9E6935" transform="translate(421,198)"/>
<path d="M0 0 C0.66 0 1.32 0 2 0 C0.90931332 3.77545388 0.0916909 6.47043472 -3 9 C-3 7.68 -3 6.36 -3 5 C-2.34 5 -1.68 5 -1 5 C-0.67 3.35 -0.34 1.7 0 0 Z " fill="#A27224" transform="translate(384,663)"/>
<path d="M0 0 C0 0.99 0 1.98 0 3 C-2.31 3.33 -4.62 3.66 -7 4 C-7 3.34 -7 2.68 -7 2 C-2.25 0 -2.25 0 0 0 Z " fill="#C69748" transform="translate(334,245)"/>
<path d="M0 0 C3.37462715 0.54723683 5.08235 1.0549 8 3 C8 3.66 8 4.32 8 5 C4.62496331 3.8141763 2.35277269 2.72426311 0 0 Z " fill="#9D6735" transform="translate(321,216)"/>
<path d="M0 0 C0 0.99 0 1.98 0 3 C-3 5 -3 5 -5.1875 4.625 C-5.785625 4.41875 -6.38375 4.2125 -7 4 C-2.25 0 -2.25 0 0 0 Z " fill="#B57A3B" transform="translate(422,81)"/>
<path d="M0 0 C1.98 0 3.96 0 6 0 C6.66 1.98 7.32 3.96 8 6 C6 4.625 6 4.625 4 3 C4 2.34 4 1.68 4 1 C2.68 0.67 1.36 0.34 0 0 Z " fill="#9E6D22" transform="translate(407,643)"/>
<path d="M0 0 C1.65 0.33 3.3 0.66 5 1 C5 1.99 5 2.98 5 4 C4.34 4 3.68 4 3 4 C3 3.34 3 2.68 3 2 C2.34 2 1.68 2 1 2 C0.67 2.66 0.34 3.32 0 4 C0 2.68 0 1.36 0 0 Z " fill="#AD8341" transform="translate(559,411)"/>
<path d="M0 0 C2.6855594 2.6855594 3.06049974 5.37621328 4 9 C3.01 8.67 2.02 8.34 1 8 C0.67 5.36 0.34 2.72 0 0 Z " fill="#A57523" transform="translate(479,267)"/>
<path d="M0 0 C1.98 0.99 1.98 0.99 4 2 C3.01 2.495 3.01 2.495 2 3 C1.34 2.67 0.68 2.34 0 2 C0 1.34 0 0.68 0 0 Z " fill="#6D5311" transform="translate(610,534)"/>
<path d="M0 0 C0.66 0 1.32 0 2 0 C2 0.66 2 1.32 2 2 C1.01 2.33 0.02 2.66 -1 3 C-0.67 2.01 -0.34 1.02 0 0 Z " fill="#735214" transform="translate(187,548)"/>
<path d="M0 0 C0.66 0 1.32 0 2 0 C1.67 0.66 1.34 1.32 1 2 C0.67 1.34 0.34 0.68 0 0 Z " fill="#3C280C" transform="translate(415,674)"/>
</svg>
