<?xml version="1.0" encoding="UTF-8"?>
<svg version="1.1" xmlns="http://www.w3.org/2000/svg" width="839" height="839">
<path d="M0 0 C0.81082031 0.16226074 1.62164062 0.32452148 2.45703125 0.49169922 C6.99088566 1.44016747 11.31102542 2.70627734 15.6875 4.21923828 C18.08910348 5.03008371 20.50363351 5.75702594 22.9375 6.46484375 C23.77023437 6.70783203 24.60296875 6.95082031 25.4609375 7.20117188 C27.15260474 7.69175537 28.84531949 8.17874118 30.5390625 8.66210938 C36.27029626 10.34333042 41.58502315 12.49504024 47 15 C48.23455934 15.52911955 49.47144449 16.05285587 50.7109375 16.5703125 C60.75865812 20.83363106 70.34424691 25.76390289 79.95898438 30.92089844 C82.48623118 32.25707438 85.04932411 33.51015602 87.625 34.75 C91.54295475 36.6818635 95.09465597 38.96456952 98.68359375 41.44921875 C102.0624097 43.71125911 105.59175793 45.70035609 109.12890625 47.703125 C109.74636719 48.13109375 110.36382813 48.5590625 111 49 C111 49.66 111 50.32 111 51 C111.65355469 51.20625 112.30710937 51.4125 112.98046875 51.625 C117.18553981 53.53985771 120.64155225 56.21808428 124.3125 59 C125.05306641 59.5465625 125.79363281 60.093125 126.55664062 60.65625 C127.60561523 61.44515625 127.60561523 61.44515625 128.67578125 62.25 C129.31427002 62.72953125 129.95275879 63.2090625 130.6105957 63.703125 C131.06909912 64.13109375 131.52760254 64.5590625 132 65 C132 65.66 132 66.32 132 67 C132.66 67 133.32 67 134 67 C134.66 67.99 135.32 68.98 136 70 C137.66279327 71.0064275 139.32983484 72.00585407 141 73 C143.3125 75.0625 143.3125 75.0625 145 77 C145 77.66 145 78.32 145 79 C145.556875 79.226875 146.11375 79.45375 146.6875 79.6875 C149.67961603 81.38572802 151.61600535 83.50764196 154 86 C155.33062607 87.33603511 156.66415805 88.66918001 158 90 C159.33333333 91.33333333 160.66666667 92.66666667 162 94 C163.21816406 95.18529297 163.21816406 95.18529297 164.4609375 96.39453125 C167.88837428 99.91160868 170.8653947 103.72956772 173.9140625 107.57421875 C175.94813781 110.15985855 175.94813781 110.15985855 179 112 C179.97516576 113.66721889 180.94996904 115.33652045 181.83984375 117.05078125 C183.33599803 119.56452194 185.16497799 121.72204164 187 124 C188.51831989 126.13580562 190.01886756 128.27646205 191.5 130.4375 C191.87769531 130.98470703 192.25539063 131.53191406 192.64453125 132.09570312 C193.76809095 133.72698826 194.8840944 135.36346943 196 137 C196.7528125 138.06347656 197.505625 139.12695312 198.28125 140.22265625 C200 143 200 143 200 146 C200.66 146 201.32 146 202 146 C202.91145833 147.85546875 203.82291667 149.7109375 204.734375 151.56640625 C206.04620273 154.08884044 207.45791157 156.54428435 208.87597656 159.00805664 C211.00060237 162.77322214 212.99289754 166.60880001 215 170.4375 C215.42539062 171.24509766 215.85078125 172.05269531 216.2890625 172.88476562 C217.53321478 175.25285301 218.76861255 177.6252532 220 180 C220.37382813 180.71559082 220.74765625 181.43118164 221.1328125 182.16845703 C223.12284331 186.04441056 224.72752384 189.81737656 226 194 C226.31839844 194.95519531 226.63679687 195.91039062 226.96484375 196.89453125 C227.64101564 198.92304691 228.31676613 200.95170307 228.9921875 202.98046875 C229.59836246 204.79664411 230.20696212 206.61201656 230.8203125 208.42578125 C232.45251901 213.26226685 233.94317053 218.12459411 235.3515625 223.03125 C235.82945524 224.97959154 235.82945524 224.97959154 237 226 C237.34309051 227.30430031 237.63956853 228.62096562 237.9140625 229.94140625 C238.61081667 233.21331749 239.34860257 236.4666029 240.1484375 239.71484375 C242.97006169 251.54418033 244.87164322 263.37501931 246.3125 275.4375 C246.44298737 276.49491898 246.44298737 276.49491898 246.57611084 277.57369995 C247.68144971 286.64368548 248.13889355 295.45611123 247.86401367 304.59399414 C247.99812744 307.95309869 248.68669698 309.95969376 250 313 C249.84720262 315.79936335 249.58799217 318.42544398 249.1875 321.1875 C248.38557036 327.38371359 247.81423673 333.50777065 247.5625 339.75 C246.87548318 354.69882386 244.67834545 369.4998556 241 384 C240.69553522 385.33249703 240.39499796 386.66589541 240.09765625 388 C237.89065663 397.84696052 235.19505527 407.42985459 232 417 C231.73815918 417.79341797 231.47631836 418.58683594 231.20654297 419.40429688 C227.70208251 429.96478672 223.87549797 440.18733474 218.91796875 450.15380859 C217.95385034 452.09281483 217.00769725 454.03998871 216.0625 455.98828125 C208.37538804 471.72729804 199.34992436 486.28990457 189.50585938 500.76171875 C188.20388475 502.69694951 186.95113403 504.65494508 185.703125 506.625 C185.14109375 507.40875 184.5790625 508.1925 184 509 C183.34 509 182.68 509 182 509 C181.77699219 509.69480469 181.55398438 510.38960937 181.32421875 511.10546875 C179.68917763 514.67940818 177.3818385 517.38879972 174.8125 520.3125 C174.32072266 520.88210449 173.82894531 521.45170898 173.32226562 522.03857422 C171.88743976 523.69765039 170.44428867 525.34916307 169 527 C168.28199219 527.83144531 167.56398438 528.66289063 166.82421875 529.51953125 C162.4289333 534.59246242 162.4289333 534.59246242 160.35546875 536.5625 C158.80885617 537.98350605 158.80885617 537.98350605 158.3125 540.375 C156.8761818 543.24763639 156.24272526 543.64582571 153.5625 545.1875 C148.7394616 547.96466471 144.95128087 551.57447198 140.890625 555.3515625 C128.17699115 567 128.17699115 567 125 567 C124.70609375 567.84304688 124.70609375 567.84304688 124.40625 568.703125 C122.42719875 571.93557537 119.59409489 573.6895073 116.5 575.75 C115.90574219 576.16121094 115.31148437 576.57242188 114.69921875 576.99609375 C110.27818729 580 110.27818729 580 108 580 C108 580.66 108 581.32 108 582 C106.55947266 582.81210938 106.55947266 582.81210938 105.08984375 583.640625 C102.19810833 585.29221592 99.34440175 586.99620632 96.50390625 588.734375 C85.16112058 595.66709476 73.73968689 602.05402128 61.6171875 607.52734375 C58.69895129 608.78362952 58.69895129 608.78362952 58 612 C56.7934375 612.185625 56.7934375 612.185625 55.5625 612.375 C54.386875 612.58125 53.21125 612.7875 52 613 C51.34644531 613.11085938 50.69289063 613.22171875 50.01953125 613.3359375 C45.65619055 614.17840401 41.81196259 615.4446833 37.75 617.25 C29.57285573 620.79482341 21.00651202 622.96968627 12.4296875 625.31982422 C9.3088037 626.19349607 6.22086702 627.16693436 3.125 628.125 C-15.35205772 633.300287 -34.46860092 634.91204839 -53.50341797 636.69335938 C-54.35643494 636.77354813 -55.2094519 636.85373688 -56.08831787 636.93635559 C-57.69942673 637.0867 -59.31078642 637.2343889 -60.92242432 637.37895203 C-63.97888065 637.6617134 -66.9566543 637.99101457 -69.96435547 638.61450195 C-70.63611816 638.74171631 -71.30788086 638.86893066 -72 639 C-72.33 638.67 -72.66 638.34 -73 638 C-74.84368771 637.78265163 -76.69484916 637.62815996 -78.546875 637.5 C-80.28130859 637.37625 -80.28130859 637.37625 -82.05078125 637.25 C-83.88189453 637.12625 -83.88189453 637.12625 -85.75 637 C-88.11980446 636.83351538 -90.48959617 636.66684911 -92.859375 636.5 C-96.34616713 636.25465414 -99.83282669 636.01092612 -103.32080078 635.78295898 C-111.07524103 635.2449603 -118.69833266 634.27294755 -126.375 633.0625 C-127.49777344 632.89298828 -128.62054688 632.72347656 -129.77734375 632.54882812 C-135.32481095 631.68756256 -140.62826666 630.66754422 -146 629 C-148.5185114 628.36570824 -151.03948056 627.74111575 -153.5625 627.125 C-173.28424562 622.23249887 -173.28424562 622.23249887 -181.5 618.75 C-185.1456424 617.20992664 -187.98652281 616.57752872 -192 617 C-192.33 616.01 -192.66 615.02 -193 614 C-195.20458249 612.89125108 -195.20458249 612.89125108 -198 612 C-207.05153407 608.52989687 -215.55956755 604.8110465 -224 600 C-226.12324559 598.87169235 -228.24833164 597.746843 -230.375 596.625 C-241.14069825 590.82121718 -251.19887605 584.30112711 -261 577 C-262.91597141 575.62403137 -264.83263427 574.24902503 -266.75 572.875 C-270.39179899 570.22876363 -273.86585629 567.49975658 -277.23046875 564.51171875 C-280.13171052 562.03317445 -283.21274734 559.78721232 -286.27734375 557.515625 C-286.84582031 557.01546875 -287.41429687 556.5153125 -288 556 C-288 555.34 -288 554.68 -288 554 C-288.5775 553.7525 -289.155 553.505 -289.75 553.25 C-292.34375315 551.80902603 -293.96552222 550.15777947 -296 548 C-296.804375 547.21625 -297.60875 546.4325 -298.4375 545.625 C-301.12699591 542.86990663 -303.53592281 539.95689262 -306 537 C-306.78375 536.21625 -307.5675 535.4325 -308.375 534.625 C-311.16906598 531.83093402 -313.72699448 528.89488329 -316.30859375 525.90625 C-317.66355512 524.37918038 -319.10120666 522.92565204 -320.5625 521.5 C-323.1725515 518.8230241 -325.31666008 515.997042 -327.51953125 512.984375 C-328.85163795 511.19885996 -330.23728677 509.50223794 -331.6875 507.8125 C-333.77077913 505.27878215 -335.3227552 502.80519193 -337 500 C-338.09241662 498.44998514 -339.19700274 496.90848818 -340.3125 495.375 C-343.45427215 490.93135186 -346.10935278 486.35665216 -348.640625 481.54296875 C-350.01450747 478.97286103 -351.49585377 476.49593121 -353 474 C-354.49532756 471.40491328 -355.96715773 468.79680524 -357.4375 466.1875 C-357.81970703 465.51396484 -358.20191406 464.84042969 -358.59570312 464.14648438 C-360.54677369 460.68490757 -362.45376246 457.2022828 -364.28515625 453.67578125 C-364.61523682 453.04196533 -364.94531738 452.40814941 -365.28540039 451.75512695 C-366 450 -366 450 -366 447 C-366.66 447 -367.32 447 -368 447 C-368.18062988 446.4423999 -368.36125977 445.8847998 -368.54736328 445.31030273 C-373.07440609 431.37034095 -373.07440609 431.37034095 -378.3125 417.6875 C-380.32737181 412.7729185 -381.89469625 408.18642528 -383 403 C-383.45982054 401.1904566 -383.92381226 399.38197097 -384.390625 397.57421875 C-386.01846741 391.08985705 -387.32599156 384.56870731 -388.5625 378 C-388.77068359 376.91460937 -388.97886719 375.82921875 -389.19335938 374.7109375 C-389.8090219 371.47629678 -390.40752234 368.23896087 -391 365 C-391.18401367 364.02200439 -391.36802734 363.04400879 -391.55761719 362.03637695 C-392.97892273 354.1139881 -393.63678021 346.21700778 -394.125 338.1875 C-394.16669312 337.5149115 -394.20838623 336.842323 -394.25134277 336.14935303 C-395.28415554 319.2782519 -395.84075682 302.58491452 -393.50390625 285.8046875 C-392.90081573 281.25112033 -392.5929254 276.7098274 -392.34375 272.125 C-391.97772942 268.79754018 -391.29149359 265.65308796 -390.53515625 262.39648438 C-390.00599911 260.02686461 -389.5597495 257.65698489 -389.140625 255.265625 C-386.16776407 238.42220135 -382.31053889 221.05874786 -375.4375 205.3125 C-373.99005213 202.11194609 -373.99005213 202.11194609 -373.0546875 199.1484375 C-370.05100596 190.18189186 -365.96612711 181.57358541 -362 173 C-361.34 173 -360.68 173 -360 173 C-359.88785156 172.11441406 -359.77570313 171.22882813 -359.66015625 170.31640625 C-357.82908531 161.11771261 -351.00131034 152.54289415 -346.07080078 144.70458984 C-345.35245686 143.56107017 -344.63732153 142.41552907 -343.92529297 141.26806641 C-339.00828932 133.34733314 -333.75288117 125.85998428 -327.96875 118.546875 C-326.01201239 116.18501908 -326.01201239 116.18501908 -325 114 C-324.34 114 -323.68 114 -323 114 C-322.58814453 113.11054688 -322.58814453 113.11054688 -322.16796875 112.203125 C-321.04856139 110.09160075 -319.89116747 108.53194793 -318.3125 106.75 C-317.51392578 105.84314453 -317.51392578 105.84314453 -316.69921875 104.91796875 C-316.13847656 104.28503906 -315.57773437 103.65210938 -315 103 C-314.44957031 102.35675781 -313.89914062 101.71351563 -313.33203125 101.05078125 C-309.10789249 96.13067455 -304.62416238 91.54255951 -300 87 C-299.21238281 86.2059375 -298.42476563 85.411875 -297.61328125 84.59375 C-294.89737015 81.89813719 -292.12732264 79.27959452 -289.3125 76.6875 C-288.35988281 75.80449219 -287.40726562 74.92148438 -286.42578125 74.01171875 C-284 72 -284 72 -282 72 C-281.79375 71.443125 -281.5875 70.88625 -281.375 70.3125 C-279.42316968 67.02987629 -277.05769006 65.29326754 -274 63 C-273.34 63 -272.68 63 -272 63 C-272 62.34 -272 61.68 -272 61 C-271.05125 60.505 -270.1025 60.01 -269.125 59.5 C-265.9011688 57.66798347 -263.11202022 55.5420374 -260.25 53.1875 C-255.08869668 48.98084376 -249.68464818 45.45451697 -244 42 C-242.7968284 41.25788804 -241.59370586 40.51569655 -240.390625 39.7734375 C-233.76273362 35.71296937 -227.10438472 31.92331417 -220.1015625 28.53515625 C-217.13696875 27.06779435 -214.23451253 25.51918609 -211.32983398 23.93823242 C-203.10721275 19.46595623 -194.89474085 15.93951044 -186 13 C-184.14453125 12.38151042 -182.2890625 11.76302083 -180.43359375 11.14453125 C-179.14453125 10.71484375 -177.85546875 10.28515625 -176.56640625 9.85546875 C-175.93605469 9.64535156 -175.30570313 9.43523437 -174.65625 9.21875 C-173.4496875 8.8165625 -172.243125 8.414375 -171 8 C-169.97648438 7.65582031 -168.95296875 7.31164062 -167.8984375 6.95703125 C-143.87843026 -0.97410322 -118.24117369 -5.82388972 -92.94995117 -6.70996094 C-61.17581278 -7.83250165 -31.46903188 -6.44632365 0 0 Z " fill="#42B3E0" transform="translate(492,103)"/>
<path d="M0 0 C0.81082031 0.16226074 1.62164062 0.32452148 2.45703125 0.49169922 C6.99088566 1.44016747 11.31102542 2.70627734 15.6875 4.21923828 C18.08910348 5.03008371 20.50363351 5.75702594 22.9375 6.46484375 C23.77023437 6.70783203 24.60296875 6.95082031 25.4609375 7.20117188 C27.15260474 7.69175537 28.84531949 8.17874118 30.5390625 8.66210938 C36.27029626 10.34333042 41.58502315 12.49504024 47 15 C48.23455934 15.52911955 49.47144449 16.05285587 50.7109375 16.5703125 C60.75865812 20.83363106 70.34424691 25.76390289 79.95898438 30.92089844 C82.48623118 32.25707438 85.04932411 33.51015602 87.625 34.75 C91.54295475 36.6818635 95.09465597 38.96456952 98.68359375 41.44921875 C102.0624097 43.71125911 105.59175793 45.70035609 109.12890625 47.703125 C109.74636719 48.13109375 110.36382813 48.5590625 111 49 C111 49.66 111 50.32 111 51 C111.65355469 51.20625 112.30710937 51.4125 112.98046875 51.625 C117.18553981 53.53985771 120.64155225 56.21808428 124.3125 59 C125.05306641 59.5465625 125.79363281 60.093125 126.55664062 60.65625 C127.60561523 61.44515625 127.60561523 61.44515625 128.67578125 62.25 C129.31427002 62.72953125 129.95275879 63.2090625 130.6105957 63.703125 C131.06909912 64.13109375 131.52760254 64.5590625 132 65 C132 65.66 132 66.32 132 67 C132.66 67 133.32 67 134 67 C134.66 67.99 135.32 68.98 136 70 C137.66279327 71.0064275 139.32983484 72.00585407 141 73 C143.3125 75.0625 143.3125 75.0625 145 77 C145 77.66 145 78.32 145 79 C145.556875 79.226875 146.11375 79.45375 146.6875 79.6875 C149.67961603 81.38572802 151.61600535 83.50764196 154 86 C155.33062607 87.33603511 156.66415805 88.66918001 158 90 C159.33333333 91.33333333 160.66666667 92.66666667 162 94 C163.21816406 95.18529297 163.21816406 95.18529297 164.4609375 96.39453125 C167.88837428 99.91160868 170.8653947 103.72956772 173.9140625 107.57421875 C175.94813781 110.15985855 175.94813781 110.15985855 179 112 C179.97516576 113.66721889 180.94996904 115.33652045 181.83984375 117.05078125 C183.33599803 119.56452194 185.16497799 121.72204164 187 124 C188.51831989 126.13580562 190.01886756 128.27646205 191.5 130.4375 C191.87769531 130.98470703 192.25539063 131.53191406 192.64453125 132.09570312 C193.76809095 133.72698826 194.8840944 135.36346943 196 137 C196.7528125 138.06347656 197.505625 139.12695312 198.28125 140.22265625 C200 143 200 143 200 146 C200.66 146 201.32 146 202 146 C202.91145833 147.85546875 203.82291667 149.7109375 204.734375 151.56640625 C206.04620273 154.08884044 207.45791157 156.54428435 208.87597656 159.00805664 C211.00060237 162.77322214 212.99289754 166.60880001 215 170.4375 C215.42539062 171.24509766 215.85078125 172.05269531 216.2890625 172.88476562 C217.53321478 175.25285301 218.76861255 177.6252532 220 180 C220.37382813 180.71559082 220.74765625 181.43118164 221.1328125 182.16845703 C223.12284331 186.04441056 224.72752384 189.81737656 226 194 C226.31839844 194.95519531 226.63679687 195.91039062 226.96484375 196.89453125 C227.64101564 198.92304691 228.31676613 200.95170307 228.9921875 202.98046875 C229.59836246 204.79664411 230.20696212 206.61201656 230.8203125 208.42578125 C232.45251901 213.26226685 233.94317053 218.12459411 235.3515625 223.03125 C235.82945524 224.97959154 235.82945524 224.97959154 237 226 C237.34309051 227.30430031 237.63956853 228.62096562 237.9140625 229.94140625 C238.61081667 233.21331749 239.34860257 236.4666029 240.1484375 239.71484375 C242.97006169 251.54418033 244.87164322 263.37501931 246.3125 275.4375 C246.44298737 276.49491898 246.44298737 276.49491898 246.57611084 277.57369995 C247.68144971 286.64368548 248.13889355 295.45611123 247.86401367 304.59399414 C247.99812744 307.95309869 248.68669698 309.95969376 250 313 C249.84720262 315.79936335 249.58799217 318.42544398 249.1875 321.1875 C248.38557036 327.38371359 247.81423673 333.50777065 247.5625 339.75 C246.87548318 354.69882386 244.67834545 369.4998556 241 384 C240.69553522 385.33249703 240.39499796 386.66589541 240.09765625 388 C237.89065663 397.84696052 235.19505527 407.42985459 232 417 C231.73815918 417.79341797 231.47631836 418.58683594 231.20654297 419.40429688 C227.70208251 429.96478672 223.87549797 440.18733474 218.91796875 450.15380859 C217.95385034 452.09281483 217.00769725 454.03998871 216.0625 455.98828125 C208.37538804 471.72729804 199.34992436 486.28990457 189.50585938 500.76171875 C188.20388475 502.69694951 186.95113403 504.65494508 185.703125 506.625 C185.14109375 507.40875 184.5790625 508.1925 184 509 C183.34 509 182.68 509 182 509 C181.77699219 509.69480469 181.55398438 510.38960937 181.32421875 511.10546875 C179.68917763 514.67940818 177.3818385 517.38879972 174.8125 520.3125 C174.32072266 520.88210449 173.82894531 521.45170898 173.32226562 522.03857422 C171.88743976 523.69765039 170.44428867 525.34916307 169 527 C168.28199219 527.83144531 167.56398438 528.66289063 166.82421875 529.51953125 C162.4289333 534.59246242 162.4289333 534.59246242 160.35546875 536.5625 C158.80885617 537.98350605 158.80885617 537.98350605 158.3125 540.375 C156.8761818 543.24763639 156.24272526 543.64582571 153.5625 545.1875 C148.7394616 547.96466471 144.95128087 551.57447198 140.890625 555.3515625 C128.17699115 567 128.17699115 567 125 567 C124.70609375 567.84304688 124.70609375 567.84304688 124.40625 568.703125 C122.42719875 571.93557537 119.59409489 573.6895073 116.5 575.75 C115.90574219 576.16121094 115.31148437 576.57242188 114.69921875 576.99609375 C110.27818729 580 110.27818729 580 108 580 C108 580.66 108 581.32 108 582 C106.55947266 582.81210938 106.55947266 582.81210938 105.08984375 583.640625 C102.19810833 585.29221592 99.34440175 586.99620632 96.50390625 588.734375 C85.16112058 595.66709476 73.73968689 602.05402128 61.6171875 607.52734375 C58.69895129 608.78362952 58.69895129 608.78362952 58 612 C56.7934375 612.185625 56.7934375 612.185625 55.5625 612.375 C54.386875 612.58125 53.21125 612.7875 52 613 C51.34644531 613.11085938 50.69289063 613.22171875 50.01953125 613.3359375 C45.65619055 614.17840401 41.81196259 615.4446833 37.75 617.25 C29.57285573 620.79482341 21.00651202 622.96968627 12.4296875 625.31982422 C9.3088037 626.19349607 6.22086702 627.16693436 3.125 628.125 C-15.35205772 633.300287 -34.46860092 634.91204839 -53.50341797 636.69335938 C-54.35643494 636.77354813 -55.2094519 636.85373688 -56.08831787 636.93635559 C-57.69942673 637.0867 -59.31078642 637.2343889 -60.92242432 637.37895203 C-63.97888065 637.6617134 -66.9566543 637.99101457 -69.96435547 638.61450195 C-70.63611816 638.74171631 -71.30788086 638.86893066 -72 639 C-72.33 638.67 -72.66 638.34 -73 638 C-74.84368771 637.78265163 -76.69484916 637.62815996 -78.546875 637.5 C-80.28130859 637.37625 -80.28130859 637.37625 -82.05078125 637.25 C-83.88189453 637.12625 -83.88189453 637.12625 -85.75 637 C-88.11980446 636.83351538 -90.48959617 636.66684911 -92.859375 636.5 C-96.34616713 636.25465414 -99.83282669 636.01092612 -103.32080078 635.78295898 C-111.07524103 635.2449603 -118.69833266 634.27294755 -126.375 633.0625 C-127.49777344 632.89298828 -128.62054688 632.72347656 -129.77734375 632.54882812 C-135.32481095 631.68756256 -140.62826666 630.66754422 -146 629 C-148.5185114 628.36570824 -151.03948056 627.74111575 -153.5625 627.125 C-173.28424562 622.23249887 -173.28424562 622.23249887 -181.5 618.75 C-185.1456424 617.20992664 -187.98652281 616.57752872 -192 617 C-192.33 616.01 -192.66 615.02 -193 614 C-195.20458249 612.89125108 -195.20458249 612.89125108 -198 612 C-207.05153407 608.52989687 -215.55956755 604.8110465 -224 600 C-226.12324559 598.87169235 -228.24833164 597.746843 -230.375 596.625 C-241.14069825 590.82121718 -251.19887605 584.30112711 -261 577 C-262.91597141 575.62403137 -264.83263427 574.24902503 -266.75 572.875 C-270.39179899 570.22876363 -273.86585629 567.49975658 -277.23046875 564.51171875 C-280.13171052 562.03317445 -283.21274734 559.78721232 -286.27734375 557.515625 C-286.84582031 557.01546875 -287.41429687 556.5153125 -288 556 C-288 555.34 -288 554.68 -288 554 C-288.5775 553.7525 -289.155 553.505 -289.75 553.25 C-292.34375315 551.80902603 -293.96552222 550.15777947 -296 548 C-296.804375 547.21625 -297.60875 546.4325 -298.4375 545.625 C-301.12699591 542.86990663 -303.53592281 539.95689262 -306 537 C-306.78375 536.21625 -307.5675 535.4325 -308.375 534.625 C-311.16906598 531.83093402 -313.72699448 528.89488329 -316.30859375 525.90625 C-317.66355512 524.37918038 -319.10120666 522.92565204 -320.5625 521.5 C-323.1725515 518.8230241 -325.31666008 515.997042 -327.51953125 512.984375 C-328.85163795 511.19885996 -330.23728677 509.50223794 -331.6875 507.8125 C-333.77077913 505.27878215 -335.3227552 502.80519193 -337 500 C-338.09241662 498.44998514 -339.19700274 496.90848818 -340.3125 495.375 C-343.45427215 490.93135186 -346.10935278 486.35665216 -348.640625 481.54296875 C-350.01450747 478.97286103 -351.49585377 476.49593121 -353 474 C-354.49532756 471.40491328 -355.96715773 468.79680524 -357.4375 466.1875 C-357.81970703 465.51396484 -358.20191406 464.84042969 -358.59570312 464.14648438 C-360.54677369 460.68490757 -362.45376246 457.2022828 -364.28515625 453.67578125 C-364.61523682 453.04196533 -364.94531738 452.40814941 -365.28540039 451.75512695 C-366 450 -366 450 -366 447 C-366.66 447 -367.32 447 -368 447 C-368.18062988 446.4423999 -368.36125977 445.8847998 -368.54736328 445.31030273 C-373.07440609 431.37034095 -373.07440609 431.37034095 -378.3125 417.6875 C-380.32737181 412.7729185 -381.89469625 408.18642528 -383 403 C-383.45982054 401.1904566 -383.92381226 399.38197097 -384.390625 397.57421875 C-386.01846741 391.08985705 -387.32599156 384.56870731 -388.5625 378 C-388.77068359 376.91460937 -388.97886719 375.82921875 -389.19335938 374.7109375 C-389.8090219 371.47629678 -390.40752234 368.23896087 -391 365 C-391.18401367 364.02200439 -391.36802734 363.04400879 -391.55761719 362.03637695 C-392.97892273 354.1139881 -393.63678021 346.21700778 -394.125 338.1875 C-394.16669312 337.5149115 -394.20838623 336.842323 -394.25134277 336.14935303 C-395.28415554 319.2782519 -395.84075682 302.58491452 -393.50390625 285.8046875 C-392.90081573 281.25112033 -392.5929254 276.7098274 -392.34375 272.125 C-391.97772942 268.79754018 -391.29149359 265.65308796 -390.53515625 262.39648438 C-390.00599911 260.02686461 -389.5597495 257.65698489 -389.140625 255.265625 C-386.16776407 238.42220135 -382.31053889 221.05874786 -375.4375 205.3125 C-373.99005213 202.11194609 -373.99005213 202.11194609 -373.0546875 199.1484375 C-370.05100596 190.18189186 -365.96612711 181.57358541 -362 173 C-361.34 173 -360.68 173 -360 173 C-359.88785156 172.11441406 -359.77570313 171.22882813 -359.66015625 170.31640625 C-357.82908531 161.11771261 -351.00131034 152.54289415 -346.07080078 144.70458984 C-345.35245686 143.56107017 -344.63732153 142.41552907 -343.92529297 141.26806641 C-339.00828932 133.34733314 -333.75288117 125.85998428 -327.96875 118.546875 C-326.01201239 116.18501908 -326.01201239 116.18501908 -325 114 C-324.34 114 -323.68 114 -323 114 C-322.58814453 113.11054688 -322.58814453 113.11054688 -322.16796875 112.203125 C-321.04856139 110.09160075 -319.89116747 108.53194793 -318.3125 106.75 C-317.51392578 105.84314453 -317.51392578 105.84314453 -316.69921875 104.91796875 C-316.13847656 104.28503906 -315.57773437 103.65210938 -315 103 C-314.44957031 102.35675781 -313.89914062 101.71351563 -313.33203125 101.05078125 C-309.10789249 96.13067455 -304.62416238 91.54255951 -300 87 C-299.21238281 86.2059375 -298.42476563 85.411875 -297.61328125 84.59375 C-294.89737015 81.89813719 -292.12732264 79.27959452 -289.3125 76.6875 C-288.35988281 75.80449219 -287.40726562 74.92148438 -286.42578125 74.01171875 C-284 72 -284 72 -282 72 C-281.79375 71.443125 -281.5875 70.88625 -281.375 70.3125 C-279.42316968 67.02987629 -277.05769006 65.29326754 -274 63 C-273.34 63 -272.68 63 -272 63 C-272 62.34 -272 61.68 -272 61 C-271.05125 60.505 -270.1025 60.01 -269.125 59.5 C-265.9011688 57.66798347 -263.11202022 55.5420374 -260.25 53.1875 C-255.08869668 48.98084376 -249.68464818 45.45451697 -244 42 C-242.7968284 41.25788804 -241.59370586 40.51569655 -240.390625 39.7734375 C-233.76273362 35.71296937 -227.10438472 31.92331417 -220.1015625 28.53515625 C-217.13696875 27.06779435 -214.23451253 25.51918609 -211.32983398 23.93823242 C-203.10721275 19.46595623 -194.89474085 15.93951044 -186 13 C-184.14453125 12.38151042 -182.2890625 11.76302083 -180.43359375 11.14453125 C-179.14453125 10.71484375 -177.85546875 10.28515625 -176.56640625 9.85546875 C-175.93605469 9.64535156 -175.30570313 9.43523437 -174.65625 9.21875 C-173.4496875 8.8165625 -172.243125 8.414375 -171 8 C-169.97648438 7.65582031 -168.95296875 7.31164062 -167.8984375 6.95703125 C-143.87843026 -0.97410322 -118.24117369 -5.82388972 -92.94995117 -6.70996094 C-61.17581278 -7.83250165 -31.46903188 -6.44632365 0 0 Z M-188 24.1875 C-188.763125 24.53167969 -189.52625 24.87585938 -190.3125 25.23046875 C-190.869375 25.48441406 -191.42625 25.73835938 -192 26 C-190.22056374 30.73656704 -187.83130928 34.98686067 -185.33984375 39.37890625 C-184.18387024 41.64030048 -183.47217612 43.52253273 -183 46 C-182.34 46 -181.68 46 -181 46 C-181.33 48.64 -181.66 51.28 -182 54 C-184.74581506 53.38981888 -186.5172352 52.74418978 -188.08203125 50.33203125 C-189.09806161 48.23925159 -190.04698481 46.1220986 -191 44 C-192.28290341 41.63543293 -193.64671131 39.32596494 -195 37 C-195.75110779 35.68813365 -196.50113615 34.37564858 -197.25 33.0625 C-197.8275 32.051875 -198.405 31.04125 -199 30 C-204.14523724 30.64575852 -208.50326307 32.90908632 -213.125 35.125 C-213.97811768 35.53242432 -214.83123535 35.93984863 -215.71020508 36.35961914 C-221.10423137 38.97737627 -226.22696423 41.78188368 -231.20703125 45.1328125 C-233.36980616 46.57869559 -235.53962169 47.95518215 -237.76171875 49.3046875 C-246.63524471 54.69979981 -254.93021514 60.44412617 -263 67 C-263.68803711 67.55800293 -264.37607422 68.11600586 -265.08496094 68.69091797 C-278.65745444 79.18244819 -278.65745444 79.18244819 -291 91 C-291.07642709 93.11149645 -291.07642709 93.11149645 -290 95 C-288.0162233 96.28436734 -288.0162233 96.28436734 -286 97 C-286 97.99 -286 98.98 -286 100 C-282.96344042 103.05076843 -282.96344042 103.05076843 -279 104 C-279 104.99 -279 105.98 -279 107 C-278.38125 107.0825 -277.7625 107.165 -277.125 107.25 C-275 108 -275 108 -273.75 110.0625 C-273.5025 110.701875 -273.255 111.34125 -273 112 C-272.34 112 -271.68 112 -271 112 C-270.67 112.99 -270.34 113.98 -270 115 C-268.515 115.99 -268.515 115.99 -267 117 C-264 119 -264 119 -263 122 C-262.34 122.33 -261.68 122.66 -261 123 C-260.59270772 125.32156597 -260.25561323 127.6568787 -260 130 C-265.01276138 128.70231769 -268.11775108 126.49280219 -271.75 122.9375 C-272.80026994 121.94086715 -273.8510593 120.94478141 -274.90234375 119.94921875 C-275.4216748 119.45212402 -275.94100586 118.9550293 -276.47607422 118.44287109 C-278.70994473 116.32781587 -281.01126727 114.29124613 -283.3125 112.25 C-294.31908858 102.36182284 -294.31908858 102.36182284 -296 99 C-298.79828356 99.38597015 -299.8205884 99.80136573 -301.75 101.9375 C-303.17276724 103.88311217 -303.17276724 103.88311217 -303 106 C-304.485 106.495 -304.485 106.495 -306 107 C-306 107.66 -306 108.32 -306 109 C-306.86625 109.309375 -306.86625 109.309375 -307.75 109.625 C-310.80459709 111.49169822 -312.09416428 114.0141907 -314 117 C-314.99 117.495 -314.99 117.495 -316 118 C-316.433125 118.721875 -316.86625 119.44375 -317.3125 120.1875 C-318.6570276 122.42837933 -319.93448766 124.17141081 -321.625 126.125 C-324.13912472 128.8167087 -324.13912472 128.8167087 -325 132 C-326.66666667 133.66666667 -328.33333333 135.33333333 -330 137 C-331.03013277 138.64821244 -332.03114628 140.31503702 -333 142 C-333.680625 142.825 -334.36125 143.65 -335.0625 144.5 C-336.98254833 146.97748172 -337.88461458 149.09999791 -339 152 C-339.53625 152.70125 -340.0725 153.4025 -340.625 154.125 C-342.29568183 156.0156801 -342.29568183 156.0156801 -342 159 C-342.99 159.33 -343.98 159.66 -345 160 C-345.71247437 161.86600431 -346.41395753 163.73706669 -347.0546875 165.62890625 C-348.1018609 168.25549407 -349.43311458 170.4823468 -350.9375 172.875 C-353.5688987 177.09307334 -355.45570365 181.29826626 -357.140625 185.96875 C-358 188 -358 188 -360 190 C-360.40047444 192.32275177 -360.7397104 194.65739357 -361 197 C-360.27554688 197.18175781 -359.55109375 197.36351562 -358.8046875 197.55078125 C-353.5196114 198.92490104 -348.83564367 200.41349292 -344 203 C-342.39125 203.433125 -342.39125 203.433125 -340.75 203.875 C-338 205 -338 205 -336.828125 207.5703125 C-336.55484375 208.37210938 -336.2815625 209.17390625 -336 210 C-346.43517317 209.44371319 -346.43517317 209.44371319 -351.375 207.4375 C-354.64655475 206.14015932 -356.55729644 205.67724654 -360 206 C-360 205.34 -360 204.68 -360 204 C-361.65 204 -363.3 204 -365 204 C-365.28875 204.86625 -365.5775 205.7325 -365.875 206.625 C-366.59382548 208.78147644 -367.34118655 210.92878559 -368.125 213.0625 C-368.96844334 215.89405977 -369.17237553 218.06961603 -369 221 C-369.66 221 -370.32 221 -371 221 C-372.14051606 225.98283716 -373.22225866 230.94468132 -374 236 C-374.66 236 -375.32 236 -376 236 C-376.12117188 236.90621094 -376.24234375 237.81242188 -376.3671875 238.74609375 C-377.19401482 244.75649237 -378.07997018 250.66774982 -379.49609375 256.56640625 C-380.41916638 261.02434614 -380.94618211 265.54637036 -381.53515625 270.05859375 C-382 273 -382 273 -383 275 C-383.13953781 276.42594692 -383.22539738 277.85739358 -383.28125 279.2890625 C-383.31863281 280.14886719 -383.35601562 281.00867188 -383.39453125 281.89453125 C-383.44673828 283.24611328 -383.44673828 283.24611328 -383.5 284.625 C-383.89388408 294.55963182 -383.89388408 294.55963182 -384.53125 299.0234375 C-385.17822675 303.67567961 -385.0864487 308.31255932 -385 313 C-383.27499268 312.98428955 -383.27499268 312.98428955 -381.51513672 312.96826172 C-377.23245377 312.93195387 -372.94978433 312.90906033 -368.66699219 312.89013672 C-366.81638294 312.88010369 -364.96578945 312.86647414 -363.11523438 312.84912109 C-360.4491791 312.82475392 -357.78333416 312.81348977 -355.1171875 312.8046875 C-354.29507782 312.79436493 -353.47296814 312.78404236 -352.62594604 312.77340698 C-348.08697387 312.77252832 -344.15328721 312.93759391 -340 315 C-339.125 317.125 -339.125 317.125 -339 319 C-353.98735179 320.72480138 -368.92313102 321.54210991 -384 322 C-384.02897435 326.27081914 -384.04678996 330.54161309 -384.0625 334.8125 C-384.07087891 336.02744141 -384.07925781 337.24238281 -384.08789062 338.49414062 C-384.09111328 339.65751953 -384.09433594 340.82089844 -384.09765625 342.01953125 C-384.10289307 343.09307861 -384.10812988 344.16662598 -384.11352539 345.27270508 C-384.12194588 348.09499365 -384.12194588 348.09499365 -383 351 C-382.81328192 352.32403219 -382.6614399 353.65321862 -382.53515625 354.984375 C-382.45716797 355.75523437 -382.37917969 356.52609375 -382.29882812 357.3203125 C-382.14281803 358.92425096 -381.98912466 360.52841666 -381.83789062 362.1328125 C-381.34369859 366.97026945 -380.39350304 371.32402313 -379 376 C-378.11341792 380.13057568 -377.3560971 384.28740084 -376.58789062 388.44140625 C-375.64471195 393.34894148 -374.43596941 397.99700836 -372.78735352 402.71386719 C-371.36982058 406.82976747 -370.17279774 411.01402604 -368.9375 415.1875 C-367.36656541 420.48594186 -365.78903172 425.76986421 -364 431 C-363.34 431 -362.68 431 -362 431 C-361.505 432.98 -361.505 432.98 -361 435 C-356.97609769 433.51436631 -353.40441257 431.56971691 -349.6875 429.4375 C-344.58899129 426.64490773 -340.79385719 425.11360504 -335 425 C-335 426.98 -335 428.96 -335 431 C-336.29744141 431.38671875 -336.29744141 431.38671875 -337.62109375 431.78125 C-341.08010553 433.02889356 -343.92639851 434.59001303 -347.0625 436.5 C-350.64272483 438.67485987 -354.06352172 440.55542082 -358 442 C-356.59370682 445.75011515 -354.88096962 449.26595632 -353.06640625 452.828125 C-351.98784953 455.02474602 -351.02120032 457.24880087 -350.0625 459.5 C-348.39891462 463.32228546 -346.38590905 466.72731078 -344.05078125 470.17578125 C-342.93857351 472.10664004 -342.43702443 473.82448277 -342 476 C-341.34 476 -340.68 476 -340 476 C-339.74992187 476.87785156 -339.49984375 477.75570313 -339.2421875 478.66015625 C-337.94596971 482.14527012 -336.38414988 484.50060516 -334.125 487.4375 C-331.76576403 490.56892713 -329.54476203 493.60813716 -327.6875 497.0625 C-326.17045496 500.20787191 -326.17045496 500.20787191 -323 502 C-322.505 503.485 -322.505 503.485 -322 505 C-321.236875 505.763125 -320.47375 506.52625 -319.6875 507.3125 C-316.96800319 510.03199681 -315.08089467 512.77796954 -313 516 C-309.6557601 520.42302696 -305.84674463 524.20757139 -301.875 528.0625 C-300.05864422 529.93940098 -298.51657764 531.8767913 -297 534 C-295.01508358 533.73323796 -295.01508358 533.73323796 -293 533 C-292.67 532.01 -292.34 531.02 -292 530 C-291.01 530 -290.02 530 -289 530 C-285.94923157 526.96344042 -285.94923157 526.96344042 -285 523 C-284.01 522.67 -283.02 522.34 -282 522 C-280.75547209 520.55896768 -279.51580623 519.11243565 -278.33203125 517.62109375 C-276.38601039 515.25276924 -274.16600759 513.16600759 -272 511 C-271.34 510.01 -270.68 509.02 -270 508 C-269.01 507.67 -268.02 507.34 -267 507 C-266.67 506.34 -266.34 505.68 -266 505 C-263.67843403 504.59270772 -261.3431213 504.25561323 -259 504 C-260.29763237 509.01256847 -262.50694369 512.1181104 -266.0625 515.75 C-267.06052612 516.80018262 -268.05791274 517.85097333 -269.0546875 518.90234375 C-269.55194336 519.4216748 -270.04919922 519.94100586 -270.56152344 520.47607422 C-272.66317316 522.70256736 -274.66977522 525.01004402 -276.6875 527.3125 C-280.50423143 531.57704288 -284.58354256 535.36574892 -289 539 C-287.39756933 543.2063805 -284.26602216 545.81520178 -281 548.75 C-280.4534375 549.25660156 -279.906875 549.76320313 -279.34375 550.28515625 C-276.60592792 553.09777088 -276.60592792 553.09777088 -273 554 C-272.773125 554.598125 -272.54625 555.19625 -272.3125 555.8125 C-270.66064339 558.56559434 -268.76147267 559.44224619 -266 561 C-265.67 561.66 -265.34 562.32 -265 563 C-263.35178756 564.03013277 -261.67888441 565.02065076 -260 566 C-256.98109048 567.97165215 -253.99332561 569.98977643 -251 572 C-248.75359714 573.49889294 -246.50601574 574.99599649 -244.2578125 576.4921875 C-242.72856719 577.51344821 -241.20261044 578.53964748 -239.6796875 579.5703125 C-238.53886719 580.33988281 -238.53886719 580.33988281 -237.375 581.125 C-236.36566406 581.80949219 -236.36566406 581.80949219 -235.3359375 582.5078125 C-221.65928407 591.24440382 -207.04336888 598.01620643 -192 604 C-190.49833566 602.49833566 -190.48088429 600.87675968 -190.0625 598.8125 C-189.26478987 595.09962858 -188.31894746 591.56891666 -187 588 C-186.78472656 587.37738281 -186.56945312 586.75476563 -186.34765625 586.11328125 C-185.625 584.1875 -185.625 584.1875 -184 581 C-181.8984375 580.30078125 -181.8984375 580.30078125 -180 580 C-179.94583812 581.60379341 -179.90713362 583.20811406 -179.875 584.8125 C-179.85179687 585.70582031 -179.82859375 586.59914063 -179.8046875 587.51953125 C-180 590 -180 590 -182 593 C-182.63560389 595.36978147 -182.63560389 595.36978147 -183.0625 597.9375 C-183.61962069 600.99015305 -184.21285056 603.99768665 -185 607 C-181.96474514 609.02350324 -180.80573798 609.32124018 -177.3125 609.625 C-176.50425781 609.69976563 -175.69601562 609.77453125 -174.86328125 609.8515625 C-174.24839844 609.90054688 -173.63351562 609.94953125 -173 610 C-173 610.66 -173 611.32 -173 612 C-169.64808052 612.98697159 -166.29310737 613.96314756 -162.9375 614.9375 C-161.99455078 615.21529297 -161.05160156 615.49308594 -160.08007812 615.77929688 C-155.0427281 617.23609148 -150.20161165 618.27917741 -145 619 C-143.82957153 619.47747681 -143.82957153 619.47747681 -142.63549805 619.96459961 C-138.01842286 621.7784964 -133.13593809 622.26312084 -128.25 623 C-127.10635986 623.17370117 -125.96271973 623.34740234 -124.78442383 623.52636719 C-116.77040905 624.69751528 -108.75986877 625.59728779 -100.6875 626.25 C-99.70620117 626.32992187 -98.72490234 626.40984375 -97.71386719 626.4921875 C-90.42384624 627.02434178 -83.35572883 627 -76 627 C-75.67 613.14 -75.34 599.28 -75 585 C-71 583 -71 583 -69 583 C-68.34 597.52 -67.68 612.04 -67 627 C-46.92403895 626.33458043 -46.92403895 626.33458043 -27 624 C-25.6394751 623.7848877 -25.6394751 623.7848877 -24.25146484 623.56542969 C-21.20706111 623.07717157 -18.16568962 622.57335911 -15.125 622.0625 C-14.17359131 621.90483154 -13.22218262 621.74716309 -12.24194336 621.5847168 C-5.11443616 620.34339189 1.83310346 618.69999154 8.546875 615.9609375 C12.34529135 614.47302282 16.29585987 613.60863225 20.25 612.625 C26.80592709 610.94800341 32.98642399 609.16931709 39 606 C40.175625 605.4225 41.35125 604.845 42.5625 604.25 C43.366875 603.8375 44.17125 603.425 45 603 C44.525625 602.113125 44.05125 601.22625 43.5625 600.3125 C42 597 42 597 41.5 594.3125 C41.22294446 591.94447411 41.22294446 591.94447411 39.54296875 590.6796875 C37.52393062 588.48174725 37.30525773 586.73114192 36.8125 583.8125 C36.65394531 582.91144531 36.49539063 582.01039063 36.33203125 581.08203125 C36.16767578 580.05142578 36.16767578 580.05142578 36 579 C38.95342003 579.58224566 41.26588023 580.08796554 43.21289062 582.50683594 C44.3187599 584.42825816 45.30131426 586.37137572 46.25 588.375 C46.58773438 589.04789063 46.92546875 589.72078125 47.2734375 590.4140625 C48.2000423 592.26727211 49.1010334 594.13322702 50 596 C50.66498263 597.33417402 51.3306025 598.66803558 52 600 C52.99 600 53.98 600 55 600 C55 599.34 55 598.68 55 598 C55.88751953 597.72736328 55.88751953 597.72736328 56.79296875 597.44921875 C61.2422922 596.03385485 65.0453825 594.52656118 69 592 C70.6635479 591.32558869 72.33066942 590.6599679 74 590 C75.3407469 589.39106607 76.67359068 588.76456322 78 588.125 C78.639375 587.81820312 79.27875 587.51140625 79.9375 587.1953125 C82.1318229 585.99299237 82.1318229 585.99299237 84.38671875 584.08203125 C87.08343548 581.93352599 89.81583763 580.26309608 92.8125 578.5625 C93.86179687 577.95792969 94.91109375 577.35335937 95.9921875 576.73046875 C96.98476563 576.15941406 97.97734375 575.58835937 99 575 C102.77246671 572.80454806 106.21438482 570.78561518 109.3125 567.6875 C112.62174951 564.37825049 116.28175007 561.83533733 120.08203125 559.1171875 C126.46438913 554.48634684 132.49910993 549.65805836 138 544 C138.9075 543.29875 139.815 542.5975 140.75 541.875 C143.25052455 540.12568403 143.25052455 540.12568403 144 537 C142.94567143 535.12297549 142.94567143 535.12297549 141.3125 533.375 C140.79300781 532.76398437 140.27351562 532.15296875 139.73828125 531.5234375 C138.09755241 529.84885198 138.09755241 529.84885198 135.85546875 529.4765625 C135.24316406 529.31929687 134.63085938 529.16203125 134 529 C133.67 528.01 133.34 527.02 133 526 C131.55896768 524.75547209 130.11243565 523.51580623 128.62109375 522.33203125 C126.25276924 520.38601039 124.16600759 518.16600759 122 516 C121.01 515.34 120.02 514.68 119 514 C118.67 513.01 118.34 512.02 118 511 C117.34 510.67 116.68 510.34 116 510 C115.59270772 507.67843403 115.25561323 505.3431213 115 503 C120.01276746 504.29768388 123.11773343 506.50719337 126.75 510.0625 C127.79897232 511.0578261 128.8484597 512.05260965 129.8984375 513.046875 C130.41760742 513.54380859 130.93677734 514.04074219 131.47167969 514.55273438 C133.72820771 516.68958711 136.05162458 518.74883724 138.375 520.8125 C141.18761086 523.31410101 143.82828692 525.85544952 146.375 528.625 C147.24125 529.40875 148.1075 530.1925 149 531 C152.11515201 530.67835907 152.84141088 530.18416801 154.9375 527.75 C155.618125 526.8425 156.29875 525.935 157 525 C157.825 524.195625 158.65 523.39125 159.5 522.5625 C162.05497696 520.1052779 162.05497696 520.1052779 163.8125 517.25 C166.3286416 513.51173248 169.22752105 510.34372043 172.29296875 507.05078125 C174.19654895 505.01681254 174.19654895 505.01681254 175 502 C175.66 501.67 176.32 501.34 177 501 C178.00872408 499.24286772 179.01478949 497.48392514 179.98828125 495.70703125 C181.10246479 493.8271154 182.42554089 492.50289279 184 491 C184.33 490.34 184.66 489.68 185 489 C186 487 186 487 187.5 485.6875 C189.76352255 483.14103713 190.2014695 480.25554744 191 477 C191.66 477 192.32 477 193 477 C199.16010423 466.56952072 199.16010423 466.56952072 204.2109375 455.57421875 C205 454 205 454 207 453 C210.00134175 447.64213601 211.6983595 441.9658523 213 436 C206.46495702 432.67600283 200.24638702 431.0293933 193 430 C192.61781233 428.34385343 192.28604898 426.67542976 192 425 C193.87643761 423.12356239 196.49805701 423.82015013 198.9921875 423.76953125 C201 424 201 424 204 426 C206.04869074 426.44429438 208.11454293 426.81294195 210.1875 427.125 C211.27417969 427.29257812 212.36085938 427.46015625 213.48046875 427.6328125 C214.31191406 427.75398438 215.14335938 427.87515625 216 428 C219.10792914 423.69518751 220.98132295 419.79350321 222.625 414.6875 C222.83882324 414.02596924 223.05264648 413.36443848 223.27294922 412.68286133 C224.59166434 408.52794279 225.68634223 404.38492714 226.5390625 400.11328125 C227.24629769 396.87078771 228.23728736 393.72310493 229.21875 390.5546875 C229.4765625 389.71164062 229.734375 388.86859375 230 388 C230.31839844 386.98164063 230.63679687 385.96328125 230.96484375 384.9140625 C232.39725735 379.85632047 233.2049083 374.68011411 234.0625 369.5 C234.23950439 368.44079346 234.41650879 367.38158691 234.59887695 366.2902832 C235.76104969 359.09663652 236.53638666 352.00850867 236.82421875 344.73046875 C237 342 237 342 238 339 C238 332.73 238 326.46 238 320 C224.14 319.67 210.28 319.34 196 319 C194 315 194 315 194 313 C208.85 312.34 223.7 311.68 239 311 C238.65599642 292.42380664 237.63644213 275.20310975 234 257 C233.71185913 255.47687984 233.42527898 253.95346317 233.140625 252.4296875 C232.01657151 246.52666986 230.66723157 240.77598951 229 235 C228.28989607 232.25553524 227.61295211 229.50317362 226.9375 226.75 C225.6143354 221.33460046 225.6143354 221.33460046 224 216 C223.34 216 222.68 216 222 216 C222.0515625 215.14148438 222.103125 214.28296875 222.15625 213.3984375 C221.98149863 209.59759525 221.03929696 207.08841816 219.5 203.625 C219.0359375 202.56539062 218.571875 201.50578125 218.09375 200.4140625 C217.7328125 199.61742187 217.371875 198.82078125 217 198 C213.24557342 198.61653503 213.24557342 198.61653503 210 200.5 C207.67385313 202.24461015 205.84968477 202.60421045 203 203 C203 203.66 203 204.32 203 205 C202.195625 205.144375 201.39125 205.28875 200.5625 205.4375 C198.07896294 205.74135249 198.07896294 205.74135249 197 207 C195.00041636 207.04080783 192.99954746 207.04254356 191 207 C191 204.75 191 204.75 192 202 C194.49944762 200.29393313 197.22178579 199.17971964 200 198 C203.78032236 196.1469008 207.40789057 194.19517799 211 192 C211.66 191.67 212.32 191.34 213 191 C211.10938559 182.40075382 206.84243004 174.36782689 202.52734375 166.765625 C201.32744705 164.59292203 200.22603433 162.42245038 199.14453125 160.19140625 C196.97462913 155.82077224 194.42553878 151.7633514 191.75 147.6875 C191.26474854 146.9440332 190.77949707 146.20056641 190.27954102 145.43457031 C184.36051973 136.4246023 177.9343315 127.83468083 171.32397461 119.32519531 C169.46212178 116.92601927 167.68575043 114.52862564 166 112 C165.34 112 164.68 112 164 112 C163.74992188 111.43667969 163.49984375 110.87335938 163.2421875 110.29296875 C161.80730173 107.64429596 160.10935844 105.57766388 158.125 103.3125 C157.44695313 102.52488281 156.76890625 101.73726563 156.0703125 100.92578125 C153.93563497 98.94012837 152.89661195 98.14658967 150 98 C145.9736023 100.85203171 142.85248 103.94070153 140 108 C140 108.66 140 109.32 140 110 C139.01 110 138.02 110 137 110 C133.34079297 113.45967217 133.34079297 113.45967217 132 118 C130.515 118.495 130.515 118.495 129 119 C128.34 119.99 127.68 120.98 127 122 C125 125 125 125 122 126 C121.67 126.66 121.34 127.32 121 128 C118.67843403 128.40729228 116.3431213 128.74438677 114 129 C115.29768231 123.98723862 117.50719781 120.88224892 121.0625 117.25 C122.05913285 116.19973006 123.05521859 115.1489407 124.05078125 114.09765625 C124.54787598 113.5783252 125.0449707 113.05899414 125.55712891 112.52392578 C127.67218413 110.29005527 129.70875387 107.98873273 131.75 105.6875 C135.37101675 101.6511695 139.12166811 97.78790446 143 94 C144.00115274 93.00115407 145.00149588 92.00149365 146 91 C144.04709472 89.16056628 142.08818082 87.32840869 140.125 85.5 C139.56941406 84.97535156 139.01382813 84.45070313 138.44140625 83.91015625 C135.67791419 80.97144646 135.67791419 80.97144646 132 80 C132 79.34 132 78.68 132 78 C129.86957836 76.16879488 127.73232306 74.44889363 125.5 72.75 C124.85506592 72.25201904 124.21013184 71.75403809 123.5456543 71.2409668 C121.7021397 69.82057673 119.85238669 68.40879022 118 67 C117.23300781 66.41347656 116.46601562 65.82695312 115.67578125 65.22265625 C113.7950883 63.79932259 111.89831283 62.39972872 110 61 C109.06929687 60.29488281 108.13859375 59.58976562 107.1796875 58.86328125 C105.69855469 57.75533203 105.69855469 57.75533203 104.1875 56.625 C103.27355469 55.93664062 102.35960937 55.24828125 101.41796875 54.5390625 C99.05590266 52.73151816 99.05590266 52.73151816 96 53 C96 52.34 96 51.68 96 51 C78.48445663 40.80954729 78.48445663 40.80954729 60.265625 31.9921875 C57.95545608 30.98049283 55.73561897 29.85356025 53.5 28.6875 C50.1972107 26.78285041 50.1972107 26.78285041 47 27 C46.80664062 27.79664063 46.61328125 28.59328125 46.4140625 29.4140625 C43.77865613 40.13833992 43.77865613 40.13833992 42 45 C41.67 45.9075 41.34 46.815 41 47.75 C40 50 40 50 38 52 C35.875 52.625 35.875 52.625 34 53 C34.34589712 46.6187946 35.04473808 40.94768003 37.37890625 34.97265625 C38.2002118 32.70879424 38.2002118 32.70879424 38 29 C38.66 29 39.32 29 40 29 C40 27.35 40 25.7 40 24 C31.90052234 19.96742108 23.67111536 17.13985159 15.02099609 14.59521484 C13.05905189 14.0173917 11.10170786 13.42577016 9.14453125 12.83203125 C3.05048664 11.0227597 -2.68937901 9.66427589 -9 9 C-10.46566406 8.54173828 -10.46566406 8.54173828 -11.9609375 8.07421875 C-17.25220762 6.51214775 -22.72269548 6.06082411 -28.1875 5.4375 C-30.32708211 5.18841432 -32.46641769 4.93719943 -34.60546875 4.68359375 C-35.54543701 4.57587646 -36.48540527 4.46815918 -37.45385742 4.35717773 C-40 4 -40 4 -41.97094727 3.46337891 C-44.63540435 2.85489141 -47.1274923 2.88840557 -49.859375 2.90234375 C-50.97441406 2.90556641 -52.08945312 2.90878906 -53.23828125 2.91210938 C-54.97658203 2.92467773 -54.97658203 2.92467773 -56.75 2.9375 C-57.92433594 2.94201172 -59.09867187 2.94652344 -60.30859375 2.95117188 C-63.20578072 2.96294906 -66.10286454 2.97939674 -69 3 C-68.98952637 4.18029785 -68.97905273 5.3605957 -68.96826172 6.57666016 C-68.93196038 10.97116035 -68.90906267 15.36564737 -68.89013672 19.76025391 C-68.88010221 21.65936515 -68.86647157 23.55846104 -68.84912109 25.45751953 C-68.82476049 28.19307251 -68.81349123 30.92842053 -68.8046875 33.6640625 C-68.79436493 34.50804596 -68.78404236 35.35202942 -68.77340698 36.22158813 C-68.77254124 40.80858924 -68.9060137 44.80624519 -71 49 C-73.125 49.875 -73.125 49.875 -75 50 C-76.86777079 34.29071354 -77.24438813 18.81191207 -77 3 C-114.2120215 2.17306619 -153.90533297 8.738354 -188 24.1875 Z " fill="#2A95BF" transform="translate(492,103)"/>
<path d="M0 0 C1.32 0.33 2.64 0.66 4 1 C0.04 4.96 -3.92 8.92 -8 13 C-8.99 12.67 -9.98 12.34 -11 12 C-10.28972656 11.30132812 -9.57945312 10.60265625 -8.84765625 9.8828125 C-7.92855469 8.97273437 -7.00945312 8.06265625 -6.0625 7.125 C-4.68771484 5.76761719 -4.68771484 5.76761719 -3.28515625 4.3828125 C-0.98812373 2.22317745 -0.98812373 2.22317745 0 0 Z " fill="#247D9E" transform="translate(193,188)"/>
<path d="M0 0 C0.66 0.99 1.32 1.98 2 3 C0.06273348 7.58826282 -1.48864333 9.80528594 -6 12 C-4.68139111 7.38486888 -2.78644563 3.90102388 0 0 Z " fill="#257EA2" transform="translate(142,254)"/>
<path d="M0 0 C1.22589844 0.29197266 1.22589844 0.29197266 2.4765625 0.58984375 C3.41628906 0.82380859 3.41628906 0.82380859 4.375 1.0625 C4.375 1.7225 4.375 2.3825 4.375 3.0625 C2.91577307 2.94840407 1.45759402 2.82084456 0 2.6875 C-1.21816406 2.58308594 -1.21816406 2.58308594 -2.4609375 2.4765625 C-4.625 2.0625 -4.625 2.0625 -6.625 0.0625 C-3.99249612 -1.25375194 -2.82320944 -0.68563658 0 0 Z " fill="#237D9C" transform="translate(319.625,721.9375)"/>
<path d="M0 0 C2.21399303 3.79541663 3.00980198 7.75629421 4 12 C3.34 12 2.68 12 2 12 C0.00214565 7.8794254 -0.17835515 4.54805635 0 0 Z " fill="#288EB2" transform="translate(111,507)"/>
<path d="M0 0 C0.33 0.99 0.66 1.98 1 3 C-0.21484375 4.82421875 -0.21484375 4.82421875 -1.9375 6.6875 C-2.50339844 7.31011719 -3.06929687 7.93273437 -3.65234375 8.57421875 C-4.09707031 9.04472656 -4.54179687 9.51523438 -5 10 C-5.66 9.67 -6.32 9.34 -7 9 C-4.69 6.03 -2.38 3.06 0 0 Z " fill="#207794" transform="translate(162,224)"/>
</svg>
