<?xml version="1.0" encoding="UTF-8"?>
<svg version="1.1" xmlns="http://www.w3.org/2000/svg" width="839" height="839">
<path d="M0 0 C1.05525879 0.08910645 2.11051758 0.17821289 3.19775391 0.27001953 C28.71040738 2.52517909 54.48409509 7.29567845 77.91967773 18.04589844 C79.7898314 18.90361004 81.68287166 19.7109949 83.578125 20.51171875 C87.36853331 22.16028675 91.05924108 23.95408058 94.75 25.8125 C95.79607422 26.33807495 95.79607422 26.33807495 96.86328125 26.87426758 C110.76108474 33.89195449 123.42512612 41.86308425 136 51 C136.79921875 51.55429688 137.5984375 52.10859375 138.421875 52.6796875 C138.94265625 53.11539063 139.4634375 53.55109375 140 54 C140 54.66 140 55.32 140 56 C141.32 56.66 142.64 57.32 144 58 C144 58.66 144 59.32 144 60 C144.721875 60.226875 145.44375 60.45375 146.1875 60.6875 C149.56582327 62.26405086 151.43796738 64.30986575 154 67 C154.804375 67.61875 155.60875 68.2375 156.4375 68.875 C159.16628071 71.13789132 161.28123572 73.57498286 163.54296875 76.2890625 C165.08854912 78.15013236 165.08854912 78.15013236 167.3125 80.3125 C175.05273391 88.05273391 181.59825504 96.31230482 187.80615234 105.29125977 C189.05449896 107.07800373 190.33506421 108.83894164 191.6171875 110.6015625 C193.59537819 113.36573074 195.29504252 116.17249239 196.875 119.1875 C198.9097191 123.01877769 201.04945442 126.73718529 203.3125 130.4375 C206.4996482 135.86062076 209.16193978 141.45623037 211.75 147.1875 C212.12680908 148.01886475 212.50361816 148.85022949 212.8918457 149.70678711 C215.26459677 155.05197225 217.23027333 160.42966445 219 166 C219.56023339 167.68651862 220.12147105 169.3727039 220.68359375 171.05859375 C234.99662332 214.6431404 238.02902733 262.22833102 227 307 C226.76095947 308.01102783 226.52191895 309.02205566 226.27563477 310.0637207 C224.56132315 317.18510934 222.4555675 324.12028832 220.125 331.0625 C219.79886719 332.06087891 219.47273438 333.05925781 219.13671875 334.08789062 C216.84736231 340.95150595 214.08711656 347.46106279 211 354 C210.3570607 355.42083003 209.71624885 356.84262575 209.078125 358.265625 C202.22600566 373.30067779 193.75136011 386.69681999 184 400 C183.55849609 400.64710938 183.11699219 401.29421875 182.66210938 401.9609375 C181.4878089 403.67338739 180.248524 405.34088757 179 407 C178.34 407 177.68 407 177 407 C176.70802734 408.01320313 176.70802734 408.01320313 176.41015625 409.046875 C174.44980261 413.15221393 171.57641645 415.99735171 168.4375 419.25 C167.80416748 419.91531738 167.17083496 420.58063477 166.51831055 421.26611328 C164.68629183 423.18470428 162.8441189 425.09304911 161 427 C159.74316406 428.31871094 159.74316406 428.31871094 158.4609375 429.6640625 C145.13421231 443.37847424 145.13421231 443.37847424 137 447 C137 447.66 137 448.32 137 449 C134.96633799 450.54236738 132.93877684 451.97124441 130.8125 453.375 C129.65113083 454.15183557 128.49095784 454.93046264 127.33203125 455.7109375 C126.75662598 456.09733398 126.1812207 456.48373047 125.58837891 456.88183594 C123.84468039 458.07214122 123.84468039 458.07214122 121.76171875 459.9140625 C117.47829682 463.14934865 112.73506908 465.49167188 108 468 C106.23391161 468.96399529 104.46827747 469.9288233 102.703125 470.89453125 C57.71133052 495.14740732 4.1532284 507.11926375 -47 500 C-47.66 499.67 -48.32 499.34 -49 499 C-50.65414366 498.82271223 -52.31287585 498.68714006 -53.97265625 498.57421875 C-59.59798229 498.10094071 -64.94851547 497.10491321 -70.4375 495.8125 C-71.38197998 495.59255371 -72.32645996 495.37260742 -73.29956055 495.14599609 C-93.53030303 490.33003654 -112.57438068 483.69015731 -131 474 C-132.19253024 473.38767387 -133.38524808 472.77571299 -134.578125 472.1640625 C-146.18626371 466.15611722 -157.25519755 459.53182993 -167.3515625 451.1796875 C-169.4095103 449.48597825 -171.48274272 447.83137549 -173.5859375 446.1953125 C-174.21242188 445.70788574 -174.83890625 445.22045898 -175.484375 444.71826172 C-176.71493903 443.76260417 -177.94665197 442.8084236 -179.1796875 441.85595703 C-182.31693034 439.40944237 -185.36237833 436.98843835 -188 434 C-188 433.34 -188 432.68 -188 432 C-188.86625 431.62875 -188.86625 431.62875 -189.75 431.25 C-192.32939979 429.81700012 -194.06121592 428.21575324 -196 426 C-196 425.34 -196 424.68 -196 424 C-196.61875 423.7525 -197.2375 423.505 -197.875 423.25 C-200.38710296 421.77229238 -200.76107344 420.56044823 -202 418 C-202.99 417.67 -203.98 417.34 -205 417 C-206.2890625 415.5390625 -206.2890625 415.5390625 -207.625 413.625 C-210.90169558 409.05248274 -214.49538875 404.79435155 -218.14453125 400.515625 C-219.85104792 398.20194766 -220.60061131 396.80226817 -221 394 C-221.66 394 -222.32 394 -223 394 C-224.42578125 391.83984375 -224.42578125 391.83984375 -226 389 C-226.50917969 388.13503906 -227.01835937 387.27007813 -227.54296875 386.37890625 C-228.71219926 384.37649486 -229.87856666 382.37241047 -231.04296875 380.3671875 C-232.35029434 378.11785684 -233.66544559 375.87305678 -234.98828125 373.6328125 C-241.51744507 362.45082709 -247.22576865 351.1524372 -251.10546875 338.75390625 C-251.95331876 336.143713 -252.93530668 333.6531328 -254 331.125 C-267.44238793 297.7020977 -269.95424348 257.58859375 -265.26464844 222.07714844 C-265.02458645 220.1929719 -264.82629358 218.3035905 -264.6328125 216.4140625 C-263.7308253 208.22254611 -262.02874233 200.32437719 -260.125 192.3125 C-259.75810059 190.76260376 -259.75810059 190.76260376 -259.38378906 189.18139648 C-257.00730659 179.47227582 -254.0539374 170.01839143 -250 160.875 C-248.31706786 157.04674596 -246.69632804 153.2353237 -245.25 149.3125 C-240.38595896 136.94629396 -233.45306973 124.43482843 -226 113.4375 C-224.34611334 110.99369733 -222.71290423 108.55021663 -221.125 106.0625 C-218.52542218 102.31604962 -215.68277745 98.80469457 -212.8046875 95.26953125 C-210.89405672 92.93175446 -210.89405672 92.93175446 -209 90 C-208.34 90 -207.68 90 -207 90 C-206.731875 89.4225 -206.46375 88.845 -206.1875 88.25 C-204.97070811 85.94449957 -203.69666121 83.97943808 -202 82 C-201.34 82 -200.68 82 -200 82 C-199.61328125 81.12601563 -199.61328125 81.12601563 -199.21875 80.234375 C-197.90165983 77.8197097 -196.44911616 76.18259823 -194.5 74.25 C-193.8915625 73.63640625 -193.283125 73.0228125 -192.65625 72.390625 C-191 71 -191 71 -189 71 C-188.61328125 70.11054688 -188.61328125 70.11054688 -188.21875 69.203125 C-186.04953712 65.28185557 -182.42127599 62.81650499 -179 60 C-178.25492187 59.37996094 -177.50984375 58.75992188 -176.7421875 58.12109375 C-138.75948851 27.0956218 -93.22333548 6.24199297 -44.18261719 1.23095703 C-41.80845529 0.9797314 -39.44018436 0.69114042 -37.0703125 0.40234375 C-24.55853436 -1.04923408 -12.54012835 -1.08137264 0 0 Z " fill="#78CAEB" transform="translate(436,169)"/>
<path d="M0 0 C2.28934387 0.91545988 3.4963346 1.92928454 5.2199707 3.68383789 C5.80286865 4.27116699 6.3857666 4.85849609 6.98632812 5.46362305 C7.59323486 6.09187988 8.2001416 6.72013672 8.82543945 7.36743164 C9.45490479 8.0085791 10.08437012 8.64972656 10.73291016 9.31030273 C14.36305484 13.03041208 17.90259618 16.80315965 21.2590332 20.77368164 C23.07096191 22.87212914 24.95434413 24.89438022 26.85009766 26.91699219 C51.03250205 52.81268253 69.1856768 82.54041013 82.09204102 115.46850586 C83.63742634 119.38932706 85.26910364 123.27265984 86.9230957 127.14868164 C87.69235963 129.02359014 88.40336786 130.92291115 89.0715332 132.83618164 C92.71570987 142.82299104 99.16443005 148.51728558 107.07543945 155.30493164 C116.88414837 163.79133976 126.62404302 174.99282828 130.01293945 187.80493164 C130.19154494 192.98449083 129.36491414 197.73467666 126.01293945 201.80493164 C122.22369836 205.13487078 118.54795204 205.31178196 113.6965332 205.16040039 C106.30582766 204.18142775 99.55318022 200.19616759 93.01293945 196.80493164 C92.80668945 197.81555664 92.60043945 198.82618164 92.38793945 199.86743164 C88.15097962 216.40898716 79.22159646 234.62619781 67.01293945 246.80493164 C66.35293945 246.80493164 65.69293945 246.80493164 65.01293945 246.80493164 C64.76543945 247.38243164 64.51793945 247.95993164 64.26293945 248.55493164 C63.01293945 250.80493164 63.01293945 250.80493164 61.05981445 252.37524414 C58.09311678 255.89678222 57.77196342 259.47109708 57.01293945 263.92993164 C54.56442003 276.78830225 50.87846544 286.77902489 41.01293945 295.80493164 C34.80540862 297.87410858 27.48356995 297.90789168 21.51293945 295.24243164 C15.46737238 289.34800375 12.96344681 284.27437776 12.01293945 275.80493164 C12.01293945 274.48493164 12.01293945 273.16493164 12.01293945 271.80493164 C10.87856445 271.96993164 9.74418945 272.13493164 8.57543945 272.30493164 C-1.9063281 273.45111541 -12.80625567 273.76662033 -22.98706055 270.80493164 C-23.0128418 271.62735352 -23.03862305 272.44977539 -23.06518555 273.29711914 C-23.43860574 280.64670754 -24.06025514 287.42070608 -27.98706055 293.80493164 C-32.25532058 297.34446435 -37.00987741 297.32623351 -42.3737793 297.14477539 C-47.80146699 296.4389326 -50.71851797 293.34255901 -54.04956055 289.30493164 C-61.40359726 278.85951135 -65.17759241 265.01771614 -66.47143555 252.38305664 C-66.6415918 251.20227539 -66.81174805 250.02149414 -66.98706055 248.80493164 C-67.64706055 248.47493164 -68.30706055 248.14493164 -68.98706055 247.80493164 C-68.98706055 247.14493164 -68.98706055 246.48493164 -68.98706055 245.80493164 C-69.55038086 245.56387695 -70.11370117 245.32282227 -70.6940918 245.07446289 C-87.07597991 236.00442262 -96.86221191 213.73281085 -102.98706055 196.80493164 C-110.45742913 198.08034596 -110.45742913 198.08034596 -117.79956055 199.92993164 C-123.61383269 201.43195194 -130.06950047 201.69218969 -135.98706055 200.80493164 C-138.46852275 198.40037426 -138.93234407 197.18794701 -139.42456055 193.74243164 C-137.80093157 179.12977088 -128.32004065 167.09809626 -117.5065918 157.71508789 C-114.98706055 155.80493164 -114.98706055 155.80493164 -112.3112793 154.30102539 C-107.17778276 151.38824143 -104.65451236 149.05768791 -102.92553711 143.26953125 C-102.34269069 141.04345189 -101.78452115 138.81244521 -101.2331543 136.57836914 C-95.34696239 112.88754215 -29.35368128 -2.88163059 0 0 Z " fill="#43B4E1" transform="translate(423.987060546875,284.195068359375)"/>
<path d="M0 0 C1.05525879 0.08910645 2.11051758 0.17821289 3.19775391 0.27001953 C28.71040738 2.52517909 54.48409509 7.29567845 77.91967773 18.04589844 C79.7898314 18.90361004 81.68287166 19.7109949 83.578125 20.51171875 C87.36853331 22.16028675 91.05924108 23.95408058 94.75 25.8125 C95.79607422 26.33807495 95.79607422 26.33807495 96.86328125 26.87426758 C110.76108474 33.89195449 123.42512612 41.86308425 136 51 C136.79921875 51.55429688 137.5984375 52.10859375 138.421875 52.6796875 C138.94265625 53.11539063 139.4634375 53.55109375 140 54 C140 54.66 140 55.32 140 56 C141.32 56.66 142.64 57.32 144 58 C144 58.66 144 59.32 144 60 C144.721875 60.226875 145.44375 60.45375 146.1875 60.6875 C149.56582327 62.26405086 151.43796738 64.30986575 154 67 C154.804375 67.61875 155.60875 68.2375 156.4375 68.875 C159.16628071 71.13789132 161.28123572 73.57498286 163.54296875 76.2890625 C165.08854912 78.15013236 165.08854912 78.15013236 167.3125 80.3125 C175.05273391 88.05273391 181.59825504 96.31230482 187.80615234 105.29125977 C189.05449896 107.07800373 190.33506421 108.83894164 191.6171875 110.6015625 C193.59537819 113.36573074 195.29504252 116.17249239 196.875 119.1875 C198.9097191 123.01877769 201.04945442 126.73718529 203.3125 130.4375 C206.4996482 135.86062076 209.16193978 141.45623037 211.75 147.1875 C212.12680908 148.01886475 212.50361816 148.85022949 212.8918457 149.70678711 C215.26459677 155.05197225 217.23027333 160.42966445 219 166 C219.56023339 167.68651862 220.12147105 169.3727039 220.68359375 171.05859375 C234.99662332 214.6431404 238.02902733 262.22833102 227 307 C226.76095947 308.01102783 226.52191895 309.02205566 226.27563477 310.0637207 C224.56132315 317.18510934 222.4555675 324.12028832 220.125 331.0625 C219.79886719 332.06087891 219.47273438 333.05925781 219.13671875 334.08789062 C216.84736231 340.95150595 214.08711656 347.46106279 211 354 C210.3570607 355.42083003 209.71624885 356.84262575 209.078125 358.265625 C202.22600566 373.30067779 193.75136011 386.69681999 184 400 C183.55849609 400.64710938 183.11699219 401.29421875 182.66210938 401.9609375 C181.4878089 403.67338739 180.248524 405.34088757 179 407 C178.34 407 177.68 407 177 407 C176.70802734 408.01320313 176.70802734 408.01320313 176.41015625 409.046875 C174.44980261 413.15221393 171.57641645 415.99735171 168.4375 419.25 C167.80416748 419.91531738 167.17083496 420.58063477 166.51831055 421.26611328 C164.68629183 423.18470428 162.8441189 425.09304911 161 427 C159.74316406 428.31871094 159.74316406 428.31871094 158.4609375 429.6640625 C145.13421231 443.37847424 145.13421231 443.37847424 137 447 C137 447.66 137 448.32 137 449 C134.96633799 450.54236738 132.93877684 451.97124441 130.8125 453.375 C129.65113083 454.15183557 128.49095784 454.93046264 127.33203125 455.7109375 C126.75662598 456.09733398 126.1812207 456.48373047 125.58837891 456.88183594 C123.84468039 458.07214122 123.84468039 458.07214122 121.76171875 459.9140625 C117.47829682 463.14934865 112.73506908 465.49167188 108 468 C106.23391161 468.96399529 104.46827747 469.9288233 102.703125 470.89453125 C57.71133052 495.14740732 4.1532284 507.11926375 -47 500 C-47.66 499.67 -48.32 499.34 -49 499 C-50.65414366 498.82271223 -52.31287585 498.68714006 -53.97265625 498.57421875 C-59.59798229 498.10094071 -64.94851547 497.10491321 -70.4375 495.8125 C-71.38197998 495.59255371 -72.32645996 495.37260742 -73.29956055 495.14599609 C-93.53030303 490.33003654 -112.57438068 483.69015731 -131 474 C-132.19253024 473.38767387 -133.38524808 472.77571299 -134.578125 472.1640625 C-146.18626371 466.15611722 -157.25519755 459.53182993 -167.3515625 451.1796875 C-169.4095103 449.48597825 -171.48274272 447.83137549 -173.5859375 446.1953125 C-174.21242188 445.70788574 -174.83890625 445.22045898 -175.484375 444.71826172 C-176.71493903 443.76260417 -177.94665197 442.8084236 -179.1796875 441.85595703 C-182.31693034 439.40944237 -185.36237833 436.98843835 -188 434 C-188 433.34 -188 432.68 -188 432 C-188.86625 431.62875 -188.86625 431.62875 -189.75 431.25 C-192.32939979 429.81700012 -194.06121592 428.21575324 -196 426 C-196 425.34 -196 424.68 -196 424 C-196.61875 423.7525 -197.2375 423.505 -197.875 423.25 C-200.38710296 421.77229238 -200.76107344 420.56044823 -202 418 C-202.99 417.67 -203.98 417.34 -205 417 C-206.2890625 415.5390625 -206.2890625 415.5390625 -207.625 413.625 C-210.90169558 409.05248274 -214.49538875 404.79435155 -218.14453125 400.515625 C-219.85104792 398.20194766 -220.60061131 396.80226817 -221 394 C-221.66 394 -222.32 394 -223 394 C-224.42578125 391.83984375 -224.42578125 391.83984375 -226 389 C-226.50917969 388.13503906 -227.01835937 387.27007813 -227.54296875 386.37890625 C-228.71219926 384.37649486 -229.87856666 382.37241047 -231.04296875 380.3671875 C-232.35029434 378.11785684 -233.66544559 375.87305678 -234.98828125 373.6328125 C-241.51744507 362.45082709 -247.22576865 351.1524372 -251.10546875 338.75390625 C-251.95331876 336.143713 -252.93530668 333.6531328 -254 331.125 C-267.44238793 297.7020977 -269.95424348 257.58859375 -265.26464844 222.07714844 C-265.02458645 220.1929719 -264.82629358 218.3035905 -264.6328125 216.4140625 C-263.7308253 208.22254611 -262.02874233 200.32437719 -260.125 192.3125 C-259.75810059 190.76260376 -259.75810059 190.76260376 -259.38378906 189.18139648 C-257.00730659 179.47227582 -254.0539374 170.01839143 -250 160.875 C-248.31706786 157.04674596 -246.69632804 153.2353237 -245.25 149.3125 C-240.38595896 136.94629396 -233.45306973 124.43482843 -226 113.4375 C-224.34611334 110.99369733 -222.71290423 108.55021663 -221.125 106.0625 C-218.52542218 102.31604962 -215.68277745 98.80469457 -212.8046875 95.26953125 C-210.89405672 92.93175446 -210.89405672 92.93175446 -209 90 C-208.34 90 -207.68 90 -207 90 C-206.731875 89.4225 -206.46375 88.845 -206.1875 88.25 C-204.97070811 85.94449957 -203.69666121 83.97943808 -202 82 C-201.34 82 -200.68 82 -200 82 C-199.61328125 81.12601563 -199.61328125 81.12601563 -199.21875 80.234375 C-197.90165983 77.8197097 -196.44911616 76.18259823 -194.5 74.25 C-193.8915625 73.63640625 -193.283125 73.0228125 -192.65625 72.390625 C-191 71 -191 71 -189 71 C-188.61328125 70.11054688 -188.61328125 70.11054688 -188.21875 69.203125 C-186.04953712 65.28185557 -182.42127599 62.81650499 -179 60 C-178.25492187 59.37996094 -177.50984375 58.75992188 -176.7421875 58.12109375 C-138.75948851 27.0956218 -93.22333548 6.24199297 -44.18261719 1.23095703 C-41.80845529 0.9797314 -39.44018436 0.69114042 -37.0703125 0.40234375 C-24.55853436 -1.04923408 -12.54012835 -1.08137264 0 0 Z M-68 13 C-69.01320313 13.22413574 -70.02640625 13.44827148 -71.0703125 13.67919922 C-78.96521925 15.45950069 -86.67689613 17.39208382 -94.23095703 20.31689453 C-96.38374856 21.14818223 -98.56621469 21.87950088 -100.75 22.625 C-117.73117165 28.79134725 -133.6507507 37.00638014 -148.73828125 46.8828125 C-151.42227961 48.62500066 -154.12972823 50.29519583 -156.875 51.9375 C-158.421875 52.9584375 -158.421875 52.9584375 -160 54 C-160 54.66 -160 55.32 -160 56 C-160.53625 56.23976562 -161.0725 56.47953125 -161.625 56.7265625 C-172.02109551 62.30078477 -180.61697409 71.32943612 -188.875 79.5625 C-189.77347656 80.45565918 -190.67195313 81.34881836 -191.59765625 82.26904297 C-196.05402743 86.02893782 -196.05402743 86.02893782 -198 91 C-198.66 91 -199.32 91 -200 91 C-203.02517909 94.05558423 -203.02517909 94.05558423 -204 98 C-204.99 98.33 -205.98 98.66 -207 99 C-207 99.99 -207 100.98 -207 102 C-207.66 102 -208.32 102 -209 102 C-210.35074255 103.71516175 -210.35074255 103.71516175 -211.6875 105.9375 C-214.37973826 110.13792088 -217.31725724 114.00747502 -220.484375 117.859375 C-222.1127424 120.15923411 -222.98021154 122.38240532 -224 125 C-224.86023007 126.31564599 -225.75825709 127.60715626 -226.6875 128.875 C-229.51311748 133.01226214 -231.74183735 137.29283774 -233.875 141.8125 C-234.18526123 142.45880371 -234.49552246 143.10510742 -234.81518555 143.77099609 C-236.37965634 147.16149281 -237 149.19148893 -237 153 C-237.66 153 -238.32 153 -239 153 C-239.495 155.97 -239.495 155.97 -240 159 C-240.66 159 -241.32 159 -242 159 C-242.25394531 159.90621094 -242.50789063 160.81242188 -242.76953125 161.74609375 C-244.50574857 167.89113257 -246.28990541 173.99787663 -248.33984375 180.046875 C-250.07696982 185.18630123 -251.26606584 189.54565033 -251 195 C-251.66 195 -252.32 195 -253 195 C-253.13277344 195.85464844 -253.26554688 196.70929688 -253.40234375 197.58984375 C-253.57894531 198.69457031 -253.75554687 199.79929687 -253.9375 200.9375 C-254.11152344 202.03964844 -254.28554687 203.14179688 -254.46484375 204.27734375 C-255 207 -255 207 -256 208 C-257.81702025 218.90212148 -258.66660684 229.96098196 -259 241 C-259.03399902 242.10827148 -259.06799805 243.21654297 -259.10302734 244.35839844 C-259.76221343 269.68854384 -256.87428919 293.55557035 -250 318 C-249.6596875 319.23234375 -249.319375 320.4646875 -248.96875 321.734375 C-247.16433973 327.93339737 -244.88091641 333.65239234 -242.10546875 339.4765625 C-240.59207212 342.93117106 -239.7651236 346.31349537 -239 350 C-238.34 350 -237.68 350 -237 350 C-236.896875 350.9075 -236.79375 351.815 -236.6875 352.75 C-235.96499076 356.1654982 -235.10805916 357.32438645 -233 360 C-232.30520005 361.6542856 -231.61179458 363.3091905 -230.9296875 364.96875 C-228.99957267 369.18580761 -226.43761728 373.06273004 -224 377 C-223.33097656 378.09570312 -222.66195312 379.19140625 -221.97265625 380.3203125 C-219.99505974 383.55538004 -218.01400114 386.78738279 -216 390 C-214.95199219 391.67835938 -214.95199219 391.67835938 -213.8828125 393.390625 C-213.26148438 394.25171875 -212.64015625 395.1128125 -212 396 C-211.34 396 -210.68 396 -210 396 C-210 396.66 -210 397.32 -210 398 C-209.34 398 -208.68 398 -208 398 C-207.90203125 398.56847656 -207.8040625 399.13695312 -207.703125 399.72265625 C-205.78077151 405.94894562 -199.82354446 411.72771777 -195 416 C-194.34 416 -193.68 416 -193 416 C-192.77828125 416.54785156 -192.5565625 417.09570312 -192.328125 417.66015625 C-190.58951031 420.72318624 -188.25234051 423.00264395 -185.75 425.4375 C-185.25636963 425.92323486 -184.76273926 426.40896973 -184.25415039 426.90942383 C-178.88309812 432.97301675 -178.88309812 432.97301675 -172 436 C-171.7525 436.639375 -171.505 437.27875 -171.25 437.9375 C-170.20311706 440.19895007 -170.20311706 440.19895007 -167.9375 440.5625 C-167.298125 440.706875 -166.65875 440.85125 -166 441 C-165.505 442.485 -165.505 442.485 -165 444 C-163.02013778 445.67868425 -163.02013778 445.67868425 -160.625 447.1875 C-159.83351563 447.71730469 -159.04203125 448.24710938 -158.2265625 448.79296875 C-155.98254933 450.23829062 -155.98254933 450.23829062 -153 450 C-152.505 451.485 -152.505 451.485 -152 453 C-149.74572728 454.52012037 -149.74572728 454.52012037 -147 456 C-146.030625 456.66 -145.06125 457.32 -144.0625 458 C-141.11835995 459.92270371 -138.15474016 461.45619098 -135 463 C-134.30519531 463.433125 -133.61039062 463.86625 -132.89453125 464.3125 C-128.96029259 466.60614521 -124.87141387 468.5057888 -120.75 470.4375 C-119.94175781 470.81970703 -119.13351562 471.20191406 -118.30078125 471.59570312 C-115.87163726 472.74031577 -113.43722529 473.87270649 -111 475 C-110.20440674 475.3707666 -109.40881348 475.7415332 -108.58911133 476.12353516 C-104.49176364 477.99722034 -100.60999885 479.53831212 -96.1875 480.5 C-89.08561202 482.15982823 -82.20138549 484.40723595 -75.3828125 486.9921875 C-70.41367631 488.4725999 -65.36314267 489.23648248 -60.25 490.0625 C-59.21617187 490.23587891 -58.18234375 490.40925781 -57.1171875 490.58789062 C-44.41790537 492.67511521 -32.0376438 493.27184875 -19.1875 493.3125 C-18.31181366 493.31611542 -17.43612732 493.31973083 -16.53390503 493.32345581 C-0.58309493 493.34980577 15.37694624 492.50801606 31 489 C31.33 488.67 31.66 488.34 32 488 C33.5561547 487.69481238 35.12070108 487.43224085 36.6875 487.1875 C46.08671727 485.54539424 55.34919486 483.060582 64 479 C67.83459761 477.2957344 71.62964411 475.7700469 75.625 474.5 C79.09652844 473.37599754 81.88634598 471.91609478 85 470 C86.89377784 469.31432182 88.78773994 468.62913596 90.68359375 467.94921875 C97.10481006 465.31792775 103.06629623 461.57011177 109 458 C109.928125 457.484375 110.85625 456.96875 111.8125 456.4375 C112.534375 455.963125 113.25625 455.48875 114 455 C114 454.34 114 453.68 114 453 C114.825 452.814375 115.65 452.62875 116.5 452.4375 C120.48244527 450.80185284 122.87825354 448.68378039 125.97265625 445.75390625 C128.18250304 443.84211202 130.48805562 442.48728518 133 441 C138.33839944 437.01288292 143.40688622 432.83485662 148 428 C149.33059268 426.66393163 150.66418605 425.3308481 152 424 C152.68835938 423.31035156 153.37671875 422.62070312 154.0859375 421.91015625 C155.58946483 420.40969734 157.1050201 418.9212899 158.625 417.4375 C160.9965643 415.00352612 163.20071622 412.4869086 165.390625 409.890625 C167.10442511 407.87732584 168.86382401 405.90941499 170.625 403.9375 C173.39277679 400.787333 175.70728837 397.51549117 178 394 C178.845625 392.989375 179.69125 391.97875 180.5625 390.9375 C182.71405248 388.34460343 184.28557722 385.88239937 186 383 C186.64195312 382.04867188 187.28390625 381.09734375 187.9453125 380.1171875 C197.39097723 366.06718441 203.91853103 350.74329572 210 335 C210.31155029 334.26354248 210.62310059 333.52708496 210.9440918 332.76831055 C213.65813022 326.28423542 215.51001847 319.75635349 217.1875 312.9375 C217.69881385 310.88336323 218.21297569 308.82993252 218.73046875 306.77734375 C218.95114014 305.88265381 219.17181152 304.98796387 219.39916992 304.06616211 C220 302 220 302 221 301 C230.20446081 254.73461216 229.65392485 192.5285361 205.04174805 150.80810547 C203.27372113 147.73943723 201.74813645 144.55261075 200.1875 141.375 C199.12545929 139.24699691 198.06029719 137.12057369 196.99511719 134.99414062 C196.11686293 133.23418459 195.24902976 131.46903651 194.3828125 129.703125 C188.76683609 118.69469362 181.39018516 108.71741669 173.66796875 99.09375 C172 97 172 97 171 95 C170.34 95 169.68 95 169 95 C168.72800781 94.41089844 168.45601562 93.82179688 168.17578125 93.21484375 C167.0244625 91.04608053 165.80016325 89.40493585 164.1875 87.5625 C163.46626953 86.72912109 163.46626953 86.72912109 162.73046875 85.87890625 C152.98129774 75.29346324 142.05506876 65.8938199 130.60205078 57.21679688 C129.17200379 56.1306411 127.75498115 55.02738615 126.33984375 53.921875 C109.69447771 41.26419325 90.2559459 31.90947892 71 24 C69.97648437 23.56816406 68.95296875 23.13632813 67.8984375 22.69140625 C45.37664997 13.54014828 19.28942952 8.06277707 -5.01171875 7.7265625 C-5.85018845 7.71407974 -6.68865814 7.70159698 -7.55253601 7.68873596 C-28.28730581 7.44029169 -47.69347106 8.4378913 -68 13 Z " fill="#2E96BE" transform="translate(436,169)"/>
<path d="M0 0 C0.41865654 3.94480594 0.1952507 5.68641554 -1.93359375 9.10546875 C-2.75988281 10.12253906 -3.58617187 11.13960938 -4.4375 12.1875 C-7.81581941 16.2667403 -7.81581941 16.2667403 -10 21 C-10.66 21 -11.32 21 -12 21 C-12.495 22.485 -12.495 22.485 -13 24 C-13.66 24 -14.32 24 -15 24 C-15.3403125 25.2684375 -15.3403125 25.2684375 -15.6875 26.5625 C-17.19238618 30.50386856 -19.12703255 33.88761859 -22 37 C-22.66 37 -23.32 37 -24 37 C-24.10054688 37.56589844 -24.20109375 38.13179688 -24.3046875 38.71484375 C-25.14071654 41.46246729 -26.42515126 43.24902873 -28.125 45.5625 C-30.79310223 49.28351034 -33.38500268 53.03196694 -35.875 56.875 C-36.44992187 57.75929688 -37.02484375 58.64359375 -37.6171875 59.5546875 C-38.88165823 61.79072896 -39.44619713 63.52652153 -40 66 C-36.97573256 63.79634033 -33.95624117 61.58622235 -30.9375 59.375 C-30.08994141 58.75753906 -29.24238281 58.14007813 -28.36914062 57.50390625 C-24.45832537 54.63496842 -20.64277093 51.74866002 -17.00390625 48.5390625 C-14 46 -14 46 -12 46 C-12 45.34 -12 44.68 -12 44 C-9.88609939 42.33413806 -7.81051016 40.84013389 -5.5625 39.375 C-4.92812012 38.9612915 -4.29374023 38.54758301 -3.64013672 38.12133789 C1.46373212 34.97267927 4.96671939 34.06380129 11 35 C9.82550499 42.98656605 4.88783577 50.04441881 1 57 C0.2265625 58.40572266 0.2265625 58.40572266 -0.5625 59.83984375 C-1.036875 60.55269531 -1.51125 61.26554687 -2 62 C-2.66 62 -3.32 62 -4 62 C-4.11786865 62.55268555 -4.2357373 63.10537109 -4.35717773 63.67480469 C-5.09236379 66.33409523 -6.13347093 68.69565823 -7.28515625 71.203125 C-7.73310547 72.1828125 -8.18105469 73.1625 -8.64257812 74.171875 C-9.11115234 75.18765625 -9.57972656 76.2034375 -10.0625 77.25 C-10.53494141 78.28125 -11.00738281 79.3125 -11.49414062 80.375 C-12.65971962 82.91808145 -13.8284419 85.45966888 -15 88 C-15.99 88 -16.98 88 -18 88 C-18.3208567 82.5932233 -17.57257105 79.28108772 -15.0625 74.5 C-14.75618652 73.9112207 -14.44987305 73.32244141 -14.13427734 72.71582031 C-10.93550119 66.6682087 -7.39768656 60.81358877 -3.8203125 54.984375 C-2.06649195 52.20294665 -2.06649195 52.20294665 -1 50 C-0.34 50 0.32 50 1 50 C1.0825 49.29875 1.165 48.5975 1.25 47.875 C2.17027725 44.34727053 3.88126977 41.93888386 6 39 C3.69 39.66 1.38 40.32 -1 41 C-1 41.66 -1 42.32 -1 43 C-3.1171875 44.7265625 -3.1171875 44.7265625 -5.875 46.625 C-6.77992188 47.25664062 -7.68484375 47.88828125 -8.6171875 48.5390625 C-11 50 -11 50 -13 50 C-13 50.66 -13 51.32 -13 52 C-16.13781244 54.89484024 -19.61448559 57.4025312 -23 60 C-24.05386565 60.83011985 -25.10724538 61.66085695 -26.16015625 62.4921875 C-27.20042969 63.29914063 -28.24070312 64.10609375 -29.3125 64.9375 C-30.76076172 66.06478516 -30.76076172 66.06478516 -32.23828125 67.21484375 C-34.95460884 68.97065946 -36.81875547 69.63493915 -40 70 C-40 70.66 -40 71.32 -40 72 C-41.98 71.67 -43.96 71.34 -46 71 C-46 69.35 -46 67.7 -46 66 C-45.34 66 -44.68 66 -44 66 C-44.061875 65.278125 -44.12375 64.55625 -44.1875 63.8125 C-43.96253379 60.43800685 -43.00130237 58.69406089 -41 56 C-40.34 56 -39.68 56 -39 56 C-38.7525 55.30132812 -38.505 54.60265625 -38.25 53.8828125 C-36.82249033 50.59061833 -35.02047554 47.83885934 -33 44.875 C-32.29875 43.84117187 -31.5975 42.80734375 -30.875 41.7421875 C-30.25625 40.83726562 -29.6375 39.93234375 -29 39 C-28.34 38.01 -27.68 37.02 -27 36 C-26.34 36 -25.68 36 -25 36 C-24.76925781 35.14277344 -24.53851563 34.28554688 -24.30078125 33.40234375 C-22.83426095 29.56649036 -20.74591394 26.71156938 -18.1875 23.5625 C-17.28689785 22.42516166 -16.38715001 21.28714628 -15.48828125 20.1484375 C-14.84366943 19.33777832 -14.84366943 19.33777832 -14.18603516 18.51074219 C-12.0169654 15.74783488 -10.0092696 12.87995309 -8 10 C-8.45890625 10.40992188 -8.9178125 10.81984375 -9.390625 11.2421875 C-10.00421875 11.78101563 -10.6178125 12.31984375 -11.25 12.875 C-11.85328125 13.40867187 -12.4565625 13.94234375 -13.078125 14.4921875 C-14.97418746 15.9797487 -16.81290005 17.00322436 -19 18 C-19 18.66 -19 19.32 -19 20 C-19.66 20 -20.32 20 -21 20 C-21 20.66 -21 21.32 -21 22 C-21.99 22 -22.98 22 -24 22 C-24.2475 22.78375 -24.495 23.5675 -24.75 24.375 C-26.15389099 27.32317108 -27.00675737 27.9024777 -30 29 C-30 29.66 -30 30.32 -30 31 C-30.66 31 -31.32 31 -32 31 C-32.2578125 31.57234375 -32.515625 32.1446875 -32.78125 32.734375 C-34.11365942 35.21128995 -35.65056118 37.1341166 -37.5 39.25 C-38.41265625 40.30960937 -38.41265625 40.30960937 -39.34375 41.390625 C-41 43 -41 43 -43 43 C-43.309375 43.61875 -43.61875 44.2375 -43.9375 44.875 C-44.625 46.25 -45.3125 47.625 -46 49 C-46.66 49 -47.32 49 -48 49 C-48.268125 49.56203125 -48.53625 50.1240625 -48.8125 50.703125 C-50.0803979 53.15550646 -51.48972342 55.43927683 -53 57.75 C-53.515625 58.54921875 -54.03125 59.3484375 -54.5625 60.171875 C-55.036875 60.77515625 -55.51125 61.3784375 -56 62 C-56.66 62 -57.32 62 -58 62 C-58 62.66 -58 63.32 -58 64 C-58.66 64 -59.32 64 -60 64 C-59.60791281 58.64147506 -57.6642613 54.85831875 -54 51 C-53.34 51 -52.68 51 -52 51 C-52 50.01 -52 49.02 -52 48 C-51.34 48 -50.68 48 -50 48 C-49.73832031 47.43152344 -49.47664063 46.86304688 -49.20703125 46.27734375 C-47.9033337 43.81761666 -46.40134237 41.75515421 -44.6875 39.5625 C-44.11386719 38.82128906 -43.54023438 38.08007812 -42.94921875 37.31640625 C-40.76605916 34.72199015 -38.40500739 32.39027028 -36 30 C-34.44507832 28.41296205 -32.89172724 26.82438396 -31.33984375 25.234375 C-6.55260216 0 -6.55260216 0 0 0 Z " fill="#43A8D0" transform="translate(307,254)"/>
<path d="M0 0 C3.91990847 1.52972038 6.67964716 4.23429431 8.5625 8 C12.49998978 31.25130826 12.49998978 31.25130826 7.5625 42 C4.04996854 44.34168764 2.69780644 44.49623677 -1.4375 44 C-7.5849825 40.77989012 -9.06059339 34.36938365 -11.0234375 28.140625 C-12.36585533 21.20057809 -12.96372896 12.45876909 -9.1875 6.25 C-4.34000545 0 -4.34000545 0 0 0 Z " fill="#EAF6FA" transform="translate(388.4375,387)"/>
<path d="M0 0 C-3.13176574 4.35010852 -6.59871971 7.16544123 -10.9375 10.1875 C-11.54529297 10.62513672 -12.15308594 11.06277344 -12.77929688 11.51367188 C-15.44360833 13.39622204 -17.74242676 14.90390125 -20.81640625 16.05078125 C-23.59234138 17.25749366 -23.74647821 18.31667991 -25 21 C-27.3125 23.140625 -27.3125 23.140625 -30 25.25 C-31.3303125 26.30960937 -31.3303125 26.30960937 -32.6875 27.390625 C-35 29 -35 29 -37 29 C-37.38478516 29.89332031 -37.38478516 29.89332031 -37.77734375 30.8046875 C-39.10969687 33.19696371 -40.43368605 34.42728199 -42.5625 36.125 C-45.21025666 38.20903634 -45.21025666 38.20903634 -47 41 C-47.66 41 -48.32 41 -49 41 C-49.33 41.99 -49.66 42.98 -50 44 C-52.4375 46.6875 -52.4375 46.6875 -55 49 C-55.66 49 -56.32 49 -57 49 C-57.66 50.32 -58.32 51.64 -59 53 C-59.66 53 -60.32 53 -61 53 C-61.33 54.32 -61.66 55.64 -62 57 C-62.66 57 -63.32 57 -64 57 C-64.226875 57.515625 -64.45375 58.03125 -64.6875 58.5625 C-69.31578947 67.15789474 -69.31578947 67.15789474 -73 69 C-73.98592043 70.64385301 -73.98592043 70.64385301 -74.875 72.625 C-76.41132917 75.82192027 -78.08235296 78.88401538 -79.86328125 81.953125 C-83.01281195 87.62444489 -85.93487633 93.45296514 -88.4375 99.4375 C-90.00123388 103.00281325 -91.74039952 106.43820391 -93.5625 109.875 C-94.16191406 111.00679688 -94.76132813 112.13859375 -95.37890625 113.3046875 C-97 116 -97 116 -99 117 C-98.58411954 110.80481527 -97.39748106 105.73310689 -95 100 C-94.34 100 -93.68 100 -93 100 C-92.86464844 98.50726563 -92.86464844 98.50726563 -92.7265625 96.984375 C-92.09818449 92.6273289 -90.4005593 89.12178204 -88.375 85.25 C-88.01889648 84.55551758 -87.66279297 83.86103516 -87.29589844 83.14550781 C-83.2853968 75.44121673 -79.16476447 68.16476447 -73 62 C-71.72588164 60.12680014 -71.72588164 60.12680014 -70.75 58.25 C-70.1725 57.1775 -69.595 56.105 -69 55 C-68.34 55 -67.68 55 -67 55 C-66.75121094 54.43410156 -66.50242188 53.86820312 -66.24609375 53.28515625 C-64.80608409 50.64438619 -63.08409853 48.66238776 -61.0625 46.4375 C-60.37285156 45.67308594 -59.68320313 44.90867187 -58.97265625 44.12109375 C-58.32167969 43.42113281 -57.67070312 42.72117187 -57 42 C-56.46246094 41.41347656 -55.92492187 40.82695312 -55.37109375 40.22265625 C-54 39 -54 39 -52 39 C-51.773125 38.4225 -51.54625 37.845 -51.3125 37.25 C-49.65599487 34.41027692 -47.57432012 33.04775464 -45 31 C-44.0205262 29.89335695 -43.0634214 28.7666624 -42.125 27.625 C-39.11932719 24.01974997 -35.85068269 20.7093721 -32 18 C-31.34 18 -30.68 18 -30 18 C-30 17.34 -30 16.68 -30 16 C-29.34 16 -28.68 16 -28 16 C-28 15.34 -28 14.68 -28 14 C-27.0925 13.525625 -26.185 13.05125 -25.25 12.5625 C-20.39205059 9.81497124 -16.07191978 6.3374911 -11.671875 2.92578125 C-7.67480696 0.04485355 -4.81216195 -0.10693693 0 0 Z " fill="#359EC8" transform="translate(312,231)"/>
<path d="M0 0 C3.83135392 1.38580886 4.85696792 2.54711821 6.9375 6.0625 C11.0735793 15.2754835 11.58695424 26.59577323 8.6875 36.25 C7.33606913 39.58771997 5.97049954 41.98272889 2.9375 44.0625 C-0.3125 44.8125 -0.3125 44.8125 -3.0625 45.0625 C-4.02673026 43.67073368 -4.98361602 42.2738777 -5.9375 40.875 C-6.47117187 40.09769531 -7.00484375 39.32039063 -7.5546875 38.51953125 C-11.13501023 32.68527478 -11.39957353 27.90098933 -11.375 21.1875 C-11.39111328 20.31480469 -11.40722656 19.44210937 -11.42382812 18.54296875 C-11.42894662 11.73537454 -10.52450502 6.72412705 -5.75 1.5625 C-3.0625 0.0625 -3.0625 0.0625 0 0 Z " fill="#E9F6FA" transform="translate(450.0625,385.9375)"/>
<path d="M0 0 C0.99 0.33 1.98 0.66 3 1 C2.54177532 4.46941546 2.10868317 7.67395049 1 11 C0.34 11 -0.32 11 -1 11 C-1.103125 11.886875 -1.20625 12.77375 -1.3125 13.6875 C-2.03695822 17.17807144 -3.10422799 19.01101392 -5 22 C-6.33393867 24.12462006 -7.66723492 26.24964356 -9 28.375 C-9.680625 29.45523438 -10.36125 30.53546875 -11.0625 31.6484375 C-13.02710588 35.04688881 -14.52898858 38.36844057 -16 42 C-15.54625 41.505 -15.0925 41.01 -14.625 40.5 C-13 39 -13 39 -11 39 C-11 38.34 -11 37.68 -11 37 C-9.35 36.34 -7.7 35.68 -6 35 C-6.99 37.475 -6.99 37.475 -8 40 C-8.66 40 -9.32 40 -10 40 C-10.33 41.32 -10.66 42.64 -11 44 C-11.66 44 -12.32 44 -13 44 C-13.37511719 44.85078125 -13.37511719 44.85078125 -13.7578125 45.71875 C-15.18221025 48.33462511 -16.8743243 50.29548187 -18.875 52.5 C-19.55304687 53.2528125 -20.23109375 54.005625 -20.9296875 54.78125 C-21.61289062 55.5134375 -22.29609375 56.245625 -23 57 C-23.68835938 57.75796875 -24.37671875 58.5159375 -25.0859375 59.296875 C-25.71757813 59.85890625 -26.34921875 60.4209375 -27 61 C-29.75 60.75 -29.75 60.75 -32 60 C-32.46920144 55.31667454 -31.00634157 52.66774234 -28.625 48.6875 C-27.99851562 47.61886719 -27.37203125 46.55023437 -26.7265625 45.44921875 C-25.87191406 44.23685547 -25.87191406 44.23685547 -25 43 C-24.34 43 -23.68 43 -23 43 C-22.9175 42.484375 -22.835 41.96875 -22.75 41.4375 C-20.86474635 35.31042563 -16.75268208 30.10781728 -13 25 C-13.47308594 25.43570313 -13.94617188 25.87140625 -14.43359375 26.3203125 C-18.04739698 29.57484875 -21.72908726 32.67066472 -25.6875 35.5 C-26.39261719 36.0053125 -27.09773437 36.510625 -27.82421875 37.03125 C-30.59713022 38.26586767 -32.14010439 37.84144039 -35 37 C-35.1953125 30.9453125 -35.1953125 30.9453125 -35 29 C-34.34 28.34 -33.68 27.68 -33 27 C-32.49635902 25.74643206 -32.04261777 24.47228878 -31.625 23.1875 C-30.30003888 19.48559859 -28.55256742 17.01667059 -26 14 C-24.58690303 11.70432028 -23.29802942 9.36426787 -22 7 C-21.01 7 -20.02 7 -19 7 C-19.50089499 12.11852068 -21.3506624 15.81751055 -24 20.125 C-27.23565948 25.25375691 -27.23565948 25.25375691 -29 31 C-28.34 31 -27.68 31 -27 31 C-27 30.34 -27 29.68 -27 29 C-24.91796875 27.08984375 -24.91796875 27.08984375 -22.1875 24.9375 C-21.29417969 24.22464844 -20.40085937 23.51179687 -19.48046875 22.77734375 C-17 21 -17 21 -14 20 C-13.28477226 18.69207358 -12.62515069 17.35329555 -12 16 C-10.92761419 14.53863798 -9.82075363 13.10218247 -8.6875 11.6875 C-5.66579694 7.86928107 -2.79774433 3.98466616 0 0 Z " fill="#38A0CA" transform="translate(565,490)"/>
<path d="M0 0 C0.66 0 1.32 0 2 0 C2.81747002 21.89003056 -4.28980838 40.46701266 -18.07421875 57.57421875 C-19.65387157 59.56400455 -20.88485162 61.39205631 -22.0625 63.625 C-23.61842092 66.33531386 -24.75546257 67.95951143 -27 70 C-27.66 70.99 -28.32 71.98 -29 73 C-29.66 73 -30.32 73 -31 73 C-31.10054687 73.59296875 -31.20109375 74.1859375 -31.3046875 74.796875 C-32.12726602 77.40324737 -33.13005756 78.40713837 -35.125 80.25 C-37.68568161 82.69617958 -40.07726325 85.17999101 -42.375 87.875 C-46.33942764 92.45971224 -50.44577902 96.99302757 -55 101 C-55.66 101 -56.32 101 -57 101 C-57.05542969 101.58394531 -57.11085938 102.16789063 -57.16796875 102.76953125 C-58.38047386 106.01995575 -60.38966598 106.90282916 -63.3125 108.6875 C-64.27800781 109.28949219 -65.24351562 109.89148438 -66.23828125 110.51171875 C-68.57629533 111.77166693 -70.41007159 112.53861133 -73 113 C-70.34352697 108.84124566 -67.54758561 105.20130239 -64.1875 101.5625 C-63.7239209 101.05952393 -63.2603418 100.55654785 -62.78271484 100.03833008 C-58.08064535 94.98747649 -53.17448628 90.13794914 -48.21557617 85.34008789 C-44.76107285 81.95276953 -41.83561811 78.54781758 -39.11206055 74.55029297 C-37.62131892 72.47209114 -35.82738876 70.78344354 -34 69 C-11.59068224 41.24639466 -11.59068224 41.24639466 -2.23828125 7.91015625 C-1.99212973 4.90387951 -1.25903667 2.72373271 0 0 Z " fill="#39A1CA" transform="translate(605,493)"/>
<path d="M0 0 C1.32 0 2.64 0 4 0 C4 1.32 4 2.64 4 4 C3.34 4 2.68 4 2 4 C1.9071875 5.670625 1.9071875 5.670625 1.8125 7.375 C1.11670616 12.87370411 -1.36050183 17.19835971 -4 22 C-4.5259375 23.00546875 -5.051875 24.0109375 -5.59375 25.046875 C-9.72403169 32.86201585 -9.72403169 32.86201585 -12 34 C-12.73963549 35.39015828 -13.41630909 36.8140202 -14.0625 38.25 C-18.09064354 46.57003458 -23.33966431 54.56834536 -30 61 C-30.7734375 62.11375 -30.7734375 62.11375 -31.5625 63.25 C-32.2740625 64.11625 -32.2740625 64.11625 -33 65 C-33.99 65 -34.98 65 -36 65 C-36.55716142 60.79382365 -35.38218105 58.60379289 -32.90161133 55.24389648 C-32.45970459 54.66841064 -32.01779785 54.0929248 -31.5625 53.5 C-30.63991073 52.25182972 -29.71805124 51.00311974 -28.796875 49.75390625 C-28.32830078 49.12629395 -27.85972656 48.49868164 -27.37695312 47.85205078 C-20.76240622 38.95525063 -15.02418428 29.87066429 -10 20 C-9.34 20 -8.68 20 -8 20 C-7.81050781 19.12601563 -7.81050781 19.12601563 -7.6171875 18.234375 C-7.00711925 16.0257735 -6.20011334 14.26687929 -5.125 12.25 C-3.07122493 8.26237832 -1.50803887 4.22250884 0 0 Z " fill="#38A0CA" transform="translate(582,500)"/>
<path d="M0 0 C1.32 0.33 2.64 0.66 4 1 C2.56835889 4.65938172 1.01065704 8.23988068 -0.625 11.8125 C-1.07101562 12.78832031 -1.51703125 13.76414062 -1.9765625 14.76953125 C-2.48316406 15.87361328 -2.48316406 15.87361328 -3 17 C-3.66 17 -4.32 17 -5 17 C-5.99 19.97 -6.98 22.94 -8 26 C-8.66 26 -9.32 26 -10 26 C-10.103125 26.763125 -10.20625 27.52625 -10.3125 28.3125 C-11.09179417 31.35883174 -11.84003708 31.84003708 -14 34 C-15.15701303 35.77116213 -16.27925862 37.56529138 -17.375 39.375 C-19.94359214 43.45770961 -22.192179 47.01549165 -26 50 C-27.32 50 -28.64 50 -30 50 C-28.71595422 44.99222146 -26.36433315 41.31264654 -23.45703125 37.125 C-21.88061224 34.88799638 -21.88061224 34.88799638 -20.25 31.9375 C-19.8375 31.298125 -19.425 30.65875 -19 30 C-18.34 30 -17.68 30 -17 30 C-16.938125 29.319375 -16.87625 28.63875 -16.8125 27.9375 C-15.92870359 24.74223606 -14.44104791 22.70461079 -12.45703125 20.0859375 C-10.75600262 17.65068472 -9.3911409 15.1241159 -8 12.5 C-5.62710727 8.04314189 -3.04170437 4.02578519 0 0 Z " fill="#37A0C9" transform="translate(334,300)"/>
<path d="M0 0 C3.875 0.875 3.875 0.875 5 2 C5.23173505 4.88078841 5.40382799 7.74302638 5.53515625 10.62890625 C5.57813339 11.49313705 5.62111053 12.35736786 5.66539001 13.24778748 C5.80218412 16.01916252 5.93240825 18.79080302 6.0625 21.5625 C6.15386563 23.43687003 6.24565687 25.31121936 6.33789062 27.18554688 C6.5635404 31.79013862 6.78329684 36.39497889 7 41 C2.25 40.25 2.25 40.25 0 38 C-0.90299049 33.32882949 -1.12821714 28.79161714 -1.1328125 24.04296875 C-1.13410156 22.76615234 -1.13539063 21.48933594 -1.13671875 20.17382812 C-1.13285156 18.85833984 -1.12898438 17.54285156 -1.125 16.1875 C-1.12856567 14.83919176 -1.13246903 13.49088438 -1.13671875 12.14257812 C-1.13542969 10.87220703 -1.13414062 9.60183594 -1.1328125 8.29296875 C-1.13168457 7.1330542 -1.13055664 5.97313965 -1.12939453 4.77807617 C-1 2 -1 2 0 0 Z " fill="#2F9BC5" transform="translate(416,208)"/>
<path d="M0 0 C1.32 0 2.64 0 4 0 C4 1.32 4 2.64 4 4 C3.34 4 2.68 4 2 4 C1.938125 5.11375 1.87625 6.2275 1.8125 7.375 C1.16800296 12.82392948 -1.36835643 17.26109941 -4 22 C-4.33 21.01 -4.66 20.02 -5 19 C-5.33 19.33 -5.66 19.66 -6 20 C-7.66270287 21.33827304 -9.32916181 22.67189785 -11 24 C-10.67 22.68 -10.34 21.36 -10 20 C-9.34 20 -8.68 20 -8 20 C-7.81050781 19.12601563 -7.81050781 19.12601563 -7.6171875 18.234375 C-7.00711925 16.0257735 -6.20011334 14.26687929 -5.125 12.25 C-3.07122493 8.26237832 -1.50803887 4.22250884 0 0 Z " fill="#42A7CF" transform="translate(582,500)"/>
<path d="M0 0 C-0.66 1.65 -1.32 3.3 -2 5 C-2.66 5 -3.32 5 -4 5 C-4.33 6.32 -4.66 7.64 -5 9 C-5.66 9 -6.32 9 -7 9 C-7.2475 9.5775 -7.495 10.155 -7.75 10.75 C-9.16683317 13.3002997 -10.87627537 15.01785701 -13 17 C-14.1875 15.4375 -14.1875 15.4375 -15 13 C-13.625 9.25 -13.625 9.25 -12 6 C-11.34 6.33 -10.68 6.66 -10 7 C-9.319375 6.2575 -9.319375 6.2575 -8.625 5.5 C-7 4 -7 4 -5 4 C-5 3.34 -5 2.68 -5 2 C-2 0 -2 0 0 0 Z " fill="#42A7CF" transform="translate(559,525)"/>
<path d="M0 0 C-3.13922331 4.52048157 -6.21495828 6.51545911 -11 9 C-11 8.01 -11 7.02 -11 6 C-11.763125 6.515625 -12.52625 7.03125 -13.3125 7.5625 C-14.199375 8.036875 -15.08625 8.51125 -16 9 C-16.99 8.67 -17.98 8.34 -19 8 C-17.3990869 6.84962529 -15.79414775 5.70485184 -14.1875 4.5625 C-13.29417969 3.92441406 -12.40085937 3.28632813 -11.48046875 2.62890625 C-7.55157947 0.0488325 -4.60267882 -0.10228175 0 0 Z " fill="#3DA3CC" transform="translate(312,231)"/>
<path d="M0 0 C0.33 0 0.66 0 1 0 C1.34162681 3.91598818 1.67172425 7.83287182 2 11.75 C2.09539062 12.84183594 2.19078125 13.93367187 2.2890625 15.05859375 C2.89650024 22.39123498 3.11978269 29.64334659 3 37 C0.36 37 -2.28 37 -5 37 C-4.67 35.68 -4.34 34.36 -4 33 C-3.34 33.66 -2.68 34.32 -2 35 C0.06874034 35.6425235 0.06874034 35.6425235 2 36 C1.84660156 35.47792969 1.69320313 34.95585937 1.53515625 34.41796875 C-0.90973479 23.37134426 -0.1241164 11.26701098 0 0 Z " fill="#51B1D7" transform="translate(421,213)"/>
<path d="M0 0 C1.32 1.32 2.64 2.64 4 4 C2.68315519 8.60895683 0.84801255 12.14140235 -2 16 C-2.33 16 -2.66 16 -3 16 C-2.52013969 10.43109483 -1.70084819 5.32932432 0 0 Z " fill="#3FA5CE" transform="translate(216,332)"/>
<path d="M0 0 C-0.66 1.65 -1.32 3.3 -2 5 C-2.66 5 -3.32 5 -4 5 C-4.33 6.32 -4.66 7.64 -5 9 C-5.66 9 -6.32 9 -7 9 C-7.33 9.66 -7.66 10.32 -8 11 C-8 10.01 -8 9.02 -8 8 C-8.66 7.67 -9.32 7.34 -10 7 C-8.625 5.5 -8.625 5.5 -7 4 C-6.34 4 -5.68 4 -5 4 C-5 3.34 -5 2.68 -5 2 C-2 0 -2 0 0 0 Z " fill="#49ACD3" transform="translate(559,525)"/>
<path d="M0 0 C0.33 0 0.66 0 1 0 C0.24205379 7.88264059 0.24205379 7.88264059 -3 11 C-3.99 11 -4.98 11 -6 11 C-6 10.34 -6 9.68 -6 9 C-5.34 9 -4.68 9 -4 9 C-3.67 7.02 -3.34 5.04 -3 3 C-2.34 3 -1.68 3 -1 3 C-0.67 2.01 -0.34 1.02 0 0 Z " fill="#38A0CA" transform="translate(540,505)"/>
<path d="M0 0 C0.33 0 0.66 0 1 0 C1.37164821 5.82248856 0.37617945 10.64814628 -2 16 C-2.66 16.66 -3.32 17.32 -4 18 C-3.41632611 11.69632197 -1.95928381 6.01339937 0 0 Z " fill="#2E7F9A" transform="translate(182,339)"/>
<path d="M0 0 C0.99 0 1.98 0 3 0 C1.25 3.875 1.25 3.875 -1 5 C-2.0409066 6.64142963 -3.04504326 8.30712215 -4 10 C-4.99 9.67 -5.98 9.34 -7 9 C-5.90751403 7.49147143 -4.80061501 5.99337169 -3.6875 4.5 C-3.07261719 3.6646875 -2.45773438 2.829375 -1.82421875 1.96875 C-1.22222656 1.3190625 -0.62023437 0.669375 0 0 Z " fill="#2F81A0" transform="translate(221,267)"/>
<path d="M0 0 C3.53631503 0.55876839 4.91895128 1.65972661 7.125 4.4375 C8.70296618 6.39564974 10.21849868 8.21849868 12 10 C11.01 10.33 10.02 10.66 9 11 C7.62437146 9.71034824 6.29233607 8.37310707 5 7 C5 6.34 5 5.68 5 5 C4.34 5 3.68 5 3 5 C1.375 2.5 1.375 2.5 0 0 Z " fill="#338CAC" transform="translate(591,239)"/>
<path d="M0 0 C0.66 0 1.32 0 2 0 C2.6708712 1.6232687 3.33657029 3.24867578 4 4.875 C4.556875 6.23238281 4.556875 6.23238281 5.125 7.6171875 C6 10 6 10 6 12 C3 11 3 11 2.05078125 9.2578125 C1.80714844 8.55398438 1.56351563 7.85015625 1.3125 7.125 C1.06113281 6.42632812 0.80976562 5.72765625 0.55078125 5.0078125 C0 3 0 3 0 0 Z " fill="#3287A6" transform="translate(645,314)"/>
<path d="M0 0 C0.33 1.32 0.66 2.64 1 4 C1.66 4 2.32 4 3 4 C3 3.34 3 2.68 3 2 C3.66 2.33 4.32 2.66 5 3 C3.02 7.455 3.02 7.455 1 12 C0 9 0 9 1 6 C0.34 6 -0.32 6 -1 6 C-0.67 4.02 -0.34 2.04 0 0 Z " fill="#49ABD3" transform="translate(292,328)"/>
<path d="M0 0 C0.66 1.32 1.32 2.64 2 4 C-0.3125 6.0625 -0.3125 6.0625 -3 8 C-3.99 7.67 -4.98 7.34 -6 7 C-4.02 4.69 -2.04 2.38 0 0 Z " fill="#45A9D1" transform="translate(538,598)"/>
<path d="M0 0 C3.49873271 1.39655297 4.70891831 2.71260484 6.25 6.125 C6.58515625 6.84945312 6.9203125 7.57390625 7.265625 8.3203125 C7.62914062 9.15175781 7.62914062 9.15175781 8 10 C7.01 10 6.02 10 5 10 C3.61328125 8.3203125 3.61328125 8.3203125 2.3125 6.125 C1.87550781 5.40570312 1.43851563 4.68640625 0.98828125 3.9453125 C0 2 0 2 0 0 Z " fill="#2E809E" transform="translate(205,548)"/>
<path d="M0 0 C0 3 0 3 -1 5 C-0.34 5.33 0.32 5.66 1 6 C-0.98 6.99 -0.98 6.99 -3 8 C-3 7.01 -3 6.02 -3 5 C-4.65 5.66 -6.3 6.32 -8 7 C-5.42215154 4.35247996 -3.08351902 2.05567935 0 0 Z " fill="#46A9D1" transform="translate(282,309)"/>
<path d="M0 0 C0.33 0 0.66 0 1 0 C1 3.96 1 7.92 1 12 C-1.64 12 -4.28 12 -7 12 C-6.67 10.68 -6.34 9.36 -6 8 C-5.34 8.66 -4.68 9.32 -4 10 C-2.68 10.33 -1.36 10.66 0 11 C0 7.37 0 3.74 0 0 Z " fill="#5AB7DC" transform="translate(423,238)"/>
<path d="M0 0 C1 3 1 3 0 6 C0.66 6.33 1.32 6.66 2 7 C1.34 7.66 0.68 8.32 0 9 C-0.99 9 -1.98 9 -3 9 C-3.26218749 5.85375007 -3.24754367 4.38162983 -1.5 1.6875 C-1.005 1.130625 -0.51 0.57375 0 0 Z " fill="#44A8D0" transform="translate(549,556)"/>
<path d="M0 0 C0.66 0.33 1.32 0.66 2 1 C0.375 7.75 0.375 7.75 -3 10 C-3.99 10.33 -4.98 10.66 -6 11 C-4.97088923 8.78345373 -3.91765775 6.89130823 -2.4375 4.9375 C-0.81311272 2.95818504 -0.81311272 2.95818504 0 0 Z " fill="#339DC7" transform="translate(577,515)"/>
<path d="M0 0 C4.26086957 6.39130435 4.26086957 6.39130435 3.625 10.3125 C3.41875 10.869375 3.2125 11.42625 3 12 C0.50494038 9.50494038 0.64051624 8.32671112 0.375 4.875 C0.30023437 3.96492188 0.22546875 3.05484375 0.1484375 2.1171875 C0.09945312 1.41851562 0.05046875 0.71984375 0 0 Z " fill="#3188A6" transform="translate(653,332)"/>
<path d="M0 0 C0.66 0 1.32 0 2 0 C1.67 1.98 1.34 3.96 1 6 C0.34 6 -0.32 6 -1 6 C-1 6.66 -1 7.32 -1 8 C-1.66 8 -2.32 8 -3 8 C-3 6.35 -3 4.7 -3 3 C-2.01 3 -1.02 3 0 3 C0 2.01 0 1.02 0 0 Z " fill="#39A1CA" transform="translate(296,324)"/>
<path d="M0 0 C-2.6860286 1.79068573 -4.6626589 2.66055791 -7.6875 3.625 C-8.49574219 3.88539063 -9.30398438 4.14578125 -10.13671875 4.4140625 C-10.75160156 4.60742188 -11.36648438 4.80078125 -12 5 C-12 4.34 -12 3.68 -12 3 C-7.77050005 0.58314288 -4.87664009 -0.34833144 0 0 Z " fill="#2A7E98" transform="translate(521,648)"/>
<path d="M0 0 C-0.57344937 2.86724686 -0.8614515 3.8614515 -3 6 C-5.625 5.625 -5.625 5.625 -8 5 C-7.01 3.68 -6.02 2.36 -5 1 C-5 1.66 -5 2.32 -5 3 C-4.54625 2.505 -4.0925 2.01 -3.625 1.5 C-2 0 -2 0 0 0 Z " fill="#43A8D0" transform="translate(576,523)"/>
<path d="M0 0 C2.19963566 2.19963566 2.57049648 2.99347539 3 6 C2.5625 8.75 2.5625 8.75 2 11 C1.34 11 0.68 11 0 11 C0 7.37 0 3.74 0 0 Z " fill="#37A0C9" transform="translate(604,502)"/>
<path d="M0 0 C0.99 0 1.98 0 3 0 C2.67 1.98 2.34 3.96 2 6 C1.34 5.34 0.68 4.68 0 4 C-0.99 4.99 -1.98 5.98 -3 7 C-2.38722388 4.03824877 -1.74627478 2.61941217 0 0 Z " fill="#48AAD2" transform="translate(543,497)"/>
<path d="M0 0 C1.20076172 0.31324219 1.20076172 0.31324219 2.42578125 0.6328125 C3.23402344 0.83648438 4.04226563 1.04015625 4.875 1.25 C5.48988281 1.41757812 6.10476563 1.58515625 6.73828125 1.7578125 C6.40828125 2.4178125 6.07828125 3.0778125 5.73828125 3.7578125 C2.10828125 3.0978125 -1.52171875 2.4378125 -5.26171875 1.7578125 C-2.26171875 -0.2421875 -2.26171875 -0.2421875 0 0 Z " fill="#2F7794" transform="translate(363.26171875,661.2421875)"/>
<path d="M0 0 C0 0.99 0 1.98 0 3 C-3.465 4.485 -3.465 4.485 -7 6 C-7.66 5.34 -8.32 4.68 -9 4 C-6.03 2.68 -3.06 1.36 0 0 Z " fill="#318CAA" transform="translate(311,194)"/>
<path d="M0 0 C0.99 0 1.98 0 3 0 C2.67 1.65 2.34 3.3 2 5 C0.68 5 -0.64 5 -2 5 C-1.34 3.35 -0.68 1.7 0 0 Z " fill="#3AA2CB" transform="translate(548,533)"/>
<path d="M0 0 C0.33 0.99 0.66 1.98 1 3 C0.67 3.66 0.34 4.32 0 5 C-0.66 5 -1.32 5 -2 5 C-2.33 5.99 -2.66 6.98 -3 8 C-3.66 7.34 -4.32 6.68 -5 6 C-4.67 5.34 -4.34 4.68 -4 4 C-3.34 4 -2.68 4 -2 4 C-1.34 2.68 -0.68 1.36 0 0 Z " fill="#2E83A1" transform="translate(238,247)"/>
<path d="M0 0 C0.99 0.33 1.98 0.66 3 1 C1.35 2.65 -0.3 4.3 -2 6 C-2.66 5.34 -3.32 4.68 -4 4 C-2.68 2.68 -1.36 1.36 0 0 Z " fill="#3291B3" transform="translate(256,230)"/>
<path d="M0 0 C1.11375 0.598125 2.2275 1.19625 3.375 1.8125 C4.00148438 2.14894531 4.62796875 2.48539063 5.2734375 2.83203125 C7 4 7 4 9 7 C6.83125748 6.49396008 5.00032373 6.00016187 3 5 C3 4.34 3 3.68 3 3 C2.01 2.67 1.02 2.34 0 2 C0 1.34 0 0.68 0 0 Z " fill="#2A7790" transform="translate(564,215)"/>
<path d="M0 0 C0.99 0.33 1.98 0.66 3 1 C2.67 1.99 2.34 2.98 2 4 C1.34 4 0.68 4 0 4 C-1.36161311 4.96113866 -2.69855198 5.95884159 -4 7 C-2.92598892 4.08482708 -2.22189824 2.22189824 0 0 Z " fill="#49ABD3" transform="translate(565,490)"/>
<path d="M0 0 C0.66 0 1.32 0 2 0 C3.03039555 4.53374042 3.17766075 5.64467851 1 10 C0.67 6.7 0.34 3.4 0 0 Z " fill="#2E85A1" transform="translate(174,465)"/>
<path d="M0 0 C2.29633824 3.44450737 2.54016485 5.93812283 3 10 C0.52098038 8.05989769 0.00329768 7.01374033 -0.75 3.875 C-0.8325 2.92625 -0.915 1.9775 -1 1 C-0.67 0.67 -0.34 0.34 0 0 Z " fill="#2E7B96" transform="translate(660,354)"/>
<path d="M0 0 C1.65 0 3.3 0 5 0 C4.67 2.31 4.34 4.62 4 7 C3.34 7 2.68 7 2 7 C2 5.68 2 4.36 2 3 C1.01 3 0.02 3 -1 3 C-0.67 2.01 -0.34 1.02 0 0 Z " fill="#4DAED5" transform="translate(264,314)"/>
<path d="M0 0 C0.66 0.33 1.32 0.66 2 1 C1.2884375 1.61875 1.2884375 1.61875 0.5625 2.25 C-1.16266518 4.182185 -1.56584875 5.48192275 -2 8 C-2.33 7.01 -2.66 6.02 -3 5 C-3.99 4.67 -4.98 4.34 -6 4 C-4.02 2.68 -2.04 1.36 0 0 Z " fill="#47AAD2" transform="translate(304,292)"/>
<path d="M0 0 C0.33 0.99 0.66 1.98 1 3 C-1.25 4.5625 -1.25 4.5625 -4 6 C-5.32 5.67 -6.64 5.34 -8 5 C-4.04 2.525 -4.04 2.525 0 0 Z " fill="#3089A5" transform="translate(287,207)"/>
</svg>
